<svg width="18" height="21" viewBox="0 0 18 21" fill="none" xmlns="http://www.w3.org/2000/svg">
<path d="M8.55479 11.7191C9.24285 11.1522 9.88237 10.5418 10.4371 9.84704C10.5188 9.74402 10.6113 9.76261 10.713 9.78739C12.4651 10.2188 14.0554 8.80371 14.2496 6.93162C14.3806 5.66601 14.0269 4.55297 13.0191 3.72575C11.7408 2.67624 9.9417 2.98296 9.00708 4.4151C8.2281 5.60869 8.17185 6.87586 8.78055 8.15774C8.89998 8.40869 8.88149 8.55663 8.70967 8.75879C8.29205 9.24986 7.84593 9.70917 7.37361 10.1468C7.18484 10.3218 7.08853 10.3211 6.93982 10.1034C5.94048 8.64183 5.71087 7.02767 5.97592 5.31281C6.15776 4.13627 6.52837 3.01472 7.33817 2.13482C8.27587 1.11474 9.46322 0.487353 10.8702 0.402927C11.5182 0.364199 12.1785 0.293715 12.8211 0.467215C14.3297 0.874629 15.4154 1.82578 16.1597 3.17737C17.2522 5.16022 17.2584 7.23835 16.437 9.28084C15.8869 10.6479 14.7758 11.5929 13.4552 12.2179C12.9829 12.4418 12.8165 12.6827 12.8573 13.19C12.9035 13.7531 12.875 14.3239 12.8542 14.8909C12.845 15.1318 12.9143 15.1969 13.1524 15.1899C13.8443 15.169 14.5378 15.1713 15.2304 15.1705C15.7028 15.1698 15.8599 15.3223 15.8623 15.784C15.8661 16.3904 15.8661 16.9961 15.8623 17.6026C15.8592 18.1092 15.7197 18.247 15.2266 18.2517C14.5216 18.2579 13.8158 18.2734 13.1108 18.2656C12.8712 18.2625 12.7718 18.3098 12.8003 18.5793C12.8434 18.9883 12.848 19.4011 12.8588 19.8124C12.8704 20.2531 12.6785 20.4623 12.2555 20.4615C11.6915 20.4607 11.1267 20.4545 10.5635 20.4367C10.1536 20.4243 10.0118 20.274 10.0072 19.8643C10.0033 19.4778 10.001 19.0905 10.0241 18.7048C10.0403 18.4345 9.98485 18.3137 9.67511 18.3214C9.00939 18.3369 8.34214 18.3082 7.67565 18.2958C7.23723 18.2881 7.08853 18.151 7.09546 17.7196C7.10625 17.0759 7.12474 16.4315 7.16327 15.7886C7.18792 15.3797 7.34356 15.2511 7.7527 15.248C8.40686 15.2441 9.06179 15.2387 9.71594 15.2519C9.93323 15.2565 10.0311 15.2286 10.0272 14.9684C10.0164 14.2209 10.0295 13.4727 10.055 12.726C10.0634 12.4728 9.97406 12.3519 9.73906 12.2923C9.31528 12.1846 8.92001 12.0111 8.55479 11.7191Z" fill="white"/>
<path d="M8.55479 11.7191C9.24285 11.1522 9.88237 10.5418 10.4371 9.84704C10.5188 9.74402 10.6113 9.76261 10.713 9.78739C12.4651 10.2188 14.0554 8.80371 14.2496 6.93162C14.3806 5.66601 14.0269 4.55297 13.0191 3.72575C11.7408 2.67624 9.9417 2.98296 9.00708 4.4151C8.2281 5.60869 8.17185 6.87586 8.78055 8.15774C8.89998 8.40869 8.88149 8.55663 8.70967 8.75879C8.29205 9.24986 7.84593 9.70917 7.37361 10.1468C7.18484 10.3218 7.08853 10.3211 6.93982 10.1034C5.94048 8.64183 5.71087 7.02767 5.97592 5.31281C6.15776 4.13627 6.52837 3.01472 7.33817 2.13482C8.27587 1.11474 9.46322 0.487353 10.8702 0.402927C11.5182 0.364199 12.1785 0.293715 12.8211 0.467215C14.3297 0.874629 15.4154 1.82578 16.1597 3.17737C17.2522 5.16022 17.2584 7.23835 16.437 9.28084C15.8869 10.6479 14.7758 11.5929 13.4552 12.2179C12.9829 12.4418 12.8165 12.6827 12.8573 13.19C12.9035 13.7531 12.875 14.3239 12.8542 14.8909C12.845 15.1318 12.9143 15.1969 13.1524 15.1899C13.8443 15.169 14.5378 15.1713 15.2304 15.1705C15.7028 15.1698 15.8599 15.3223 15.8623 15.784C15.8661 16.3904 15.8661 16.9961 15.8623 17.6026C15.8592 18.1092 15.7197 18.247 15.2266 18.2517C14.5216 18.2579 13.8158 18.2734 13.1108 18.2656C12.8712 18.2625 12.7718 18.3098 12.8003 18.5793C12.8434 18.9883 12.848 19.4011 12.8588 19.8124C12.8704 20.2531 12.6785 20.4623 12.2555 20.4615C11.6915 20.4607 11.1267 20.4545 10.5635 20.4367C10.1536 20.4243 10.0118 20.274 10.0072 19.8643C10.0033 19.4778 10.001 19.0905 10.0241 18.7048C10.0403 18.4345 9.98485 18.3137 9.67511 18.3214C9.00939 18.3369 8.34214 18.3082 7.67565 18.2958C7.23723 18.2881 7.08853 18.151 7.09546 17.7196C7.10625 17.0759 7.12474 16.4315 7.16327 15.7886C7.18792 15.3797 7.34356 15.2511 7.7527 15.248C8.40686 15.2441 9.06179 15.2387 9.71594 15.2519C9.93323 15.2565 10.0311 15.2286 10.0272 14.9684C10.0164 14.2209 10.0295 13.4727 10.055 12.726C10.0634 12.4728 9.97406 12.3519 9.73906 12.2923C9.31528 12.1846 8.92001 12.0111 8.55479 11.7191Z" fill="#7D7D7D"/>
<path d="M0.309021 11.7904C0.803684 10.8501 1.31761 9.98335 2.00105 9.22894C2.24684 8.95784 2.53578 8.74871 2.87249 8.61317C3.58751 8.32426 4.25862 8.60465 4.53138 9.32963C4.67547 9.71226 4.75945 10.1173 4.8704 10.5124C5.11773 11.3954 5.64476 11.6603 6.46689 11.2536C7.8561 10.5666 8.82155 9.42335 9.66216 8.15618C9.73767 8.0431 9.69607 7.94473 9.66833 7.82855C9.39557 6.69305 10.0058 5.32752 11.0306 4.76132C12.1501 4.14323 13.2319 4.77139 13.215 6.07419C13.2003 7.19574 12.6872 8.07176 11.7025 8.63563C11.5391 8.72935 11.3326 8.84089 11.1654 8.81533C10.6908 8.74252 10.5012 9.04072 10.2616 9.35441C9.40173 10.4775 8.39854 11.4434 7.12258 12.0878C6.82363 12.2388 6.51003 12.3535 6.17718 12.3922C5.18785 12.5068 4.42043 11.9538 4.17464 10.9438C4.07755 10.5441 4.02054 10.1359 3.92654 9.73549C3.80634 9.22351 3.5174 9.06628 3.01118 9.21654C2.54965 9.35364 2.21679 9.67818 1.89703 10.0128C1.45322 10.4783 1.04716 10.9763 0.664223 11.4937C0.584861 11.5998 0.53709 11.7509 0.309021 11.7904Z" fill="white"/>
<path d="M0.309021 11.7904C0.803684 10.8501 1.31761 9.98335 2.00105 9.22894C2.24684 8.95784 2.53578 8.74871 2.87249 8.61317C3.58751 8.32426 4.25862 8.60465 4.53138 9.32963C4.67547 9.71226 4.75945 10.1173 4.8704 10.5124C5.11773 11.3954 5.64476 11.6603 6.46689 11.2536C7.8561 10.5666 8.82155 9.42335 9.66216 8.15618C9.73767 8.0431 9.69607 7.94473 9.66833 7.82855C9.39557 6.69305 10.0058 5.32752 11.0306 4.76132C12.1501 4.14323 13.2319 4.77139 13.215 6.07419C13.2003 7.19574 12.6872 8.07176 11.7025 8.63563C11.5391 8.72935 11.3326 8.84089 11.1654 8.81533C10.6908 8.74252 10.5012 9.04072 10.2616 9.35441C9.40173 10.4775 8.39854 11.4434 7.12258 12.0878C6.82363 12.2388 6.51003 12.3535 6.17718 12.3922C5.18785 12.5068 4.42043 11.9538 4.17464 10.9438C4.07755 10.5441 4.02054 10.1359 3.92654 9.73549C3.80634 9.22351 3.5174 9.06628 3.01118 9.21654C2.54965 9.35364 2.21679 9.67818 1.89703 10.0128C1.45322 10.4783 1.04716 10.9763 0.664223 11.4937C0.584861 11.5998 0.53709 11.7509 0.309021 11.7904Z" fill="#7D7D7D"/>
</svg>
