<svg width="22" height="22" viewBox="0 0 22 22" fill="none" xmlns="http://www.w3.org/2000/svg">
<path d="M1.82913 13.3599C2.59605 13.5748 3.04651 14.1607 3.48121 14.7656C3.68279 15.0462 3.87931 15.3324 4.14339 15.5613C4.33822 15.7302 4.55557 15.8834 4.8219 15.8357C4.9638 15.8105 5.09274 15.8172 5.22845 15.8301C5.33261 15.8121 5.43397 15.7874 5.50998 15.7061C5.8011 15.6034 5.96326 15.3565 6.14176 15.132C6.40359 14.8032 6.64121 14.4553 6.91149 14.1337C7.28256 13.6927 7.74429 13.3857 8.32876 13.2988C9.25728 13.1607 9.96563 13.5434 10.5422 14.2347C10.8654 14.6219 11.1166 15.0647 11.4696 15.4283C12.0513 16.0282 12.785 16.0248 13.3633 15.4205C13.5693 15.205 13.7467 14.9665 13.8959 14.7084C13.9534 14.6898 13.9815 14.6438 14.0052 14.5933C14.0947 14.4923 14.1099 14.3374 14.2411 14.2662C14.2968 14.0412 14.5119 13.9671 14.6623 13.8352C15.1319 13.4222 15.6854 13.2325 16.3127 13.2769C17.1415 13.3352 17.7007 13.8229 18.1731 14.4463C18.4214 14.774 18.6404 15.1247 18.927 15.4221C19.0453 15.545 19.1579 15.6853 19.3629 15.7195C19.3629 14.292 19.3646 12.8818 19.3623 11.4717C19.3606 10.4874 18.757 9.89482 17.7609 9.89426C15.9326 9.89314 14.1048 9.88977 12.2765 9.89931C12.0434 9.90044 11.982 9.83983 11.9843 9.60696C11.9961 8.2804 11.9865 6.95328 11.9922 5.62617C11.9938 5.29621 11.9145 4.99712 11.7281 4.72945C11.3778 4.22554 10.7292 3.9994 10.1391 4.16774C9.54952 4.33609 9.10806 4.89555 9.10468 5.52123C9.09624 6.87584 9.0923 8.23102 9.1075 9.58563C9.11032 9.85442 9.02473 9.901 8.77923 9.89987C6.93232 9.89034 5.08542 9.89202 3.23852 9.89595C2.39897 9.89763 1.761 10.4795 1.73454 11.2825C1.7137 11.9082 1.72778 12.5345 1.72778 13.1607C1.7289 13.2415 1.71258 13.3268 1.82913 13.3599Z" fill="#7D7D7D"/>
<path d="M1.95072 19.6864C7.67836 19.6825 13.406 19.6825 19.1336 19.687C19.3183 19.687 19.3713 19.6371 19.3685 19.4519C19.3578 18.742 19.3465 18.031 19.3718 17.3218C19.3842 16.9868 19.3476 16.7449 18.9602 16.6843C18.8651 16.6691 18.7795 16.5911 18.6894 16.5418C18.6269 16.4941 18.5638 16.4469 18.5013 16.3992C18.4309 16.3381 18.3577 16.2797 18.2896 16.2157C17.856 15.8089 17.5705 15.2842 17.1854 14.8387C16.5407 14.0929 15.7349 14.0873 15.1043 14.8398C14.8402 15.1546 14.6087 15.4963 14.3554 15.8201C14.0344 16.2309 13.6628 16.5838 13.1566 16.7584C12.1943 17.09 11.2815 16.8021 10.5608 15.9301C10.2933 15.6063 10.0591 15.255 9.79667 14.9262C9.11196 14.0682 8.28254 14.0576 7.58714 14.9021C7.27857 15.2769 7.00604 15.6821 6.69128 16.0513C6.19521 16.6321 5.56118 16.9284 4.78413 16.8846C4.5375 16.8324 4.29087 16.7797 4.04368 16.7275C3.58027 16.4525 3.19399 16.0962 2.87867 15.6591C2.66583 15.3639 2.44679 15.0727 2.2148 14.7921C2.09036 14.6417 1.95522 14.4857 1.74575 14.4386C1.74575 15.7898 1.74575 17.1237 1.74575 18.4581C1.74575 18.5002 1.74632 18.5423 1.74632 18.5849C1.74069 18.8806 1.74406 19.1769 1.72548 19.4715C1.71366 19.6522 1.78404 19.687 1.95072 19.6864ZM18.2857 16.7247C18.2851 16.7247 18.2851 16.7247 18.2857 16.7247C18.2851 16.7253 18.2851 16.7253 18.2851 16.7253C18.2851 16.7247 18.2851 16.7241 18.2857 16.7247C18.2857 16.7241 18.2857 16.7241 18.2857 16.7247ZM18.2823 16.7269V16.7275C18.2817 16.7281 18.2817 16.7281 18.2811 16.7286C18.2806 16.7286 18.28 16.7286 18.2795 16.7286C18.2806 16.7281 18.2811 16.7275 18.2823 16.7269Z" fill="#7D7D7D"/>
<path d="M21.0545 21.7762C21.0354 21.4221 21.0438 21.0663 21.0405 20.7117C20.9352 20.6516 20.8197 20.6831 20.7099 20.6825C16.4435 20.6808 12.1765 20.6808 7.91 20.6803C7.78894 20.6803 7.66619 20.6943 7.54569 20.6578C7.50008 20.6786 7.45447 20.6976 7.40942 20.71C7.35649 20.71 7.30356 20.71 7.25007 20.71C7.24951 20.7117 7.24838 20.7128 7.24782 20.7139C7.20728 20.7021 7.1673 20.678 7.12788 20.6376C6.93925 20.5966 6.75907 20.6819 6.57269 20.6808C4.48366 20.6707 2.39464 20.701 0.306173 20.664C0.123172 20.6606 -0.0187241 20.7526 0.00210989 20.9143C0.0488455 21.2745 -0.0316749 21.6393 0.0572917 21.995C1.7409 21.9933 3.42395 21.9917 5.10755 21.9894C5.18638 21.99 5.26522 21.9905 5.34348 21.9911L5.36601 21.9956L5.3874 21.9877C5.44709 21.99 5.50678 21.9922 5.56646 21.9945C9.07276 21.9956 12.5791 21.9967 16.0859 21.9973C17.6609 21.9978 19.2363 21.995 20.8113 22.0001C20.9836 22.0018 21.0652 21.9737 21.0545 21.7762Z" fill="#7D7D7D"/>
<path d="M10.2952 3.47588C11.155 3.72222 11.708 2.72899 11.5627 2.07918C11.3943 1.32443 10.9664 0.68304 10.5475 0.00012207C10.1195 0.687529 9.70342 1.33958 9.51929 2.09994C9.39091 2.6291 9.79689 3.33334 10.2952 3.47588Z" fill="#7D7D7D"/>
</svg>
