<svg width="19" height="21" viewBox="0 0 19 21" fill="none" xmlns="http://www.w3.org/2000/svg">
<path d="M5.3505 16.3889C5.35326 16.9693 5.35325 17.5497 5.3509 18.1302C5.34972 18.369 5.23058 18.4859 4.98522 18.4871C4.41625 18.4902 3.84729 18.4902 3.27832 18.4875C3.0192 18.4859 2.91343 18.3749 2.91225 18.1157C2.91107 17.8286 2.91225 17.5419 2.91225 17.2548C2.91225 16.9614 2.91029 16.6677 2.91264 16.3743C2.91461 16.1575 3.01488 16.0453 3.2335 16.0429C3.82881 16.0367 4.42372 16.0371 5.01903 16.0425C5.24748 16.0449 5.34972 16.1571 5.3505 16.3889Z" fill="#7D7D7D"/>
<path d="M5.3509 13.0243C5.35325 13.6047 5.35325 14.1851 5.3509 14.7652C5.34972 14.9989 5.23372 15.1158 5.00291 15.117C4.42097 15.1193 3.83903 15.1193 3.25709 15.117C3.02471 15.1162 2.91422 15.0017 2.91264 14.7675C2.91068 14.4742 2.91225 14.1804 2.91225 13.8871C2.91225 13.5937 2.91029 13.3004 2.91264 13.007C2.91461 12.7878 3.0137 12.6834 3.23546 12.6823C3.83038 12.6783 4.42569 12.6783 5.02061 12.6823C5.24984 12.6838 5.34972 12.7893 5.3509 13.0243Z" fill="#7D7D7D"/>
<path d="M5.34972 9.62448C5.35443 10.2245 5.35443 10.8242 5.35011 11.4242C5.34854 11.6348 5.23018 11.7454 5.01628 11.7462C4.42805 11.7486 3.83982 11.7486 3.25119 11.7466C3.02471 11.7454 2.91461 11.636 2.91264 11.414C2.91029 11.114 2.91225 10.814 2.91225 10.514C2.91225 10.2206 2.91029 9.92725 2.91304 9.63389C2.915 9.42525 3.01606 9.31818 3.22249 9.317C3.82409 9.31347 4.42569 9.31386 5.0269 9.31661C5.23805 9.31779 5.34814 9.41897 5.34972 9.62448Z" fill="#7D7D7D"/>
<path d="M8.72808 16.3913C8.73083 16.9718 8.73083 17.5522 8.72808 18.1323C8.7269 18.3605 8.60618 18.4852 8.37891 18.4868C7.79697 18.4911 7.21503 18.4915 6.63309 18.4868C6.39796 18.4848 6.29258 18.3707 6.29101 18.1334C6.28865 17.8401 6.29022 17.5463 6.29061 17.253C6.29061 16.9596 6.28825 16.6663 6.2914 16.3729C6.29376 16.1533 6.39127 16.045 6.61304 16.0431C7.20795 16.0372 7.80287 16.0372 8.39779 16.0435C8.62466 16.0458 8.7269 16.1588 8.72808 16.3913Z" fill="#7D7D7D"/>
<path d="M8.72805 13.024C8.73119 13.6044 8.73119 14.1845 8.72805 14.7649C8.72647 15.0041 8.60655 15.1167 8.36001 15.1175C7.79144 15.119 7.22247 15.119 6.6539 15.1175C6.39596 15.1167 6.29216 15.01 6.29058 14.7488C6.28901 14.4617 6.29019 14.175 6.29058 13.888C6.29058 13.5946 6.28822 13.3012 6.29137 13.0079C6.29334 12.7835 6.3877 12.6835 6.61144 12.6824C7.20635 12.6784 7.80127 12.6788 8.39618 12.6824C8.62503 12.6835 8.72647 12.7894 8.72805 13.024Z" fill="#7D7D7D"/>
<path d="M8.72771 9.64478C8.73164 10.2327 8.73164 10.8206 8.72771 11.4085C8.72614 11.632 8.60896 11.7453 8.3868 11.7461C7.79739 11.7485 7.20798 11.7489 6.61857 11.7461C6.40152 11.745 6.29339 11.6371 6.29143 11.423C6.28789 11.1226 6.29025 10.8217 6.29064 10.5213C6.29064 10.2276 6.28828 9.93343 6.29143 9.63968C6.29339 9.41613 6.39012 9.3173 6.61425 9.31651C7.21034 9.31377 7.80604 9.31377 8.40214 9.31651C8.61958 9.31769 8.72614 9.42319 8.72771 9.64478Z" fill="#7D7D7D"/>
<path d="M9.66574 11.4223C9.66142 10.8278 9.66181 10.2336 9.66574 9.63902C9.66731 9.41194 9.76483 9.319 9.99092 9.31664C10.2921 9.31311 10.5937 9.31547 10.8949 9.31547C11.1831 9.31547 11.4713 9.3139 11.7592 9.31625C11.99 9.31821 12.1032 9.42136 12.1044 9.64608C12.1087 10.2336 12.1087 10.8215 12.1048 11.4094C12.1032 11.6321 11.9849 11.7455 11.7627 11.7463C11.1733 11.7486 10.5839 11.7486 9.99446 11.7463C9.77741 11.7455 9.66731 11.6404 9.66574 11.4223Z" fill="#7D7D7D"/>
<path d="M12.1043 16.3741C12.1086 16.9675 12.109 17.5609 12.1043 18.1543C12.1028 18.3582 11.9781 18.4841 11.7717 18.4861C11.1768 18.4919 10.5818 18.4919 9.98693 18.4861C9.77696 18.4841 9.66883 18.3649 9.66529 18.1507C9.66057 17.8507 9.66411 17.5507 9.6645 17.2507C9.6645 16.9573 9.66096 16.6639 9.66568 16.3706C9.66922 16.1494 9.7687 16.0451 9.99047 16.0431C10.5854 16.038 11.1803 16.0376 11.7752 16.0435C11.9903 16.0455 12.1028 16.1612 12.1043 16.3741Z" fill="#7D7D7D"/>
<path d="M9.66576 14.7859C9.66183 14.1917 9.66183 13.5972 9.66615 13.0026C9.66772 12.7775 9.76603 12.6849 9.99408 12.6818C10.2886 12.6779 10.5835 12.681 10.878 12.681C11.1662 12.681 11.4544 12.679 11.7427 12.6814C11.999 12.6837 12.104 12.7841 12.1052 13.0355C12.1079 13.6105 12.1083 14.185 12.1052 14.76C12.104 15.0008 11.9833 15.1165 11.7399 15.1173C11.1635 15.1189 10.587 15.1192 10.0106 15.1169C9.78372 15.1161 9.66733 15.0079 9.66576 14.7859Z" fill="#7D7D7D"/>
<path d="M15.4828 13.8949C15.4828 14.1753 15.4848 14.4557 15.482 14.7361C15.4797 15.002 15.3641 15.1169 15.1006 15.1173C14.5383 15.1185 13.9757 15.1185 13.4134 15.1173C13.1491 15.1169 13.0304 15.0024 13.0288 14.7377C13.0261 14.1769 13.0265 13.6164 13.0288 13.0556C13.03 12.7893 13.1338 12.6826 13.3917 12.6814C13.967 12.6791 14.5423 12.6795 15.1175 12.6814C15.3794 12.6826 15.4797 12.7858 15.482 13.0536C15.4848 13.334 15.4828 13.6145 15.4828 13.8949Z" fill="#7D7D7D"/>
<path d="M15.4813 9.65855C15.4856 10.239 15.486 10.8194 15.4813 11.3999C15.4793 11.634 15.3613 11.7446 15.1286 11.7466C14.8345 11.7489 14.5403 11.747 14.2462 11.747C13.9647 11.7474 13.6835 11.7481 13.4024 11.747C13.1543 11.7458 13.032 11.6391 13.03 11.3995C13.0245 10.819 13.0249 10.2386 13.0297 9.65816C13.0316 9.42088 13.1445 9.31656 13.3827 9.31617C13.9647 9.31421 14.5466 9.31421 15.1286 9.31617C15.3688 9.31695 15.4797 9.4201 15.4813 9.65855Z" fill="#7D7D7D"/>
<path d="M18.3264 11.7285C18.3264 9.14751 18.3272 6.5669 18.326 3.98628C18.326 3.17484 17.7606 2.61362 16.9439 2.61205C16.1315 2.61009 15.3192 2.6046 14.5068 2.61636C14.3185 2.61911 14.2788 2.5591 14.2866 2.38732C14.2996 2.12024 14.2988 1.85159 14.2843 1.58451C14.2615 1.17232 13.9367 0.87935 13.534 0.889155C13.1353 0.898568 12.8251 1.21232 12.8176 1.62059C12.8125 1.88846 12.8058 2.15671 12.8204 2.4238C12.8286 2.58381 12.774 2.61558 12.6238 2.61479C11.3203 2.60891 10.0165 2.61166 8.71299 2.61166C7.71071 2.61166 6.70844 2.60773 5.70617 2.61558C5.5481 2.61675 5.50642 2.57204 5.51428 2.41987C5.52687 2.1724 5.519 1.92375 5.51704 1.6755C5.51389 1.21899 5.21781 0.896999 4.7959 0.889155C4.36456 0.880919 4.05275 1.20095 4.0441 1.66648C4.03977 1.92101 4.03466 2.17632 4.04685 2.43086C4.05353 2.57754 4.01068 2.61675 3.86204 2.61519C3.05008 2.60734 2.23694 2.63087 1.42537 2.60617C0.602 2.58107 -0.00235233 3.23877 6.88326e-06 4.02942C0.0141622 9.17771 0.0133758 14.326 0.000400086 19.4743C-0.00117273 20.2536 0.598461 20.8897 1.41593 20.8877C6.5779 20.8771 11.7399 20.8764 16.9018 20.8889C17.739 20.8909 18.3394 20.2489 18.3335 19.4704C18.315 16.8897 18.3268 14.3091 18.3264 11.7285ZM12.8168 3.90196C12.8168 4.2616 12.8129 4.60242 12.818 4.94284C12.8223 5.25188 13.0131 5.51622 13.2938 5.61858C13.7617 5.78958 14.2438 5.48367 14.2831 4.98402C14.2969 4.80871 14.2894 4.63183 14.2902 4.45574C14.291 4.28121 14.2906 4.10669 14.2906 3.90196C14.7479 4.22317 14.9413 4.8091 14.7774 5.30993C14.6032 5.84056 14.0987 6.21118 13.5517 6.2104C13.0032 6.20961 12.4948 5.83429 12.3285 5.30679C12.1669 4.79498 12.358 4.21807 12.8168 3.90196ZM4.04331 3.90157C4.04331 4.1514 4.04292 4.38161 4.0437 4.61183C4.0441 4.73576 4.03977 4.86008 4.05 4.98323C4.08185 5.37974 4.40506 5.67663 4.79158 5.66996C5.18478 5.66329 5.50838 5.34366 5.51586 4.94362C5.52175 4.60634 5.51704 4.26827 5.51704 3.90275C5.97472 4.21454 6.16661 4.79224 6.005 5.30601C5.83907 5.83389 5.33223 6.20883 4.78293 6.2104C4.23677 6.21197 3.73111 5.84095 3.55692 5.31071C3.39256 4.80988 3.58484 4.22552 4.04331 3.90157ZM17.2089 18.8044C17.2089 19.3625 16.9223 19.6512 16.3651 19.6512C11.583 19.6519 6.80084 19.6492 2.0191 19.6551C1.44699 19.6559 1.17568 19.2617 1.17726 18.8236C1.18945 15.3677 1.18551 11.9117 1.17962 8.45569C1.17922 8.26822 1.22169 8.22116 1.41239 8.22155C4.00635 8.22861 6.60031 8.22626 9.19466 8.22626C11.7953 8.22626 14.3959 8.22822 16.9962 8.22233C17.1684 8.22194 17.2136 8.26155 17.2136 8.43608C17.2077 11.8925 17.2097 15.3484 17.2089 18.8044Z" fill="#7D7D7D"/>
<path d="M5.3505 16.3889C5.35326 16.9693 5.35325 17.5497 5.3509 18.1302C5.34972 18.369 5.23058 18.4859 4.98522 18.4871C4.41625 18.4902 3.84729 18.4902 3.27832 18.4875C3.0192 18.4859 2.91343 18.3749 2.91225 18.1157C2.91107 17.8286 2.91225 17.5419 2.91225 17.2548C2.91225 16.9614 2.91029 16.6677 2.91264 16.3743C2.91461 16.1575 3.01488 16.0453 3.2335 16.0429C3.82881 16.0367 4.42372 16.0371 5.01903 16.0425C5.24748 16.0449 5.34972 16.1571 5.3505 16.3889Z" fill="#7D7D7D"/>
<path d="M5.3509 13.0243C5.35325 13.6047 5.35325 14.1851 5.3509 14.7652C5.34972 14.9989 5.23372 15.1158 5.00291 15.117C4.42097 15.1193 3.83903 15.1193 3.25709 15.117C3.02471 15.1162 2.91422 15.0017 2.91264 14.7675C2.91068 14.4742 2.91225 14.1804 2.91225 13.8871C2.91225 13.5937 2.91029 13.3004 2.91264 13.007C2.91461 12.7878 3.0137 12.6834 3.23546 12.6823C3.83038 12.6783 4.42569 12.6783 5.02061 12.6823C5.24984 12.6838 5.34972 12.7893 5.3509 13.0243Z" fill="#7D7D7D"/>
<path d="M5.34972 9.62448C5.35443 10.2245 5.35443 10.8242 5.35011 11.4242C5.34854 11.6348 5.23018 11.7454 5.01628 11.7462C4.42805 11.7486 3.83982 11.7486 3.25119 11.7466C3.02471 11.7454 2.91461 11.636 2.91264 11.414C2.91029 11.114 2.91225 10.814 2.91225 10.514C2.91225 10.2206 2.91029 9.92725 2.91304 9.63389C2.915 9.42525 3.01606 9.31818 3.22249 9.317C3.82409 9.31347 4.42569 9.31386 5.0269 9.31661C5.23805 9.31779 5.34814 9.41897 5.34972 9.62448Z" fill="#7D7D7D"/>
<path d="M8.72808 16.3913C8.73083 16.9718 8.73083 17.5522 8.72808 18.1323C8.7269 18.3605 8.60618 18.4852 8.37891 18.4868C7.79697 18.4911 7.21503 18.4915 6.63309 18.4868C6.39796 18.4848 6.29258 18.3707 6.29101 18.1334C6.28865 17.8401 6.29022 17.5463 6.29061 17.253C6.29061 16.9596 6.28825 16.6663 6.2914 16.3729C6.29376 16.1533 6.39127 16.045 6.61304 16.0431C7.20795 16.0372 7.80287 16.0372 8.39779 16.0435C8.62466 16.0458 8.7269 16.1588 8.72808 16.3913Z" fill="#7D7D7D"/>
<path d="M8.72805 13.024C8.73119 13.6044 8.73119 14.1845 8.72805 14.7649C8.72647 15.0041 8.60655 15.1167 8.36001 15.1175C7.79144 15.119 7.22247 15.119 6.6539 15.1175C6.39596 15.1167 6.29216 15.01 6.29058 14.7488C6.28901 14.4617 6.29019 14.175 6.29058 13.888C6.29058 13.5946 6.28822 13.3012 6.29137 13.0079C6.29334 12.7835 6.3877 12.6835 6.61144 12.6824C7.20635 12.6784 7.80127 12.6788 8.39618 12.6824C8.62503 12.6835 8.72647 12.7894 8.72805 13.024Z" fill="#7D7D7D"/>
<path d="M8.72771 9.64478C8.73164 10.2327 8.73164 10.8206 8.72771 11.4085C8.72614 11.632 8.60896 11.7453 8.3868 11.7461C7.79739 11.7485 7.20798 11.7489 6.61857 11.7461C6.40152 11.745 6.29339 11.6371 6.29143 11.423C6.28789 11.1226 6.29025 10.8217 6.29064 10.5213C6.29064 10.2276 6.28828 9.93343 6.29143 9.63968C6.29339 9.41613 6.39012 9.3173 6.61425 9.31651C7.21034 9.31377 7.80604 9.31377 8.40214 9.31651C8.61958 9.31769 8.72614 9.42319 8.72771 9.64478Z" fill="#7D7D7D"/>
<path d="M9.66574 11.4223C9.66142 10.8278 9.66181 10.2336 9.66574 9.63902C9.66731 9.41194 9.76483 9.319 9.99092 9.31664C10.2921 9.31311 10.5937 9.31547 10.8949 9.31547C11.1831 9.31547 11.4713 9.3139 11.7592 9.31625C11.99 9.31821 12.1032 9.42136 12.1044 9.64608C12.1087 10.2336 12.1087 10.8215 12.1048 11.4094C12.1032 11.6321 11.9849 11.7455 11.7627 11.7463C11.1733 11.7486 10.5839 11.7486 9.99446 11.7463C9.77741 11.7455 9.66731 11.6404 9.66574 11.4223Z" fill="#7D7D7D"/>
<path d="M12.1043 16.3741C12.1086 16.9675 12.109 17.5609 12.1043 18.1543C12.1028 18.3582 11.9781 18.4841 11.7717 18.4861C11.1768 18.4919 10.5818 18.4919 9.98693 18.4861C9.77696 18.4841 9.66883 18.3649 9.66529 18.1507C9.66057 17.8507 9.66411 17.5507 9.6645 17.2507C9.6645 16.9573 9.66096 16.6639 9.66568 16.3706C9.66922 16.1494 9.7687 16.0451 9.99047 16.0431C10.5854 16.038 11.1803 16.0376 11.7752 16.0435C11.9903 16.0455 12.1028 16.1612 12.1043 16.3741Z" fill="#7D7D7D"/>
<path d="M9.66576 14.7859C9.66183 14.1917 9.66183 13.5972 9.66615 13.0026C9.66772 12.7775 9.76603 12.6849 9.99408 12.6818C10.2886 12.6779 10.5835 12.681 10.878 12.681C11.1662 12.681 11.4544 12.679 11.7427 12.6814C11.999 12.6837 12.104 12.7841 12.1052 13.0355C12.1079 13.6105 12.1083 14.185 12.1052 14.76C12.104 15.0008 11.9833 15.1165 11.7399 15.1173C11.1635 15.1189 10.587 15.1192 10.0106 15.1169C9.78372 15.1161 9.66733 15.0079 9.66576 14.7859Z" fill="#7D7D7D"/>
<path d="M15.4828 13.8949C15.4828 14.1753 15.4848 14.4557 15.482 14.7361C15.4797 15.002 15.3641 15.1169 15.1006 15.1173C14.5383 15.1185 13.9757 15.1185 13.4134 15.1173C13.1491 15.1169 13.0304 15.0024 13.0288 14.7377C13.0261 14.1769 13.0265 13.6164 13.0288 13.0556C13.03 12.7893 13.1338 12.6826 13.3917 12.6814C13.967 12.6791 14.5423 12.6795 15.1175 12.6814C15.3794 12.6826 15.4797 12.7858 15.482 13.0536C15.4848 13.334 15.4828 13.6145 15.4828 13.8949Z" fill="#7D7D7D"/>
<path d="M13.03 11.3995C13.0245 10.819 13.0249 10.2386 13.0297 9.65816C13.0316 9.42088 13.1445 9.31656 13.3827 9.31617C13.9647 9.31421 14.5466 9.31421 15.1286 9.31617C15.3688 9.31695 15.4797 9.4201 15.4813 9.65855C15.4856 10.239 15.486 10.8194 15.4813 11.3999C15.4793 11.634 15.3613 11.7446 15.1286 11.7466C14.8345 11.7489 14.5403 11.747 14.2462 11.747C13.9647 11.7474 13.6835 11.7481 13.4024 11.747C13.1543 11.7458 13.032 11.6391 13.03 11.3995Z" fill="#7D7D7D"/>
<path d="M15.4813 11.3999C15.4793 11.634 15.3613 11.7446 15.1286 11.7466C14.8345 11.7489 14.5403 11.747 14.2462 11.747C13.9647 11.7474 13.6835 11.7481 13.4024 11.747C13.1543 11.7458 13.032 11.6391 13.03 11.3995C13.0245 10.819 13.0249 10.2386 13.0297 9.65816C13.0316 9.42088 13.1445 9.31656 13.3827 9.31617C13.9647 9.31421 14.5466 9.31421 15.1286 9.31617C15.3688 9.31695 15.4797 9.4201 15.4813 9.65855C15.4856 10.239 15.486 10.8194 15.4813 11.3999Z" fill="#7D7D7D"/>
<path d="M5.3509 18.1302C5.34972 18.369 5.23058 18.4859 4.98522 18.4871C4.41625 18.4902 3.84729 18.4902 3.27832 18.4875C3.0192 18.4859 2.91343 18.3749 2.91225 18.1157C2.91107 17.8286 2.91225 17.5419 2.91225 17.2548C2.91225 16.9614 2.91029 16.6677 2.91264 16.3743C2.91461 16.1575 3.01488 16.0453 3.2335 16.0429C3.82881 16.0367 4.42372 16.0371 5.01903 16.0425C5.24748 16.0449 5.34972 16.1571 5.3505 16.3889C5.35326 16.9693 5.35325 17.5497 5.3509 18.1302Z" fill="#7D7D7D"/>
<path d="M15.4828 13.8949C15.4828 14.1753 15.4848 14.4557 15.482 14.7361C15.4797 15.002 15.3641 15.1169 15.1006 15.1173C14.5383 15.1185 13.9757 15.1185 13.4134 15.1173C13.1491 15.1169 13.0304 15.0024 13.0288 14.7377C13.0261 14.1769 13.0265 13.6164 13.0288 13.0556C13.03 12.7893 13.1338 12.6826 13.3917 12.6814C13.967 12.6791 14.5423 12.6795 15.1175 12.6814C15.3794 12.6826 15.4797 12.7858 15.482 13.0536C15.4848 13.334 15.4828 13.6145 15.4828 13.8949Z" fill="#7D7D7D"/>
<path d="M8.72808 18.1323C8.7269 18.3605 8.60618 18.4852 8.37891 18.4868C7.79697 18.4911 7.21503 18.4915 6.63309 18.4868C6.39796 18.4848 6.29258 18.3707 6.29101 18.1334C6.28865 17.8401 6.29022 17.5463 6.29061 17.253C6.29061 16.9596 6.28825 16.6663 6.2914 16.3729C6.29376 16.1533 6.39127 16.045 6.61304 16.0431C7.20795 16.0372 7.80287 16.0372 8.39779 16.0435C8.62466 16.0458 8.7269 16.1588 8.72808 16.3913C8.73083 16.9718 8.73083 17.5522 8.72808 18.1323Z" fill="#7D7D7D"/>
<path d="M12.1043 18.1543C12.1028 18.3582 11.9781 18.4841 11.7717 18.4861C11.1768 18.4919 10.5818 18.4919 9.98693 18.4861C9.77696 18.4841 9.66883 18.3649 9.66529 18.1507C9.66057 17.8507 9.66411 17.5507 9.6645 17.2507C9.6645 16.9573 9.66096 16.6639 9.66568 16.3706C9.66922 16.1494 9.7687 16.0451 9.99047 16.0431C10.5854 16.038 11.1803 16.0376 11.7752 16.0435C11.9903 16.0455 12.1028 16.1612 12.1043 16.3741C12.1086 16.9675 12.109 17.5609 12.1043 18.1543Z" fill="#7D7D7D"/>
<path d="M5.3509 14.7652C5.34972 14.9989 5.23372 15.1158 5.00291 15.117C4.42097 15.1193 3.83903 15.1193 3.25709 15.117C3.02471 15.1162 2.91422 15.0017 2.91264 14.7675C2.91068 14.4742 2.91225 14.1804 2.91225 13.8871C2.91225 13.5937 2.91029 13.3004 2.91264 13.007C2.91461 12.7878 3.0137 12.6834 3.23546 12.6823C3.83038 12.6783 4.42569 12.6783 5.02061 12.6823C5.24984 12.6838 5.34972 12.7893 5.3509 13.0243C5.35325 13.6047 5.35325 14.1851 5.3509 14.7652Z" fill="#7D7D7D"/>
<path d="M8.72771 11.4085C8.72614 11.632 8.60896 11.7453 8.3868 11.7461C7.79739 11.7485 7.20798 11.7489 6.61857 11.7461C6.40152 11.745 6.29339 11.6371 6.29143 11.423C6.28789 11.1226 6.29025 10.8217 6.29064 10.5213C6.29064 10.2276 6.28828 9.93343 6.29143 9.63968C6.29339 9.41613 6.39012 9.3173 6.61425 9.31651C7.21034 9.31377 7.80604 9.31377 8.40214 9.31651C8.61958 9.31769 8.72614 9.42319 8.72771 9.64478C8.73164 10.2327 8.73164 10.8206 8.72771 11.4085Z" fill="#7D7D7D"/>
<path d="M5.35011 11.4242C5.34854 11.6348 5.23018 11.7454 5.01628 11.7462C4.42805 11.7486 3.83982 11.7486 3.25119 11.7466C3.02471 11.7454 2.91461 11.636 2.91264 11.414C2.91029 11.114 2.91225 10.814 2.91225 10.514C2.91225 10.2206 2.91029 9.92725 2.91304 9.63389C2.915 9.42525 3.01606 9.31818 3.22249 9.317C3.82409 9.31347 4.42569 9.31386 5.0269 9.31661C5.23805 9.31779 5.34814 9.41897 5.34972 9.62448C5.35443 10.2245 5.35443 10.8242 5.35011 11.4242Z" fill="#7D7D7D"/>
<path d="M12.1048 11.4094C12.1032 11.6321 11.9849 11.7455 11.7627 11.7463C11.1733 11.7486 10.5839 11.7486 9.99446 11.7463C9.77741 11.7455 9.66731 11.6404 9.66574 11.4223C9.66142 10.8278 9.66181 10.2336 9.66574 9.63902C9.66731 9.41194 9.76483 9.319 9.99092 9.31664C10.2921 9.31311 10.5937 9.31547 10.8949 9.31547C11.1831 9.31547 11.4713 9.3139 11.7592 9.31625C11.99 9.31821 12.1032 9.42136 12.1044 9.64608C12.1087 10.2336 12.1087 10.8215 12.1048 11.4094Z" fill="#7D7D7D"/>
<path d="M8.72805 14.7649C8.72647 15.0041 8.60655 15.1167 8.36001 15.1175C7.79144 15.119 7.22247 15.119 6.6539 15.1175C6.39596 15.1167 6.29216 15.01 6.29058 14.7488C6.28901 14.4617 6.29019 14.175 6.29058 13.888C6.29058 13.5946 6.28822 13.3012 6.29137 13.0079C6.29334 12.7835 6.3877 12.6835 6.61144 12.6824C7.20635 12.6784 7.80127 12.6788 8.39618 12.6824C8.62503 12.6835 8.72647 12.7894 8.72805 13.024C8.73119 13.6044 8.73119 14.1845 8.72805 14.7649Z" fill="#7D7D7D"/>
<path d="M12.1052 14.76C12.104 15.0008 11.9833 15.1165 11.7399 15.1173C11.1635 15.1189 10.587 15.1192 10.0106 15.1169C9.78372 15.1161 9.66733 15.0079 9.66576 14.7859C9.66183 14.1917 9.66183 13.5972 9.66615 13.0026C9.66772 12.7775 9.76603 12.6849 9.99408 12.6818C10.2886 12.6779 10.5835 12.681 10.878 12.681C11.1662 12.681 11.4544 12.679 11.7427 12.6814C11.999 12.6837 12.104 12.7841 12.1052 13.0355C12.1079 13.6105 12.1083 14.185 12.1052 14.76Z" fill="#7D7D7D"/>
</svg>
