<svg width="46" height="31" viewBox="0 0 46 31" fill="none" xmlns="http://www.w3.org/2000/svg">
<path d="M17.081 9.87556C17.081 8.37545 17.1286 6.87335 17.0672 5.37522C17.0087 3.95531 15.9134 2.87009 14.5645 2.41956C12.7671 1.81852 10.3169 3.25823 10.206 5.49998C10.1951 5.71287 10.1228 5.87031 9.97129 6.01884C9.40481 6.57135 8.84923 7.13377 8.28671 7.69124C8.1956 7.78233 8.10349 7.93086 7.96881 7.88927C7.80936 7.83976 7.8767 7.66054 7.88066 7.54073C7.91434 6.49016 7.82025 5.44255 8.04605 4.39099C8.46794 2.42451 10.3506 0.578826 12.3462 0.156022C14.5418 -0.309359 16.3898 0.267911 17.9109 1.86704C19.0181 3.03049 19.445 4.48506 19.4549 6.06834C19.4638 7.5031 19.4658 8.93786 19.4499 10.3726C19.446 10.6984 19.548 10.9251 19.7787 11.1489C21.3999 12.7203 23.0013 14.3125 24.6334 15.873C24.9632 16.1889 24.9147 16.3543 24.6206 16.6464C21.1137 20.1357 17.6188 23.637 14.1199 27.1353C13.5712 27.6838 13.3801 27.7115 12.6343 27.4085C11.7411 27.0461 10.9636 26.4946 10.2119 25.9084C7.70735 23.9548 5.45133 21.7477 3.56571 19.1832C3.02399 18.4465 2.49316 17.689 2.26241 16.7721C2.16634 16.3929 2.26142 16.1047 2.52881 15.8374C6.10893 12.2609 9.68904 8.68438 13.2602 5.09896C13.491 4.86726 13.6296 4.85934 13.8465 5.09797C14.4903 5.80397 15.1488 6.49709 15.8094 7.18823C15.9609 7.34666 15.9966 7.52093 15.9956 7.72688C15.9916 9.26066 15.9837 10.7944 16.0005 12.3282C16.0045 12.7084 15.8579 12.7599 15.5252 12.7213C14.6368 12.6164 13.9258 13.1144 13.6653 13.9868C13.4553 14.6898 13.8723 15.5067 14.6378 15.8938C15.3202 16.2394 16.2065 16.0126 16.7007 15.3572C16.9731 14.9967 17.1355 14.6096 17.1276 14.1313C17.1048 12.7134 17.1196 11.2945 17.1196 9.87655C17.1068 9.87556 17.0939 9.87556 17.081 9.87556Z" fill="#7D7D7D"/>
<path d="M21.9983 11.73C22.9035 11.8686 23.7076 12.2231 24.4682 12.6736C27.5046 14.4688 29.0526 17.2364 29.6101 20.6277C29.7646 21.5674 29.827 22.5239 29.826 23.4814C29.825 24.527 29.0625 25.3855 28.1078 25.3944C27.1739 25.4033 26.3707 24.5755 26.3628 23.5457C26.3479 21.5347 26.3073 19.5227 26.3796 17.5136C26.4143 16.5502 26.1627 15.8511 25.4358 15.1956C24.2999 14.1718 23.263 13.037 22.1855 11.9488C22.1191 11.8805 22.0607 11.8033 21.9983 11.73Z" fill="#7D7D7D"/>
</svg>
