<svg width="22" height="15" viewBox="0 0 22 15" fill="none" xmlns="http://www.w3.org/2000/svg">
<path d="M0.0933323 9.77266C0.189867 9.42541 0.273592 9.08274 0.231045 8.70703C0.118496 7.71614 0.0320263 6.72118 0.0805225 5.72063C0.113005 5.05512 0.231503 4.39775 0.215488 3.72512C0.192614 2.75507 0.855549 2.02703 1.7294 2.02449C2.256 2.02296 2.7739 2.14498 3.2973 2.17091C4.87251 2.24921 6.4491 2.30056 8.02661 2.28988C8.99379 2.28327 9.96006 2.26802 10.9222 2.13329C11.4561 2.05855 11.9383 1.80181 12.4503 1.65182C13.3731 1.38186 14.311 1.2029 15.2366 1.53387C16.2477 1.89535 17.2766 1.97111 18.3207 1.96551C18.844 1.96297 18.963 1.844 19.0563 1.26391C19.1584 0.630937 19.6625 0.0671101 20.2084 0C19.9105 0.291827 19.6923 0.622294 19.5459 1.00767C19.4004 1.38999 19.5363 1.76215 19.8771 1.92738C20.0295 2.0011 20.1859 2.06669 20.3328 2.15312C20.5391 2.27513 20.7102 2.4302 20.7299 2.72457C20.74 2.87608 20.8063 3.01589 20.8992 3.13282C21.0602 3.33517 21.1769 3.57717 21.1815 3.83646C21.1888 4.22438 21.3736 4.50044 21.5571 4.78973C21.6623 4.95547 21.7607 5.12579 21.8641 5.29306C22.0805 5.64335 22.0384 5.93314 21.7383 6.20057C21.5763 6.34496 21.423 6.37394 21.246 6.22395C20.9729 5.99364 20.6695 5.81926 20.3543 5.6708C19.8295 5.42473 19.2878 5.27424 18.7137 5.35305C17.8856 5.46642 17.2972 6.00483 16.8122 6.70949C16.572 7.05826 16.3552 7.42634 16.1214 7.7802C15.7828 8.29318 15.3862 8.7355 14.8266 9.05834C14.9428 8.74973 15.0366 8.48689 15.1409 8.22862C15.2096 8.05779 15.2462 7.89815 15.0563 7.80409C14.8747 7.71461 14.7923 7.85646 14.7292 8.01102C14.5132 8.54027 14.3165 9.07868 14.177 9.63894C14.0781 10.0365 13.9898 10.4371 14.0644 10.8612C14.0946 11.032 14.0685 11.2135 14.0475 11.3914C14.01 11.7026 13.853 11.9934 13.8572 12.2974C13.87 13.2004 13.9281 14.1007 14.6889 14.779C14.4126 14.779 14.2003 14.7678 13.9898 14.783C13.8576 14.7927 13.7968 14.7378 13.7652 14.6051C13.708 14.3631 13.6138 14.1429 13.423 13.9945C13.2395 13.8511 13.2102 13.662 13.2665 13.4363C13.5026 12.4876 13.477 11.5348 13.315 10.5754C13.2061 9.92925 12.9623 9.32017 12.9042 8.66076C12.8241 7.7502 12.9426 6.90726 13.5662 6.23514C13.6746 6.11821 13.7108 5.98856 13.6023 5.85892C13.4943 5.72978 13.3667 5.75673 13.2574 5.864C13.0679 6.05008 12.9147 6.26971 12.7921 6.51629C12.3936 7.31704 12.3501 8.17066 12.4993 9.04716C12.5308 9.23069 12.5134 9.31 12.3364 9.3705C11.4895 9.65928 10.6267 9.84688 9.74274 9.88603C8.78151 9.92874 7.84086 9.7996 6.99538 9.24289C6.36492 8.82752 5.718 8.4696 5.00016 8.29166C4.87938 8.26166 4.8867 8.21641 4.91232 8.10609C4.97957 7.81629 4.98689 7.52193 4.92513 7.22654C4.89082 7.06232 4.82905 6.92912 4.65428 6.95912C4.48042 6.98911 4.4365 7.13401 4.47265 7.30178C4.59846 7.89357 4.40082 8.38012 4.07553 8.82142C3.81566 9.17375 3.48533 9.43812 3.11704 9.62369C2.719 9.82401 2.50671 10.158 2.41338 10.6115C2.35528 10.8917 2.28208 11.1698 2.13293 11.4057C1.95175 11.6914 1.85979 12 1.83417 12.3462C1.77378 13.1592 1.84378 13.9218 2.44312 14.5034C2.45502 14.5146 2.45181 14.5451 2.45822 14.5822C2.12835 14.5822 1.80809 14.5807 1.48829 14.5822C1.2147 14.5842 1.19914 14.5659 1.28378 14.2721C1.346 14.0565 1.47868 13.8679 1.48738 13.6325C1.50751 13.057 1.4979 12.4835 1.42698 11.9105C1.3762 11.5023 1.23346 11.0879 1.33457 10.6812C1.54365 9.84027 1.49698 9.00801 1.23025 8.21641C0.672087 6.56357 0.724701 4.93412 1.2481 3.29551C1.29613 3.14553 1.28424 3.00419 1.1296 2.93912C0.98045 2.87608 0.88117 2.95488 0.823524 3.10842C0.799734 3.17044 0.778229 3.23349 0.760843 3.29755C0.358232 4.75109 0.190325 6.21429 0.61627 7.70089C0.637316 7.7741 0.647381 7.84782 0.623133 7.92408C0.450651 8.45994 0.429148 9.01614 0.452938 9.5759C0.473068 10.0457 0.333984 10.4626 0.156469 10.8845C-0.0736599 10.5134 -0.00960732 10.1433 0.0933323 9.77266ZM17.7927 2.82778C18.0393 3.40025 18.6299 4.02762 19.4178 3.79731C19.469 3.78257 19.5203 3.76478 19.5678 3.73885C19.6918 3.67174 19.7563 3.56751 19.7014 3.41092C19.6479 3.25789 19.5472 3.2223 19.4077 3.26348C18.9703 3.39211 18.7608 3.33364 18.4675 3.00369C18.6505 2.95844 18.802 2.88268 18.9456 2.7866C19.0376 2.72559 19.1405 2.65339 19.243 2.67729C19.4804 2.73321 19.5074 2.54256 19.5774 2.37834C19.6369 2.23853 19.62 2.18464 19.474 2.1704C19.2325 2.146 18.9941 2.16328 18.791 2.30767C18.5576 2.47341 18.3197 2.51815 18.0521 2.47443C17.8339 2.43884 17.7007 2.61475 17.7927 2.82778Z" fill="#7D7D7D"/>
<path d="M3.66232 9.87479C3.80232 9.96376 3.92127 10.0365 4.0384 10.1132C4.27036 10.2658 4.37787 10.4884 4.34127 10.7904C4.33532 10.8408 4.33029 10.8911 4.32937 10.9419C4.328 11.005 4.29735 11.0914 4.38016 11.1112C4.46571 11.1321 4.47029 11.0426 4.48539 10.9801C4.51284 10.8662 4.53709 10.7518 4.60205 10.6542C4.88617 10.2246 5.60858 10.2703 5.84649 10.732C5.87714 10.7909 5.88538 10.9043 5.97871 10.8677C6.08668 10.825 6.02995 10.7198 6.00341 10.6547C5.85244 10.2805 5.9691 9.99071 6.21021 9.72176C6.4408 9.4645 6.43577 9.45586 6.14158 9.29012C5.72204 9.05371 5.28558 8.86865 4.8212 8.77154C4.76401 8.75934 4.70545 8.70901 4.66016 8.79188C4.41447 9.23928 4.05944 9.56669 3.66232 9.87479Z" fill="#7D7D7D"/>
<path d="M3.22766 10.1703C3.42897 11.2212 3.44178 12.2721 3.5955 13.3036C3.62296 13.4892 3.69112 13.6336 3.84027 13.7348C4.01687 13.8542 4.10929 14.054 4.18661 14.2564C4.23236 14.3764 4.28269 14.4186 4.40713 14.3921C4.61484 14.3484 4.82804 14.3352 5.03942 14.3087C5.06229 14.2391 5.0051 14.2223 4.97308 14.1954C4.24746 13.5853 4.0791 12.7113 4.05164 11.7758C4.04707 11.6248 4.06857 11.4886 3.95831 11.3595C3.82518 11.2034 3.85537 10.9934 3.88374 10.8028C3.90433 10.6634 3.87093 10.5816 3.76021 10.516C3.58773 10.4138 3.42165 10.2974 3.22766 10.1703Z" fill="#7D7D7D"/>
<path d="M15.6729 14.0687C15.1614 13.5354 14.9413 12.9131 14.8274 12.2283C14.7405 11.7062 14.8585 11.2039 14.9171 10.6959C14.9606 10.3197 15.0059 9.94503 14.9976 9.56067C14.6206 9.70099 14.4202 10.095 14.4953 10.6187C14.5708 11.1444 14.4637 11.6355 14.3594 12.1393C14.2272 12.7789 14.3672 13.3895 14.6151 13.9732C14.6549 14.0672 14.7254 14.0708 14.805 14.0698C15.0708 14.0672 15.3366 14.0687 15.6729 14.0687Z" fill="#7D7D7D"/>
<path d="M20.7234 0.711792C20.4361 0.777885 20.131 0.803814 19.9818 1.15106C19.9429 1.24156 19.8986 1.35188 20.0033 1.42052C20.1044 1.4861 20.12 1.3529 20.1625 1.30206C20.3373 1.09208 20.5345 0.909055 20.7234 0.711792Z" fill="#7D7D7D"/>
</svg>
