<svg width="22" height="26" viewBox="0 0 22 26" fill="none" xmlns="http://www.w3.org/2000/svg">
<path d="M13.0332 12.4483C13.0544 12.4534 13.0742 12.463 13.1247 12.4818C12.6344 12.9711 12.1618 13.4507 11.6806 13.9211C10.9815 14.6049 10.3325 15.341 9.58896 15.9781C8.83075 16.6269 7.65352 16.6909 6.82809 16.1097C6.03653 15.5519 5.53005 14.8198 5.58514 13.7936C5.61951 13.1646 5.89702 12.647 6.32414 12.204C6.64612 11.8697 6.98023 11.5476 7.30373 11.2153C7.38158 11.1356 7.45083 11.101 7.56658 11.129C9.38829 11.5715 11.211 12.0089 13.0332 12.4483Z" fill="#7D7D7D"/>
<path d="M21.7948 4.01547C21.1802 1.84567 19.7128 0.51209 17.5059 0.0899165C16.0588 -0.186452 14.7314 0.172726 13.6295 1.18879C12.9977 1.77201 12.3997 2.39333 11.8012 3.01262C11.6334 3.18636 11.5429 3.21888 11.3655 3.01922C10.5734 2.1256 9.49933 2.73676 9.21879 3.5999C9.05451 4.10641 9.27591 4.50623 9.64945 4.83238C9.78694 4.95279 9.80311 5.02798 9.65804 5.16616C9.23042 5.5736 8.81947 5.99831 8.40347 6.41846C6.82944 8.00758 5.23722 9.57993 3.68998 11.195C2.9065 12.0134 2.60929 13.0381 2.73768 14.1776C2.79227 14.6577 2.81501 15.1342 2.60373 15.594C2.4344 15.9633 2.14577 16.2367 1.90163 16.5466C1.09541 17.5702 0.985725 18.8337 1.8521 19.8838C1.94713 19.9996 1.91275 20.0596 1.84603 20.1576C1.25767 21.0193 0.675873 21.8855 0.255829 22.8477C0.0536412 23.311 -0.0792969 23.787 0.0531358 24.2945C0.401403 25.6322 1.63626 26.3033 2.93986 25.8684C3.86437 25.56 4.50126 24.5059 4.3299 23.5518C4.23942 23.0488 4.01095 22.5982 3.76984 22.1542C3.50144 21.6609 3.20574 21.1844 2.88477 20.686C3.13144 20.7332 3.3316 20.8186 3.54997 20.8369C4.49469 20.9156 5.24531 20.5244 5.89483 19.8803C6.39424 19.3849 6.99321 19.2285 7.67509 19.3346C7.92479 19.3732 8.17601 19.3895 8.42925 19.3824C9.5519 19.3524 10.4521 18.8545 11.2285 18.0701C13.0932 16.1859 14.9675 14.3117 16.8301 12.4254C16.9858 12.2674 17.0601 12.2623 17.2057 12.43C17.8668 13.189 18.758 12.9832 19.2791 12.113C19.5789 11.6131 19.4611 11.134 18.9551 10.6473C18.8156 10.5127 18.805 10.4385 18.9506 10.2963C19.5192 9.74301 20.0793 9.18062 20.6323 8.61112C21.8995 7.30649 22.2841 5.74023 21.7948 4.01547ZM13.1458 3.27019C13.3985 3.25495 13.6528 3.49728 13.6619 3.76196C13.6705 4.00988 13.444 4.25018 13.1867 4.26644C12.932 4.28269 12.6752 4.03935 12.6711 3.77771C12.6676 3.52827 12.8951 3.28543 13.1458 3.27019ZM15.3663 11.26C13.5304 13.0996 11.6991 14.9437 9.86731 16.7884C9.43918 17.2202 8.95393 17.5286 8.29379 17.5301C8.13001 17.5133 7.93692 17.4986 7.74586 17.4737C6.56407 17.3188 5.54505 17.6668 4.67008 18.4684C4.54574 18.5822 4.41937 18.6945 4.28845 18.8002C3.98416 19.0456 3.67128 19.0364 3.37861 18.7788C3.10667 18.5396 3.03843 18.2058 3.24871 17.8944C3.45494 17.588 3.72031 17.3228 3.93463 17.0211C4.55433 16.1478 4.75399 15.1642 4.60639 14.1141C4.50378 13.3856 4.71962 12.7856 5.22711 12.2755C6.66163 10.8338 8.09665 9.39247 9.53117 7.95068C9.94768 7.53206 10.3677 7.117 10.7772 6.69127C10.8914 6.57239 10.9541 6.54242 11.0885 6.67704C12.5119 8.10563 13.9414 9.52862 15.3754 10.947C15.5073 11.0776 15.4866 11.1401 15.3663 11.26ZM18.8085 2.27902C18.7135 2.40451 18.5983 2.46191 18.4416 2.4614C18.3465 2.46293 18.2591 2.43448 18.1757 2.39282C16.9863 1.79995 15.9046 2.01332 14.9033 2.83328C14.7668 2.94556 14.6303 3.06545 14.4352 3.0365C14.2457 3.00855 14.1087 2.90492 14.0445 2.72101C13.9798 2.53456 14.0354 2.36945 14.1693 2.23431C14.3538 2.04888 14.5601 1.88733 14.7835 1.75219C16.0062 1.01402 17.2653 0.897685 18.5639 1.54187C18.9091 1.71358 19.0062 2.01942 18.8085 2.27902Z" fill="#7D7D7D"/>
<path d="M13.1247 12.4818C12.6344 12.9711 12.1618 13.4507 11.6806 13.9211C10.9815 14.6049 10.3325 15.341 9.58896 15.9781C8.83075 16.6269 7.65352 16.6909 6.82809 16.1097C6.03653 15.5519 5.53005 14.8198 5.58514 13.7936C5.61951 13.1646 5.89702 12.647 6.32414 12.204C6.64612 11.8697 6.98023 11.5476 7.30373 11.2153C7.38158 11.1356 7.45083 11.101 7.56658 11.129C9.38829 11.5715 11.211 12.0089 13.0332 12.4483C13.0544 12.4534 13.0742 12.463 13.1247 12.4818Z" fill="#7D7D7D"/>
<path d="M13.1247 12.4818C12.6344 12.9711 12.1618 13.4507 11.6806 13.9211C10.9815 14.6049 10.3325 15.341 9.58896 15.9781C8.83075 16.6269 7.65352 16.6909 6.82809 16.1097C6.03653 15.5519 5.53005 14.8198 5.58514 13.7936C5.61951 13.1646 5.89702 12.647 6.32414 12.204C6.64612 11.8697 6.98023 11.5476 7.30373 11.2153C7.38158 11.1356 7.45083 11.101 7.56658 11.129C9.38829 11.5715 11.211 12.0089 13.0332 12.4483C13.0544 12.4534 13.0742 12.463 13.1247 12.4818Z" fill="#7D7D7D"/>
</svg>
