<svg width="21" height="20" viewBox="0 0 21 20" fill="none" xmlns="http://www.w3.org/2000/svg">
<path d="M20.6316 9.149C20.0498 8.6021 19.0958 8.7157 18.6686 9.38927C18.6067 9.48679 18.5639 9.55867 18.4269 9.54962C17.8078 9.50891 17.1882 9.47523 16.5681 9.44909C16.4427 9.44356 16.4478 9.37721 16.4352 9.28974C16.2901 8.25074 15.8886 7.32081 15.2222 6.50901C15.1421 6.41199 15.1401 6.36022 15.2303 6.26773C15.6151 5.87113 15.9979 5.47151 16.3651 5.05832C16.4865 4.92209 16.5868 4.88691 16.7661 4.93416C17.56 5.14377 18.3815 4.46216 18.2984 3.677C18.2279 3.00493 17.5333 2.46558 16.8915 2.5842C16.0669 2.73601 15.6272 3.37037 15.8408 4.11834C15.8715 4.22641 15.8529 4.2817 15.7743 4.34755C15.3255 4.72455 14.8777 5.10255 14.4349 5.48608C14.3382 5.56953 14.2722 5.58461 14.1589 5.50167C13.9438 5.34383 13.7141 5.2056 13.4844 5.06887C13.3071 4.96331 13.0149 4.90852 12.9666 4.76577C12.9101 4.60089 13.0663 4.36464 13.1262 4.15805C13.1781 3.97709 13.2456 3.85645 13.4733 3.80869C13.9382 3.71067 14.1941 3.20298 14.04 2.77823C13.8707 2.31176 13.3534 2.08104 12.8925 2.26702C12.4296 2.45401 12.1838 2.97327 12.4472 3.36585C12.6311 3.6398 12.5651 3.82578 12.4372 4.0545C12.3843 4.1485 12.3399 4.24802 12.3006 4.34856C12.2442 4.49181 12.1808 4.55264 12.0024 4.49332C11.7833 4.42044 11.5456 4.38977 11.3139 4.37118C11.1204 4.35509 11.0655 4.27265 11.0595 4.08918C11.0413 3.57093 11.0121 3.05269 10.9713 2.53545C10.9587 2.38063 10.995 2.29769 11.1345 2.21977C11.6272 1.94632 11.8574 1.42757 11.7249 0.933455C11.5738 0.371477 11.0927 0.00201878 10.5094 8.12179e-06C9.91302 -0.00200253 9.42441 0.369466 9.2743 0.940493C9.14485 1.43059 9.37958 1.95135 9.87373 2.22379C10.0188 2.30372 10.042 2.39369 10.0289 2.54349C9.9916 2.95969 9.97145 3.37791 9.94576 3.79512C9.93569 3.95346 9.97095 4.13191 9.90949 4.26612C9.82739 4.44507 9.61028 4.35358 9.45413 4.38424C8.49858 4.57073 7.61254 4.91707 6.83278 5.5077C6.72902 5.58611 6.66756 5.57154 6.5779 5.49413C6.13413 5.1116 5.68532 4.7346 5.23801 4.35559C5.15843 4.28824 5.12417 4.22993 5.16246 4.10627C5.39971 3.34071 4.82849 2.5651 3.92381 2.57867C3.42413 2.58621 3.02266 2.83503 2.80808 3.30402C2.60458 3.74888 2.67963 4.17865 2.99999 4.53957C3.34454 4.92762 3.79033 5.06234 4.29606 4.92159C4.43358 4.88289 4.5046 4.91606 4.59225 5.01207C4.91916 5.37148 5.25363 5.72384 5.58659 6.07772C5.86817 6.37731 5.86817 6.3758 5.61782 6.7161C5.5337 6.83021 5.43396 6.93979 5.37906 7.06747C5.30047 7.25044 5.19318 7.23536 5.04358 7.17554C4.68795 7.03379 4.33132 6.89505 3.97066 6.76738C3.77421 6.69801 3.64224 6.6211 3.59237 6.37882C3.50875 5.96713 3.0957 5.75601 2.62926 5.82689C2.25197 5.88419 1.97946 6.23053 1.99256 6.63668C2.01069 7.21575 2.67963 7.56912 3.21962 7.27004C3.35864 7.19363 3.4483 7.19715 3.58078 7.26903C3.9767 7.48317 4.38018 7.68273 4.78366 7.88228C4.87735 7.92853 4.92369 7.95266 4.87433 8.08184C4.72221 8.47844 4.61139 8.89013 4.56656 9.31437C4.55447 9.42999 4.50611 9.44356 4.40889 9.44808C3.81451 9.47724 3.22012 9.50991 2.62573 9.54711C2.48923 9.55565 2.41165 9.52097 2.33106 9.39178C1.81928 8.57445 0.568045 8.62221 0.129307 9.46718C-0.138671 9.98242 0.0205035 10.6168 0.503065 10.9571C1.04708 11.3411 1.80467 11.2954 2.19102 10.761C2.42223 10.4413 2.66502 10.4393 2.97179 10.4675C3.04734 10.474 3.1224 10.4801 3.19745 10.4861C3.19796 10.4851 3.19796 10.4836 3.19796 10.4821C3.59136 10.5057 3.98426 10.5369 4.37817 10.5489C4.51568 10.5529 4.55296 10.5932 4.5716 10.7294C4.71163 11.7513 5.10856 12.6671 5.76087 13.4669C5.86917 13.5991 5.84298 13.6589 5.73972 13.765C5.3715 14.143 5.00731 14.5255 4.65672 14.9196C4.52676 15.0659 4.42048 15.1196 4.21496 15.0613C3.69865 14.9146 3.11585 15.1905 2.85089 15.6691C2.59601 16.1295 2.68567 16.7025 3.06951 17.069C3.47651 17.458 4.12983 17.5304 4.62499 17.2414C5.09798 16.9659 5.32465 16.4281 5.16699 15.9108C5.12518 15.7731 5.16598 15.7042 5.2627 15.6233C5.68683 15.2689 6.11196 14.9156 6.5235 14.5471C6.66505 14.4209 6.75672 14.433 6.90079 14.5381C7.73948 15.1508 8.6779 15.5198 9.71254 15.6329C9.88229 15.6515 9.93518 15.7213 9.94123 15.8852C9.96188 16.4115 9.98958 16.9383 10.0304 17.4636C10.0425 17.6179 10.0077 17.7018 9.86768 17.7797C9.37455 18.0537 9.14435 18.5714 9.27682 19.0661C9.42743 19.627 9.90949 19.998 10.4913 20C11.0882 20.002 11.5768 19.6305 11.7274 19.06C11.8569 18.5694 11.6226 18.0487 11.1285 17.7762C10.9839 17.6963 10.9597 17.6073 10.9728 17.457C11.0106 17.0408 11.0303 16.6226 11.056 16.2054C11.066 16.0466 11.0308 15.8686 11.0922 15.7339C11.1738 15.5544 11.3909 15.6464 11.5466 15.6158C12.5021 15.4288 13.3887 15.0829 14.1684 14.4923C14.2712 14.4144 14.3331 14.427 14.4233 14.5049C14.8731 14.8934 15.3275 15.2765 15.7818 15.6605C15.8498 15.7183 15.875 15.7666 15.8443 15.8686C15.6957 16.3552 15.8116 16.785 16.2014 17.1117C16.6059 17.45 17.0703 17.5224 17.561 17.3082C18.1901 17.0333 18.4651 16.3497 18.1962 15.75C17.9579 15.2192 17.3283 14.9211 16.7535 15.0613C16.6508 15.086 16.5561 15.1538 16.4417 15.0256C16.0468 14.5813 15.6348 14.152 15.2222 13.7237C15.1401 13.6388 15.1386 13.5905 15.2141 13.5006C15.4685 13.2 15.6841 12.8717 15.8569 12.5179C15.9103 12.4078 15.9612 12.3761 16.0836 12.4163C16.5188 12.5606 16.957 12.6933 17.3952 12.8275C17.5182 12.8652 17.5771 12.9341 17.6023 13.0678C17.6738 13.4463 18.0118 13.7137 18.4082 13.7288C18.8399 13.7459 19.1996 13.5086 19.3184 13.1286C19.4227 12.7938 19.3013 12.4218 19.0202 12.2127C18.7115 11.9835 18.2898 11.9679 17.9619 12.1811C17.8697 12.2414 17.7987 12.3032 17.6708 12.2434C17.2401 12.0428 16.8034 11.8558 16.3677 11.6668C16.282 11.6301 16.2347 11.606 16.2679 11.4864C16.341 11.2225 16.3913 10.951 16.4357 10.6801C16.4508 10.5846 16.4795 10.5565 16.5732 10.5519C17.1842 10.5223 17.7952 10.4876 18.4067 10.4534C18.5105 10.4474 18.5881 10.4554 18.6505 10.569C18.8591 10.9475 19.2001 11.136 19.6222 11.1943C20.1123 11.2622 20.6598 10.9646 20.8845 10.5047C21.1056 10.0513 21.0024 9.49734 20.6316 9.149ZM8.57112 9.24651C8.8265 9.24953 9.03 9.45814 9.02547 9.71198C9.02144 9.96482 8.80988 10.1709 8.55802 10.1669C8.30314 10.1634 8.10316 9.95628 8.10618 9.69891C8.10971 9.43853 8.31069 9.243 8.57112 9.24651ZM7.01916 11.5271C7.00858 11.7257 6.83631 11.8734 6.6313 11.8599C6.43082 11.8468 6.30791 11.703 6.31597 11.4899C6.32353 11.2763 6.47716 11.1406 6.69275 11.1551C6.87761 11.1682 7.02923 11.3406 7.01916 11.5271ZM8.96704 14.1193C8.3797 14.1178 7.878 13.6061 7.8911 13.023C7.90419 12.4223 8.3928 11.9458 8.9887 11.9514C9.58057 11.9569 10.0541 12.454 10.0425 13.0572C10.0314 13.6499 9.55387 14.1208 8.96704 14.1193ZM9.29546 7.52941C8.81894 7.52841 8.39078 7.09059 8.39179 6.60552C8.3928 6.11793 8.82046 5.68212 9.29647 5.68363C9.77853 5.68464 10.1961 6.11291 10.1956 6.60602C10.1956 7.09813 9.7745 7.52992 9.29546 7.52941ZM11.2584 8.90269C11.263 8.47593 11.6136 8.12105 12.0387 8.11301C12.4704 8.10496 12.822 8.46588 12.8205 8.91476C12.8185 9.35559 12.4835 9.6974 12.0508 9.69891C11.6171 9.69992 11.2534 9.33498 11.2584 8.90269ZM12.8381 13.3246C12.4769 13.3271 12.2044 13.0617 12.2004 12.7028C12.1964 12.3429 12.4638 12.0589 12.8124 12.0524C13.1751 12.0453 13.4678 12.3304 13.4683 12.6908C13.4688 13.0401 13.1887 13.3216 12.8381 13.3246ZM14.2939 8.94441C13.838 8.9414 13.4743 8.56993 13.4753 8.10899C13.4758 7.64855 13.8395 7.28261 14.2979 7.2816C14.7603 7.28009 15.124 7.63849 15.129 8.10044C15.1341 8.57345 14.7638 8.94793 14.2939 8.94441Z" fill="#7D7D7D"/>
</svg>
