<svg width="40" height="28" viewBox="0 0 40 28" fill="none" xmlns="http://www.w3.org/2000/svg">
<path d="M14.5829 4.39294C16.9525 3.41921 19.2298 3.5405 21.3952 4.94045C21.8653 5.24366 22.1068 5.18995 22.4618 4.78798C23.1814 3.97538 23.9562 3.21823 24.8881 2.25316C23.7779 2.25316 22.9059 2.26183 22.0338 2.25143C21.2818 2.24277 20.8523 1.84427 20.8361 1.16854C20.8198 0.466835 21.2785 0.0128889 22.0549 0.00942366C23.7827 -0.000972043 25.5089 -0.00443728 27.2367 0.00769104C28.0326 0.0128889 28.4329 0.416589 28.441 1.2829C28.4605 3.15759 28.4556 5.03401 28.428 6.90871C28.4167 7.69531 27.971 8.17871 27.3518 8.1354C26.6305 8.08515 26.3129 7.58789 26.2966 6.86539C26.2756 5.94537 26.2918 5.02535 26.2918 3.86276C25.3128 4.91446 24.4683 5.81369 23.6336 6.72332C23.303 7.08197 23.7049 7.30201 23.8281 7.52725C26.06 11.6006 24.7131 16.6408 20.8215 18.7269C17.8067 20.3417 14.4013 19.6608 12.0511 16.9735C9.88569 14.4906 9.53235 10.6858 11.1208 7.67452C11.4757 7.00053 11.7934 6.96935 12.351 7.3176C13.3381 7.93095 13.3689 7.98293 12.8356 9.09353C11.8112 11.2247 12.1986 13.9258 13.7741 15.6394C15.3641 17.3685 17.8553 17.8103 19.8798 16.7188C21.9107 15.622 23.1133 13.2154 22.7616 10.9422C22.3645 8.3745 20.627 6.45476 18.3627 6.08225C18.2573 6.06492 18.1422 6.04066 18.0401 6.06492C16.5425 6.4409 15.5067 5.66295 14.5829 4.39294Z" fill="#7D7D7D"/>
<path d="M13.0299 18.8603C12.5647 19.1721 12.085 19.3298 11.5841 19.3904C11.2421 19.432 11.1254 19.6036 11.1368 19.9553C11.1546 20.5028 11.1578 21.052 11.14 21.5978C11.1287 21.9409 11.2551 22.0517 11.5631 22.0361C11.9666 22.0154 12.3735 22.005 12.7771 22.0396C13.4643 22.0985 13.9765 22.6339 13.9052 23.2455C13.8241 23.9386 13.427 24.2834 12.756 24.3232C12.2341 24.3544 11.5258 24.0321 11.2405 24.4965C10.9893 24.9054 11.1497 25.6105 11.1514 26.1858C11.153 26.7991 11.0379 27.3414 10.4609 27.6204C9.83849 27.9219 9.12046 27.487 9.03618 26.7108C8.97134 26.113 8.99079 25.5014 9.01673 24.8984C9.0378 24.4393 8.87895 24.2764 8.45754 24.3093C8.0815 24.3388 7.70061 24.3457 7.32619 24.3111C6.71028 24.2539 6.32938 23.9074 6.31155 23.2091C6.29372 22.504 6.68921 22.1748 7.28405 22.0535C7.44127 22.0223 7.60984 22.0552 7.76706 22.0275C8.17227 21.9564 8.83195 22.2701 8.93893 21.8317C9.10911 21.1369 8.99079 20.352 8.94217 19.6088C8.92758 19.38 8.64231 19.4286 8.46402 19.3835C5.01164 18.5051 2.57715 15.2218 2.66953 11.5815C2.76516 7.7334 5.24342 4.60256 8.77684 3.86273C11.5663 3.27884 14.6345 4.63201 16.2165 7.25866C17.9151 10.0794 17.9346 12.9746 16.3542 15.8819C16.1403 16.2752 15.9215 16.4415 15.5276 16.1608C15.2602 15.9703 14.9717 15.8126 14.7042 15.6237C14.3558 15.3777 14.2374 15.1611 14.5211 14.6725C15.7318 12.5882 15.6929 10.4449 14.3979 8.4403C13.1547 6.5119 11.3183 5.7149 9.18367 6.11687C6.98582 6.53096 5.54976 8.00715 4.96626 10.341C4.03752 14.0592 7.16573 17.838 10.7121 17.2559C11.1805 17.1796 11.4431 17.2663 11.7478 17.6197C12.1239 18.0563 12.5728 18.4236 13.0299 18.8603Z" fill="#7D7D7D"/>
</svg>
