<svg width="22" height="21" viewBox="0 0 22 21" fill="none" xmlns="http://www.w3.org/2000/svg">
<path d="M11 11.4928C11.0028 11.783 10.7955 11.997 10.5098 12C10.2382 12.0029 10.0057 11.7772 10.0001 11.5074C9.9945 11.2348 10.2186 11.0061 10.4958 11.0003C10.7787 10.9915 10.9972 11.2084 11 11.4928Z" fill="#7D7D7D"/>
<path d="M12.9916 6.58425C12.9461 6.27739 12.8281 5.99541 12.6259 5.75489C12.1423 5.17601 11.5154 4.9471 10.7621 5.01013C9.94649 5.07814 9.2303 5.65869 9.03482 6.42335C8.94887 6.76007 9.01797 7.052 9.28759 7.28422C9.41735 7.39535 9.55216 7.50483 9.6954 7.59772C9.98019 7.78349 10.1453 8.03893 10.2245 8.36238C10.3206 8.74886 10.3476 9.14197 10.3728 9.5384C10.3947 9.89004 10.3088 10.1604 9.99199 10.3445C9.93807 10.376 9.89594 10.4258 9.85212 10.4706C9.34657 10.9732 9.51172 11.6732 10.1942 11.8938C10.452 11.9784 10.7217 12.0016 10.9947 11.9999C11.389 11.9999 11.7125 11.9452 11.9384 11.8374C12.449 11.5952 12.5871 11.081 12.2686 10.6199C12.1591 10.4623 12.0091 10.3478 11.8592 10.2334C11.6856 10.1024 11.6047 9.93483 11.6131 9.7192C11.6283 9.33935 11.6468 8.96117 11.7142 8.5863C11.7951 8.14509 11.9721 7.77022 12.3866 7.53468C12.5096 7.46502 12.6175 7.3655 12.7236 7.26929C12.9242 7.08517 13.032 6.85793 12.9916 6.58425ZM11.7833 10.6779C11.9872 10.7692 12.1844 10.8902 12.181 11.1424C12.1776 11.3829 11.9855 11.5006 11.7884 11.5919C11.539 11.7063 11.2727 11.7428 10.9997 11.7378C10.7267 11.7428 10.4605 11.7063 10.2111 11.5919C10.1386 11.5587 10.0678 11.5172 10.0055 11.4708C9.74427 11.2717 9.74427 11.0113 10.0021 10.804C10.206 10.6398 10.452 10.5767 10.7014 10.5469C11.0705 10.5038 11.4379 10.5237 11.7833 10.6779Z" fill="#7D7D7D"/>
<path d="M11.6206 0.000724097C7.38216 -0.0550846 4.00937 3.12252 4.00002 6.97332C3.99067 10.8451 7.3429 13.993 11.4879 14C15.6365 14.007 18.9963 10.8747 19 6.99774C19.0037 3.15915 15.702 0.0565328 11.6206 0.000724097ZM16.3227 7.30294C15.659 7.29074 14.9971 7.25062 14.3615 7.0396C14.3446 7.03437 14.3278 7.03088 14.3072 7.02564C14.1502 7.7686 13.8529 8.47493 13.7744 9.23183C13.7221 9.72365 13.6772 10.2172 13.6491 10.7108C13.608 11.4241 13.2715 11.8601 12.5386 12.0571C11.8487 12.2438 11.1476 12.242 10.4596 12.0571C9.74724 11.8653 9.39575 11.4433 9.35088 10.7456C9.30788 10.0847 9.26301 9.42542 9.15083 8.77141C9.0723 8.31797 8.90404 7.88719 8.79373 7.44247C8.77129 7.35003 8.7339 7.25934 8.72829 7.16517C8.72082 7.04657 8.68903 7.01169 8.56003 7.06052C8.15619 7.20702 7.72991 7.24016 7.30364 7.27155C7.01759 7.29248 6.73528 7.34306 6.44549 7.27504C6.17252 7.21051 5.99304 7.03262 5.95938 6.76579C5.91825 6.45186 5.98369 6.34199 6.29031 6.19898C6.55579 6.07515 6.84558 6.00888 7.13538 5.99144C7.6383 5.96005 8.14497 5.95133 8.63107 6.1205C8.66473 6.13271 8.73577 6.18328 8.75634 6.11352C8.77316 6.05771 8.82551 5.99144 8.72081 5.93214C8.46842 5.78913 8.25341 5.60078 8.04962 5.40196C7.53734 4.90491 7.43452 4.27881 7.76357 3.66143C8.00849 3.20275 8.3955 2.85743 8.8143 2.54002C9.13213 2.29935 9.4724 2.08832 9.81828 1.88427C9.86128 1.85811 9.90055 1.8023 9.9772 1.84241C9.87811 2.01856 9.72667 2.15634 9.60141 2.31155C9.3004 2.68303 9.0293 3.0702 8.81056 3.49051C8.73577 3.63701 8.68155 3.78874 8.69277 3.95442C8.71521 4.28753 8.88534 4.49856 9.23496 4.60843C9.50045 4.69214 9.69676 4.69563 9.94729 4.52472C10.8765 3.88989 12.2806 3.94047 13.1817 4.60843C13.2864 4.68691 13.3818 4.72528 13.5108 4.67122C13.5856 4.64157 13.6716 4.63285 13.7482 4.60669C14.2418 4.44275 14.4344 4.05383 14.2287 3.5969C13.9782 3.03707 13.6024 2.54874 13.1967 2.0796C13.1331 2.00635 13.0752 1.92961 13.0135 1.85462C13.0247 1.84241 13.0378 1.83195 13.049 1.81974C13.3107 1.95228 13.5538 2.1075 13.7968 2.2697C14.2455 2.56792 14.67 2.89231 15.0027 3.30913C15.558 4.00849 15.5618 4.76888 15.0121 5.33394C14.8008 5.55195 14.5727 5.75251 14.3091 5.91296C14.2269 5.96354 14.1839 6.01237 14.2325 6.09783C14.2867 6.19549 14.3502 6.11701 14.4082 6.10131C15.1224 5.92517 15.8329 5.91645 16.5377 6.13271C16.9285 6.25304 17.0892 6.43617 17.0518 6.68207C16.9939 7.10413 16.777 7.30992 16.3227 7.30294Z" fill="#7D7D7D"/>
<path d="M19 6C19.9912 6.53389 20.869 7.1526 21.4593 8.08732C22.1832 9.23493 22.1409 10.4191 21.5659 11.6067C21.1193 12.5264 20.4478 13.2815 19.6935 14C19.5785 13.7322 19.4076 13.526 19.1421 13.3946C19.57 12.9871 19.9624 12.5713 20.3024 12.1089C20.644 11.6416 20.9333 11.1443 21.077 10.5821C21.3358 9.56757 21.0314 8.70437 20.3227 7.95593C19.9979 7.61331 19.6258 7.32557 19.2233 7.07609C19.1455 7.02786 19.1049 6.9763 19.1032 6.87651C19.0947 6.5921 19.0524 6.31268 19 6Z" fill="#7D7D7D"/>
<path d="M0.598758 10C0.238153 9.31771 -0.00516817 8.62231 8.33663e-05 7.8538C0.00708541 6.81537 0.458717 6.00562 1.19568 5.36645C1.99391 4.67291 2.93219 4.28866 3.91247 4.0075C3.93348 4.00187 3.95624 4.00375 4 4C3.88972 4.33365 3.77768 4.64667 3.70241 4.97282C3.68141 5.06654 3.60614 5.06092 3.55012 5.08154C2.87617 5.33271 2.22848 5.63449 1.67707 6.13308C1.12041 6.63543 0.798316 7.25773 0.859584 8.05998C0.894594 8.51172 1.03814 8.92971 1.22894 9.33083C1.27446 9.42643 1.28321 9.47142 1.17468 9.51828C0.950611 9.61575 0.775559 9.79194 0.598758 10Z" fill="#7D7D7D"/>
<path d="M1 10.9934C1.00136 10.446 1.45621 9.98674 2.00338 10.0003C2.57635 10.0152 2.9959 10.4433 2.99997 11.0028C3.00405 11.5624 2.55056 12.0027 1.98845 12C1.4372 11.9973 0.998645 11.5515 1 10.9934Z" fill="#7D7D7D"/>
<path d="M18 14.0611C17.7598 14.2288 17.6052 14.4247 17.5154 14.6601C17.4903 14.7279 17.436 14.7223 17.3817 14.7242C16.9159 14.7449 16.5483 14.9408 16.2183 15.229C15.7128 15.6679 15.0841 15.9279 14.4512 16.1803C14.0878 16.3254 13.716 16.4572 13.3839 16.6569C13.0727 16.8434 12.797 17.0562 12.8199 17.4386C12.8241 17.4933 12.7886 17.5159 12.7406 17.5385C12.5129 17.6402 12.3249 17.7853 12.1682 18C11.9531 17.6195 11.9531 17.254 12.1181 16.8867C12.3291 16.4195 12.7343 16.1219 13.2168 15.9034C13.6847 15.6905 14.1672 15.4984 14.6413 15.2968C15.0841 15.1103 15.4789 14.8673 15.8361 14.5622C16.3896 14.0912 17.0684 13.9481 17.812 14.0159C17.8642 14.0215 17.9165 14.0404 18 14.0611Z" fill="#7D7D7D"/>
<path d="M16.2042 21C16.1424 21 16.0821 21 16.0202 21C15.9663 20.9319 16.0345 20.9074 16.0599 20.8725C16.1725 20.7241 16.2566 20.5599 16.2914 20.3678C16.2994 20.3224 16.3041 20.277 16.3517 20.2508C16.6087 20.1093 16.7483 19.8543 16.8783 19.5889C17.0988 19.1383 17.259 18.6563 17.489 18.211C17.6397 17.9193 17.8125 17.6486 18.0251 17.4076C18.236 17.1684 18.3693 16.8907 18.382 16.5519C18.3836 16.4942 18.3772 16.4349 18.4518 16.4104C18.6532 16.3423 18.815 16.2078 18.9577 16C19.0735 16.6846 18.9561 17.2854 18.5469 17.7726C18.1948 18.1918 17.9442 18.6685 17.7301 19.1785C17.6286 19.4212 17.527 19.6657 17.4176 19.9032C17.1591 20.4621 16.8022 20.8935 16.2042 21Z" fill="#7D7D7D"/>
<path d="M14 18.0023C14 18.5634 13.7831 19 13.504 19C13.2226 19 12.9966 18.5475 13 17.9864C13.0023 17.4434 13.2305 16.9977 13.5062 17C13.7831 17.0045 14 17.4434 14 18.0023Z" fill="#7D7D7D"/>
<path d="M15.0079 19C15.5593 19.0023 16.0023 19.4497 16 20.0034C15.9977 20.5458 15.5367 21.0023 14.9944 21C14.4362 20.9977 13.9955 20.5458 14 19.9763C14.0023 19.4226 14.4407 18.9977 15.0079 19Z" fill="#7D7D7D"/>
<path d="M17.9903 15.9999C17.4237 15.9926 16.9976 15.5593 17 14.9927C17.0024 14.4407 17.4552 13.9976 18.0145 14C18.5835 14.0024 19.0072 14.4504 18.9999 15.0411C18.9902 15.5907 18.5544 16.0072 17.9903 15.9999Z" fill="#7D7D7D"/>
<path d="M11 11.4928C11.0028 11.783 10.7955 11.997 10.5098 12C10.2382 12.0029 10.0057 11.7772 10.0001 11.5074C9.9945 11.2348 10.2186 11.0061 10.4958 11.0003C10.7787 10.9915 10.9972 11.2084 11 11.4928Z" fill="#7D7D7D"/>
<path d="M12.9916 6.58425C12.9461 6.27739 12.8281 5.99541 12.6259 5.75489C12.1423 5.17601 11.5154 4.9471 10.7621 5.01013C9.94649 5.07814 9.2303 5.65869 9.03482 6.42335C8.94887 6.76007 9.01797 7.052 9.28759 7.28422C9.41735 7.39535 9.55216 7.50483 9.6954 7.59772C9.98019 7.78349 10.1453 8.03893 10.2245 8.36238C10.3206 8.74886 10.3476 9.14197 10.3728 9.5384C10.3947 9.89004 10.3088 10.1604 9.99199 10.3445C9.93807 10.376 9.89594 10.4258 9.85212 10.4706C9.34657 10.9732 9.51172 11.6732 10.1942 11.8938C10.452 11.9784 10.7217 12.0016 10.9947 11.9999C11.389 11.9999 11.7125 11.9452 11.9384 11.8374C12.449 11.5952 12.5871 11.081 12.2686 10.6199C12.1591 10.4623 12.0091 10.3478 11.8592 10.2334C11.6856 10.1024 11.6047 9.93483 11.6131 9.7192C11.6283 9.33935 11.6468 8.96117 11.7142 8.5863C11.7951 8.14509 11.9721 7.77022 12.3866 7.53468C12.5096 7.46502 12.6175 7.3655 12.7236 7.26929C12.9242 7.08517 13.032 6.85793 12.9916 6.58425ZM11.7833 10.6779C11.9872 10.7692 12.1844 10.8902 12.181 11.1424C12.1776 11.3829 11.9855 11.5006 11.7884 11.5919C11.539 11.7063 11.2727 11.7428 10.9997 11.7378C10.7267 11.7428 10.4605 11.7063 10.2111 11.5919C10.1386 11.5587 10.0678 11.5172 10.0055 11.4708C9.74427 11.2717 9.74427 11.0113 10.0021 10.804C10.206 10.6398 10.452 10.5767 10.7014 10.5469C11.0705 10.5038 11.4379 10.5237 11.7833 10.6779Z" fill="#7D7D7D"/>
<path d="M11 11.4928C11.0028 11.783 10.7955 11.997 10.5098 12C10.2382 12.0029 10.0057 11.7772 10.0001 11.5074C9.9945 11.2348 10.2186 11.0061 10.4958 11.0003C10.7787 10.9915 10.9972 11.2084 11 11.4928Z" fill="#7D7D7D"/>
<path d="M12.9916 6.58425C12.9461 6.27739 12.8281 5.99541 12.6259 5.75489C12.1423 5.17601 11.5154 4.9471 10.7621 5.01013C9.94649 5.07814 9.2303 5.65869 9.03482 6.42335C8.94887 6.76007 9.01797 7.052 9.28759 7.28422C9.41735 7.39535 9.55216 7.50483 9.6954 7.59772C9.98019 7.78349 10.1453 8.03893 10.2245 8.36238C10.3206 8.74886 10.3476 9.14197 10.3728 9.5384C10.3947 9.89004 10.3088 10.1604 9.99199 10.3445C9.93807 10.376 9.89594 10.4258 9.85212 10.4706C9.34657 10.9732 9.51172 11.6732 10.1942 11.8938C10.452 11.9784 10.7217 12.0016 10.9947 11.9999C11.389 11.9999 11.7125 11.9452 11.9384 11.8374C12.449 11.5952 12.5871 11.081 12.2686 10.6199C12.1591 10.4623 12.0091 10.3478 11.8592 10.2334C11.6856 10.1024 11.6047 9.93483 11.6131 9.7192C11.6283 9.33935 11.6468 8.96117 11.7142 8.5863C11.7951 8.14509 11.9721 7.77022 12.3866 7.53468C12.5096 7.46502 12.6175 7.3655 12.7236 7.26929C12.9242 7.08517 13.032 6.85793 12.9916 6.58425ZM11.7833 10.6779C11.9872 10.7692 12.1844 10.8902 12.181 11.1424C12.1776 11.3829 11.9855 11.5006 11.7884 11.5919C11.539 11.7063 11.2727 11.7428 10.9997 11.7378C10.7267 11.7428 10.4605 11.7063 10.2111 11.5919C10.1386 11.5587 10.0678 11.5172 10.0055 11.4708C9.74427 11.2717 9.74427 11.0113 10.0021 10.804C10.206 10.6398 10.452 10.5767 10.7014 10.5469C11.0705 10.5038 11.4379 10.5237 11.7833 10.6779Z" fill="#7D7D7D"/>
<path d="M11 11.4928C11.0028 11.783 10.7955 11.997 10.5098 12C10.2382 12.0029 10.0057 11.7772 10.0001 11.5074C9.9945 11.2348 10.2186 11.0061 10.4958 11.0003C10.7787 10.9915 10.9972 11.2084 11 11.4928Z" fill="#7D7D7D"/>
<path d="M11 11.4928C11.0028 11.783 10.7955 11.997 10.5098 12C10.2382 12.0029 10.0057 11.7772 10.0001 11.5074C9.9945 11.2348 10.2186 11.0061 10.4958 11.0003C10.7787 10.9915 10.9972 11.2084 11 11.4928Z" fill="#7D7D7D"/>
</svg>
