<svg width="25" height="23" viewBox="0 0 25 23" fill="none" xmlns="http://www.w3.org/2000/svg">
<path d="M9.22404 15.4762C9.23954 14.6264 8.85072 14.0442 8.12239 13.5656C7.81105 13.361 7.30671 13.279 7.39124 12.7612C7.41237 12.6274 7.24473 12.6261 7.12921 12.6261C5.5838 12.6236 4.03839 12.6223 2.49297 12.6223C2.35492 12.6223 2.15487 12.6211 2.18164 12.7865C2.2563 13.2461 1.82945 13.3408 1.54347 13.5113C0.717934 14.0038 0.295306 14.6352 0.353065 15.5621C0.416459 16.5875 0.367152 17.6192 0.367152 18.6471H0.371379C0.371379 19.8012 0.393919 20.9567 0.361517 22.1109C0.346021 22.6804 0.568605 22.8938 1.21523 22.8875C3.58054 22.8635 5.94726 22.861 8.31116 22.8888C8.98455 22.8963 9.22263 22.6918 9.21559 22.0869C9.19164 19.8833 9.18319 17.6798 9.22404 15.4762ZM3.45516 16.2175C3.47347 15.9876 3.40867 15.7313 3.82425 15.7869C4.22012 15.8399 4.38635 15.6934 4.32859 15.3348C4.27506 15.0014 4.50469 14.9736 4.79912 14.9648C5.13863 14.9547 5.27669 15.0784 5.23443 15.3701C5.18653 15.7073 5.35981 15.8285 5.71622 15.7869C6.07827 15.7439 6.16421 15.9194 6.11208 16.1947C6.1628 16.4549 6.07123 16.6152 5.74862 16.5673C5.30627 16.5003 5.1654 16.6695 5.22034 17.0471C5.27105 17.3868 4.98226 17.3211 4.75826 17.3338C4.49342 17.3489 4.28069 17.3173 4.33564 17.0092C4.39762 16.6557 4.24547 16.5066 3.84398 16.5685C3.53405 16.6165 3.43403 16.4877 3.45516 16.2175ZM6.57557 20.4945C5.38516 20.4731 4.19335 20.4731 3.00295 20.4945C2.62681 20.5021 2.6099 20.3531 2.59441 20.0866C2.57468 19.7558 2.7381 19.7116 3.04662 19.7192C3.65239 19.7368 4.26097 19.7242 4.86815 19.7242C5.42743 19.7242 5.98952 19.7394 6.5488 19.7192C6.87 19.7078 7.00242 19.776 6.99256 20.0942C6.9827 20.3733 6.94044 20.5021 6.57557 20.4945ZM6.5164 18.9388C5.93176 18.9135 5.34572 18.9325 4.75967 18.9325C4.19617 18.9325 3.63266 18.9135 3.07198 18.9388C2.70006 18.9552 2.58595 18.839 2.593 18.5094C2.59863 18.2089 2.69865 18.1104 3.03817 18.1154C4.21026 18.1318 5.38235 18.1318 6.55444 18.1154C6.89817 18.1104 6.98693 18.2152 6.99256 18.5119C7.00101 18.8403 6.88972 18.9552 6.5164 18.9388Z" fill="#7D7D7D"/>
<path d="M19.7377 13.6075C17.9193 11.4178 16.0923 9.23298 14.2866 7.03574C14.0211 6.7117 13.361 6.33905 14.2425 5.94896C14.2908 5.92777 14.3093 5.85299 14.3504 5.79068C14.2127 5.63614 14.0992 5.47661 13.9501 5.34824C13.7712 5.19619 13.6492 5.37566 13.5313 5.45168C11.8335 6.53223 10.1442 7.62275 8.44213 8.69706C8.17099 8.86781 8.19229 9.00739 8.37825 9.19309C8.53299 9.34764 8.64229 9.63803 8.95034 9.34888C9.32085 9.00116 9.51676 9.21802 9.75241 9.50343C11.5752 11.7169 13.4064 13.9253 15.2434 16.1288C16.1164 17.1744 17.1073 17.2966 18.2912 16.5251C18.6503 16.2908 19.0067 16.0528 19.3658 15.8172C20.1338 15.315 20.307 14.2917 19.7377 13.6075ZM13.2517 8.95754C12.999 8.94009 12.7591 8.66466 12.7832 8.42038C12.8059 8.19231 13.131 8.12376 13.3567 8.00786C13.608 8.14744 13.8593 8.3643 13.8238 8.57493C13.7968 8.73445 13.4419 8.97125 13.2517 8.95754ZM14.2922 10.2612C14.0367 10.1428 13.8394 9.92468 13.8124 9.72153C13.7826 9.4947 14.1205 9.3439 14.3291 9.30152C14.667 9.23298 14.8132 9.5807 14.853 9.76016C14.914 10.0306 14.5052 10.078 14.2922 10.2612ZM15.3541 11.4776C15.056 11.5 14.8941 11.1685 14.853 10.9778C14.8061 10.7622 15.1582 10.6176 15.3711 10.5665C15.7416 10.478 15.6848 10.9055 16.0014 10.9915C15.8126 11.2557 15.5841 11.4589 15.3541 11.4776ZM16.3932 12.7339C16.1334 12.7663 15.9702 12.4634 15.9219 12.2777C15.8467 11.9811 16.2356 11.854 16.4429 11.8153C16.7651 11.758 16.7751 12.1456 17.0093 12.274C16.8815 12.5419 16.6189 12.7064 16.3932 12.7339ZM17.4267 14.025C17.1626 13.8929 16.9256 13.6599 16.9341 13.4692C16.9426 13.2536 17.3032 13.0579 17.5417 13.0616C17.7617 13.0654 17.9846 13.3533 17.9917 13.5489C18.0002 13.8107 17.6353 13.8717 17.4267 14.025Z" fill="#7D7D7D"/>
<path d="M11.8548 5.51123C11.8435 5.65309 11.7041 5.70249 11.5985 5.77088C10.8636 6.25599 10.116 6.72844 9.39239 7.22621C9.11504 7.4162 8.98692 7.3668 8.79686 7.12235C8.15486 6.29399 7.46359 5.49603 6.83005 4.66261C6.54847 4.29276 6.31195 4.26869 5.96702 4.56381C5.79948 4.7082 5.57563 4.80067 5.4095 4.94506C5.10539 5.21105 4.96038 5.04892 4.75483 4.82473C4.51972 4.56761 4.61968 4.45362 4.8745 4.28769C6.54566 3.20601 8.21118 2.11926 9.86262 1.01352C10.14 0.827329 10.2751 0.848861 10.4708 1.08445C10.6764 1.33397 10.6961 1.47836 10.3821 1.68989C9.33326 2.39918 9.34452 2.41312 10.116 3.36054C10.613 3.97231 11.1128 4.58281 11.6098 5.19331C11.6929 5.29717 11.7717 5.4023 11.8548 5.51123Z" fill="#7D7D7D"/>
<path d="M4.77522 11.9912C3.89327 11.9912 3.00995 12.0174 2.13072 11.976C1.85307 11.9636 1.35765 12.2729 1.33588 11.5922C1.31138 10.8245 1.56453 10.3578 2.12936 10.2943C2.39749 10.264 2.67105 10.2791 2.94326 10.2805C4.34513 10.2805 5.747 10.2764 7.14886 10.2874C7.96276 10.2943 8.44865 11.0661 8.14923 11.8255C8.04851 12.0823 7.85116 11.9857 7.69328 11.9871C6.72014 11.9953 5.74836 11.9912 4.77522 11.9912Z" fill="#7D7D7D"/>
<path d="M20.7583 18.1956C20.8493 18.3109 20.9215 18.4162 21.0097 18.5105C22.0731 19.6511 23.1293 20.7955 24.2115 21.9225C24.4571 22.1779 24.3386 22.2845 24.1089 22.4531C23.8604 22.6354 23.7173 22.6639 23.4862 22.4134C22.4184 21.2505 21.3232 20.1061 20.241 18.9518C20.1586 18.8638 19.9896 18.7659 20.124 18.6419C20.2843 18.4944 20.4895 18.3815 20.7583 18.1956Z" fill="#7D7D7D"/>
<path d="M20.7309 17.1661C20.7168 17.3752 20.6013 17.4926 20.4576 17.5946C20.1123 17.8408 19.7709 18.0907 19.4269 18.3382C19.0855 18.5831 18.8352 18.5295 18.5746 18.1775C18.3564 17.8841 18.3782 17.7438 18.6824 17.5487C19.0919 17.2859 19.4577 16.9594 19.8569 16.6788C19.9929 16.5832 20.1251 16.3179 20.3241 16.4952C20.523 16.6712 20.7014 16.8969 20.7309 17.1661Z" fill="#7D7D7D"/>
</svg>
