<svg width="20" height="21" viewBox="0 0 20 21" fill="none" xmlns="http://www.w3.org/2000/svg">
<path d="M11.4337 13.5404C11.4337 12.7591 11.4337 12.0273 11.4337 11.2955C11.4337 10.9631 11.4084 10.6273 11.4409 10.295C11.488 9.78233 11.0394 9.30152 10.4318 9.29799C9.8675 9.29092 9.30322 9.29799 8.74257 9.29799C6.74592 9.29799 4.74566 9.29799 2.74901 9.29799C1.97494 9.29799 1.59876 9.66213 1.59876 10.4116C1.59876 11.8788 1.59876 13.3495 1.59876 14.8167C1.59876 15.446 2.00388 15.849 2.65135 15.849C4.27181 15.8525 5.8959 15.849 7.51637 15.849C7.6068 15.849 7.69723 15.849 7.81297 15.849C7.51637 16.6939 7.36083 17.5354 7.397 18.4051C7.40062 18.5429 7.31019 18.5217 7.227 18.5217C6.81826 18.5217 6.40591 18.5217 5.99718 18.5217C4.54672 18.5217 3.09263 18.5253 1.64217 18.5182C0.853638 18.5147 0.213408 18.0338 0.0397867 17.3268C0.0144669 17.2242 0.0108498 17.1111 0.0108498 17.0051C0.0108498 14.2758 0.0108498 11.5465 0.00723267 8.81718C0.00723267 8.67223 0.0506381 8.5697 0.1483 8.46364C1.01279 7.5091 1.87367 6.54748 2.73816 5.5894C2.8322 5.48688 2.87199 5.38435 2.86476 5.25001C2.85752 5.10152 2.87561 4.9495 2.86114 4.80102C2.84667 4.63839 2.9154 4.61011 3.0637 4.61011C5.3678 4.61364 7.67552 4.61364 9.97963 4.61011C10.1496 4.61011 10.222 4.65607 10.193 4.81869C10.1352 5.14748 10.2726 5.37728 10.5113 5.61768C11.4373 6.55455 12.3308 7.5197 13.2386 8.47071C13.3472 8.58384 13.3906 8.69344 13.3906 8.84546C13.3833 10.0051 13.3833 11.1647 13.3906 12.3242C13.3906 12.4763 13.3544 12.5647 13.2097 12.6354C12.6237 12.9217 12.0559 13.2222 11.4337 13.5404Z" fill="#7D7D7D"/>
<path d="M19.4999 13.6889C18.6065 12.3561 16.7545 11.8364 15.1594 12.5081C13.4231 13.2399 11.6905 13.9788 9.97964 14.7601C8.66301 15.3576 7.96491 16.4041 7.87448 17.6733C7.8781 18.6561 8.16747 19.3773 8.75706 19.9748C9.77347 21.0036 11.365 21.2899 12.7721 20.6889C14.4649 19.9642 16.1541 19.2288 17.8433 18.497C18.1579 18.3591 18.4473 18.1894 18.715 17.9738C20.0678 16.8813 20.4078 15.0465 19.4999 13.6889ZM14.8772 19.0591C14.0489 19.4091 13.2242 19.7733 12.3959 20.1197C12.0486 20.2647 11.6761 20.3283 11.3361 20.3177C9.95071 20.3177 8.88727 19.4975 8.63408 18.2672C8.40981 17.1712 9.02111 15.9551 10.1279 15.4177C10.9671 15.0111 11.8388 14.6682 12.6889 14.2864C12.8733 14.2051 12.8697 14.3429 12.9095 14.4278C13.4412 15.5733 13.9693 16.7187 14.4974 17.8642C14.6493 18.1894 14.7976 18.5147 14.9568 18.8364C15.0147 18.953 15.0038 19.0061 14.8772 19.0591Z" fill="#7D7D7D"/>
<path d="M6.51443 0C7.76957 0 9.02471 0 10.2799 0C10.5041 0 10.7248 0.0106061 10.9237 0.120202C11.2456 0.293434 11.4373 0.54798 11.4337 0.922727C11.4301 1.73939 11.4337 2.5596 11.4337 3.37626C11.4337 3.84646 11.1263 4.20354 10.656 4.28838C10.5656 4.30606 10.4679 4.31667 10.3775 4.31667C7.80574 4.31667 5.23759 4.3202 2.66582 4.31667C2.12687 4.31667 1.7543 4.06212 1.6277 3.63081C1.606 3.5495 1.59515 3.46465 1.59515 3.38333C1.59153 2.57374 1.59153 1.76414 1.59515 0.954545C1.59515 0.456061 1.93516 0.0848485 2.44156 0.0212121C2.5573 0.00353535 2.68029 0 2.79965 0C4.03671 0 5.27376 0 6.51443 0Z" fill="#7D7D7D"/>
<path d="M7.25952 14.1732C7.25952 14.3888 7.25591 14.608 7.26314 14.8237C7.26676 14.951 7.22697 15.0005 7.08952 15.0005C6.68079 14.9934 6.26843 14.9969 5.8597 15.0075C5.70778 15.0111 5.67161 14.958 5.67523 14.8202C5.67884 14.403 5.66438 13.9858 5.67161 13.5686C5.67523 13.3989 5.61735 13.353 5.45097 13.3601C5.06032 13.3742 4.66605 13.3636 4.27179 13.3777C4.11263 13.3813 4.04391 13.3494 4.04752 13.1727C4.05837 12.7626 4.05476 12.356 4.04029 11.9459C4.03667 11.7868 4.09455 11.7479 4.24646 11.7479C4.64797 11.755 5.04947 11.7409 5.45097 11.7479C5.61012 11.7515 5.65352 11.6984 5.64991 11.5464C5.63906 11.1292 5.64629 10.7121 5.63544 10.2949C5.63182 10.1429 5.68246 10.0899 5.838 10.0934C6.23226 10.1005 6.62291 10.1005 7.01718 10.0863C7.19442 10.0792 7.23059 10.1464 7.22697 10.3055C7.21974 10.7156 7.23782 11.1222 7.22697 11.5323C7.22335 11.702 7.28123 11.7444 7.44761 11.7409C7.83826 11.7303 8.23253 11.7409 8.62679 11.7303C8.78233 11.7267 8.85467 11.755 8.85106 11.9318C8.8402 12.3313 8.84382 12.7343 8.85829 13.1338C8.86552 13.3212 8.78957 13.353 8.61956 13.3494C8.22891 13.3424 7.83465 13.3565 7.44038 13.3494C7.28123 13.3459 7.23059 13.3989 7.24144 13.551C7.25229 13.7596 7.24506 13.9681 7.24506 14.1767C7.25229 14.1732 7.25591 14.1732 7.25952 14.1732Z" fill="#7D7D7D"/>
</svg>
