<svg width="14" height="26" viewBox="0 0 14 26" fill="none" xmlns="http://www.w3.org/2000/svg">
<path d="M13.0098 11.219C12.8549 10.0673 12.4843 8.98008 11.9872 7.93399C11.3346 6.56137 10.6851 5.18673 10.0264 3.81665C9.95811 3.67548 9.97785 3.62825 10.115 3.56224C10.8861 3.18798 11.3078 2.33536 11.1351 1.52439C10.9509 0.656538 10.2335 0.0207575 9.35212 0.0126325C7.4805 -0.00463305 5.60838 -0.00361743 3.73676 0.0121247C2.87005 0.0192341 2.14965 0.629116 1.95373 1.45888C1.76288 2.26427 2.11675 3.12399 2.85132 3.50384C3.11559 3.64095 3.08926 3.74149 2.98447 3.96036C2.23369 5.52848 1.47634 7.09356 0.758977 8.67692C0.340811 9.59961 0.0385782 10.5731 0.0264281 11.5968C0.00364671 13.5504 0.0198468 15.5044 0.0198468 17.458H0.00212796C0.00212796 19.0566 -0.00242832 20.6552 0.00465922 22.2538C0.00719049 22.819 -0.029766 23.3852 0.0699659 23.9488C0.289174 25.1844 1.11639 25.9801 2.30001 25.9877C5.1244 26.0065 7.94929 26.0009 10.7742 25.9897C11.4784 25.9867 12.0899 25.7302 12.5192 25.1376C12.9971 24.4785 13.0989 23.7153 13.0989 22.9281C13.0994 19.9001 13.0979 16.8725 13.0994 13.8444C13.0999 12.9679 13.1273 12.0899 13.0098 11.219ZM2.81993 1.88646C2.80981 1.34869 3.26999 0.922123 3.8456 0.921108C5.64837 0.917553 7.45063 0.917553 9.25289 0.921615C9.74548 0.922631 10.1733 1.28318 10.2411 1.73259C10.3145 2.21654 10.0214 2.66392 9.53842 2.82032C9.42958 2.85536 9.32276 2.85079 9.21442 2.8513C8.32189 2.85333 7.42886 2.85232 6.53634 2.85232C5.64381 2.85232 4.75028 2.8381 3.85826 2.8579C3.32264 2.87009 2.83158 2.49482 2.81993 1.88646ZM12.1142 23.4756C12.1132 23.8275 12.013 24.1591 11.8495 24.4653C11.6449 24.8487 11.3225 25.0803 10.8785 25.0828C9.19316 25.0935 7.50733 25.0975 5.82151 25.1006C4.69155 25.1026 3.5621 25.094 2.43265 25.1006C1.50266 25.1067 1.15487 24.6095 0.982741 23.8569C0.929584 23.6238 0.920471 23.3877 0.919965 23.1521C0.91794 21.7906 0.926546 20.4292 0.916928 19.0678C0.915409 18.856 0.985778 18.8276 1.17107 18.8286C2.95814 18.8352 4.74521 18.8326 6.53229 18.8326C8.31936 18.8326 10.1069 18.8357 11.894 18.8281C12.0803 18.8271 12.1315 18.8687 12.1299 19.0612C12.1178 20.5328 12.1193 22.0039 12.1142 23.4756ZM12.1294 17.6566C12.1299 17.8317 12.0884 17.8795 11.9097 17.879C8.31886 17.8734 4.72851 17.8734 1.13765 17.8795C0.959453 17.8795 0.917434 17.8343 0.918446 17.6576C0.92604 16.254 0.926546 14.8504 0.91794 13.4468C0.916928 13.2513 0.964515 13.1964 1.16398 13.1975C2.95966 13.2061 4.75483 13.2025 6.55001 13.2025C8.32848 13.2025 10.1074 13.2056 11.8859 13.1975C12.0844 13.1964 12.1309 13.2482 12.1299 13.4458C12.1203 14.8494 12.1218 16.253 12.1294 17.6566ZM11.894 12.2514C10.0988 12.2443 8.30367 12.2468 6.50799 12.2468C4.73813 12.2468 2.96827 12.2412 1.1979 12.2539C0.95439 12.2555 0.918446 12.1768 0.919459 11.9599C0.925028 10.9555 1.19891 10.0145 1.56999 9.09688C2.18712 7.56938 2.95865 6.11348 3.64816 4.6195C3.75701 4.38286 3.87294 4.14977 3.97723 3.9111C4.02431 3.80345 4.08962 3.76688 4.20808 3.76739C5.74203 3.77196 7.27648 3.77196 8.81043 3.76942C8.92434 3.76942 8.98863 3.79735 9.04077 3.90958C9.88369 5.73008 10.8496 7.49321 11.5832 9.36449C11.9163 10.2146 12.135 11.0946 12.133 12.0203C12.1325 12.2164 12.0768 12.2519 11.894 12.2514ZM10.5737 15.1282C10.8516 14.7971 11.1063 14.4457 11.4004 14.0643C11.244 14.0643 11.1346 14.0805 11.0319 14.0618C10.6785 13.9962 10.4608 14.143 10.2902 14.4507C10.115 14.7671 9.89179 15.0566 9.65233 15.413V14.564C9.65132 14.0389 9.65132 14.0435 9.13342 14.0597C9.01749 14.0633 8.97445 14.0861 8.97547 14.2126C8.98002 15.1165 8.97901 16.0204 8.97496 16.9248C8.97445 17.0314 9.00129 17.065 9.11418 17.071C9.65739 17.1015 9.6584 17.1061 9.65132 16.5622C9.64727 16.2763 9.59816 15.9772 9.93077 15.7975C10.0619 16.0305 10.2249 16.2448 10.3089 16.4871C10.4907 17.0071 10.843 17.1635 11.3503 17.0655C11.364 17.0624 11.3761 17.0517 11.407 17.035C11.1225 16.5516 10.8471 16.0635 10.5504 15.5882C10.4411 15.413 10.4365 15.2917 10.5737 15.1282ZM8.40998 16.4962C8.14116 16.5028 7.87133 16.4911 7.60251 16.5033C7.44405 16.5104 7.38026 16.4728 7.38735 16.2982C7.40153 15.961 7.3914 15.6228 7.3914 15.2851H7.38938C7.38938 15.0489 7.38887 14.8123 7.38938 14.5762C7.38988 14.0135 7.39039 14.0186 6.83452 14.0602C6.71657 14.0694 6.70037 14.112 6.70087 14.2126C6.7034 15.116 6.7029 16.0189 6.69885 16.9223C6.69834 17.0299 6.72517 17.0695 6.83857 17.0685C7.37723 17.0634 7.91537 17.065 8.45403 17.0685C8.55072 17.069 8.59071 17.0375 8.58312 16.938C8.57654 16.8456 8.57249 16.7511 8.58413 16.6597C8.60236 16.515 8.53098 16.4937 8.40998 16.4962ZM6.10046 15.5618C6.10046 15.216 6.09995 14.8702 6.10046 14.5244C6.10096 14.0607 6.10147 14.0694 5.65191 14.0602C5.47979 14.0562 5.42562 14.0948 5.42815 14.2771C5.43878 15.0449 5.43271 15.8127 5.43068 16.58C5.42967 17.0842 5.42815 17.0792 5.93339 17.071C6.06249 17.069 6.10602 17.0385 6.10349 16.9035C6.09539 16.4561 6.10046 16.0092 6.10046 15.5618ZM4.78065 14.3695C4.77458 14.1105 4.6956 14.0272 4.44703 14.0607C4.30629 14.08 4.16049 14.0699 4.01773 14.0607C3.89623 14.0531 3.84155 14.0958 3.80865 14.2192C3.71752 14.5594 3.61526 14.8971 3.50439 15.2318C3.41174 15.5141 3.37681 15.8152 3.23607 16.1194C3.12723 15.6025 3.00674 15.1302 2.86043 14.665C2.80019 14.4726 2.80576 14.2039 2.67717 14.1034C2.54959 14.0034 2.29191 14.0673 2.09093 14.0643C1.76237 14.0592 1.76591 14.0612 1.74718 14.4076C1.70719 15.1591 1.67023 15.9107 1.61809 16.6607C1.58974 17.071 1.57759 17.0573 1.96993 17.0731C2.18003 17.0812 2.24331 17.0167 2.24584 16.808C2.25141 16.2585 2.27875 15.7096 2.30153 15.1607C2.30507 15.085 2.27065 14.9956 2.34001 14.9342C2.39468 14.9479 2.39468 14.9824 2.40126 15.0149C2.52783 15.6334 2.68983 16.2428 2.8493 16.8532C2.88676 16.9969 2.95713 17.0385 3.07762 17.0111C3.21177 16.9801 3.40162 17.1269 3.47047 16.8689C3.57223 16.4876 3.70081 16.1133 3.81472 15.7355C3.91952 15.3871 4.01975 15.0378 4.12202 14.6889C4.15695 14.6919 4.19239 14.6945 4.22732 14.6975C4.22732 15.3353 4.22124 15.9732 4.22985 16.611C4.23542 17.0578 4.24504 17.0487 4.68193 17.0563C4.8652 17.0599 4.90317 17.004 4.89304 16.8268C4.84444 16.0082 4.79989 15.1891 4.78065 14.3695Z" fill="#7D7D7D"/>
<path d="M4.89296 16.8269C4.90309 17.0041 4.86512 17.0599 4.68186 17.0564C4.24496 17.0488 4.23534 17.0579 4.22977 16.611C4.22116 15.9732 4.22724 15.3354 4.22724 14.6976C4.19231 14.6946 4.15687 14.692 4.12194 14.689C4.01968 15.0378 3.91944 15.3872 3.81464 15.7356C3.70074 16.1134 3.57215 16.4876 3.47039 16.869C3.40154 17.127 3.2117 16.9802 3.07754 17.0112C2.95705 17.0386 2.88668 16.997 2.84922 16.8533C2.68975 16.2429 2.52775 15.6335 2.40118 15.015C2.3946 14.9825 2.3946 14.948 2.33993 14.9342C2.27057 14.9957 2.305 15.0851 2.30145 15.1607C2.27867 15.7097 2.25133 16.2586 2.24576 16.8081C2.24323 17.0168 2.17995 17.0813 1.96986 17.0732C1.57751 17.0574 1.58966 17.0711 1.61801 16.6608C1.67015 15.9108 1.70711 15.1592 1.74711 14.4076C1.76584 14.0613 1.76229 14.0593 2.09085 14.0644C2.29183 14.0674 2.54952 14.0034 2.67709 14.1035C2.80568 14.204 2.80011 14.4726 2.86036 14.6651C3.00666 15.1303 3.12715 15.6025 3.236 16.1195C3.37673 15.8153 3.41167 15.5142 3.50431 15.2318C3.61518 14.8972 3.71744 14.5595 3.80857 14.2192C3.84148 14.0959 3.89615 14.0532 4.01765 14.0608C4.16041 14.07 4.30622 14.0801 4.44695 14.0608C4.69552 14.0273 4.7745 14.1106 4.78057 14.3696C4.79981 15.1892 4.84436 16.0083 4.89296 16.8269Z" fill="#7D7D7D"/>
<path d="M6.10351 16.9032C6.10604 17.0383 6.0625 17.0688 5.93341 17.0708C5.42817 17.0789 5.42969 17.084 5.4307 16.5797C5.43273 15.8124 5.4388 15.0446 5.42817 14.2768C5.42564 14.0945 5.47981 14.0559 5.65193 14.06C6.10149 14.0691 6.10098 14.0605 6.10047 14.5241C6.09997 14.8699 6.10047 15.2158 6.10047 15.5616C6.10047 16.009 6.09541 16.4558 6.10351 16.9032Z" fill="#7D7D7D"/>
<path d="M8.58398 16.6598C8.57233 16.7512 8.57638 16.8457 8.58297 16.9381C8.59056 17.0376 8.55057 17.0691 8.45387 17.0686C7.91522 17.0651 7.37707 17.0635 6.83842 17.0686C6.72502 17.0696 6.69819 17.03 6.69869 16.9224C6.70274 16.019 6.70325 15.1161 6.70072 14.2127C6.70021 14.1121 6.71641 14.0695 6.83437 14.0603C7.39023 14.0187 7.38973 14.0136 7.38922 14.5763C7.38871 14.8124 7.38922 15.0491 7.38922 15.2852H7.39125C7.39125 15.6229 7.40137 15.9611 7.3872 16.2983C7.38011 16.473 7.4439 16.5105 7.60235 16.5034C7.87117 16.4912 8.14101 16.5029 8.40983 16.4963C8.53082 16.4938 8.6022 16.5151 8.58398 16.6598Z" fill="#7D7D7D"/>
<path d="M11.407 17.0351C11.3761 17.0519 11.364 17.0625 11.3503 17.0656C10.843 17.1636 10.4907 17.0072 10.3089 16.4872C10.2249 16.2449 10.0619 16.0307 9.93076 15.7976C9.59815 15.9773 9.64726 16.2764 9.65131 16.5623C9.65839 17.1062 9.65738 17.1016 9.11417 17.0712C9.00128 17.0651 8.97445 17.0315 8.97495 16.9249C8.979 16.0205 8.98001 15.1166 8.97546 14.2127C8.97445 14.0862 9.01748 14.0634 9.13341 14.0598C9.65131 14.0436 9.65131 14.039 9.65232 14.5641V15.4132C9.89178 15.0567 10.115 14.7672 10.2902 14.4508C10.4608 14.1431 10.6785 13.9964 11.0319 14.0619C11.1346 14.0807 11.244 14.0644 11.4004 14.0644C11.1063 14.4458 10.8516 14.7972 10.5737 15.1283C10.4365 15.2918 10.4411 15.4132 10.5504 15.5883C10.8471 16.0637 11.1225 16.5517 11.407 17.0351Z" fill="#7D7D7D"/>
<path d="M4.68186 17.0564C4.24496 17.0488 4.23534 17.0579 4.22977 16.611C4.22116 15.9732 4.22724 15.3354 4.22724 14.6976C4.19231 14.6946 4.15687 14.692 4.12194 14.689C4.01968 15.0378 3.91944 15.3872 3.81464 15.7356C3.70074 16.1134 3.57215 16.4876 3.47039 16.869C3.40154 17.127 3.2117 16.9802 3.07754 17.0112C2.95705 17.0386 2.88668 16.997 2.84922 16.8533C2.68975 16.2429 2.52775 15.6335 2.40118 15.015C2.3946 14.9825 2.3946 14.948 2.33993 14.9342C2.27057 14.9957 2.305 15.0851 2.30145 15.1607C2.27867 15.7097 2.25133 16.2586 2.24576 16.8081C2.24323 17.0168 2.17995 17.0813 1.96986 17.0732C1.57751 17.0574 1.58966 17.0711 1.61801 16.6608C1.67015 15.9108 1.70711 15.1592 1.74711 14.4076C1.76584 14.0613 1.76229 14.0593 2.09085 14.0644C2.29183 14.0674 2.54952 14.0034 2.67709 14.1035C2.80568 14.204 2.80011 14.4726 2.86036 14.6651C3.00666 15.1303 3.12715 15.6025 3.236 16.1195C3.37673 15.8153 3.41167 15.5142 3.50431 15.2318C3.61518 14.8972 3.71744 14.5595 3.80857 14.2192C3.84148 14.0959 3.89615 14.0532 4.01765 14.0608C4.16041 14.07 4.30622 14.0801 4.44695 14.0608C4.69552 14.0273 4.7745 14.1106 4.78057 14.3696C4.79981 15.1892 4.84436 16.0083 4.89296 16.8269C4.90309 17.0041 4.86512 17.0599 4.68186 17.0564Z" fill="#7D7D7D"/>
<path d="M11.407 17.0351C11.3761 17.0519 11.364 17.0625 11.3503 17.0656C10.843 17.1636 10.4907 17.0072 10.3089 16.4872C10.2249 16.2449 10.0619 16.0307 9.93076 15.7976C9.59815 15.9773 9.64726 16.2764 9.65131 16.5623C9.65839 17.1062 9.65738 17.1016 9.11417 17.0712C9.00128 17.0651 8.97445 17.0315 8.97495 16.9249C8.979 16.0205 8.98001 15.1166 8.97546 14.2127C8.97445 14.0862 9.01748 14.0634 9.13341 14.0598C9.65131 14.0436 9.65131 14.039 9.65232 14.5641V15.4132C9.89178 15.0567 10.115 14.7672 10.2902 14.4508C10.4608 14.1431 10.6785 13.9964 11.0319 14.0619C11.1346 14.0807 11.244 14.0644 11.4004 14.0644C11.1063 14.4458 10.8516 14.7972 10.5737 15.1283C10.4365 15.2918 10.4411 15.4132 10.5504 15.5883C10.8471 16.0637 11.1225 16.5517 11.407 17.0351Z" fill="#7D7D7D"/>
<path d="M8.58398 16.6598C8.57233 16.7512 8.57638 16.8457 8.58297 16.9381C8.59056 17.0376 8.55057 17.0691 8.45387 17.0686C7.91522 17.0651 7.37707 17.0635 6.83842 17.0686C6.72502 17.0696 6.69819 17.03 6.69869 16.9224C6.70274 16.019 6.70325 15.1161 6.70072 14.2127C6.70021 14.1121 6.71641 14.0695 6.83437 14.0603C7.39023 14.0187 7.38973 14.0136 7.38922 14.5763C7.38871 14.8124 7.38922 15.0491 7.38922 15.2852H7.39125C7.39125 15.6229 7.40137 15.9611 7.3872 16.2983C7.38011 16.473 7.4439 16.5105 7.60235 16.5034C7.87117 16.4912 8.14101 16.5029 8.40983 16.4963C8.53082 16.4938 8.6022 16.5151 8.58398 16.6598Z" fill="#7D7D7D"/>
<path d="M6.10351 16.9032C6.10604 17.0383 6.0625 17.0688 5.93341 17.0708C5.42817 17.0789 5.42969 17.084 5.4307 16.5797C5.43273 15.8124 5.4388 15.0446 5.42817 14.2768C5.42564 14.0945 5.47981 14.0559 5.65193 14.06C6.10149 14.0691 6.10098 14.0605 6.10047 14.5241C6.09997 14.8699 6.10047 15.2158 6.10047 15.5616C6.10047 16.009 6.09541 16.4558 6.10351 16.9032Z" fill="#7D7D7D"/>
</svg>
