<svg width="40" height="26" viewBox="0 0 40 26" fill="none" xmlns="http://www.w3.org/2000/svg">
<path d="M16.6262 5.96602C13.0452 6.06696 10.1838 9.0333 10.2908 12.5323C10.4009 16.1416 13.3011 18.9403 16.8511 18.8626C20.4011 18.785 23.2268 15.8978 23.1865 12.3864C23.1462 8.78326 20.1653 5.86817 16.6262 5.96602ZM18.0809 15.4956C17.7335 15.654 17.3039 15.6369 17.3117 16.2504C17.3164 16.5967 16.8511 16.4445 16.5874 16.4709C16.3362 16.4957 16.0725 16.4383 16.1082 16.1246C16.1578 15.6804 15.8601 15.6431 15.5685 15.5282C15.3095 15.4241 15.0319 15.2968 14.8458 15.1011C14.5247 14.7656 14.0595 14.4146 14.3867 13.8618C14.5278 13.6241 15.7624 13.7826 15.95 14.0621C16.1656 14.382 16.4354 14.4954 16.7953 14.497C17.1969 14.5001 17.5273 14.3758 17.6017 13.9441C17.6731 13.5341 17.3784 13.3322 17.0465 13.2188C16.5363 13.0433 16.0043 12.9237 15.4987 12.7358C14.579 12.3926 14.2161 11.8785 14.2192 11.015C14.2223 10.1453 14.7202 9.639 15.4661 9.32839C15.7872 9.19638 16.1315 9.1824 16.1268 8.66212C16.1222 8.24435 16.5487 8.40276 16.8061 8.38413C17.0605 8.36394 17.3877 8.33909 17.352 8.72891C17.3164 9.12028 17.5428 9.20104 17.8281 9.28645C18.2624 9.41691 18.616 9.67006 18.8626 10.0537C19.0146 10.2944 19.1976 10.56 19.0813 10.8442C18.9355 11.1998 18.5772 10.9653 18.3958 11.0243C17.9321 11.0554 17.5831 11.0554 17.3226 10.6392C17.0884 10.2618 16.6526 10.3099 16.2633 10.4078C15.9996 10.473 15.888 10.6904 15.8911 10.9327C15.8973 11.366 16.2059 11.5493 16.5719 11.6657C17.0636 11.821 17.5629 11.9562 18.0422 12.1394C18.7711 12.419 19.2565 12.902 19.2565 13.7499C19.2581 14.601 18.8238 15.1539 18.0809 15.4956Z" fill="#7D7D7D"/>
<path d="M33.4755 4.26086C33.4739 2.81185 32.8474 2.1751 31.419 2.1751C21.6329 2.17355 11.8452 2.17355 2.05905 2.1751C0.62913 2.1751 0.0025696 2.81341 0.0025696 4.26086C-0.000532183 9.69035 -0.000532182 15.1214 0.00101871 20.5493C0.0025696 22.0449 0.621376 22.6739 2.09938 22.6739C6.97849 22.677 11.8591 22.6755 16.7398 22.6755C21.5941 22.677 26.4484 22.6786 31.3027 22.6755C32.8582 22.6755 33.4755 22.0729 33.477 20.5478C33.4786 15.1214 33.4786 9.69035 33.4755 4.26086ZM31.0344 15.8141C31.0344 16.12 30.9506 16.252 30.6157 16.3141C28.4413 16.7226 26.8532 17.9355 25.9009 19.9312C25.7102 20.3303 25.4574 20.3428 25.1084 20.3412C22.3184 20.3334 19.5299 20.3366 16.7398 20.3366C13.9761 20.3366 11.2109 20.3257 8.44718 20.3474C7.98191 20.3521 7.73222 20.2434 7.50889 19.793C6.5644 17.8951 5.01506 16.735 2.93841 16.3281C2.54138 16.2489 2.43592 16.1153 2.43747 15.7411C2.44988 13.5171 2.44833 11.2931 2.43902 9.06912C2.43592 8.7259 2.53053 8.59699 2.89499 8.52555C5.03057 8.10623 6.60472 6.91658 7.56472 4.95507C7.72136 4.63514 7.87801 4.49847 8.25022 4.50003C13.9079 4.51245 19.5655 4.51245 25.2216 4.50003C25.5877 4.50003 25.7551 4.62272 25.9133 4.94731C26.8671 6.91348 28.4428 8.10157 30.5753 8.52555C30.9367 8.59699 31.0375 8.71813 31.0359 9.06446C31.0251 11.3164 31.0266 13.5652 31.0344 15.8141Z" fill="#7D7D7D"/>
<path d="M16.6262 5.96602C13.0452 6.06696 10.1838 9.0333 10.2908 12.5323C10.4009 16.1416 13.3011 18.9403 16.8511 18.8626C20.4011 18.785 23.2268 15.8978 23.1865 12.3864C23.1462 8.78326 20.1653 5.86817 16.6262 5.96602ZM18.0809 15.4956C17.7335 15.654 17.3039 15.6369 17.3117 16.2504C17.3164 16.5967 16.8511 16.4445 16.5874 16.4709C16.3362 16.4957 16.0725 16.4383 16.1082 16.1246C16.1578 15.6804 15.8601 15.6431 15.5685 15.5282C15.3095 15.4241 15.0319 15.2968 14.8458 15.1011C14.5247 14.7656 14.0595 14.4146 14.3867 13.8618C14.5278 13.6241 15.7624 13.7826 15.95 14.0621C16.1656 14.382 16.4354 14.4954 16.7953 14.497C17.1969 14.5001 17.5273 14.3758 17.6017 13.9441C17.6731 13.5341 17.3784 13.3322 17.0465 13.2188C16.5363 13.0433 16.0043 12.9237 15.4987 12.7358C14.579 12.3926 14.2161 11.8785 14.2192 11.015C14.2223 10.1453 14.7202 9.639 15.4661 9.32839C15.7872 9.19638 16.1315 9.1824 16.1268 8.66212C16.1222 8.24435 16.5487 8.40276 16.8061 8.38413C17.0605 8.36394 17.3877 8.33909 17.352 8.72891C17.3164 9.12028 17.5428 9.20104 17.8281 9.28645C18.2624 9.41691 18.616 9.67006 18.8626 10.0537C19.0146 10.2944 19.1976 10.56 19.0813 10.8442C18.9355 11.1998 18.5772 10.9653 18.3958 11.0243C17.9321 11.0554 17.5831 11.0554 17.3226 10.6392C17.0884 10.2618 16.6526 10.3099 16.2633 10.4078C15.9996 10.473 15.888 10.6904 15.8911 10.9327C15.8973 11.366 16.2059 11.5493 16.5719 11.6657C17.0636 11.821 17.5629 11.9562 18.0422 12.1394C18.7711 12.419 19.2565 12.902 19.2565 13.7499C19.2581 14.601 18.8238 15.1539 18.0809 15.4956Z" fill="#7D7D7D"/>
<path d="M16.6262 5.96602C13.0452 6.06696 10.1838 9.0333 10.2908 12.5323C10.4009 16.1416 13.3011 18.9403 16.8511 18.8626C20.4011 18.785 23.2268 15.8978 23.1865 12.3864C23.1462 8.78326 20.1653 5.86817 16.6262 5.96602ZM18.0809 15.4956C17.7335 15.654 17.3039 15.6369 17.3117 16.2504C17.3164 16.5967 16.8511 16.4445 16.5874 16.4709C16.3362 16.4957 16.0725 16.4383 16.1082 16.1246C16.1578 15.6804 15.8601 15.6431 15.5685 15.5282C15.3095 15.4241 15.0319 15.2968 14.8458 15.1011C14.5247 14.7656 14.0595 14.4146 14.3867 13.8618C14.5278 13.6241 15.7624 13.7826 15.95 14.0621C16.1656 14.382 16.4354 14.4954 16.7953 14.497C17.1969 14.5001 17.5273 14.3758 17.6017 13.9441C17.6731 13.5341 17.3784 13.3322 17.0465 13.2188C16.5363 13.0433 16.0043 12.9237 15.4987 12.7358C14.579 12.3926 14.2161 11.8785 14.2192 11.015C14.2223 10.1453 14.7202 9.639 15.4661 9.32839C15.7872 9.19638 16.1315 9.1824 16.1268 8.66212C16.1222 8.24435 16.5487 8.40276 16.8061 8.38413C17.0605 8.36394 17.3877 8.33909 17.352 8.72891C17.3164 9.12028 17.5428 9.20104 17.8281 9.28645C18.2624 9.41691 18.616 9.67006 18.8626 10.0537C19.0146 10.2944 19.1976 10.56 19.0813 10.8442C18.9355 11.1998 18.5772 10.9653 18.3958 11.0243C17.9321 11.0554 17.5831 11.0554 17.3226 10.6392C17.0884 10.2618 16.6526 10.3099 16.2633 10.4078C15.9996 10.473 15.888 10.6904 15.8911 10.9327C15.8973 11.366 16.2059 11.5493 16.5719 11.6657C17.0636 11.821 17.5629 11.9562 18.0422 12.1394C18.7711 12.419 19.2565 12.902 19.2565 13.7499C19.2581 14.601 18.8238 15.1539 18.0809 15.4956Z" fill="#7D7D7D"/>
</svg>
