<svg width="23" height="24" viewBox="0 0 23 24" fill="none" xmlns="http://www.w3.org/2000/svg">
<path d="M22.9967 6.56622C22.8835 4.93191 22.2001 3.55112 21.0716 2.39622C19.8943 1.19149 18.4853 0.427691 16.766 0.333435H15.0581C14.6417 0.456401 14.1987 0.38923 13.7828 0.52953C12.2438 1.04739 10.9821 1.9412 10.0529 3.28082C9.15451 4.57493 8.73809 6.01369 8.79061 7.58894C8.80144 7.90584 8.81823 8.22652 8.56914 8.48708C7.88737 9.2005 7.82401 9.99354 8.31354 10.8299C8.47599 11.1073 8.4213 11.2887 8.18574 11.4718C7.68376 11.8624 7.20777 12.2849 6.72528 12.6993C5.72294 13.5606 4.6827 14.3781 3.70581 15.2691C3.32187 15.6196 3.05437 16.0324 3.06141 16.579C3.06411 16.774 2.98993 16.937 2.83884 17.0643C1.72387 18.002 1.15745 19.2393 0.888855 20.639V21.7446C1.06051 22.704 1.6551 23.2137 2.59733 23.3529H3.60238C4.02151 23.276 4.4466 23.2581 4.78883 22.9206C5.42998 22.2879 5.62005 21.5268 5.50201 20.6715C5.42403 20.1087 5.28432 19.5545 5.09587 19.0172C4.9984 18.7376 5.03739 18.5746 5.36067 18.521C5.69912 18.4646 5.97854 18.2815 6.23955 18.0627C7.67347 16.8596 9.1074 15.6559 10.5316 14.4403C10.8321 14.1841 11.0287 14.1635 11.3401 14.4241C11.9655 14.9474 12.6982 15.0075 13.4032 14.6337C13.8088 14.4181 14.17 14.4062 14.5983 14.4783C17.5675 14.9788 19.9566 13.9869 21.7674 11.6051C22.5104 10.6284 22.9046 9.50277 22.9967 8.27473V8.07376C22.9117 7.60465 22.9117 7.13554 22.9967 6.66643V6.56622ZM5.69153 17.5919C5.41374 17.8249 5.08342 17.9841 4.72493 17.872C4.43685 17.7815 4.3253 17.9755 4.17476 18.1087C3.98631 18.2756 4.19263 18.4126 4.25544 18.5421C4.5771 19.2068 4.7688 19.9131 4.88576 20.633C5.02981 21.5214 4.48342 22.3703 3.71772 22.5404C2.72513 22.7608 1.86845 22.3627 1.56791 21.5512C1.4282 21.1742 1.43037 20.7788 1.53001 20.4169C1.78723 19.4781 2.16087 18.5892 2.93686 17.937C2.91845 17.2967 3.81194 17.1905 3.75887 16.4977C3.73451 16.1814 3.99931 15.9279 4.24894 15.7177C5.79442 14.4149 7.3399 13.111 8.88051 11.8023C9.03538 11.6706 9.13339 11.6327 9.2796 11.8174C9.71443 12.3651 10.1666 12.8998 10.6177 13.4463C8.9639 14.839 7.32907 16.2177 5.69153 17.5919ZM19.5905 4.39509C19.3409 4.70386 19.0718 4.55652 18.8617 4.34688C17.4034 2.89025 14.777 2.71799 13.1482 4.19629C12.9548 4.3718 12.7496 4.3485 12.5752 4.16974C12.3695 3.95848 12.4247 3.73801 12.6126 3.55167C13.1958 2.97367 13.9263 2.66599 14.7023 2.45364C15.09 2.34693 15.4897 2.32039 15.7377 2.33122C17.2555 2.31334 18.4209 2.80087 19.4194 3.7158C19.6268 3.90594 19.8191 4.11232 19.5905 4.39509ZM7.2538 13.9777C7.18286 14.0211 7.11355 14.0704 7.05506 14.1289C6.17781 15.0043 5.10778 15.6483 4.33992 16.6776C3.73451 17.4874 3.10906 18.2907 2.51989 19.1163C2.22206 19.5334 2.02603 20.0161 1.96538 20.541C1.87278 21.3503 2.30275 21.9001 3.07494 21.9467C3.92891 21.9987 4.44876 21.5149 4.43847 20.6022C4.38053 20.0442 4.24894 19.4251 3.91158 18.8817C3.74479 18.6131 3.7605 18.3985 3.92349 18.1651C4.03775 18.0015 4.16718 17.8482 4.28414 17.6867C4.59064 17.2631 5.12132 17.1992 5.50309 16.9311C6.37438 16.3184 7.16283 15.586 7.97076 14.8851C8.22636 14.6635 8.27401 14.3602 8.05578 14.0796C7.8343 13.7946 7.5473 13.7979 7.2538 13.9777Z" fill="#7D7D7D"/>
<path d="M22.9966 8.07374C22.8483 7.60463 22.8244 7.13552 22.9966 6.66641C22.9966 7.13552 22.9966 7.60463 22.9966 8.07374Z" fill="#7D7D7D"/>
<path d="M7.97054 14.885C7.16261 15.586 6.37416 16.3183 5.50287 16.931C5.1211 17.1991 4.59042 17.2631 4.28392 17.6867C4.16696 17.8481 4.03753 18.0014 3.92327 18.165C3.76028 18.3985 3.74458 18.613 3.91136 18.8817C4.24872 19.425 4.38031 20.0441 4.43825 20.6021C4.44854 21.5149 3.92869 21.9986 3.07472 21.9466C2.30253 21.9 1.87256 21.3502 1.96516 20.5409C2.02581 20.016 2.22184 19.5333 2.51967 19.1162C3.10884 18.2907 3.73429 17.4873 4.3397 16.6775C5.10756 15.6483 6.17759 15.0042 7.05484 14.1288C7.11333 14.0703 7.18264 14.021 7.25358 13.9777C7.54708 13.7978 7.83408 13.7946 8.05556 14.0795C8.27379 14.3601 8.22614 14.6634 7.97054 14.885Z" fill="#7D7D7D"/>
<path d="M7.97054 14.885C7.16261 15.586 6.37416 16.3183 5.50287 16.931C5.1211 17.1991 4.59042 17.2631 4.28392 17.6867C4.16696 17.8481 4.03753 18.0014 3.92327 18.165C3.76028 18.3985 3.74458 18.613 3.91136 18.8817C4.24872 19.425 4.38031 20.0441 4.43825 20.6021C4.44854 21.5149 3.92869 21.9986 3.07472 21.9466C2.30253 21.9 1.87256 21.3502 1.96516 20.5409C2.02581 20.016 2.22184 19.5333 2.51967 19.1162C3.10884 18.2907 3.73429 17.4873 4.3397 16.6775C5.10756 15.6483 6.17759 15.0042 7.05484 14.1288C7.11333 14.0703 7.18264 14.021 7.25358 13.9777C7.54708 13.7978 7.83408 13.7946 8.05556 14.0795C8.27379 14.3601 8.22614 14.6634 7.97054 14.885Z" fill="#7D7D7D"/>
</svg>
