<svg width="20" height="19" viewBox="0 0 20 19" fill="none" xmlns="http://www.w3.org/2000/svg">
<path d="M10.1005 9.11852C9.35127 9.79627 9.54296 10.5942 9.79356 11.3912C9.93358 11.8348 10.1749 12.2285 10.4813 12.5745C10.581 12.6873 10.5872 12.755 10.5025 12.8821C10.1754 13.3719 10.0896 13.9089 10.287 14.4707C10.4622 14.9689 10.8223 15.2455 11.3457 15.286C11.4511 15.2944 11.5338 15.2854 11.5756 15.4267C11.7885 16.1438 12.1006 16.8168 12.5 17.4462C12.4426 17.5276 12.3682 17.4924 12.3073 17.4924C8.51216 17.4945 4.71704 17.4945 0.921924 17.4935C0.364928 17.4935 0.0140931 17.1538 0.0109929 16.5895C0.00427589 15.1815 -0.0117416 13.7735 0.0146098 12.366C0.0414779 10.9265 0.852171 9.89392 2.2798 9.40464C2.79184 9.22929 3.31318 9.09333 3.85055 9.0193C3.96938 9.00303 4.03345 9.0235 4.11148 9.1159C5.52257 10.779 7.85596 10.7859 9.26498 9.12745C9.36574 9.0088 9.44892 8.97783 9.59257 9.01458C9.74912 9.05395 9.91653 9.04713 10.1005 9.11852Z" fill="#7D7D7D"/>
<path d="M18.9272 13.0851C18.8344 12.9785 18.8187 12.9016 18.9469 12.8034C19.1193 12.6717 19.2602 12.5054 19.391 12.3337C19.8153 11.7768 20.0652 11.166 19.9851 10.4581C19.9618 10.2548 19.8498 10.0974 19.6531 10.0293C19.4549 9.96077 19.2663 10.0145 19.1228 10.168C18.9931 10.3076 18.8689 10.4531 18.7528 10.6036C18.3934 11.0678 17.9346 11.4033 17.3846 11.6238C17.0809 11.7462 16.7843 11.7442 16.4832 11.5962C15.4983 11.1112 14.5067 11.1172 13.5217 11.5952C13.2196 11.7417 12.9256 11.7467 12.6214 11.6238C12.0471 11.3915 11.5726 11.0363 11.2086 10.5434C11.0859 10.3772 10.9693 10.205 10.7863 10.091C10.5379 9.93512 10.2652 9.98939 10.1085 10.2321C10.0305 10.353 9.99853 10.4882 10.0001 10.6307C10.0077 11.4867 10.3803 12.1823 11.0114 12.7516C11.1766 12.9006 11.1853 12.9874 11.0301 13.1413C10.8836 13.2864 10.7523 13.4556 10.6819 13.651C10.5602 13.9874 10.5237 14.3347 10.7706 14.6312C10.9967 14.9026 11.3069 14.8631 11.607 14.76C11.7576 14.7087 11.7682 14.7891 11.7951 14.8981C11.9964 15.7082 12.3193 16.4684 12.8004 17.1611C12.8865 17.2854 12.9129 17.4092 12.882 17.5557C12.7907 17.9864 12.9514 18.3535 13.3342 18.5873C13.8431 18.8976 14.4043 19.0131 14.9984 18.9988C15.6017 19.0136 16.1705 18.8962 16.6865 18.5804C17.0393 18.3643 17.235 17.9672 17.1336 17.5888C17.0839 17.4048 17.128 17.2805 17.2254 17.1369C17.6933 16.4467 18.0253 15.6973 18.2073 14.8897C18.2423 14.7329 18.297 14.7378 18.4288 14.7728C19.1467 14.9618 19.5755 14.5227 19.3814 13.8138C19.3023 13.5252 19.1183 13.3036 18.9272 13.0851ZM13.3843 15.4931C13.0629 15.4581 12.8318 15.1843 12.8323 14.7945C12.8358 14.7699 12.8308 14.6914 12.8587 14.6263C12.8997 14.5291 12.9575 14.4235 13.0797 14.4146C13.1882 14.4063 13.2677 14.4822 13.32 14.5681C13.4355 14.757 13.5425 14.9504 13.6535 15.1413C13.7062 15.2321 13.7255 15.3199 13.6566 15.4137C13.5851 15.5109 13.4847 15.5039 13.3843 15.4931ZM14.0408 18.3461C13.8076 18.3505 13.6383 18.1922 13.6403 17.9716C13.6424 17.762 13.8051 17.6021 14.0205 17.5977C14.2512 17.5932 14.4231 17.7546 14.4225 17.9756C14.422 18.1803 14.2553 18.3421 14.0408 18.3461ZM15.989 18.3451C15.7608 18.35 15.5804 18.1857 15.5794 17.9726C15.5789 17.7738 15.7543 17.6021 15.9646 17.5967C16.1887 17.5913 16.3747 17.7625 16.3732 17.9741C16.3722 18.1783 16.2044 18.3407 15.989 18.3451ZM16.5638 15.4985C16.354 15.5 16.2455 15.3628 16.3357 15.1833C16.4427 14.9711 16.5608 14.762 16.6961 14.5656C16.8492 14.3431 17.0368 14.3688 17.1433 14.6115C17.3161 15.0067 16.9968 15.4956 16.5638 15.4985Z" fill="#7D7D7D"/>
<path d="M9.98477 4.57901C9.96797 4.43446 9.9532 4.24293 9.80452 4.20782C9.52244 4.14071 9.58354 3.94195 9.58099 3.75764C9.57845 3.54288 9.58049 3.32812 9.58049 3.05243C9.5535 2.73855 9.61817 2.3622 9.53517 1.98687C9.48985 1.78347 9.31317 1.65647 9.27243 1.47371C9.10237 0.713781 8.56875 0.367371 7.8941 0.159319C7.30804 -0.0213715 6.7067 -0.0079488 6.10638 0.009604C4.56205 0.0540023 3.4439 1.21145 3.42456 2.77882C3.41997 3.16549 3.42557 3.55217 3.4215 3.93885C3.42048 4.01474 3.46529 4.11696 3.33647 4.14639C3.07933 4.20627 3.0386 4.41278 3.01263 4.63528C2.93015 5.33739 3.26264 5.88205 3.68831 6.37094C3.93271 6.65179 4.10329 6.94864 4.24076 7.29711C4.61806 8.25477 5.28966 8.89906 6.34162 8.99147C7.3671 9.0813 8.29125 8.45508 8.71489 7.40966C8.87579 7.01162 9.03618 6.63217 9.35339 6.32809C9.5092 6.17838 9.61358 5.97084 9.73171 5.78344C9.96491 5.41535 10.0347 5.00802 9.98477 4.57901ZM9.13088 6.04622C8.81061 6.40863 8.58148 6.79737 8.39869 7.25065C8.0499 8.11642 7.37423 8.61822 6.43938 8.63267C5.58448 8.64506 5.00147 8.12674 4.66694 7.38746C4.4261 6.8552 4.18272 6.35184 3.78098 5.92232C3.5493 5.67554 3.4047 5.35443 3.35429 5.00492C3.34462 4.93781 3.32628 4.86811 3.33392 4.80255C3.34767 4.68742 3.33087 4.53306 3.45307 4.48763C3.55745 4.44891 3.61244 4.59243 3.69136 4.6518C3.80084 4.73492 3.87416 4.94659 4.01113 4.8867C4.12162 4.83817 4.02233 4.63373 4.05491 4.52584C4.04473 4.27803 4.04269 4.06327 4.20105 3.87019C4.29728 3.753 4.2871 3.58057 4.30441 3.42724C4.3258 3.23777 4.39861 3.14742 4.60686 3.26152C5.31258 3.64716 6.06667 3.77984 6.86302 3.67762C7.25508 3.62755 7.50763 3.40659 7.65224 3.04417C7.70265 2.91769 7.74491 2.78708 7.80397 2.66472C7.91701 2.42931 8.06874 2.40143 8.26579 2.57128C8.29787 2.59916 8.33301 2.62755 8.35439 2.66317C8.69197 3.22177 8.98679 3.79378 8.93078 4.48195C8.91907 4.62392 8.86153 4.82785 8.9822 4.89031C9.13037 4.96724 9.19148 4.74215 9.30095 4.66264C9.33455 4.63786 9.35899 4.60069 9.39005 4.57127C9.43893 4.5248 9.48476 4.46595 9.56368 4.49279C9.65228 4.52274 9.62275 4.60276 9.63191 4.66729C9.7088 5.21814 9.46796 5.66522 9.13088 6.04622Z" fill="#7D7D7D"/>
</svg>
