<svg width="21" height="19" viewBox="0 0 21 19" fill="none" xmlns="http://www.w3.org/2000/svg">
<path d="M7.36407 13.3213C7.53497 13.225 7.72903 13.2103 7.91499 13.1697C8.12926 13.1228 8.34352 13.0762 8.54235 12.9838C8.77095 12.8773 8.91208 12.7022 8.97052 12.468C9.05872 12.1126 9.04512 11.7498 9.04953 11.3888C9.05578 10.8761 9.02859 10.3617 9.11312 9.85257C9.24763 9.03983 9.89079 8.50792 10.7548 8.48061C11.1606 8.46765 11.5605 8.52368 11.9611 8.56745C12.4447 8.62033 12.9207 8.61682 13.394 8.47536C13.8953 8.32583 14.1261 7.99983 14.15 7.51869C14.1644 7.23331 14.1824 6.94757 14.1794 6.66218C14.1746 6.18035 14.2842 5.72688 14.5135 5.29932C14.594 5.14945 14.6105 5.01218 14.5642 4.83815C14.3375 3.98654 14.4753 3.1745 14.9237 2.41113C15.5742 1.30319 16.5051 0.510759 17.7944 0.137479C18.3802 -0.0320031 18.9763 -0.0582658 19.5629 0.135028C20.4589 0.43022 20.9933 1.17958 20.9999 2.14325C21.0054 2.92763 20.7188 3.62481 20.2649 4.26492C19.65 5.13194 18.8304 5.75244 17.7856 6.0879C17.2901 6.24688 16.7745 6.24093 16.2596 6.21431C15.9781 6.19961 15.9626 6.21256 15.8726 6.47169C15.773 6.75743 15.7855 7.05822 15.7333 7.35026C15.6201 7.98582 15.4657 8.60667 15.0431 9.13157C14.6598 9.60745 14.1541 9.84872 13.5201 9.88689C12.7531 9.93311 12.0265 9.78464 11.3087 9.55493C11.1933 9.51816 11.075 9.48734 10.9555 9.46493C10.4288 9.36619 10.0551 9.6036 9.8952 10.1383C9.76914 10.5599 9.73019 10.9959 9.67138 11.4287C9.62508 11.7694 9.57068 12.1087 9.43911 12.4316C9.25241 12.8889 8.91686 13.1816 8.40527 13.279C8.06237 13.3438 7.71616 13.3567 7.36407 13.3213Z" fill="#7D7D7D"/>
<path d="M0 13.6082C0.222719 13.5557 0.447643 13.5105 0.667789 13.4489C0.999295 13.3561 1.16174 13.1393 1.18967 12.8084C1.22716 12.3595 1.20621 11.9106 1.22201 11.462C1.22936 11.2579 1.24884 11.0569 1.31977 10.8604C1.46789 10.4493 1.80932 10.2333 2.20918 10.1209C2.40838 10.0649 2.64506 10.1237 2.86447 10.1391C3.25552 10.1664 3.64693 10.1699 4.03908 10.1675C4.29708 10.1657 4.51024 10.0547 4.71054 9.91743C4.83219 9.83409 4.86821 9.70313 4.89283 9.56726C4.96487 9.16947 4.934 8.76432 4.99427 8.36548C5.02073 8.1904 5.06447 8.01986 5.15671 7.86894C5.24014 7.73202 5.25484 7.59371 5.21736 7.44874C5.00235 6.62234 5.27469 5.90659 5.78444 5.25633C6.29934 4.59941 6.97007 4.12983 7.82677 3.99187C8.75476 3.84235 9.41741 4.09517 9.76619 4.84908C9.96649 5.28189 9.94884 5.74727 9.79449 6.18533C9.38837 7.33703 8.56622 8.0941 7.33135 8.42326C7.07114 8.49259 6.79734 8.47228 6.52794 8.46143C6.24605 8.45022 6.20305 8.48559 6.15197 8.75172C6.07221 9.16877 6.04685 9.59632 5.89029 9.99867C5.66206 10.5859 5.28535 11.0254 4.59587 11.128C4.22909 11.1826 3.86303 11.1388 3.50396 11.0565C3.18973 10.9844 2.88028 10.8934 2.56531 10.8244C2.28195 10.7624 2.1015 10.844 1.94971 11.0828C1.78432 11.3433 1.73324 11.6361 1.69906 11.9327C1.66084 12.2625 1.62335 12.5931 1.51125 12.9096C1.3738 13.2987 1.12278 13.5606 0.665952 13.6051C0.445805 13.6264 0.227864 13.6387 0 13.6082Z" fill="#7D7D7D"/>
<path d="M10.388 18.7585C10.5703 18.6867 10.7423 18.6762 10.9066 18.6377C11.3285 18.5386 11.5273 18.3113 11.5413 17.8964C11.5571 17.4184 11.5597 16.9401 11.5813 16.4624C11.6133 15.7551 12.1271 15.2498 12.8122 15.2582C13.0988 15.2617 13.3848 15.3023 13.6707 15.3268C14.0507 15.3594 14.4271 15.3619 14.7928 15.2337C15.093 15.1287 15.2206 14.9193 15.2569 14.6244C15.297 14.2988 15.2628 13.9713 15.3095 13.6471C15.3455 13.3967 15.4194 13.1586 15.5432 12.9352C15.594 12.8431 15.6101 12.7489 15.5833 12.6481C15.3554 11.7957 15.6009 11.0488 16.153 10.3762C16.6083 9.82114 17.1761 9.39463 17.8928 9.20799C18.5812 9.02871 19.2718 9.0126 19.8183 9.56587C20.2486 10.0018 20.3288 10.5369 20.206 11.0996C19.9304 12.3634 18.8032 13.3876 17.465 13.61C17.2217 13.6502 16.9758 13.6429 16.7337 13.6093C16.6208 13.5935 16.5752 13.6345 16.5462 13.7213C16.4793 13.9223 16.4602 14.1314 16.4319 14.3394C16.3625 14.8471 16.2246 15.3318 15.8909 15.7474C15.6223 16.0818 15.265 16.2569 14.8258 16.2867C14.2856 16.3234 13.7688 16.2177 13.2613 16.0541C13.1279 16.0114 12.9926 15.9782 12.8519 15.9673C12.5358 15.9428 12.3579 16.0436 12.2344 16.3248C12.101 16.6295 12.0738 16.9555 12.022 17.2773C11.9713 17.5921 11.9503 17.9135 11.7956 18.2073C11.6306 18.5211 11.3917 18.7287 11.0091 18.755C10.8107 18.7687 10.6122 18.8236 10.388 18.7585Z" fill="#7D7D7D"/>
</svg>
