<svg width="20" height="20" viewBox="0 0 20 20" fill="none" xmlns="http://www.w3.org/2000/svg">
<path d="M18.5061 2.59858C18.5197 2.779 18.4465 2.93394 18.368 3.08682C17.1968 5.36078 16.0239 7.63432 14.8535 9.90869C13.9026 11.7573 12.9537 13.6067 12.0056 15.4565C11.9074 15.648 11.7586 15.7808 11.5749 15.8823C11.1019 16.1437 10.6297 16.4075 10.1551 16.666C9.6455 16.9439 9.16797 16.8074 8.88523 16.2986C8.10154 14.8869 7.32237 13.4727 6.53991 12.0602C5.91731 10.9357 5.29266 9.81252 4.66842 8.6889C4.34417 8.10572 4.46705 7.6557 5.04608 7.33061C5.48704 7.08279 5.93128 6.8399 6.37388 6.59495C6.94306 6.28014 7.40045 6.40919 7.71606 6.97799C8.44962 8.30011 9.18112 9.62306 9.91344 10.9456C9.92331 10.9637 9.93235 10.9822 9.94221 10.9998C9.99193 11.0903 10.0371 11.1897 10.1641 11.1836C10.2775 11.1778 10.3199 11.0886 10.3647 11.0011C10.6544 10.4356 10.9454 9.87047 11.2363 9.30537C12.5793 6.69688 13.9219 4.08797 15.2661 1.47989C15.5526 0.92383 16.0087 0.782452 16.5672 1.06932C17.0476 1.31591 17.528 1.56208 18.0064 1.81278C18.3212 1.97841 18.4962 2.23774 18.5061 2.59858Z" fill="#7D7D7D"/>
<path d="M9.81608 0.000427641C10.0762 0.000427641 10.3359 0.0012496 10.5961 1.66601e-05C10.7206 -0.000805302 10.772 0.0283743 10.7526 0.179615C10.6795 0.763208 10.6191 1.34844 10.5698 1.9345C10.5533 2.13136 10.5061 2.21027 10.2829 2.19876C9.23828 2.14493 8.22445 2.31178 7.24678 2.68537C7.14035 2.72605 7.09432 2.71413 7.04788 2.60646C6.79843 2.02944 6.54693 1.45366 6.2835 0.882803C6.21734 0.739371 6.26255 0.697862 6.38871 0.649777C7.49295 0.229755 8.63458 0.00659235 9.81608 0.000427641Z" fill="#7D7D7D"/>
<path d="M19.9987 10.0703C19.9987 10.2409 19.9974 10.4114 19.9991 10.582C20.0003 10.7127 19.942 10.7628 19.8101 10.7484C19.3358 10.6967 18.8607 10.6502 18.3861 10.6017C18.2439 10.5873 18.1021 10.5688 17.9595 10.5577C17.8445 10.5487 17.7972 10.5027 17.8013 10.3773C17.8186 9.86565 17.812 9.35562 17.7286 8.84642C17.6476 8.35406 17.5449 7.86952 17.369 7.40182C17.2625 7.11906 17.2671 7.11824 17.5408 6.99906C18.0581 6.77343 18.5751 6.54616 19.0868 6.30779C19.2281 6.24203 19.3029 6.26505 19.3543 6.40519C19.7879 7.58841 20.0221 8.80779 19.9987 10.0703Z" fill="#7D7D7D"/>
<path d="M0.000842306 10.1418C0.000842306 9.89559 0.00289708 9.649 2.03953e-05 9.40283C-0.00162343 9.28652 0.0205682 9.23515 0.16317 9.25241C0.774261 9.32639 1.38658 9.38968 1.99932 9.44598C2.14315 9.45913 2.19534 9.49489 2.18795 9.65229C2.13699 10.7184 2.29356 11.754 2.67411 12.7523C2.71438 12.8575 2.69712 12.9073 2.59109 12.9533C2.0137 13.2028 1.43672 13.453 0.865904 13.7169C0.703576 13.7921 0.680974 13.7005 0.639878 13.5924C0.21906 12.4807 -0.000801516 11.3307 0.000842306 10.1418Z" fill="#7D7D7D"/>
<path d="M2.14313 8.85452C1.47204 8.78342 0.854378 8.71108 0.235478 8.65642C0.0378089 8.63875 0.0858907 8.52409 0.103562 8.41394C0.258903 7.46376 0.539586 6.55261 0.955884 5.68421C1.15684 5.2646 1.38862 4.86266 1.64177 4.47223C1.7141 4.36044 1.76464 4.36291 1.86327 4.43647C2.36793 4.81129 2.87628 5.18158 3.38669 5.54817C3.48038 5.61558 3.48655 5.66777 3.42532 5.76188C2.83765 6.66851 2.4608 7.65815 2.27711 8.72218C2.25327 8.86356 2.24998 8.86274 2.14313 8.85452Z" fill="#7D7D7D"/>
<path d="M10.1227 19.9986C9.87693 19.9986 9.63077 19.9953 9.38502 19.9998C9.26379 20.0023 9.23543 19.9513 9.24776 19.8375C9.31598 19.2198 9.3805 18.6017 9.44091 17.9831C9.45283 17.8598 9.48981 17.8077 9.62789 17.8138C10.6988 17.8627 11.7406 17.7111 12.7442 17.326C12.8514 17.2849 12.9016 17.3132 12.9459 17.4156C13.1933 17.9856 13.4432 18.5548 13.7013 19.1203C13.7662 19.2629 13.714 19.309 13.5887 19.3566C12.4717 19.7828 11.3161 19.9986 10.1227 19.9986Z" fill="#7D7D7D"/>
<path d="M3.83705 5.12617C3.80499 5.10439 3.76513 5.07891 3.7265 5.05096C3.22349 4.68478 2.72212 4.31613 2.21624 3.95405C2.1172 3.88336 2.09459 3.8398 2.1809 3.73377C3.09897 2.60193 4.20732 1.70804 5.50265 1.04102C5.64895 0.965812 5.69251 1.01102 5.74717 1.13801C5.98799 1.69571 6.23168 2.25218 6.48607 2.80413C6.54976 2.94222 6.52675 2.99688 6.39237 3.06592C5.44388 3.55417 4.6306 4.21256 3.95417 5.03904C3.89417 5.11179 3.87485 5.12617 3.83705 5.12617Z" fill="#7D7D7D"/>
<path d="M8.84703 17.8369C8.77552 18.5109 8.70525 19.1418 8.64443 19.7739C8.62881 19.9362 8.53594 19.9144 8.42991 19.8976C7.58868 19.764 6.77746 19.5273 5.99623 19.1886C5.49363 18.9708 5.01816 18.7029 4.55213 18.4152C4.38529 18.3124 4.34214 18.2421 4.48063 18.0646C4.84186 17.6018 5.18048 17.1214 5.52034 16.6422C5.60089 16.5288 5.65884 16.5131 5.77925 16.5912C6.68006 17.1752 7.66594 17.5435 8.72251 17.7255C8.85032 17.7477 8.85032 17.749 8.84703 17.8369Z" fill="#7D7D7D"/>
<path d="M17.8901 11.1582C18.5292 11.226 19.1604 11.2938 19.7916 11.3587C19.9359 11.3735 19.903 11.4718 19.8903 11.556C19.8097 12.0907 19.6819 12.6151 19.5142 13.1288C19.2373 13.9767 18.8394 14.767 18.3636 15.5203C18.2978 15.6247 18.23 15.6436 18.1314 15.5713C17.6251 15.2002 17.118 14.8299 16.6117 14.4588C16.5286 14.398 16.5056 14.3412 16.5734 14.2381C17.1607 13.3467 17.5211 12.3648 17.7073 11.3177C17.7303 11.1882 17.7652 11.129 17.8901 11.1582Z" fill="#7D7D7D"/>
<path d="M16.1616 14.8898C16.1908 14.9091 16.2253 14.9305 16.2582 14.9543C16.7674 15.3229 17.2757 15.6924 17.7861 16.0594C17.8807 16.1272 17.8803 16.179 17.8051 16.2723C16.903 17.3889 15.8148 18.2746 14.5388 18.9326C14.3802 19.0144 14.3045 19.0164 14.2265 18.8253C14.0074 18.2882 13.7641 17.7605 13.5233 17.232C13.4592 17.091 13.4625 17.0174 13.6223 16.934C14.54 16.4531 15.3397 15.8206 16.0022 15.0192C16.0433 14.9695 16.0749 14.9013 16.1616 14.8898Z" fill="#7D7D7D"/>
<path d="M2.9207 13.4683C3.01358 13.4625 3.01728 13.5509 3.04564 13.6047C3.46234 14.3905 3.98508 15.0954 4.6348 15.704C4.75439 15.8158 4.87685 15.9251 5.00466 16.0279C5.10411 16.108 5.1037 16.1906 5.03548 16.2847C4.66562 16.7935 4.29494 17.3011 3.92631 17.8107C3.8696 17.8892 3.8244 17.8941 3.74549 17.8308C2.59646 16.902 1.68743 15.7801 1.0225 14.4604C0.987981 14.3922 0.951406 14.3334 1.06072 14.2857C1.66195 14.0243 2.2603 13.7572 2.85988 13.4921C2.87838 13.4839 2.8981 13.4769 2.9207 13.4683Z" fill="#7D7D7D"/>
<path d="M11.1496 2.01004C11.2499 1.44371 11.2667 0.836279 11.3497 0.235836C11.3732 0.0669227 11.494 0.0858278 11.5963 0.107199C11.9764 0.186107 12.3566 0.26707 12.7318 0.365706C13.4045 0.542428 14.0361 0.828059 14.66 1.13095C14.8987 1.24685 14.9082 1.27767 14.8079 1.52426C14.5909 2.05771 14.2704 2.53856 14.0324 3.06215C13.9835 3.16942 13.8915 3.21052 13.7608 3.14065C13.2512 2.86817 12.7227 2.63802 12.1626 2.48801C11.8934 2.41568 11.6222 2.35033 11.3506 2.28786C11.1443 2.24019 11.143 2.2443 11.1496 2.01004Z" fill="#7D7D7D"/>
<path d="M17.136 6.50877C17.0333 6.49192 17.0571 6.42493 17.0846 6.3715C17.4183 5.72585 17.7553 5.08225 18.0886 4.43619C18.1634 4.29071 18.23 4.27468 18.3204 4.42263C18.5542 4.80566 18.7864 5.1887 18.9939 5.58694C19.035 5.66585 18.9944 5.67201 18.9409 5.70078C18.5694 5.90298 18.1687 6.04066 17.7886 6.22314C17.6292 6.29958 17.4681 6.37232 17.3066 6.44466C17.2511 6.46973 17.1923 6.48822 17.136 6.50877Z" fill="#7D7D7D"/>
</svg>
