<svg width="18" height="21" viewBox="0 0 18 21" fill="none" xmlns="http://www.w3.org/2000/svg">
<path d="M7.73537 13.2586C7.64619 13.1745 7.63499 13.1322 7.74777 13.0569C7.96255 12.9131 8.17212 12.7593 8.3709 12.5943C8.57728 12.423 8.56808 12.2795 8.3701 12.0982C8.25251 11.9902 8.14213 11.9639 8.00294 12.0703C7.69858 12.303 7.38622 12.5258 7.03986 12.7796C7.02866 12.562 7.01546 12.3843 7.01066 12.2066C7.00426 11.9612 7.01066 11.7157 6.99906 11.4706C6.98986 11.277 6.87747 11.1706 6.70069 11.1642C6.52272 11.1578 6.37233 11.2762 6.36233 11.4567C6.31074 12.364 6.31194 13.2721 6.36153 14.1802C6.37073 14.3496 6.46832 14.4448 6.6379 14.4635C6.86788 14.489 6.98786 14.3926 6.99986 14.1531C7.01066 13.9415 7.00226 13.7287 7.00226 13.549C7.27423 13.7977 7.5398 14.038 7.80297 14.281C8.03534 14.4958 8.22892 14.5325 8.3749 14.3838C8.52728 14.2284 8.50409 14.0491 8.28291 13.81C8.10733 13.6196 7.92415 13.4359 7.73537 13.2586ZM11.2378 12.3612C11.2474 12.1492 11.0938 12.1026 10.9594 12.0253C10.8254 11.9484 10.7238 12.0197 10.6486 12.1154C10.565 12.2217 10.4951 12.215 10.3847 12.1548C10.1807 12.0432 9.96472 11.9592 9.72114 12.0118C9.04802 12.1564 8.66407 12.6848 8.71806 13.3936C8.76166 13.9634 9.2864 14.4611 9.85193 14.4743C10.0511 14.4787 10.2303 14.4193 10.4027 14.3284C10.4439 14.3065 10.4907 14.281 10.5323 14.3149C10.579 14.3527 10.5426 14.4002 10.5307 14.4428C10.4299 14.7954 10.1091 14.972 9.75634 14.8568C9.62556 14.8142 9.50597 14.7365 9.37838 14.6823C9.14641 14.5839 8.96603 14.6464 8.88164 14.8488C8.81165 15.0162 8.88244 15.1967 9.09002 15.333C9.42198 15.5505 9.78914 15.5872 10.1775 15.5394C10.6966 15.4756 11.153 15.0277 11.2082 14.5089C11.2494 14.1252 11.2234 13.7403 11.2338 13.4156C11.2338 13.0243 11.2226 12.6923 11.2378 12.3612ZM9.99951 13.7985C9.65955 13.8104 9.41398 13.5909 9.40638 13.2677C9.39878 12.9553 9.65235 12.6756 9.94912 12.6688C10.2331 12.6625 10.5171 12.933 10.5235 13.2163C10.5307 13.5367 10.3047 13.7881 9.99951 13.7985ZM11.2378 12.3612C11.2474 12.1492 11.0938 12.1026 10.9594 12.0253C10.8254 11.9484 10.7238 12.0197 10.6486 12.1154C10.565 12.2217 10.4951 12.215 10.3847 12.1548C10.1807 12.0432 9.96472 11.9592 9.72114 12.0118C9.04802 12.1564 8.66407 12.6848 8.71806 13.3936C8.76166 13.9634 9.2864 14.4611 9.85193 14.4743C10.0511 14.4787 10.2303 14.4193 10.4027 14.3284C10.4439 14.3065 10.4907 14.281 10.5323 14.3149C10.579 14.3527 10.5426 14.4002 10.5307 14.4428C10.4299 14.7954 10.1091 14.972 9.75634 14.8568C9.62556 14.8142 9.50597 14.7365 9.37838 14.6823C9.14641 14.5839 8.96603 14.6464 8.88164 14.8488C8.81165 15.0162 8.88244 15.1967 9.09002 15.333C9.42198 15.5505 9.78914 15.5872 10.1775 15.5394C10.6966 15.4756 11.153 15.0277 11.2082 14.5089C11.2494 14.1252 11.2234 13.7403 11.2338 13.4156C11.2338 13.0243 11.2226 12.6923 11.2378 12.3612ZM9.99951 13.7985C9.65955 13.8104 9.41398 13.5909 9.40638 13.2677C9.39878 12.9553 9.65235 12.6756 9.94912 12.6688C10.2331 12.6625 10.5171 12.933 10.5235 13.2163C10.5307 13.5367 10.3047 13.7881 9.99951 13.7985ZM7.74777 13.0569C7.96255 12.9131 8.17212 12.7593 8.3709 12.5943C8.57728 12.423 8.56808 12.2795 8.3701 12.0982C8.25251 11.9902 8.14213 11.9639 8.00294 12.0703C7.69858 12.303 7.38622 12.5258 7.03986 12.7796C7.02866 12.562 7.01546 12.3843 7.01066 12.2066C7.00426 11.9612 7.01066 11.7157 6.99906 11.4706C6.98986 11.277 6.87747 11.1706 6.70069 11.1642C6.52272 11.1578 6.37233 11.2762 6.36233 11.4567C6.31074 12.364 6.31194 13.2721 6.36153 14.1802C6.37073 14.3496 6.46832 14.4448 6.6379 14.4635C6.86788 14.489 6.98786 14.3926 6.99986 14.1531C7.01066 13.9415 7.00226 13.7287 7.00226 13.549C7.27423 13.7977 7.5398 14.038 7.80297 14.281C8.03534 14.4958 8.22892 14.5325 8.3749 14.3838C8.52728 14.2284 8.50409 14.0491 8.28291 13.81C8.10733 13.6196 7.92415 13.4359 7.73537 13.2586C7.64619 13.1745 7.63499 13.1322 7.74777 13.0569ZM17.475 17.9903C16.7539 14.9214 16.0456 11.8492 15.2785 8.79095C15.0685 7.95338 14.797 7.16402 14.0822 6.58345C13.4375 6.05947 12.7568 5.70005 11.9033 5.6877C11.3714 5.67973 10.839 5.66499 10.2935 5.63351C10.6478 5.36016 11.0018 5.09319 11.2522 4.71743C11.5009 4.34447 11.7025 3.948 11.7545 3.50052C11.8065 3.05264 11.8053 2.59879 11.6741 2.16088C11.5453 1.73133 11.331 1.34362 11.0262 1.00931C9.93752 -0.186489 8.14333 -0.343883 6.90627 0.666627C6.09796 1.32728 5.72521 2.1816 5.7932 3.23793C5.86159 4.30622 6.43193 5.04736 7.27623 5.64307C6.92067 5.66419 6.58111 5.64905 6.24395 5.66778C5.7932 5.69288 5.32805 5.63709 4.8957 5.78692C3.70944 6.19853 2.82594 6.93251 2.45159 8.17453C2.3756 8.42675 2.3056 8.68138 2.24121 8.93679C1.52249 11.803 0.861771 14.6831 0.17905 17.5576C0.0650629 18.0374 -0.0665219 18.5163 0.038266 19.026C0.231444 19.9643 1.01135 20.6254 1.96924 20.637C2.44199 20.6425 2.91513 20.6644 3.38788 20.6648C7.39901 20.67 11.4105 20.67 15.4217 20.68C15.722 20.6808 15.996 20.6218 16.27 20.5138C16.8711 20.2763 17.2735 19.8595 17.4682 19.2427C17.6002 18.8251 17.5742 18.4115 17.475 17.9903ZM8.76646 1.66997C9.52277 1.67116 10.1199 2.25133 10.1219 2.98729C10.1243 3.75315 9.54677 4.32375 8.77245 4.32136C8.02254 4.31857 7.43501 3.74398 7.43341 3.0108C7.43141 2.26687 8.02654 1.66877 8.76646 1.66997ZM12.8152 13.1749C12.8396 15.1365 11.2622 17.1153 8.88844 17.1723C6.31074 17.2341 4.74812 15.0544 4.74252 13.1872C4.73612 11.1315 6.46152 9.26313 8.48289 9.16073C11.063 9.02963 12.8444 11.057 12.8152 13.1749ZM10.9594 12.0253C10.8254 11.9484 10.7238 12.0197 10.6486 12.1154C10.565 12.2217 10.4951 12.215 10.3847 12.1548C10.1807 12.0432 9.96472 11.9592 9.72114 12.0118C9.04802 12.1564 8.66407 12.6848 8.71806 13.3936C8.76166 13.9634 9.2864 14.4611 9.85193 14.4743C10.0511 14.4787 10.2303 14.4193 10.4027 14.3284C10.4439 14.3065 10.4907 14.281 10.5323 14.3149C10.579 14.3527 10.5426 14.4002 10.5307 14.4428C10.4299 14.7954 10.1091 14.972 9.75634 14.8568C9.62556 14.8142 9.50597 14.7365 9.37838 14.6823C9.14641 14.5839 8.96603 14.6464 8.88164 14.8488C8.81165 15.0162 8.88244 15.1967 9.09002 15.333C9.42198 15.5505 9.78914 15.5872 10.1775 15.5394C10.6966 15.4756 11.153 15.0277 11.2082 14.5089C11.2494 14.1252 11.2234 13.7403 11.2338 13.4156C11.2338 13.0243 11.2226 12.6923 11.2378 12.3612C11.2474 12.1492 11.0938 12.1026 10.9594 12.0253ZM9.99951 13.7985C9.65955 13.8104 9.41398 13.5909 9.40638 13.2677C9.39878 12.9553 9.65235 12.6756 9.94912 12.6688C10.2331 12.6625 10.5171 12.933 10.5235 13.2163C10.5307 13.5367 10.3047 13.7881 9.99951 13.7985ZM7.74777 13.0569C7.96255 12.9131 8.17212 12.7593 8.3709 12.5943C8.57728 12.423 8.56808 12.2795 8.3701 12.0982C8.25251 11.9902 8.14213 11.9639 8.00294 12.0703C7.69858 12.303 7.38622 12.5258 7.03986 12.7796C7.02866 12.562 7.01546 12.3843 7.01066 12.2066C7.00426 11.9612 7.01066 11.7157 6.99906 11.4706C6.98986 11.277 6.87747 11.1706 6.70069 11.1642C6.52272 11.1578 6.37233 11.2762 6.36233 11.4567C6.31074 12.364 6.31194 13.2721 6.36153 14.1802C6.37073 14.3496 6.46832 14.4448 6.6379 14.4635C6.86788 14.489 6.98786 14.3926 6.99986 14.1531C7.01066 13.9415 7.00226 13.7287 7.00226 13.549C7.27423 13.7977 7.5398 14.038 7.80297 14.281C8.03534 14.4958 8.22892 14.5325 8.3749 14.3838C8.52728 14.2284 8.50409 14.0491 8.28291 13.81C8.10733 13.6196 7.92415 13.4359 7.73537 13.2586C7.64619 13.1745 7.63499 13.1322 7.74777 13.0569Z" fill="#7D7D7D"/>
<path d="M7.74601 13.2193C7.94706 13.397 8.14216 13.581 8.32915 13.7719C8.56471 14.0115 8.58942 14.1912 8.42713 14.3469C8.27165 14.4958 8.06548 14.4591 7.818 14.2439C7.53771 14.0003 7.25487 13.7595 6.96521 13.5104C6.96521 13.6905 6.97416 13.9037 6.96266 14.1157C6.94988 14.3557 6.82209 14.4523 6.57716 14.4268C6.39655 14.408 6.29261 14.3126 6.28282 14.1429C6.23 13.2329 6.22872 12.3229 6.28367 11.4137C6.29432 11.2328 6.45448 11.1142 6.64403 11.1206C6.83231 11.127 6.95201 11.2336 6.96181 11.4277C6.97416 11.6732 6.96734 11.9192 6.97416 12.1652C6.97927 12.3432 6.99333 12.5213 7.00525 12.7393C7.37414 12.485 7.70682 12.2618 8.03098 12.0286C8.17921 11.922 8.29678 11.9483 8.42201 12.0565C8.63287 12.2382 8.64267 12.382 8.42287 12.5537C8.21116 12.719 7.98796 12.8731 7.75921 13.0172C7.63909 13.0927 7.65102 13.135 7.74601 13.2193Z" fill="#7D7D7D"/>
<path d="M11.3149 12.2838C11.3246 12.0634 11.1703 12.015 11.0353 11.9346C10.9008 11.8546 10.7987 11.9288 10.7232 12.0282C10.6392 12.1388 10.5689 12.1318 10.4581 12.0692C10.2532 11.9532 10.0363 11.8658 9.79164 11.9205C9.11557 12.0709 8.72993 12.6203 8.78416 13.3573C8.82795 13.9497 9.35499 14.4672 9.923 14.4809C10.123 14.4854 10.303 14.4237 10.4761 14.3292C10.5175 14.3065 10.5645 14.2799 10.6063 14.3152C10.6533 14.3545 10.6167 14.4038 10.6047 14.4481C10.5035 14.8148 10.1813 14.9983 9.82699 14.8786C9.69563 14.8343 9.57552 14.7535 9.44738 14.6971C9.21439 14.5948 9.03322 14.6599 8.94846 14.8703C8.87816 15.0443 8.94926 15.232 9.15775 15.3737C9.49117 15.5999 9.85993 15.638 10.25 15.5883C10.7714 15.522 11.2297 15.0563 11.2852 14.5169C11.3266 14.1179 11.3004 13.7177 11.3109 13.3801C11.3109 12.9732 11.2996 12.6281 11.3149 12.2838ZM10.0712 13.7782C9.72978 13.7907 9.48313 13.5624 9.4755 13.2264C9.46787 12.9016 9.72255 12.6107 10.0206 12.6037C10.3058 12.5971 10.591 12.8784 10.5975 13.1729C10.6047 13.506 10.3777 13.7675 10.0712 13.7782Z" fill="#7D7D7D"/>
<path d="M11.3149 12.2838C11.3246 12.0634 11.1703 12.015 11.0353 11.9346C10.9008 11.8546 10.7987 11.9288 10.7232 12.0282C10.6392 12.1388 10.5689 12.1318 10.4581 12.0692C10.2532 11.9532 10.0363 11.8658 9.79164 11.9205C9.11557 12.0709 8.72993 12.6203 8.78416 13.3573C8.82795 13.9497 9.35499 14.4672 9.923 14.4809C10.123 14.4854 10.303 14.4237 10.4761 14.3292C10.5175 14.3065 10.5645 14.2799 10.6063 14.3152C10.6533 14.3545 10.6167 14.4038 10.6047 14.4481C10.5035 14.8148 10.1813 14.9983 9.82699 14.8786C9.69563 14.8343 9.57552 14.7535 9.44738 14.6971C9.21439 14.5948 9.03322 14.6599 8.94846 14.8703C8.87816 15.0443 8.94926 15.232 9.15775 15.3737C9.49117 15.5999 9.85993 15.638 10.25 15.5883C10.7714 15.522 11.2297 15.0563 11.2852 14.5169C11.3266 14.1179 11.3004 13.7177 11.3109 13.3801C11.3109 12.9732 11.2996 12.6281 11.3149 12.2838ZM10.0712 13.7782C9.72978 13.7907 9.48313 13.5624 9.4755 13.2264C9.46787 12.9016 9.72255 12.6107 10.0206 12.6037C10.3058 12.5971 10.591 12.8784 10.5975 13.1729C10.6047 13.506 10.3777 13.7675 10.0712 13.7782Z" fill="#7D7D7D"/>
<path d="M8.32915 13.7719C8.56471 14.0115 8.58942 14.1912 8.42713 14.3469C8.27165 14.4958 8.06548 14.4591 7.818 14.2439C7.53771 14.0003 7.25487 13.7595 6.96521 13.5104C6.96521 13.6905 6.97416 13.9037 6.96266 14.1157C6.94988 14.3557 6.82209 14.4523 6.57716 14.4268C6.39655 14.408 6.29261 14.3126 6.28282 14.1429C6.23 13.2329 6.22872 12.3229 6.28367 11.4137C6.29432 11.2328 6.45448 11.1142 6.64403 11.1206C6.83231 11.127 6.95201 11.2336 6.96181 11.4277C6.97416 11.6732 6.96734 11.9192 6.97416 12.1652C6.97927 12.3432 6.99333 12.5213 7.00525 12.7393C7.37414 12.485 7.70682 12.2618 8.03098 12.0286C8.17921 11.922 8.29678 11.9483 8.42201 12.0565C8.63287 12.2382 8.64267 12.382 8.42287 12.5537C8.21116 12.719 7.98796 12.8731 7.75921 13.0172C7.63909 13.0927 7.65102 13.135 7.74601 13.2193C7.94706 13.397 8.14216 13.581 8.32915 13.7719Z" fill="#7D7D7D"/>
</svg>
