<svg width="28" height="41" viewBox="0 0 28 41" fill="none" xmlns="http://www.w3.org/2000/svg">
<path d="M10.7954 17.9196C10.7954 17.4867 11.071 17.1564 11.5764 17.1678C12.0587 17.1792 12.3573 17.4298 12.3573 17.9082C12.3573 18.3753 12.0587 18.6373 11.5878 18.6829C11.0825 18.6715 10.8069 18.3525 10.7954 17.9196Z" fill="#00741E"/>
<path d="M12.5525 20.0158C12.564 19.6513 12.7707 19.4576 13.1267 19.4462C13.5287 19.4348 13.7469 19.6513 13.8273 19.993C13.7469 20.4146 13.5632 20.6994 13.1612 20.688C12.7822 20.6652 12.541 20.4259 12.5525 20.0158Z" fill="#00741E"/>
<path d="M12.8052 13.9781C12.7593 13.4198 13.0923 13.0781 13.6666 13.0667C14.1949 13.0553 14.459 13.3857 14.5279 13.9211C14.4935 14.3996 14.2293 14.7299 13.7125 14.7527C13.1957 14.7755 12.8397 14.4679 12.8052 13.9781Z" fill="#00741E"/>
<path d="M12.7478 31.5674C12.7708 31.1801 13.0234 30.4624 12.5181 30.4396C11.9095 30.4054 12.4033 31.1801 12.1162 31.556C11.6223 31.237 11.6912 30.2459 10.9792 30.4168C10.382 30.5649 10.7495 31.2826 10.7151 31.7383C10.6921 32.0915 10.4969 32.7978 10.9103 32.775C11.5075 32.7522 11.0711 32.0687 11.1859 31.7041C11.1974 31.6472 11.2434 31.613 11.2778 31.556C11.519 31.5446 11.4845 31.7839 11.5879 31.8864C11.898 32.2054 11.875 32.98 12.4952 32.8092C13.0924 32.6269 12.7248 31.9889 12.7478 31.5674ZM15.2744 30.9295C15.2629 30.7244 15.3892 30.394 15.0217 30.3826C14.7461 30.3713 14.7346 30.6219 14.7346 30.8269C14.7231 31.1231 14.6887 31.351 14.2867 31.351C13.9192 31.351 13.8044 31.2029 13.8159 30.8611C13.8274 30.6333 13.8618 30.3257 13.4828 30.3826C13.1613 30.4396 13.2187 30.7244 13.2187 30.9636C13.2187 31.1687 13.2187 31.3738 13.2187 31.5788C13.2187 31.8522 13.2187 32.1256 13.2187 32.399C13.2187 32.6041 13.1957 32.8205 13.5058 32.8319C13.7929 32.8433 13.8274 32.6611 13.8274 32.4332C13.8274 32.1256 13.7585 31.8067 14.2523 31.8067C14.7231 31.8067 14.7231 32.0915 14.7231 32.4218C14.7231 32.6497 14.7691 32.8547 15.0447 32.8319C15.3318 32.8092 15.2859 32.5585 15.2859 32.3649C15.2859 31.8864 15.2974 31.4079 15.2744 30.9295ZM15.2744 30.9295C15.2629 30.7244 15.3892 30.394 15.0217 30.3826C14.7461 30.3713 14.7346 30.6219 14.7346 30.8269C14.7231 31.1231 14.6887 31.351 14.2867 31.351C13.9192 31.351 13.8044 31.2029 13.8159 30.8611C13.8274 30.6333 13.8618 30.3257 13.4828 30.3826C13.1613 30.4396 13.2187 30.7244 13.2187 30.9636C13.2187 31.1687 13.2187 31.3738 13.2187 31.5788C13.2187 31.8522 13.2187 32.1256 13.2187 32.399C13.2187 32.6041 13.1957 32.8205 13.5058 32.8319C13.7929 32.8433 13.8274 32.6611 13.8274 32.4332C13.8274 32.1256 13.7585 31.8067 14.2523 31.8067C14.7231 31.8067 14.7231 32.0915 14.7231 32.4218C14.7231 32.6497 14.7691 32.8547 15.0447 32.8319C15.3318 32.8092 15.2859 32.5585 15.2859 32.3649C15.2859 31.8864 15.2974 31.4079 15.2744 30.9295ZM12.7478 31.5674C12.7708 31.1801 13.0234 30.4624 12.5181 30.4396C11.9095 30.4054 12.4033 31.1801 12.1162 31.556C11.6223 31.237 11.6912 30.2459 10.9792 30.4168C10.382 30.5649 10.7495 31.2826 10.7151 31.7383C10.6921 32.0915 10.4969 32.7978 10.9103 32.775C11.5075 32.7522 11.0711 32.0687 11.1859 31.7041C11.1974 31.6472 11.2434 31.613 11.2778 31.556C11.519 31.5446 11.4845 31.7839 11.5879 31.8864C11.898 32.2054 11.875 32.98 12.4952 32.8092C13.0924 32.6269 12.7248 31.9889 12.7478 31.5674ZM12.7478 31.5674C12.7708 31.1801 13.0234 30.4624 12.5181 30.4396C11.9095 30.4054 12.4033 31.1801 12.1162 31.556C11.6223 31.237 11.6912 30.2459 10.9792 30.4168C10.382 30.5649 10.7495 31.2826 10.7151 31.7383C10.6921 32.0915 10.4969 32.7978 10.9103 32.775C11.5075 32.7522 11.0711 32.0687 11.1859 31.7041C11.1974 31.6472 11.2434 31.613 11.2778 31.556C11.519 31.5446 11.4845 31.7839 11.5879 31.8864C11.898 32.2054 11.875 32.98 12.4952 32.8092C13.0924 32.6269 12.7248 31.9889 12.7478 31.5674ZM15.2744 30.9295C15.2629 30.7244 15.3892 30.394 15.0217 30.3826C14.7461 30.3713 14.7346 30.6219 14.7346 30.8269C14.7231 31.1231 14.6887 31.351 14.2867 31.351C13.9192 31.351 13.8044 31.2029 13.8159 30.8611C13.8274 30.6333 13.8618 30.3257 13.4828 30.3826C13.1613 30.4396 13.2187 30.7244 13.2187 30.9636C13.2187 31.1687 13.2187 31.3738 13.2187 31.5788C13.2187 31.8522 13.2187 32.1256 13.2187 32.399C13.2187 32.6041 13.1957 32.8205 13.5058 32.8319C13.7929 32.8433 13.8274 32.6611 13.8274 32.4332C13.8274 32.1256 13.7585 31.8067 14.2523 31.8067C14.7231 31.8067 14.7231 32.0915 14.7231 32.4218C14.7231 32.6497 14.7691 32.8547 15.0447 32.8319C15.3318 32.8092 15.2859 32.5585 15.2859 32.3649C15.2859 31.8864 15.2974 31.4079 15.2744 30.9295ZM15.2744 30.9295C15.2629 30.7244 15.3892 30.394 15.0217 30.3826C14.7461 30.3713 14.7346 30.6219 14.7346 30.8269C14.7231 31.1231 14.6887 31.351 14.2867 31.351C13.9192 31.351 13.8044 31.2029 13.8159 30.8611C13.8274 30.6333 13.8618 30.3257 13.4828 30.3826C13.1613 30.4396 13.2187 30.7244 13.2187 30.9636C13.2187 31.1687 13.2187 31.3738 13.2187 31.5788C13.2187 31.8522 13.2187 32.1256 13.2187 32.399C13.2187 32.6041 13.1957 32.8205 13.5058 32.8319C13.7929 32.8433 13.8274 32.6611 13.8274 32.4332C13.8274 32.1256 13.7585 31.8067 14.2523 31.8067C14.7231 31.8067 14.7231 32.0915 14.7231 32.4218C14.7231 32.6497 14.7691 32.8547 15.0447 32.8319C15.3318 32.8092 15.2859 32.5585 15.2859 32.3649C15.2859 31.8864 15.2974 31.4079 15.2744 30.9295ZM12.5181 30.4396C11.9095 30.4054 12.4033 31.1801 12.1162 31.556C11.6223 31.237 11.6912 30.2459 10.9792 30.4168C10.382 30.5649 10.7495 31.2826 10.7151 31.7383C10.6921 32.0915 10.4969 32.7978 10.9103 32.775C11.5075 32.7522 11.0711 32.0687 11.1859 31.7041C11.1974 31.6472 11.2434 31.613 11.2778 31.556C11.519 31.5446 11.4845 31.7839 11.5879 31.8864C11.898 32.2054 11.875 32.98 12.4952 32.8092C13.0809 32.6383 12.7248 31.9889 12.7478 31.5788C12.7708 31.1801 13.0234 30.4624 12.5181 30.4396ZM24.3471 37.366C21.9699 32.8092 19.5466 28.2751 17.1579 23.7297C16.9626 23.3537 16.7444 23.1829 16.2965 23.1943C14.4131 23.217 12.5181 23.217 10.6347 23.1943C10.1753 23.1943 9.91115 23.331 9.69295 23.7525C7.35012 28.2409 4.96135 32.718 2.60703 37.2179C1.80312 38.7558 2.34289 39.6444 4.1115 39.6558C7.20082 39.6786 10.2901 39.6672 13.368 39.6672V39.6786C16.5262 39.6786 19.673 39.69 22.8312 39.6672C24.485 39.6558 25.0821 38.7558 24.3471 37.366ZM6.56917 36.6369C6.10979 36.6255 5.8112 36.2951 5.82268 35.8394C5.83417 35.3838 6.14425 35.1217 6.6266 35.0648C7.063 35.1331 7.39605 35.3382 7.39605 35.828C7.39605 36.3407 7.07449 36.6597 6.56917 36.6369ZM11.8865 25.3701C12.4952 25.4157 12.8397 25.7347 12.8052 26.3499C12.7823 26.8967 12.4607 27.2498 11.898 27.2498C11.3008 27.2498 10.9218 26.9309 10.9218 26.3157C10.9218 25.7119 11.2778 25.3929 11.8865 25.3701ZM12.4033 36.9673C12.1851 36.99 11.9898 36.8875 11.9554 36.6483C11.9209 36.3635 12.0932 36.1926 12.3688 36.1926C12.587 36.1926 12.7478 36.3293 12.7708 36.5685C12.7823 36.8192 12.6215 36.9445 12.4033 36.9673ZM17.0775 30.8269C17.0545 31.2712 17.0775 31.7155 17.0775 32.1484C17.0775 33.5269 17.0315 33.5724 15.6534 33.618C15.8601 33.3788 16.3999 33.4813 16.285 32.8889C16.2161 32.5244 16.2276 32.2282 15.6764 32.2509C15.8257 32.6611 15.8601 33.0484 15.6649 33.3901C15.6304 33.4129 15.6075 33.4243 15.5845 33.4585C15.5385 33.5041 15.5156 33.561 15.4811 33.6294C14.0456 33.618 12.61 33.5838 11.1744 33.6066C10.3935 33.618 10.0605 33.3332 10.0834 32.5357C10.1638 29.4827 9.63553 29.87 12.7134 29.8472C13.8388 29.8358 14.9643 29.8586 16.1013 29.8472C16.7789 29.8358 17.1119 30.1206 17.0775 30.8269ZM15.0217 30.3826C14.7461 30.3713 14.7346 30.6219 14.7346 30.8269C14.7231 31.1231 14.6887 31.351 14.2867 31.351C13.9192 31.351 13.8044 31.2029 13.8159 30.8611C13.8274 30.6333 13.8618 30.3257 13.4828 30.3826C13.1613 30.4396 13.2187 30.7244 13.2187 30.9636C13.2187 31.1687 13.2187 31.3738 13.2187 31.5788C13.2187 31.8522 13.2187 32.1256 13.2187 32.399C13.2187 32.6041 13.1957 32.8205 13.5058 32.8319C13.7929 32.8433 13.8274 32.6611 13.8274 32.4332C13.8274 32.1256 13.7585 31.8067 14.2523 31.8067C14.7231 31.8067 14.7231 32.0915 14.7231 32.4218C14.7231 32.6497 14.7691 32.8547 15.0447 32.8319C15.3318 32.8092 15.2859 32.5585 15.2859 32.3649C15.2974 31.8864 15.2974 31.4079 15.2859 30.9409C15.2629 30.7244 15.4007 30.394 15.0217 30.3826ZM12.5181 30.4396C11.9095 30.4054 12.4033 31.1801 12.1162 31.556C11.6223 31.237 11.6912 30.2459 10.9792 30.4168C10.382 30.5649 10.7495 31.2826 10.7151 31.7383C10.6921 32.0915 10.4969 32.7978 10.9103 32.775C11.5075 32.7522 11.0711 32.0687 11.1859 31.7041C11.1974 31.6472 11.2434 31.613 11.2778 31.556C11.519 31.5446 11.4845 31.7839 11.5879 31.8864C11.898 32.2054 11.875 32.98 12.4952 32.8092C13.0809 32.6383 12.7248 31.9889 12.7478 31.5788C12.7708 31.1801 13.0234 30.4624 12.5181 30.4396ZM12.7478 31.5674C12.7708 31.1801 13.0234 30.4624 12.5181 30.4396C11.9095 30.4054 12.4033 31.1801 12.1162 31.556C11.6223 31.237 11.6912 30.2459 10.9792 30.4168C10.382 30.5649 10.7495 31.2826 10.7151 31.7383C10.6921 32.0915 10.4969 32.7978 10.9103 32.775C11.5075 32.7522 11.0711 32.0687 11.1859 31.7041C11.1974 31.6472 11.2434 31.613 11.2778 31.556C11.519 31.5446 11.4845 31.7839 11.5879 31.8864C11.898 32.2054 11.875 32.98 12.4952 32.8092C13.0924 32.6269 12.7248 31.9889 12.7478 31.5674ZM15.2744 30.9295C15.2629 30.7244 15.3892 30.394 15.0217 30.3826C14.7461 30.3713 14.7346 30.6219 14.7346 30.8269C14.7231 31.1231 14.6887 31.351 14.2867 31.351C13.9192 31.351 13.8044 31.2029 13.8159 30.8611C13.8274 30.6333 13.8618 30.3257 13.4828 30.3826C13.1613 30.4396 13.2187 30.7244 13.2187 30.9636C13.2187 31.1687 13.2187 31.3738 13.2187 31.5788C13.2187 31.8522 13.2187 32.1256 13.2187 32.399C13.2187 32.6041 13.1957 32.8205 13.5058 32.8319C13.7929 32.8433 13.8274 32.6611 13.8274 32.4332C13.8274 32.1256 13.7585 31.8067 14.2523 31.8067C14.7231 31.8067 14.7231 32.0915 14.7231 32.4218C14.7231 32.6497 14.7691 32.8547 15.0447 32.8319C15.3318 32.8092 15.2859 32.5585 15.2859 32.3649C15.2859 31.8864 15.2974 31.4079 15.2744 30.9295ZM15.2744 30.9295C15.2629 30.7244 15.3892 30.394 15.0217 30.3826C14.7461 30.3713 14.7346 30.6219 14.7346 30.8269C14.7231 31.1231 14.6887 31.351 14.2867 31.351C13.9192 31.351 13.8044 31.2029 13.8159 30.8611C13.8274 30.6333 13.8618 30.3257 13.4828 30.3826C13.1613 30.4396 13.2187 30.7244 13.2187 30.9636C13.2187 31.1687 13.2187 31.3738 13.2187 31.5788C13.2187 31.8522 13.2187 32.1256 13.2187 32.399C13.2187 32.6041 13.1957 32.8205 13.5058 32.8319C13.7929 32.8433 13.8274 32.6611 13.8274 32.4332C13.8274 32.1256 13.7585 31.8067 14.2523 31.8067C14.7231 31.8067 14.7231 32.0915 14.7231 32.4218C14.7231 32.6497 14.7691 32.8547 15.0447 32.8319C15.3318 32.8092 15.2859 32.5585 15.2859 32.3649C15.2859 31.8864 15.2974 31.4079 15.2744 30.9295ZM12.7478 31.5674C12.7708 31.1801 13.0234 30.4624 12.5181 30.4396C11.9095 30.4054 12.4033 31.1801 12.1162 31.556C11.6223 31.237 11.6912 30.2459 10.9792 30.4168C10.382 30.5649 10.7495 31.2826 10.7151 31.7383C10.6921 32.0915 10.4969 32.7978 10.9103 32.775C11.5075 32.7522 11.0711 32.0687 11.1859 31.7041C11.1974 31.6472 11.2434 31.613 11.2778 31.556C11.519 31.5446 11.4845 31.7839 11.5879 31.8864C11.898 32.2054 11.875 32.98 12.4952 32.8092C13.0924 32.6269 12.7248 31.9889 12.7478 31.5674Z" fill="#00741E"/>
<path d="M20.4653 26.0992C18.467 22.7043 17.4679 19.2298 17.9387 15.3337C17.9502 15.2312 17.9387 15.1286 17.9387 15.0261C17.9502 14.1945 17.8469 13.397 18.5589 12.6679C19.0872 12.1325 18.8805 11.3806 18.3522 10.8224C17.8584 10.2984 17.2267 10.0364 16.5147 10.0364C14.5623 10.025 12.5985 10.025 10.6461 10.0364C9.93407 10.0364 9.30242 10.287 8.79711 10.7996C8.29179 11.3009 7.98171 12.0072 8.46406 12.5426C9.22203 13.4084 9.00383 14.3654 9.10719 15.3223C9.53211 19.2184 8.5789 22.7043 6.5806 26.0992C4.18035 30.1206 2.17057 34.3812 0 38.5393V39.7696C0.160783 40.4304 0.574224 40.8405 1.24032 41H25.7712C26.4373 40.8405 26.8507 40.4304 27.0115 39.7696V38.5393C24.8409 34.3812 22.8311 30.132 20.4653 26.0992ZM24.5194 40.1456C20.8443 40.157 17.1693 40.1456 13.4943 40.1456C9.85368 40.1456 6.2131 40.1456 2.57252 40.1456C0.87282 40.1456 0.493832 39.576 1.26329 38.1064C3.98511 32.8433 6.69545 27.5687 9.42875 22.317C9.78477 21.6335 9.95704 20.95 9.93407 20.1753C9.89962 18.2273 9.92259 16.2792 9.92259 14.3426C9.92259 13.6135 10.0719 12.8502 9.31391 12.3034C8.99234 12.0756 9.10719 11.6768 9.3943 11.4148C9.5436 11.2781 9.71587 11.0958 9.88813 11.0731C12.3343 10.7427 14.8035 10.6402 17.2267 11.13C18.0651 11.3009 18.157 12.0186 17.4909 12.5654C17.1119 12.8844 17.0544 13.2034 17.0544 13.6249C17.0659 16.0172 17.0659 18.4095 17.043 20.8019C17.043 21.2803 17.2267 21.6563 17.4219 22.055C20.1897 27.4093 22.9575 32.7635 25.7137 38.1292C26.4832 39.5532 26.1272 40.1456 24.5194 40.1456Z" fill="#00741E"/>
<path d="M12.3687 0C13.1497 0.50125 13.5516 1.17338 13.0693 2.06196C12.7133 2.7227 12.0586 2.85941 11.3696 2.62017C10.2671 2.21006 10.2671 1.04807 11.3351 0C11.6797 0 12.0242 0 12.3687 0Z" fill="#00741E"/>
<path d="M11.9094 7.01746C12.7708 7.16555 13.2302 7.63263 13.1613 8.41868C13.0923 9.19334 12.5641 9.62624 11.7601 9.60345C11.0711 9.58067 10.4624 8.86297 10.5772 8.21362C10.7036 7.45035 11.1859 7.04024 11.9094 7.01746Z" fill="#00741E"/>
<path d="M13.724 3.2467C14.436 3.34923 14.8839 3.69099 14.8495 4.44287C14.815 5.18335 14.3556 5.55929 13.6436 5.53651C12.9545 5.51372 12.5755 5.09222 12.5755 4.42009C12.5641 3.66821 13.0005 3.31506 13.724 3.2467Z" fill="#00741E"/>
<path d="M14.5164 7.55298C14.9758 7.59855 15.2744 7.815 15.2858 8.31625C15.2973 8.8175 14.9987 9.07951 14.5394 9.07951C14.0685 9.0909 13.7814 8.82889 13.7699 8.32764C13.7699 7.83778 14.034 7.58715 14.5164 7.55298Z" fill="#00741E"/>
<path d="M10.7954 17.9196C10.7954 17.4867 11.071 17.1564 11.5764 17.1678C12.0587 17.1792 12.3573 17.4298 12.3573 17.9082C12.3573 18.3753 12.0587 18.6373 11.5878 18.6829C11.0825 18.6715 10.8069 18.3525 10.7954 17.9196Z" fill="#00741E"/>
<path d="M12.5525 20.0158C12.564 19.6513 12.7707 19.4576 13.1267 19.4462C13.5287 19.4348 13.7469 19.6513 13.8273 19.993C13.7469 20.4146 13.5632 20.6994 13.1612 20.688C12.7822 20.6652 12.541 20.4259 12.5525 20.0158Z" fill="#00741E"/>
<path d="M12.8052 13.9781C12.7593 13.4198 13.0923 13.0781 13.6666 13.0667C14.1949 13.0553 14.459 13.3857 14.5279 13.9211C14.4935 14.3996 14.2293 14.7299 13.7125 14.7527C13.1957 14.7755 12.8397 14.4679 12.8052 13.9781Z" fill="#00741E"/>
<path d="M12.7478 31.5674C12.7708 31.1801 13.0234 30.4624 12.5181 30.4396C11.9095 30.4054 12.4033 31.1801 12.1162 31.556C11.6223 31.237 11.6912 30.2459 10.9792 30.4168C10.382 30.5649 10.7495 31.2826 10.7151 31.7383C10.6921 32.0915 10.4969 32.7978 10.9103 32.775C11.5075 32.7522 11.0711 32.0687 11.1859 31.7041C11.1974 31.6472 11.2434 31.613 11.2778 31.556C11.519 31.5446 11.4845 31.7839 11.5879 31.8864C11.898 32.2054 11.875 32.98 12.4952 32.8092C13.0924 32.6269 12.7248 31.9889 12.7478 31.5674ZM15.2744 30.9295C15.2629 30.7244 15.3892 30.394 15.0217 30.3826C14.7461 30.3713 14.7346 30.6219 14.7346 30.8269C14.7231 31.1231 14.6887 31.351 14.2867 31.351C13.9192 31.351 13.8044 31.2029 13.8159 30.8611C13.8274 30.6333 13.8618 30.3257 13.4828 30.3826C13.1613 30.4396 13.2187 30.7244 13.2187 30.9636C13.2187 31.1687 13.2187 31.3738 13.2187 31.5788C13.2187 31.8522 13.2187 32.1256 13.2187 32.399C13.2187 32.6041 13.1957 32.8205 13.5058 32.8319C13.7929 32.8433 13.8274 32.6611 13.8274 32.4332C13.8274 32.1256 13.7585 31.8067 14.2523 31.8067C14.7231 31.8067 14.7231 32.0915 14.7231 32.4218C14.7231 32.6497 14.7691 32.8547 15.0447 32.8319C15.3318 32.8092 15.2859 32.5585 15.2859 32.3649C15.2859 31.8864 15.2974 31.4079 15.2744 30.9295ZM15.2744 30.9295C15.2629 30.7244 15.3892 30.394 15.0217 30.3826C14.7461 30.3713 14.7346 30.6219 14.7346 30.8269C14.7231 31.1231 14.6887 31.351 14.2867 31.351C13.9192 31.351 13.8044 31.2029 13.8159 30.8611C13.8274 30.6333 13.8618 30.3257 13.4828 30.3826C13.1613 30.4396 13.2187 30.7244 13.2187 30.9636C13.2187 31.1687 13.2187 31.3738 13.2187 31.5788C13.2187 31.8522 13.2187 32.1256 13.2187 32.399C13.2187 32.6041 13.1957 32.8205 13.5058 32.8319C13.7929 32.8433 13.8274 32.6611 13.8274 32.4332C13.8274 32.1256 13.7585 31.8067 14.2523 31.8067C14.7231 31.8067 14.7231 32.0915 14.7231 32.4218C14.7231 32.6497 14.7691 32.8547 15.0447 32.8319C15.3318 32.8092 15.2859 32.5585 15.2859 32.3649C15.2859 31.8864 15.2974 31.4079 15.2744 30.9295ZM12.7478 31.5674C12.7708 31.1801 13.0234 30.4624 12.5181 30.4396C11.9095 30.4054 12.4033 31.1801 12.1162 31.556C11.6223 31.237 11.6912 30.2459 10.9792 30.4168C10.382 30.5649 10.7495 31.2826 10.7151 31.7383C10.6921 32.0915 10.4969 32.7978 10.9103 32.775C11.5075 32.7522 11.0711 32.0687 11.1859 31.7041C11.1974 31.6472 11.2434 31.613 11.2778 31.556C11.519 31.5446 11.4845 31.7839 11.5879 31.8864C11.898 32.2054 11.875 32.98 12.4952 32.8092C13.0924 32.6269 12.7248 31.9889 12.7478 31.5674ZM12.7478 31.5674C12.7708 31.1801 13.0234 30.4624 12.5181 30.4396C11.9095 30.4054 12.4033 31.1801 12.1162 31.556C11.6223 31.237 11.6912 30.2459 10.9792 30.4168C10.382 30.5649 10.7495 31.2826 10.7151 31.7383C10.6921 32.0915 10.4969 32.7978 10.9103 32.775C11.5075 32.7522 11.0711 32.0687 11.1859 31.7041C11.1974 31.6472 11.2434 31.613 11.2778 31.556C11.519 31.5446 11.4845 31.7839 11.5879 31.8864C11.898 32.2054 11.875 32.98 12.4952 32.8092C13.0924 32.6269 12.7248 31.9889 12.7478 31.5674ZM15.2744 30.9295C15.2629 30.7244 15.3892 30.394 15.0217 30.3826C14.7461 30.3713 14.7346 30.6219 14.7346 30.8269C14.7231 31.1231 14.6887 31.351 14.2867 31.351C13.9192 31.351 13.8044 31.2029 13.8159 30.8611C13.8274 30.6333 13.8618 30.3257 13.4828 30.3826C13.1613 30.4396 13.2187 30.7244 13.2187 30.9636C13.2187 31.1687 13.2187 31.3738 13.2187 31.5788C13.2187 31.8522 13.2187 32.1256 13.2187 32.399C13.2187 32.6041 13.1957 32.8205 13.5058 32.8319C13.7929 32.8433 13.8274 32.6611 13.8274 32.4332C13.8274 32.1256 13.7585 31.8067 14.2523 31.8067C14.7231 31.8067 14.7231 32.0915 14.7231 32.4218C14.7231 32.6497 14.7691 32.8547 15.0447 32.8319C15.3318 32.8092 15.2859 32.5585 15.2859 32.3649C15.2859 31.8864 15.2974 31.4079 15.2744 30.9295ZM15.2744 30.9295C15.2629 30.7244 15.3892 30.394 15.0217 30.3826C14.7461 30.3713 14.7346 30.6219 14.7346 30.8269C14.7231 31.1231 14.6887 31.351 14.2867 31.351C13.9192 31.351 13.8044 31.2029 13.8159 30.8611C13.8274 30.6333 13.8618 30.3257 13.4828 30.3826C13.1613 30.4396 13.2187 30.7244 13.2187 30.9636C13.2187 31.1687 13.2187 31.3738 13.2187 31.5788C13.2187 31.8522 13.2187 32.1256 13.2187 32.399C13.2187 32.6041 13.1957 32.8205 13.5058 32.8319C13.7929 32.8433 13.8274 32.6611 13.8274 32.4332C13.8274 32.1256 13.7585 31.8067 14.2523 31.8067C14.7231 31.8067 14.7231 32.0915 14.7231 32.4218C14.7231 32.6497 14.7691 32.8547 15.0447 32.8319C15.3318 32.8092 15.2859 32.5585 15.2859 32.3649C15.2859 31.8864 15.2974 31.4079 15.2744 30.9295ZM12.5181 30.4396C11.9095 30.4054 12.4033 31.1801 12.1162 31.556C11.6223 31.237 11.6912 30.2459 10.9792 30.4168C10.382 30.5649 10.7495 31.2826 10.7151 31.7383C10.6921 32.0915 10.4969 32.7978 10.9103 32.775C11.5075 32.7522 11.0711 32.0687 11.1859 31.7041C11.1974 31.6472 11.2434 31.613 11.2778 31.556C11.519 31.5446 11.4845 31.7839 11.5879 31.8864C11.898 32.2054 11.875 32.98 12.4952 32.8092C13.0809 32.6383 12.7248 31.9889 12.7478 31.5788C12.7708 31.1801 13.0234 30.4624 12.5181 30.4396ZM24.3471 37.366C21.9699 32.8092 19.5466 28.2751 17.1579 23.7297C16.9626 23.3537 16.7444 23.1829 16.2965 23.1943C14.4131 23.217 12.5181 23.217 10.6347 23.1943C10.1753 23.1943 9.91115 23.331 9.69295 23.7525C7.35012 28.2409 4.96135 32.718 2.60703 37.2179C1.80312 38.7558 2.34289 39.6444 4.1115 39.6558C7.20082 39.6786 10.2901 39.6672 13.368 39.6672V39.6786C16.5262 39.6786 19.673 39.69 22.8312 39.6672C24.485 39.6558 25.0821 38.7558 24.3471 37.366ZM6.56917 36.6369C6.10979 36.6255 5.8112 36.2951 5.82268 35.8394C5.83417 35.3838 6.14425 35.1217 6.6266 35.0648C7.063 35.1331 7.39605 35.3382 7.39605 35.828C7.39605 36.3407 7.07449 36.6597 6.56917 36.6369ZM11.8865 25.3701C12.4952 25.4157 12.8397 25.7347 12.8052 26.3499C12.7823 26.8967 12.4607 27.2498 11.898 27.2498C11.3008 27.2498 10.9218 26.9309 10.9218 26.3157C10.9218 25.7119 11.2778 25.3929 11.8865 25.3701ZM12.4033 36.9673C12.1851 36.99 11.9898 36.8875 11.9554 36.6483C11.9209 36.3635 12.0932 36.1926 12.3688 36.1926C12.587 36.1926 12.7478 36.3293 12.7708 36.5685C12.7823 36.8192 12.6215 36.9445 12.4033 36.9673ZM17.0775 30.8269C17.0545 31.2712 17.0775 31.7155 17.0775 32.1484C17.0775 33.5269 17.0315 33.5724 15.6534 33.618C15.8601 33.3788 16.3999 33.4813 16.285 32.8889C16.2161 32.5244 16.2276 32.2282 15.6764 32.2509C15.8257 32.6611 15.8601 33.0484 15.6649 33.3901C15.6304 33.4129 15.6075 33.4243 15.5845 33.4585C15.5385 33.5041 15.5156 33.561 15.4811 33.6294C14.0456 33.618 12.61 33.5838 11.1744 33.6066C10.3935 33.618 10.0605 33.3332 10.0834 32.5357C10.1638 29.4827 9.63553 29.87 12.7134 29.8472C13.8388 29.8358 14.9643 29.8586 16.1013 29.8472C16.7789 29.8358 17.1119 30.1206 17.0775 30.8269ZM15.0217 30.3826C14.7461 30.3713 14.7346 30.6219 14.7346 30.8269C14.7231 31.1231 14.6887 31.351 14.2867 31.351C13.9192 31.351 13.8044 31.2029 13.8159 30.8611C13.8274 30.6333 13.8618 30.3257 13.4828 30.3826C13.1613 30.4396 13.2187 30.7244 13.2187 30.9636C13.2187 31.1687 13.2187 31.3738 13.2187 31.5788C13.2187 31.8522 13.2187 32.1256 13.2187 32.399C13.2187 32.6041 13.1957 32.8205 13.5058 32.8319C13.7929 32.8433 13.8274 32.6611 13.8274 32.4332C13.8274 32.1256 13.7585 31.8067 14.2523 31.8067C14.7231 31.8067 14.7231 32.0915 14.7231 32.4218C14.7231 32.6497 14.7691 32.8547 15.0447 32.8319C15.3318 32.8092 15.2859 32.5585 15.2859 32.3649C15.2974 31.8864 15.2974 31.4079 15.2859 30.9409C15.2629 30.7244 15.4007 30.394 15.0217 30.3826ZM12.5181 30.4396C11.9095 30.4054 12.4033 31.1801 12.1162 31.556C11.6223 31.237 11.6912 30.2459 10.9792 30.4168C10.382 30.5649 10.7495 31.2826 10.7151 31.7383C10.6921 32.0915 10.4969 32.7978 10.9103 32.775C11.5075 32.7522 11.0711 32.0687 11.1859 31.7041C11.1974 31.6472 11.2434 31.613 11.2778 31.556C11.519 31.5446 11.4845 31.7839 11.5879 31.8864C11.898 32.2054 11.875 32.98 12.4952 32.8092C13.0809 32.6383 12.7248 31.9889 12.7478 31.5788C12.7708 31.1801 13.0234 30.4624 12.5181 30.4396ZM12.7478 31.5674C12.7708 31.1801 13.0234 30.4624 12.5181 30.4396C11.9095 30.4054 12.4033 31.1801 12.1162 31.556C11.6223 31.237 11.6912 30.2459 10.9792 30.4168C10.382 30.5649 10.7495 31.2826 10.7151 31.7383C10.6921 32.0915 10.4969 32.7978 10.9103 32.775C11.5075 32.7522 11.0711 32.0687 11.1859 31.7041C11.1974 31.6472 11.2434 31.613 11.2778 31.556C11.519 31.5446 11.4845 31.7839 11.5879 31.8864C11.898 32.2054 11.875 32.98 12.4952 32.8092C13.0924 32.6269 12.7248 31.9889 12.7478 31.5674ZM15.2744 30.9295C15.2629 30.7244 15.3892 30.394 15.0217 30.3826C14.7461 30.3713 14.7346 30.6219 14.7346 30.8269C14.7231 31.1231 14.6887 31.351 14.2867 31.351C13.9192 31.351 13.8044 31.2029 13.8159 30.8611C13.8274 30.6333 13.8618 30.3257 13.4828 30.3826C13.1613 30.4396 13.2187 30.7244 13.2187 30.9636C13.2187 31.1687 13.2187 31.3738 13.2187 31.5788C13.2187 31.8522 13.2187 32.1256 13.2187 32.399C13.2187 32.6041 13.1957 32.8205 13.5058 32.8319C13.7929 32.8433 13.8274 32.6611 13.8274 32.4332C13.8274 32.1256 13.7585 31.8067 14.2523 31.8067C14.7231 31.8067 14.7231 32.0915 14.7231 32.4218C14.7231 32.6497 14.7691 32.8547 15.0447 32.8319C15.3318 32.8092 15.2859 32.5585 15.2859 32.3649C15.2859 31.8864 15.2974 31.4079 15.2744 30.9295ZM15.2744 30.9295C15.2629 30.7244 15.3892 30.394 15.0217 30.3826C14.7461 30.3713 14.7346 30.6219 14.7346 30.8269C14.7231 31.1231 14.6887 31.351 14.2867 31.351C13.9192 31.351 13.8044 31.2029 13.8159 30.8611C13.8274 30.6333 13.8618 30.3257 13.4828 30.3826C13.1613 30.4396 13.2187 30.7244 13.2187 30.9636C13.2187 31.1687 13.2187 31.3738 13.2187 31.5788C13.2187 31.8522 13.2187 32.1256 13.2187 32.399C13.2187 32.6041 13.1957 32.8205 13.5058 32.8319C13.7929 32.8433 13.8274 32.6611 13.8274 32.4332C13.8274 32.1256 13.7585 31.8067 14.2523 31.8067C14.7231 31.8067 14.7231 32.0915 14.7231 32.4218C14.7231 32.6497 14.7691 32.8547 15.0447 32.8319C15.3318 32.8092 15.2859 32.5585 15.2859 32.3649C15.2859 31.8864 15.2974 31.4079 15.2744 30.9295ZM12.7478 31.5674C12.7708 31.1801 13.0234 30.4624 12.5181 30.4396C11.9095 30.4054 12.4033 31.1801 12.1162 31.556C11.6223 31.237 11.6912 30.2459 10.9792 30.4168C10.382 30.5649 10.7495 31.2826 10.7151 31.7383C10.6921 32.0915 10.4969 32.7978 10.9103 32.775C11.5075 32.7522 11.0711 32.0687 11.1859 31.7041C11.1974 31.6472 11.2434 31.613 11.2778 31.556C11.519 31.5446 11.4845 31.7839 11.5879 31.8864C11.898 32.2054 11.875 32.98 12.4952 32.8092C13.0924 32.6269 12.7248 31.9889 12.7478 31.5674Z" fill="#00741E"/>
<path d="M12.7478 31.5674C12.7708 31.1801 13.0234 30.4624 12.5181 30.4396C11.9095 30.4054 12.4033 31.1801 12.1162 31.556C11.6223 31.237 11.6912 30.2459 10.9792 30.4168C10.382 30.5649 10.7495 31.2826 10.7151 31.7383C10.6921 32.0915 10.4969 32.7978 10.9103 32.775C11.5075 32.7522 11.0711 32.0687 11.1859 31.7041C11.1974 31.6472 11.2434 31.613 11.2778 31.556C11.519 31.5446 11.4845 31.7839 11.5879 31.8864C11.898 32.2054 11.875 32.98 12.4952 32.8092C13.0924 32.6269 12.7248 31.9889 12.7478 31.5674ZM15.2744 30.9295C15.2629 30.7244 15.3892 30.394 15.0217 30.3826C14.7461 30.3713 14.7346 30.6219 14.7346 30.8269C14.7231 31.1231 14.6887 31.351 14.2867 31.351C13.9192 31.351 13.8044 31.2029 13.8159 30.8611C13.8274 30.6333 13.8618 30.3257 13.4828 30.3826C13.1613 30.4396 13.2187 30.7244 13.2187 30.9636C13.2187 31.1687 13.2187 31.3738 13.2187 31.5788C13.2187 31.8522 13.2187 32.1256 13.2187 32.399C13.2187 32.6041 13.1957 32.8205 13.5058 32.8319C13.7929 32.8433 13.8274 32.6611 13.8274 32.4332C13.8274 32.1256 13.7585 31.8067 14.2523 31.8067C14.7231 31.8067 14.7231 32.0915 14.7231 32.4218C14.7231 32.6497 14.7691 32.8547 15.0447 32.8319C15.3318 32.8092 15.2859 32.5585 15.2859 32.3649C15.2859 31.8864 15.2974 31.4079 15.2744 30.9295ZM15.2744 30.9295C15.2629 30.7244 15.3892 30.394 15.0217 30.3826C14.7461 30.3713 14.7346 30.6219 14.7346 30.8269C14.7231 31.1231 14.6887 31.351 14.2867 31.351C13.9192 31.351 13.8044 31.2029 13.8159 30.8611C13.8274 30.6333 13.8618 30.3257 13.4828 30.3826C13.1613 30.4396 13.2187 30.7244 13.2187 30.9636C13.2187 31.1687 13.2187 31.3738 13.2187 31.5788C13.2187 31.8522 13.2187 32.1256 13.2187 32.399C13.2187 32.6041 13.1957 32.8205 13.5058 32.8319C13.7929 32.8433 13.8274 32.6611 13.8274 32.4332C13.8274 32.1256 13.7585 31.8067 14.2523 31.8067C14.7231 31.8067 14.7231 32.0915 14.7231 32.4218C14.7231 32.6497 14.7691 32.8547 15.0447 32.8319C15.3318 32.8092 15.2859 32.5585 15.2859 32.3649C15.2859 31.8864 15.2974 31.4079 15.2744 30.9295ZM12.7478 31.5674C12.7708 31.1801 13.0234 30.4624 12.5181 30.4396C11.9095 30.4054 12.4033 31.1801 12.1162 31.556C11.6223 31.237 11.6912 30.2459 10.9792 30.4168C10.382 30.5649 10.7495 31.2826 10.7151 31.7383C10.6921 32.0915 10.4969 32.7978 10.9103 32.775C11.5075 32.7522 11.0711 32.0687 11.1859 31.7041C11.1974 31.6472 11.2434 31.613 11.2778 31.556C11.519 31.5446 11.4845 31.7839 11.5879 31.8864C11.898 32.2054 11.875 32.98 12.4952 32.8092C13.0924 32.6269 12.7248 31.9889 12.7478 31.5674ZM12.7478 31.5674C12.7708 31.1801 13.0234 30.4624 12.5181 30.4396C11.9095 30.4054 12.4033 31.1801 12.1162 31.556C11.6223 31.237 11.6912 30.2459 10.9792 30.4168C10.382 30.5649 10.7495 31.2826 10.7151 31.7383C10.6921 32.0915 10.4969 32.7978 10.9103 32.775C11.5075 32.7522 11.0711 32.0687 11.1859 31.7041C11.1974 31.6472 11.2434 31.613 11.2778 31.556C11.519 31.5446 11.4845 31.7839 11.5879 31.8864C11.898 32.2054 11.875 32.98 12.4952 32.8092C13.0924 32.6269 12.7248 31.9889 12.7478 31.5674ZM15.2744 30.9295C15.2629 30.7244 15.3892 30.394 15.0217 30.3826C14.7461 30.3713 14.7346 30.6219 14.7346 30.8269C14.7231 31.1231 14.6887 31.351 14.2867 31.351C13.9192 31.351 13.8044 31.2029 13.8159 30.8611C13.8274 30.6333 13.8618 30.3257 13.4828 30.3826C13.1613 30.4396 13.2187 30.7244 13.2187 30.9636C13.2187 31.1687 13.2187 31.3738 13.2187 31.5788C13.2187 31.8522 13.2187 32.1256 13.2187 32.399C13.2187 32.6041 13.1957 32.8205 13.5058 32.8319C13.7929 32.8433 13.8274 32.6611 13.8274 32.4332C13.8274 32.1256 13.7585 31.8067 14.2523 31.8067C14.7231 31.8067 14.7231 32.0915 14.7231 32.4218C14.7231 32.6497 14.7691 32.8547 15.0447 32.8319C15.3318 32.8092 15.2859 32.5585 15.2859 32.3649C15.2859 31.8864 15.2974 31.4079 15.2744 30.9295ZM15.2744 30.9295C15.2629 30.7244 15.3892 30.394 15.0217 30.3826C14.7461 30.3713 14.7346 30.6219 14.7346 30.8269C14.7231 31.1231 14.6887 31.351 14.2867 31.351C13.9192 31.351 13.8044 31.2029 13.8159 30.8611C13.8274 30.6333 13.8618 30.3257 13.4828 30.3826C13.1613 30.4396 13.2187 30.7244 13.2187 30.9636C13.2187 31.1687 13.2187 31.3738 13.2187 31.5788C13.2187 31.8522 13.2187 32.1256 13.2187 32.399C13.2187 32.6041 13.1957 32.8205 13.5058 32.8319C13.7929 32.8433 13.8274 32.6611 13.8274 32.4332C13.8274 32.1256 13.7585 31.8067 14.2523 31.8067C14.7231 31.8067 14.7231 32.0915 14.7231 32.4218C14.7231 32.6497 14.7691 32.8547 15.0447 32.8319C15.3318 32.8092 15.2859 32.5585 15.2859 32.3649C15.2859 31.8864 15.2974 31.4079 15.2744 30.9295ZM12.5181 30.4396C11.9095 30.4054 12.4033 31.1801 12.1162 31.556C11.6223 31.237 11.6912 30.2459 10.9792 30.4168C10.382 30.5649 10.7495 31.2826 10.7151 31.7383C10.6921 32.0915 10.4969 32.7978 10.9103 32.775C11.5075 32.7522 11.0711 32.0687 11.1859 31.7041C11.1974 31.6472 11.2434 31.613 11.2778 31.556C11.519 31.5446 11.4845 31.7839 11.5879 31.8864C11.898 32.2054 11.875 32.98 12.4952 32.8092C13.0809 32.6383 12.7248 31.9889 12.7478 31.5788C12.7708 31.1801 13.0234 30.4624 12.5181 30.4396ZM24.3471 37.366C21.9699 32.8092 19.5466 28.2751 17.1579 23.7297C16.9626 23.3537 16.7444 23.1829 16.2965 23.1943C14.4131 23.217 12.5181 23.217 10.6347 23.1943C10.1753 23.1943 9.91115 23.331 9.69295 23.7525C7.35012 28.2409 4.96135 32.718 2.60703 37.2179C1.80312 38.7558 2.34289 39.6444 4.1115 39.6558C7.20082 39.6786 10.2901 39.6672 13.368 39.6672V39.6786C16.5262 39.6786 19.673 39.69 22.8312 39.6672C24.485 39.6558 25.0821 38.7558 24.3471 37.366ZM6.56917 36.6369C6.10979 36.6255 5.8112 36.2951 5.82268 35.8394C5.83417 35.3838 6.14425 35.1217 6.6266 35.0648C7.063 35.1331 7.39605 35.3382 7.39605 35.828C7.39605 36.3407 7.07449 36.6597 6.56917 36.6369ZM11.8865 25.3701C12.4952 25.4157 12.8397 25.7347 12.8052 26.3499C12.7823 26.8967 12.4607 27.2498 11.898 27.2498C11.3008 27.2498 10.9218 26.9309 10.9218 26.3157C10.9218 25.7119 11.2778 25.3929 11.8865 25.3701ZM12.4033 36.9673C12.1851 36.99 11.9898 36.8875 11.9554 36.6483C11.9209 36.3635 12.0932 36.1926 12.3688 36.1926C12.587 36.1926 12.7478 36.3293 12.7708 36.5685C12.7823 36.8192 12.6215 36.9445 12.4033 36.9673ZM17.0775 30.8269C17.0545 31.2712 17.0775 31.7155 17.0775 32.1484C17.0775 33.5269 17.0315 33.5724 15.6534 33.618C15.8601 33.3788 16.3999 33.4813 16.285 32.8889C16.2161 32.5244 16.2276 32.2282 15.6764 32.2509C15.8257 32.6611 15.8601 33.0484 15.6649 33.3901C15.6304 33.4129 15.6075 33.4243 15.5845 33.4585C15.5385 33.5041 15.5156 33.561 15.4811 33.6294C14.0456 33.618 12.61 33.5838 11.1744 33.6066C10.3935 33.618 10.0605 33.3332 10.0834 32.5357C10.1638 29.4827 9.63553 29.87 12.7134 29.8472C13.8388 29.8358 14.9643 29.8586 16.1013 29.8472C16.7789 29.8358 17.1119 30.1206 17.0775 30.8269ZM15.0217 30.3826C14.7461 30.3713 14.7346 30.6219 14.7346 30.8269C14.7231 31.1231 14.6887 31.351 14.2867 31.351C13.9192 31.351 13.8044 31.2029 13.8159 30.8611C13.8274 30.6333 13.8618 30.3257 13.4828 30.3826C13.1613 30.4396 13.2187 30.7244 13.2187 30.9636C13.2187 31.1687 13.2187 31.3738 13.2187 31.5788C13.2187 31.8522 13.2187 32.1256 13.2187 32.399C13.2187 32.6041 13.1957 32.8205 13.5058 32.8319C13.7929 32.8433 13.8274 32.6611 13.8274 32.4332C13.8274 32.1256 13.7585 31.8067 14.2523 31.8067C14.7231 31.8067 14.7231 32.0915 14.7231 32.4218C14.7231 32.6497 14.7691 32.8547 15.0447 32.8319C15.3318 32.8092 15.2859 32.5585 15.2859 32.3649C15.2974 31.8864 15.2974 31.4079 15.2859 30.9409C15.2629 30.7244 15.4007 30.394 15.0217 30.3826ZM12.5181 30.4396C11.9095 30.4054 12.4033 31.1801 12.1162 31.556C11.6223 31.237 11.6912 30.2459 10.9792 30.4168C10.382 30.5649 10.7495 31.2826 10.7151 31.7383C10.6921 32.0915 10.4969 32.7978 10.9103 32.775C11.5075 32.7522 11.0711 32.0687 11.1859 31.7041C11.1974 31.6472 11.2434 31.613 11.2778 31.556C11.519 31.5446 11.4845 31.7839 11.5879 31.8864C11.898 32.2054 11.875 32.98 12.4952 32.8092C13.0809 32.6383 12.7248 31.9889 12.7478 31.5788C12.7708 31.1801 13.0234 30.4624 12.5181 30.4396ZM12.7478 31.5674C12.7708 31.1801 13.0234 30.4624 12.5181 30.4396C11.9095 30.4054 12.4033 31.1801 12.1162 31.556C11.6223 31.237 11.6912 30.2459 10.9792 30.4168C10.382 30.5649 10.7495 31.2826 10.7151 31.7383C10.6921 32.0915 10.4969 32.7978 10.9103 32.775C11.5075 32.7522 11.0711 32.0687 11.1859 31.7041C11.1974 31.6472 11.2434 31.613 11.2778 31.556C11.519 31.5446 11.4845 31.7839 11.5879 31.8864C11.898 32.2054 11.875 32.98 12.4952 32.8092C13.0924 32.6269 12.7248 31.9889 12.7478 31.5674ZM15.2744 30.9295C15.2629 30.7244 15.3892 30.394 15.0217 30.3826C14.7461 30.3713 14.7346 30.6219 14.7346 30.8269C14.7231 31.1231 14.6887 31.351 14.2867 31.351C13.9192 31.351 13.8044 31.2029 13.8159 30.8611C13.8274 30.6333 13.8618 30.3257 13.4828 30.3826C13.1613 30.4396 13.2187 30.7244 13.2187 30.9636C13.2187 31.1687 13.2187 31.3738 13.2187 31.5788C13.2187 31.8522 13.2187 32.1256 13.2187 32.399C13.2187 32.6041 13.1957 32.8205 13.5058 32.8319C13.7929 32.8433 13.8274 32.6611 13.8274 32.4332C13.8274 32.1256 13.7585 31.8067 14.2523 31.8067C14.7231 31.8067 14.7231 32.0915 14.7231 32.4218C14.7231 32.6497 14.7691 32.8547 15.0447 32.8319C15.3318 32.8092 15.2859 32.5585 15.2859 32.3649C15.2859 31.8864 15.2974 31.4079 15.2744 30.9295ZM15.2744 30.9295C15.2629 30.7244 15.3892 30.394 15.0217 30.3826C14.7461 30.3713 14.7346 30.6219 14.7346 30.8269C14.7231 31.1231 14.6887 31.351 14.2867 31.351C13.9192 31.351 13.8044 31.2029 13.8159 30.8611C13.8274 30.6333 13.8618 30.3257 13.4828 30.3826C13.1613 30.4396 13.2187 30.7244 13.2187 30.9636C13.2187 31.1687 13.2187 31.3738 13.2187 31.5788C13.2187 31.8522 13.2187 32.1256 13.2187 32.399C13.2187 32.6041 13.1957 32.8205 13.5058 32.8319C13.7929 32.8433 13.8274 32.6611 13.8274 32.4332C13.8274 32.1256 13.7585 31.8067 14.2523 31.8067C14.7231 31.8067 14.7231 32.0915 14.7231 32.4218C14.7231 32.6497 14.7691 32.8547 15.0447 32.8319C15.3318 32.8092 15.2859 32.5585 15.2859 32.3649C15.2859 31.8864 15.2974 31.4079 15.2744 30.9295ZM12.7478 31.5674C12.7708 31.1801 13.0234 30.4624 12.5181 30.4396C11.9095 30.4054 12.4033 31.1801 12.1162 31.556C11.6223 31.237 11.6912 30.2459 10.9792 30.4168C10.382 30.5649 10.7495 31.2826 10.7151 31.7383C10.6921 32.0915 10.4969 32.7978 10.9103 32.775C11.5075 32.7522 11.0711 32.0687 11.1859 31.7041C11.1974 31.6472 11.2434 31.613 11.2778 31.556C11.519 31.5446 11.4845 31.7839 11.5879 31.8864C11.898 32.2054 11.875 32.98 12.4952 32.8092C13.0924 32.6269 12.7248 31.9889 12.7478 31.5674Z" fill="#00741E"/>
<path d="M14.5279 13.9097C14.4935 14.3882 14.2293 14.7185 13.7125 14.7413C13.1957 14.7755 12.8397 14.4679 12.8052 13.9667C12.7593 13.4085 13.0923 13.0667 13.6666 13.0553C14.1949 13.0553 14.459 13.3857 14.5279 13.9097Z" fill="#00741E"/>
<path d="M12.3573 17.9197C12.3573 18.3868 12.0587 18.6488 11.5878 18.6944C11.0825 18.683 10.8069 18.364 10.7954 17.9311C10.7954 17.4982 11.071 17.1678 11.5764 17.1792C12.0587 17.1792 12.3573 17.4413 12.3573 17.9197Z" fill="#00741E"/>
<path d="M13.8273 19.9816C13.7469 20.4032 13.5631 20.688 13.1612 20.6766C12.7822 20.6652 12.5295 20.4259 12.541 20.0158C12.5525 19.6513 12.7592 19.4576 13.1152 19.4462C13.5287 19.4234 13.7469 19.6399 13.8273 19.9816Z" fill="#00741E"/>
<path d="M12.7478 31.5673C12.7248 31.9888 13.0923 32.6268 12.4951 32.7977C11.875 32.9799 11.8979 32.1939 11.5878 31.8749C11.4845 31.7724 11.5189 31.5332 11.2778 31.5445C11.2433 31.5901 11.1974 31.6357 11.1859 31.6926C11.071 32.0686 11.5074 32.7407 10.9103 32.7635C10.4968 32.7863 10.6921 32.08 10.715 31.7268C10.7495 31.2711 10.382 30.5534 10.9792 30.4053C11.6912 30.2345 11.6223 31.2142 12.1161 31.5445C12.4032 31.1686 11.9094 30.4053 12.5181 30.4281C13.0234 30.4623 12.7707 31.18 12.7478 31.5673Z" fill="#00741E"/>
<path d="M15.2743 30.9295C15.2973 31.4079 15.2858 31.8864 15.2743 32.3535C15.2743 32.5471 15.3202 32.7978 15.0331 32.8205C14.7575 32.8433 14.7116 32.6383 14.7116 32.4104C14.7116 32.0915 14.7116 31.7953 14.2407 31.7953C13.7469 31.7953 13.8158 32.1142 13.8158 32.4218C13.8158 32.6497 13.7813 32.8205 13.4942 32.8205C13.1841 32.8092 13.2071 32.5927 13.2071 32.3876C13.2071 32.1142 13.2071 31.8408 13.2071 31.5674C13.2071 31.3624 13.2071 31.1573 13.2071 30.9523C13.2071 30.7244 13.1497 30.4282 13.4712 30.3713C13.8502 30.3029 13.8158 30.6105 13.8043 30.8497C13.7928 31.1801 13.9077 31.3396 14.2752 31.3396C14.6771 31.3396 14.7116 31.1117 14.7231 30.8155C14.7231 30.6105 14.746 30.3599 15.0102 30.3713C15.4006 30.394 15.2628 30.7244 15.2743 30.9295Z" fill="#00741E"/>
<path d="M15.6534 33.618C15.4926 33.1965 16.4228 33.3674 16.0783 32.8547C16.1931 33.2421 15.8601 33.2648 15.6534 33.4015C15.8601 33.0598 15.8142 32.6611 15.6649 32.2623C16.2161 32.2396 16.2046 32.5357 16.2735 32.9003C16.3999 33.4813 15.8601 33.3902 15.6534 33.618Z" fill="#00741E"/>
<path d="M15.6533 33.6179L15.573 33.6407L15.4811 33.6179C15.5615 33.5382 15.6189 33.4698 15.6648 33.3901C15.8716 33.0483 15.8256 32.6496 15.6763 32.2509C16.2276 32.2281 16.2161 32.5243 16.285 32.8888C16.3998 33.4812 15.8601 33.3901 15.6533 33.6179Z" fill="#00741E"/>
<path d="M12.4951 32.7977C11.875 32.9799 11.8979 32.1939 11.5878 31.8749C11.4845 31.7724 11.5189 31.5332 11.2778 31.5445C11.2433 31.5901 11.1974 31.6357 11.1859 31.6926C11.071 32.0686 11.5074 32.7407 10.9103 32.7635C10.4968 32.7863 10.6921 32.08 10.715 31.7268C10.7495 31.2711 10.382 30.5534 10.9792 30.4053C11.6912 30.2345 11.6223 31.2142 12.1161 31.5445C12.4032 31.1686 11.9094 30.4053 12.5181 30.4281C13.0234 30.4509 12.7707 31.1686 12.7478 31.5559C12.7248 31.9888 13.0923 32.6268 12.4951 32.7977Z" fill="#00741E"/>
<path d="M15.2858 32.3648C15.2858 32.5585 15.3317 32.8091 15.0446 32.8319C14.769 32.8547 14.723 32.6496 14.723 32.4218C14.723 32.1028 14.723 31.8066 14.2522 31.8066C13.7583 31.8066 13.8273 32.1256 13.8273 32.4332C13.8273 32.661 13.7928 32.8319 13.5057 32.8319C13.1956 32.8205 13.2186 32.6041 13.2186 32.399C13.2186 32.1256 13.2186 31.8522 13.2186 31.5788C13.2186 31.3737 13.2186 31.1687 13.2186 30.9636C13.2186 30.7358 13.1612 30.4396 13.4827 30.3826C13.8617 30.3143 13.8273 30.6218 13.8158 30.8611C13.8043 31.1914 13.9191 31.3509 14.2866 31.3509C14.6886 31.3509 14.723 31.1231 14.7345 30.8269C14.7345 30.6218 14.7575 30.3712 15.0216 30.3826C15.4006 30.394 15.2743 30.7244 15.2743 30.9294C15.2973 31.4079 15.2858 31.8864 15.2858 32.3648Z" fill="#00741E"/>
</svg>
