<svg width="25" height="26" viewBox="0 0 25 26" fill="none" xmlns="http://www.w3.org/2000/svg">
<path d="M7.20762 20.1499C7.21133 20.9045 7.21133 21.659 7.20815 22.4136C7.20656 22.7241 7.04605 22.876 6.71549 22.8776C5.94894 22.8817 5.1824 22.8817 4.41586 22.8781C4.06676 22.876 3.92425 22.7318 3.92267 22.3947C3.92108 22.0215 3.92267 21.6488 3.92267 21.2756C3.92267 20.8943 3.92002 20.5124 3.9232 20.131C3.92584 19.8491 4.06093 19.7033 4.35547 19.7002C5.1575 19.692 5.95901 19.6926 6.76104 19.6997C7.06883 19.7028 7.20656 19.8486 7.20762 20.1499Z" fill="#09B256"/>
<path d="M7.20815 15.776C7.21133 16.5306 7.21133 17.2852 7.20815 18.0393C7.20656 18.3431 7.05029 18.4951 6.73932 18.4966C5.9553 18.4997 5.17128 18.4997 4.38725 18.4966C4.07417 18.4956 3.92531 18.3467 3.9232 18.0423C3.92055 17.661 3.92267 17.2791 3.92267 16.8977C3.92267 16.5163 3.92002 16.135 3.9232 15.7536C3.92584 15.4686 4.05934 15.333 4.35812 15.3315C5.15962 15.3264 5.96166 15.3264 6.76316 15.3315C7.072 15.3335 7.20656 15.4706 7.20815 15.776Z" fill="#09B256"/>
<path d="M7.20656 11.356C7.21292 12.1361 7.21292 12.9157 7.20709 13.6957C7.20497 13.9695 7.04552 14.1133 6.75734 14.1143C5.96484 14.1174 5.17234 14.1174 4.37931 14.1148C4.07417 14.1133 3.92584 13.971 3.9232 13.6825C3.92002 13.2924 3.92267 12.9024 3.92267 12.5124C3.92267 12.131 3.92002 11.7496 3.92373 11.3683C3.92637 11.097 4.06252 10.9578 4.34063 10.9563C5.15115 10.9517 5.96166 10.9522 6.77164 10.9558C7.05611 10.9573 7.20444 11.0889 7.20656 11.356Z" fill="#09B256"/>
<path d="M11.7592 20.153C11.7629 20.9076 11.7629 21.6621 11.7592 22.4162C11.7576 22.7129 11.595 22.8751 11.2888 22.8771C10.5048 22.8827 9.72074 22.8832 8.93671 22.8771C8.61992 22.8746 8.47795 22.7262 8.47583 22.4177C8.47266 22.0364 8.47477 21.6545 8.4753 21.2731C8.4753 20.8918 8.47213 20.5104 8.47636 20.129C8.47954 19.8435 8.61092 19.7028 8.9097 19.7003C9.7112 19.6926 10.5127 19.6926 11.3142 19.7008C11.6199 19.7038 11.7576 19.8507 11.7592 20.153Z" fill="#09B256"/>
<path d="M11.7592 15.7755C11.7634 16.53 11.7634 17.2841 11.7592 18.0387C11.757 18.3497 11.5955 18.496 11.2633 18.497C10.4973 18.4991 9.73076 18.4991 8.96475 18.497C8.61724 18.496 8.47738 18.3573 8.47527 18.0178C8.47315 17.6446 8.47474 17.2719 8.47527 16.8987C8.47527 16.5173 8.47209 16.1359 8.47632 15.7546C8.47897 15.4629 8.60611 15.3329 8.90754 15.3314C9.70904 15.3263 10.5105 15.3268 11.3121 15.3314C11.6204 15.3329 11.757 15.4706 11.7592 15.7755Z" fill="#09B256"/>
<path d="M11.759 11.3827C11.7643 12.1469 11.7643 12.9112 11.759 13.6755C11.7569 13.9661 11.599 14.1134 11.2997 14.1144C10.5056 14.1175 9.71155 14.118 8.91746 14.1144C8.62504 14.1129 8.47936 13.9727 8.47671 13.6943C8.47194 13.3038 8.47512 12.9127 8.47565 12.5222C8.47565 12.1403 8.47247 11.7579 8.47671 11.376C8.47936 11.0854 8.60968 10.9569 8.91163 10.9559C9.71473 10.9524 10.5173 10.9524 11.3204 10.9559C11.6133 10.9575 11.7569 11.0946 11.759 11.3827Z" fill="#09B256"/>
<path d="M13.0225 13.6934C13.0167 12.9205 13.0172 12.148 13.0225 11.3751C13.0246 11.0799 13.156 10.9591 13.4606 10.956C13.8664 10.9514 14.2727 10.9545 14.6785 10.9545C15.0668 10.9545 15.4551 10.9525 15.8429 10.9555C16.1538 10.9581 16.3064 11.0921 16.308 11.3843C16.3138 12.148 16.3138 12.9123 16.3085 13.6766C16.3064 13.9662 16.1469 14.1135 15.8476 14.1145C15.0535 14.1176 14.2594 14.1176 13.4654 14.1145C13.1729 14.1135 13.0246 13.9769 13.0225 13.6934Z" fill="#09B256"/>
<path d="M16.3076 20.1305C16.3134 20.9019 16.314 21.6733 16.3076 22.4447C16.3055 22.7098 16.1375 22.8735 15.8594 22.876C15.0579 22.8837 14.2564 22.8837 13.4549 22.876C13.172 22.8735 13.0264 22.7185 13.0216 22.4401C13.0152 22.0501 13.02 21.66 13.0205 21.27C13.0205 20.8886 13.0158 20.5073 13.0221 20.1259C13.0269 19.8383 13.1609 19.7027 13.4597 19.7002C14.2612 19.6935 15.0627 19.693 15.8642 19.7007C16.154 19.7032 16.3055 19.8536 16.3076 20.1305Z" fill="#09B256"/>
<path d="M13.0222 18.0661C13.0169 17.2937 13.0169 16.5208 13.0227 15.7479C13.0249 15.4552 13.1573 15.3349 13.4646 15.3308C13.8613 15.3257 14.2586 15.3298 14.6554 15.3298C15.0437 15.3298 15.432 15.3272 15.8203 15.3303C16.1657 15.3334 16.3072 15.4639 16.3088 15.7907C16.3125 16.5381 16.313 17.2851 16.3088 18.0325C16.3072 18.3455 16.1445 18.4959 15.8166 18.497C15.04 18.499 14.2634 18.4995 13.4868 18.4965C13.1811 18.4954 13.0243 18.3547 13.0222 18.0661Z" fill="#09B256"/>
<path d="M20.8588 16.9078C20.8588 17.2724 20.8614 17.6369 20.8577 18.0014C20.8545 18.3471 20.6988 18.4965 20.3439 18.497C19.5863 18.4985 18.8283 18.4985 18.0707 18.497C17.7147 18.4965 17.5548 18.3476 17.5526 18.0035C17.5489 17.2744 17.5495 16.5458 17.5526 15.8167C17.5542 15.4706 17.6941 15.3319 18.0416 15.3304C18.8166 15.3273 19.5916 15.3278 20.3666 15.3304C20.7195 15.3319 20.8545 15.466 20.8577 15.8142C20.8614 16.1787 20.8588 16.5433 20.8588 16.9078Z" fill="#09B256"/>
<path d="M20.8572 11.4005C20.863 12.1551 20.8635 12.9096 20.8572 13.6642C20.8545 13.9686 20.6956 14.1124 20.382 14.1149C19.9858 14.118 19.5895 14.1154 19.1933 14.1154C18.814 14.1159 18.4352 14.117 18.0564 14.1154C17.7221 14.1139 17.5574 13.9752 17.5547 13.6637C17.5473 12.9091 17.5479 12.1546 17.5542 11.4C17.5569 11.0915 17.7089 10.9559 18.0299 10.9554C18.814 10.9529 19.598 10.9529 20.382 10.9554C20.7057 10.9564 20.8551 11.0905 20.8572 11.4005Z" fill="#09B256"/>
<path d="M24.6904 14.0915C24.6904 10.7362 24.6915 7.38138 24.6899 4.02658C24.6899 2.9717 23.9281 2.24211 22.8278 2.24007C21.7334 2.23752 20.6389 2.23038 19.5445 2.24568C19.2907 2.24925 19.2372 2.17124 19.2478 1.94793C19.2653 1.60072 19.2642 1.25148 19.2446 0.904271C19.2139 0.368421 18.7763 -0.0124356 18.2339 0.000310594C17.6967 0.0125469 17.2787 0.420425 17.2687 0.951177C17.2618 1.2994 17.2528 1.64814 17.2724 1.99534C17.2835 2.20336 17.2099 2.24466 17.0075 2.24364C15.2514 2.23599 13.4948 2.23956 11.7386 2.23956C10.3883 2.23956 9.038 2.23446 7.68768 2.24466C7.47472 2.24619 7.41857 2.18807 7.42917 1.99025C7.44612 1.66853 7.43552 1.34529 7.43287 1.02256C7.42864 0.429092 7.02974 0.0105075 6.46132 0.000310594C5.88019 -0.0103962 5.4601 0.40564 5.44845 1.01083C5.44262 1.34172 5.43573 1.67363 5.45215 2.00452C5.46116 2.1952 5.40342 2.24619 5.20317 2.24415C4.10925 2.23395 3.01373 2.26454 1.92034 2.23242C0.81105 2.19979 -0.0031692 3.05481 9.27354e-06 4.08266C0.0190801 10.7754 0.0180206 17.4682 0.000539019 24.161C-0.00157996 25.174 0.806282 26.001 1.90762 25.9985C8.86213 25.9847 15.8166 25.9837 22.7711 26C23.899 26.0025 24.7079 25.1679 24.6999 24.1559C24.675 20.8011 24.6909 17.4463 24.6904 14.0915ZM17.2676 3.91696C17.2676 4.38449 17.2623 4.82755 17.2692 5.2701C17.275 5.67186 17.5319 6.01549 17.9102 6.14856C18.5406 6.37086 19.1901 5.97318 19.243 5.32363C19.2616 5.09573 19.2515 4.86579 19.2526 4.63687C19.2536 4.40998 19.2531 4.1831 19.2531 3.91696C19.8692 4.33453 20.1298 5.09624 19.9089 5.74731C19.6742 6.43714 18.9946 6.91894 18.2577 6.91792C17.5187 6.9169 16.8337 6.42898 16.6097 5.74324C16.3919 5.07788 16.6494 4.3279 17.2676 3.91696ZM5.44739 3.91645C5.44739 4.24122 5.44686 4.5405 5.44792 4.83979C5.44845 5.0009 5.44262 5.16252 5.45639 5.32261C5.4993 5.83807 5.93475 6.22402 6.45549 6.21535C6.98524 6.20669 7.42122 5.79116 7.43128 5.27112C7.43923 4.83265 7.43287 4.39316 7.43287 3.91798C8.0495 4.32331 8.30801 5.07432 8.09029 5.74222C7.86674 6.42847 7.18389 6.91588 6.44384 6.91792C5.70802 6.91996 5.02677 6.43765 4.79209 5.74833C4.57066 5.09726 4.8297 4.33758 5.44739 3.91645ZM23.1849 23.2902C23.1849 24.0157 22.7987 24.3909 22.048 24.3909C15.6053 24.3919 9.16249 24.3884 2.72025 24.396C1.94947 24.397 1.58395 23.8846 1.58607 23.3151C1.60249 18.8224 1.59719 14.3296 1.58925 9.8368C1.58872 9.59309 1.64593 9.53191 1.90286 9.53242C5.39759 9.5416 8.89232 9.53854 12.3876 9.53854C15.8913 9.53854 19.3951 9.54109 22.8983 9.53344C23.1303 9.53293 23.1912 9.58443 23.1912 9.81131C23.1833 14.3046 23.1859 18.7974 23.1849 23.2902Z" fill="#09B256"/>
<path d="M7.20762 20.1499C7.21133 20.9045 7.21133 21.659 7.20815 22.4136C7.20656 22.7241 7.04605 22.876 6.71549 22.8776C5.94894 22.8817 5.1824 22.8817 4.41586 22.8781C4.06676 22.876 3.92425 22.7318 3.92267 22.3947C3.92108 22.0215 3.92267 21.6488 3.92267 21.2756C3.92267 20.8943 3.92002 20.5124 3.9232 20.131C3.92584 19.8491 4.06093 19.7033 4.35547 19.7002C5.1575 19.692 5.95901 19.6926 6.76104 19.6997C7.06883 19.7028 7.20656 19.8486 7.20762 20.1499Z" fill="#09B256"/>
<path d="M7.20815 15.776C7.21133 16.5306 7.21133 17.2852 7.20815 18.0393C7.20656 18.3431 7.05029 18.4951 6.73932 18.4966C5.9553 18.4997 5.17128 18.4997 4.38725 18.4966C4.07417 18.4956 3.92531 18.3467 3.9232 18.0423C3.92055 17.661 3.92267 17.2791 3.92267 16.8977C3.92267 16.5163 3.92002 16.135 3.9232 15.7536C3.92584 15.4686 4.05934 15.333 4.35812 15.3315C5.15962 15.3264 5.96166 15.3264 6.76316 15.3315C7.072 15.3335 7.20656 15.4706 7.20815 15.776Z" fill="#09B256"/>
<path d="M7.20656 11.356C7.21292 12.1361 7.21292 12.9157 7.20709 13.6957C7.20497 13.9695 7.04552 14.1133 6.75734 14.1143C5.96484 14.1174 5.17234 14.1174 4.37931 14.1148C4.07417 14.1133 3.92584 13.971 3.9232 13.6825C3.92002 13.2924 3.92267 12.9024 3.92267 12.5124C3.92267 12.131 3.92002 11.7496 3.92373 11.3683C3.92637 11.097 4.06252 10.9578 4.34063 10.9563C5.15115 10.9517 5.96166 10.9522 6.77164 10.9558C7.05611 10.9573 7.20444 11.0889 7.20656 11.356Z" fill="#09B256"/>
<path d="M11.7592 20.153C11.7629 20.9076 11.7629 21.6621 11.7592 22.4162C11.7576 22.7129 11.595 22.8751 11.2888 22.8771C10.5048 22.8827 9.72074 22.8832 8.93671 22.8771C8.61992 22.8746 8.47795 22.7262 8.47583 22.4177C8.47266 22.0364 8.47477 21.6545 8.4753 21.2731C8.4753 20.8918 8.47213 20.5104 8.47636 20.129C8.47954 19.8435 8.61092 19.7028 8.9097 19.7003C9.7112 19.6926 10.5127 19.6926 11.3142 19.7008C11.6199 19.7038 11.7576 19.8507 11.7592 20.153Z" fill="#09B256"/>
<path d="M11.7592 15.7755C11.7634 16.53 11.7634 17.2841 11.7592 18.0387C11.757 18.3497 11.5955 18.496 11.2633 18.497C10.4973 18.4991 9.73076 18.4991 8.96475 18.497C8.61724 18.496 8.47738 18.3573 8.47527 18.0178C8.47315 17.6446 8.47474 17.2719 8.47527 16.8987C8.47527 16.5173 8.47209 16.1359 8.47632 15.7546C8.47897 15.4629 8.60611 15.3329 8.90754 15.3314C9.70904 15.3263 10.5105 15.3268 11.3121 15.3314C11.6204 15.3329 11.757 15.4706 11.7592 15.7755Z" fill="#09B256"/>
<path d="M11.759 11.3827C11.7643 12.1469 11.7643 12.9112 11.759 13.6755C11.7569 13.9661 11.599 14.1134 11.2997 14.1144C10.5056 14.1175 9.71155 14.118 8.91746 14.1144C8.62504 14.1129 8.47936 13.9727 8.47671 13.6943C8.47194 13.3038 8.47512 12.9127 8.47565 12.5222C8.47565 12.1403 8.47247 11.7579 8.47671 11.376C8.47936 11.0854 8.60968 10.9569 8.91163 10.9559C9.71473 10.9524 10.5173 10.9524 11.3204 10.9559C11.6133 10.9575 11.7569 11.0946 11.759 11.3827Z" fill="#09B256"/>
<path d="M13.0225 13.6934C13.0167 12.9205 13.0172 12.148 13.0225 11.3751C13.0246 11.0799 13.156 10.9591 13.4606 10.956C13.8664 10.9514 14.2727 10.9545 14.6785 10.9545C15.0668 10.9545 15.4551 10.9525 15.8429 10.9555C16.1538 10.9581 16.3064 11.0921 16.308 11.3843C16.3138 12.148 16.3138 12.9123 16.3085 13.6766C16.3064 13.9662 16.1469 14.1135 15.8476 14.1145C15.0535 14.1176 14.2594 14.1176 13.4654 14.1145C13.1729 14.1135 13.0246 13.9769 13.0225 13.6934Z" fill="#09B256"/>
<path d="M16.3076 20.1305C16.3134 20.9019 16.314 21.6733 16.3076 22.4447C16.3055 22.7098 16.1375 22.8735 15.8594 22.876C15.0579 22.8837 14.2564 22.8837 13.4549 22.876C13.172 22.8735 13.0264 22.7185 13.0216 22.4401C13.0152 22.0501 13.02 21.66 13.0205 21.27C13.0205 20.8886 13.0158 20.5073 13.0221 20.1259C13.0269 19.8383 13.1609 19.7027 13.4597 19.7002C14.2612 19.6935 15.0627 19.693 15.8642 19.7007C16.154 19.7032 16.3055 19.8536 16.3076 20.1305Z" fill="#09B256"/>
<path d="M13.0222 18.0661C13.0169 17.2937 13.0169 16.5208 13.0227 15.7479C13.0249 15.4552 13.1573 15.3349 13.4646 15.3308C13.8613 15.3257 14.2586 15.3298 14.6554 15.3298C15.0437 15.3298 15.432 15.3272 15.8203 15.3303C16.1657 15.3334 16.3072 15.4639 16.3088 15.7907C16.3125 16.5381 16.313 17.2851 16.3088 18.0325C16.3072 18.3455 16.1445 18.4959 15.8166 18.497C15.04 18.499 14.2634 18.4995 13.4868 18.4965C13.1811 18.4954 13.0243 18.3547 13.0222 18.0661Z" fill="#09B256"/>
<path d="M20.8588 16.9078C20.8588 17.2724 20.8614 17.6369 20.8577 18.0014C20.8545 18.3471 20.6988 18.4965 20.3439 18.497C19.5863 18.4985 18.8283 18.4985 18.0707 18.497C17.7147 18.4965 17.5548 18.3476 17.5526 18.0035C17.5489 17.2744 17.5495 16.5458 17.5526 15.8167C17.5542 15.4706 17.6941 15.3319 18.0416 15.3304C18.8166 15.3273 19.5916 15.3278 20.3666 15.3304C20.7195 15.3319 20.8545 15.466 20.8577 15.8142C20.8614 16.1787 20.8588 16.5433 20.8588 16.9078Z" fill="#09B256"/>
<path d="M17.5547 13.6637C17.5473 12.9091 17.5479 12.1546 17.5542 11.4C17.5569 11.0915 17.7089 10.9559 18.0299 10.9554C18.814 10.9529 19.598 10.9529 20.382 10.9554C20.7057 10.9564 20.8551 11.0905 20.8572 11.4005C20.863 12.1551 20.8635 12.9096 20.8572 13.6642C20.8545 13.9686 20.6956 14.1124 20.382 14.1149C19.9858 14.118 19.5895 14.1154 19.1933 14.1154C18.814 14.1159 18.4352 14.117 18.0564 14.1154C17.7221 14.1139 17.5574 13.9752 17.5547 13.6637Z" fill="#09B256"/>
<path d="M20.8572 13.6642C20.8545 13.9686 20.6956 14.1124 20.382 14.1149C19.9858 14.118 19.5895 14.1154 19.1933 14.1154C18.814 14.1159 18.4352 14.117 18.0564 14.1154C17.7221 14.1139 17.5574 13.9752 17.5547 13.6637C17.5473 12.9091 17.5479 12.1546 17.5542 11.4C17.5569 11.0915 17.7089 10.9559 18.0299 10.9554C18.814 10.9529 19.598 10.9529 20.382 10.9554C20.7057 10.9564 20.8551 11.0905 20.8572 11.4005C20.863 12.1551 20.8635 12.9096 20.8572 13.6642Z" fill="#09B256"/>
<path d="M7.20815 22.4136C7.20656 22.7241 7.04605 22.876 6.71549 22.8776C5.94894 22.8817 5.1824 22.8817 4.41586 22.8781C4.06676 22.876 3.92425 22.7318 3.92267 22.3947C3.92108 22.0215 3.92267 21.6488 3.92267 21.2756C3.92267 20.8943 3.92002 20.5124 3.9232 20.131C3.92584 19.8491 4.06093 19.7033 4.35547 19.7002C5.1575 19.692 5.95901 19.6926 6.76104 19.6997C7.06883 19.7028 7.20656 19.8486 7.20762 20.1499C7.21133 20.9045 7.21133 21.659 7.20815 22.4136Z" fill="#09B256"/>
<path d="M20.8588 16.9078C20.8588 17.2724 20.8614 17.6369 20.8577 18.0014C20.8545 18.3471 20.6988 18.4965 20.3439 18.497C19.5863 18.4985 18.8283 18.4985 18.0707 18.497C17.7147 18.4965 17.5548 18.3476 17.5526 18.0035C17.5489 17.2744 17.5495 16.5458 17.5526 15.8167C17.5542 15.4706 17.6941 15.3319 18.0416 15.3304C18.8166 15.3273 19.5916 15.3278 20.3666 15.3304C20.7195 15.3319 20.8545 15.466 20.8577 15.8142C20.8614 16.1787 20.8588 16.5433 20.8588 16.9078Z" fill="#09B256"/>
<path d="M11.7592 22.4162C11.7576 22.7129 11.595 22.8751 11.2888 22.8771C10.5048 22.8827 9.72074 22.8832 8.93671 22.8771C8.61992 22.8746 8.47795 22.7262 8.47583 22.4177C8.47266 22.0364 8.47477 21.6545 8.4753 21.2731C8.4753 20.8918 8.47213 20.5104 8.47636 20.129C8.47954 19.8435 8.61092 19.7028 8.9097 19.7003C9.7112 19.6926 10.5127 19.6926 11.3142 19.7008C11.6199 19.7038 11.7576 19.8507 11.7592 20.153C11.7629 20.9076 11.7629 21.6621 11.7592 22.4162Z" fill="#09B256"/>
<path d="M16.3076 22.4447C16.3055 22.7098 16.1375 22.8735 15.8594 22.876C15.0579 22.8837 14.2564 22.8837 13.4549 22.876C13.172 22.8735 13.0264 22.7185 13.0216 22.4401C13.0152 22.0501 13.02 21.66 13.0205 21.27C13.0205 20.8886 13.0158 20.5073 13.0221 20.1259C13.0269 19.8383 13.1609 19.7027 13.4597 19.7002C14.2612 19.6935 15.0627 19.693 15.8642 19.7007C16.154 19.7032 16.3055 19.8536 16.3076 20.1305C16.3134 20.9019 16.314 21.6733 16.3076 22.4447Z" fill="#09B256"/>
<path d="M7.20815 18.0393C7.20656 18.3431 7.05029 18.4951 6.73932 18.4966C5.9553 18.4997 5.17128 18.4997 4.38725 18.4966C4.07417 18.4956 3.92531 18.3467 3.9232 18.0423C3.92055 17.661 3.92267 17.2791 3.92267 16.8977C3.92267 16.5163 3.92002 16.135 3.9232 15.7536C3.92584 15.4686 4.05934 15.333 4.35812 15.3315C5.15962 15.3264 5.96166 15.3264 6.76316 15.3315C7.072 15.3335 7.20656 15.4706 7.20815 15.776C7.21133 16.5306 7.21133 17.2852 7.20815 18.0393Z" fill="#09B256"/>
<path d="M11.759 13.6755C11.7569 13.9661 11.599 14.1134 11.2997 14.1144C10.5056 14.1175 9.71155 14.118 8.91746 14.1144C8.62504 14.1129 8.47936 13.9727 8.47671 13.6943C8.47194 13.3038 8.47512 12.9127 8.47565 12.5222C8.47565 12.1403 8.47247 11.7579 8.47671 11.376C8.47936 11.0854 8.60968 10.9569 8.91163 10.9559C9.71473 10.9524 10.5173 10.9524 11.3204 10.9559C11.6133 10.9575 11.7569 11.0946 11.759 11.3827C11.7643 12.1469 11.7643 12.9112 11.759 13.6755Z" fill="#09B256"/>
<path d="M7.20709 13.6957C7.20497 13.9695 7.04552 14.1133 6.75734 14.1143C5.96484 14.1174 5.17234 14.1174 4.37931 14.1148C4.07417 14.1133 3.92584 13.971 3.9232 13.6825C3.92002 13.2924 3.92267 12.9024 3.92267 12.5124C3.92267 12.131 3.92002 11.7496 3.92373 11.3683C3.92637 11.097 4.06252 10.9578 4.34063 10.9563C5.15115 10.9517 5.96166 10.9522 6.77164 10.9558C7.05611 10.9573 7.20444 11.0889 7.20656 11.356C7.21292 12.1361 7.21292 12.9157 7.20709 13.6957Z" fill="#09B256"/>
<path d="M16.3085 13.6766C16.3064 13.9662 16.1469 14.1135 15.8476 14.1145C15.0535 14.1176 14.2594 14.1176 13.4654 14.1145C13.1729 14.1135 13.0246 13.9769 13.0225 13.6934C13.0167 12.9205 13.0172 12.148 13.0225 11.3751C13.0246 11.0799 13.156 10.9591 13.4606 10.956C13.8664 10.9514 14.2727 10.9545 14.6785 10.9545C15.0668 10.9545 15.4551 10.9525 15.8429 10.9555C16.1538 10.9581 16.3064 11.0921 16.308 11.3843C16.3138 12.148 16.3138 12.9123 16.3085 13.6766Z" fill="#09B256"/>
<path d="M11.7592 18.0387C11.757 18.3497 11.5955 18.496 11.2633 18.497C10.4973 18.4991 9.73076 18.4991 8.96475 18.497C8.61724 18.496 8.47738 18.3573 8.47527 18.0178C8.47315 17.6446 8.47474 17.2719 8.47527 16.8987C8.47527 16.5173 8.47209 16.1359 8.47632 15.7546C8.47897 15.4629 8.60611 15.3329 8.90754 15.3314C9.70904 15.3263 10.5105 15.3268 11.3121 15.3314C11.6204 15.3329 11.757 15.4706 11.7592 15.7755C11.7634 16.53 11.7634 17.2841 11.7592 18.0387Z" fill="#09B256"/>
<path d="M16.3088 18.0325C16.3072 18.3455 16.1445 18.4959 15.8166 18.497C15.04 18.499 14.2634 18.4995 13.4868 18.4965C13.1811 18.4954 13.0243 18.3547 13.0222 18.0661C13.0169 17.2937 13.0169 16.5208 13.0227 15.7479C13.0249 15.4552 13.1573 15.3349 13.4646 15.3308C13.8613 15.3257 14.2586 15.3298 14.6554 15.3298C15.0437 15.3298 15.432 15.3272 15.8203 15.3303C16.1657 15.3334 16.3072 15.4639 16.3088 15.7907C16.3125 16.5381 16.313 17.2851 16.3088 18.0325Z" fill="#09B256"/>
</svg>
