<svg width="40" height="29" viewBox="0 0 40 29" fill="none" xmlns="http://www.w3.org/2000/svg">
<path d="M8.02368 22.2683C8.02748 23.0689 8.02748 23.8695 8.02422 24.6701C8.02259 24.9995 7.85826 25.1607 7.51984 25.1623C6.73506 25.1667 5.95028 25.1667 5.1655 25.1629C4.80809 25.1607 4.6622 25.0076 4.66057 24.6501C4.65895 24.2541 4.66057 23.8587 4.66057 23.4627C4.66057 23.058 4.65786 22.6529 4.66112 22.2482C4.66383 21.9491 4.80213 21.7944 5.10367 21.7911C5.92479 21.7825 6.74536 21.783 7.56648 21.7906C7.88158 21.7938 8.02259 21.9485 8.02368 22.2683Z" fill="#7D7D7D"/>
<path d="M8.02422 17.6274C8.02748 18.428 8.02748 19.2287 8.02422 20.0287C8.02259 20.3511 7.8626 20.5123 7.54424 20.514C6.74157 20.5172 5.93889 20.5172 5.13621 20.514C4.81569 20.5129 4.66329 20.3549 4.66112 20.032C4.65841 19.6273 4.66057 19.2222 4.66057 18.8175C4.66057 18.4129 4.65786 18.0083 4.66112 17.6036C4.66383 17.3012 4.8005 17.1574 5.10639 17.1557C5.92696 17.1503 6.74808 17.1503 7.56865 17.1557C7.88484 17.1579 8.02259 17.3034 8.02422 17.6274Z" fill="#7D7D7D"/>
<path d="M8.02259 12.9379C8.0291 13.7656 8.0291 14.5927 8.02314 15.4204C8.02097 15.7108 7.85772 15.8634 7.56268 15.8645C6.75133 15.8677 5.93998 15.8677 5.12808 15.865C4.81569 15.8634 4.66383 15.7125 4.66112 15.4063C4.65786 14.9925 4.66057 14.5786 4.66057 14.1648C4.66057 13.7602 4.65786 13.3555 4.66166 12.9509C4.66437 12.6631 4.80375 12.5154 5.08849 12.5138C5.91828 12.5089 6.74807 12.5095 7.57733 12.5133C7.86857 12.5149 8.02042 12.6545 8.02259 12.9379Z" fill="#7D7D7D"/>
<path d="M12.6824 22.2716C12.6861 23.0722 12.6861 23.8728 12.6824 24.6729C12.6807 24.9877 12.5142 25.1597 12.2007 25.1619C11.3981 25.1678 10.5954 25.1684 9.79272 25.1619C9.46839 25.1592 9.32305 25.0018 9.32088 24.6745C9.31762 24.2699 9.31979 23.8647 9.32033 23.4601C9.32033 23.0554 9.31708 22.6508 9.32142 22.2462C9.32467 21.9432 9.45917 21.7939 9.76506 21.7912C10.5856 21.7831 11.4062 21.7831 12.2268 21.7918C12.5397 21.795 12.6807 21.9508 12.6824 22.2716Z" fill="#7D7D7D"/>
<path d="M12.6823 17.627C12.6867 18.4276 12.6867 19.2277 12.6823 20.0283C12.6801 20.3582 12.5147 20.5135 12.1747 20.5146C11.3904 20.5167 10.6057 20.5167 9.82142 20.5146C9.46564 20.5135 9.32246 20.3664 9.32029 20.0061C9.31812 19.6101 9.31975 19.2147 9.32029 18.8187C9.32029 18.4141 9.31704 18.0094 9.32138 17.6048C9.32409 17.2954 9.45425 17.1574 9.76285 17.1558C10.5834 17.1504 11.404 17.1509 12.2246 17.1558C12.5402 17.1574 12.6801 17.3035 12.6823 17.627Z" fill="#7D7D7D"/>
<path d="M12.6818 12.966C12.6872 13.7769 12.6872 14.5878 12.6818 15.3987C12.6796 15.707 12.518 15.8634 12.2116 15.8644C11.3986 15.8677 10.5856 15.8682 9.77264 15.8644C9.47326 15.8628 9.32412 15.714 9.32141 15.4187C9.31652 15.0043 9.31978 14.5894 9.32032 14.175C9.32032 13.7699 9.31707 13.3641 9.32141 12.959C9.32412 12.6506 9.45754 12.5143 9.76667 12.5132C10.5889 12.5094 11.4105 12.5094 12.2327 12.5132C12.5327 12.5149 12.6796 12.6604 12.6818 12.966Z" fill="#7D7D7D"/>
<path d="M13.9758 15.4177C13.9699 14.5976 13.9704 13.7781 13.9758 12.958C13.978 12.6448 14.1125 12.5166 14.4244 12.5133C14.8398 12.5085 15.2558 12.5117 15.6712 12.5117C16.0688 12.5117 16.4663 12.5095 16.8633 12.5128C17.1817 12.5155 17.3379 12.6578 17.3395 12.9677C17.3454 13.7781 17.3454 14.589 17.34 15.3999C17.3379 15.7071 17.1746 15.8635 16.8682 15.8645C16.0552 15.8678 15.2422 15.8678 14.4292 15.8645C14.1299 15.8635 13.978 15.7185 13.9758 15.4177Z" fill="#7D7D7D"/>
<path d="M17.3393 22.2478C17.3452 23.0662 17.3458 23.8847 17.3393 24.7032C17.3371 24.9845 17.1652 25.1581 16.8805 25.1608C16.0599 25.1689 15.2393 25.1689 14.4187 25.1608C14.1291 25.1581 13.98 24.9937 13.9751 24.6983C13.9686 24.2845 13.9735 23.8706 13.974 23.4568C13.974 23.0522 13.9691 22.6475 13.9756 22.2429C13.9805 21.9378 14.1177 21.7939 14.4236 21.7912C15.2442 21.7842 16.0648 21.7836 16.8853 21.7918C17.182 21.7945 17.3371 21.954 17.3393 22.2478Z" fill="#7D7D7D"/>
<path d="M13.9757 20.0572C13.9703 19.2377 13.9703 18.4176 13.9763 17.5975C13.9785 17.287 14.114 17.1593 14.4286 17.155C14.8348 17.1496 15.2416 17.1539 15.6478 17.1539C16.0453 17.1539 16.4429 17.1512 16.8404 17.1545C17.194 17.1577 17.3388 17.2962 17.3405 17.6429C17.3443 18.436 17.3448 19.2285 17.3405 20.0215C17.3388 20.3537 17.1723 20.5132 16.8366 20.5143C16.0415 20.5165 15.2465 20.517 14.4514 20.5138C14.1384 20.5127 13.9779 20.3634 13.9757 20.0572Z" fill="#7D7D7D"/>
<path d="M21.9991 18.8282C21.9991 19.215 22.0018 19.6018 21.998 19.9886C21.9947 20.3553 21.8353 20.5138 21.4719 20.5144C20.6964 20.516 19.9203 20.516 19.1447 20.5144C18.7802 20.5138 18.6165 20.3559 18.6143 19.9907C18.6105 19.2172 18.611 18.4442 18.6143 17.6706C18.6159 17.3033 18.7591 17.1561 19.1149 17.1545C19.9083 17.1513 20.7018 17.1518 21.4952 17.1545C21.8564 17.1561 21.9947 17.2984 21.998 17.6679C22.0018 18.0547 21.9991 18.4414 21.9991 18.8282Z" fill="#7D7D7D"/>
<path d="M21.9973 12.9849C22.0033 13.7855 22.0038 14.5862 21.9973 15.3868C21.9946 15.7097 21.8319 15.8623 21.5108 15.865C21.1051 15.8682 20.6995 15.8655 20.2938 15.8655C19.9055 15.866 19.5177 15.8671 19.1299 15.8655C18.7877 15.8639 18.619 15.7167 18.6163 15.3862C18.6087 14.5856 18.6093 13.785 18.6158 12.9844C18.6185 12.6571 18.7741 12.5132 19.1028 12.5127C19.9055 12.51 20.7081 12.51 21.5108 12.5127C21.8422 12.5138 21.9951 12.656 21.9973 12.9849Z" fill="#7D7D7D"/>
<path d="M25.9214 15.8401C25.9214 12.2801 25.9225 8.72063 25.9209 5.16116C25.9209 4.04193 25.141 3.26783 24.0145 3.26567C22.8941 3.26296 21.7736 3.25539 20.6531 3.27162C20.3933 3.2754 20.3385 3.19264 20.3494 2.9557C20.3673 2.58731 20.3662 2.21676 20.3461 1.84837C20.3146 1.27983 19.8667 0.875737 19.3113 0.889261C18.7614 0.902244 18.3334 1.33501 18.3231 1.89814C18.3161 2.26761 18.3069 2.63762 18.3269 3.00601C18.3383 3.22672 18.2629 3.27053 18.0558 3.26945C16.2579 3.26134 14.4594 3.26512 12.6616 3.26512C11.2791 3.26512 9.89667 3.25971 8.51422 3.27053C8.2962 3.27216 8.23871 3.21049 8.24955 3.0006C8.26691 2.65926 8.25606 2.31629 8.25335 1.97387C8.24901 1.3442 7.84062 0.90008 7.25868 0.889261C6.66373 0.877901 6.23364 1.31932 6.22171 1.96143C6.21575 2.31251 6.2087 2.66467 6.22551 3.01574C6.23473 3.21806 6.17561 3.27216 5.9706 3.26999C4.85065 3.25917 3.72908 3.29163 2.60967 3.25755C1.47399 3.22293 0.640402 4.13011 0.643656 5.22067C0.66318 12.3218 0.662096 19.4228 0.644198 26.5239C0.642029 27.5988 1.46911 28.4762 2.59665 28.4735C9.71661 28.4589 16.8366 28.4578 23.9565 28.4751C25.1112 28.4778 25.9393 27.5923 25.9312 26.5185C25.9057 22.959 25.922 19.3996 25.9214 15.8401ZM18.3221 5.04486C18.3221 5.54091 18.3166 6.011 18.3237 6.48055C18.3296 6.90682 18.5927 7.27142 18.9799 7.41261C19.6253 7.64846 20.2902 7.22652 20.3445 6.53735C20.3635 6.29554 20.3531 6.05157 20.3542 5.80868C20.3553 5.56796 20.3548 5.32723 20.3548 5.04486C20.9855 5.4879 21.2524 6.29608 21.0262 6.98688C20.7859 7.71879 20.0901 8.22999 19.3357 8.2289C18.5791 8.22782 17.8779 7.71013 17.6485 6.98255C17.4256 6.27661 17.6891 5.48087 18.3221 5.04486ZM6.22063 5.04432C6.22063 5.3889 6.22008 5.70644 6.22117 6.02398C6.22171 6.19492 6.21575 6.3664 6.22985 6.53626C6.27378 7.08317 6.71959 7.49267 7.25272 7.48347C7.79507 7.47428 8.24142 7.0334 8.25172 6.48163C8.25986 6.01641 8.25335 5.55011 8.25335 5.04594C8.88464 5.476 9.14931 6.27282 8.9264 6.98147C8.69753 7.70959 7.99845 8.22674 7.24079 8.2289C6.48746 8.23107 5.79 7.71933 5.54974 6.98796C5.32304 6.29716 5.58825 5.49114 6.22063 5.04432ZM24.3801 25.6C24.3801 26.3697 23.9847 26.7679 23.2162 26.7679C16.6202 26.769 10.0241 26.7652 3.42862 26.7733C2.6395 26.7744 2.26528 26.2307 2.26745 25.6265C2.28426 20.8596 2.27884 16.0927 2.2707 11.3259C2.27016 11.0673 2.32873 11.0024 2.59177 11.0029C6.16965 11.0126 9.74752 11.0094 13.3259 11.0094C16.913 11.0094 20.5001 11.0121 24.0867 11.004C24.3242 11.0034 24.3866 11.0581 24.3866 11.2988C24.3785 16.0662 24.3812 20.8331 24.3801 25.6Z" fill="#7D7D7D"/>
<path d="M8.02368 22.2683C8.02748 23.0689 8.02748 23.8695 8.02422 24.6701C8.02259 24.9995 7.85826 25.1607 7.51984 25.1623C6.73506 25.1667 5.95028 25.1667 5.1655 25.1629C4.80809 25.1607 4.6622 25.0076 4.66057 24.6501C4.65895 24.2541 4.66057 23.8587 4.66057 23.4627C4.66057 23.058 4.65786 22.6529 4.66112 22.2482C4.66383 21.9491 4.80213 21.7944 5.10367 21.7911C5.92479 21.7825 6.74536 21.783 7.56648 21.7906C7.88158 21.7938 8.02259 21.9485 8.02368 22.2683Z" fill="#7D7D7D"/>
<path d="M8.02422 17.6274C8.02748 18.428 8.02748 19.2287 8.02422 20.0287C8.02259 20.3511 7.8626 20.5123 7.54424 20.514C6.74157 20.5172 5.93889 20.5172 5.13621 20.514C4.81569 20.5129 4.66329 20.3549 4.66112 20.032C4.65841 19.6273 4.66057 19.2222 4.66057 18.8175C4.66057 18.4129 4.65786 18.0083 4.66112 17.6036C4.66383 17.3012 4.8005 17.1574 5.10639 17.1557C5.92696 17.1503 6.74808 17.1503 7.56865 17.1557C7.88484 17.1579 8.02259 17.3034 8.02422 17.6274Z" fill="#7D7D7D"/>
<path d="M8.02259 12.9379C8.0291 13.7656 8.0291 14.5927 8.02314 15.4204C8.02097 15.7108 7.85772 15.8634 7.56268 15.8645C6.75133 15.8677 5.93998 15.8677 5.12808 15.865C4.81569 15.8634 4.66383 15.7125 4.66112 15.4063C4.65786 14.9925 4.66057 14.5786 4.66057 14.1648C4.66057 13.7602 4.65786 13.3555 4.66166 12.9509C4.66437 12.6631 4.80375 12.5154 5.08849 12.5138C5.91828 12.5089 6.74807 12.5095 7.57733 12.5133C7.86857 12.5149 8.02042 12.6545 8.02259 12.9379Z" fill="#7D7D7D"/>
<path d="M12.6824 22.2716C12.6861 23.0722 12.6861 23.8728 12.6824 24.6729C12.6807 24.9877 12.5142 25.1597 12.2007 25.1619C11.3981 25.1678 10.5954 25.1684 9.79272 25.1619C9.46839 25.1592 9.32305 25.0018 9.32088 24.6745C9.31762 24.2699 9.31979 23.8647 9.32033 23.4601C9.32033 23.0554 9.31708 22.6508 9.32142 22.2462C9.32467 21.9432 9.45917 21.7939 9.76506 21.7912C10.5856 21.7831 11.4062 21.7831 12.2268 21.7918C12.5397 21.795 12.6807 21.9508 12.6824 22.2716Z" fill="#7D7D7D"/>
<path d="M12.6823 17.627C12.6867 18.4276 12.6867 19.2277 12.6823 20.0283C12.6801 20.3582 12.5147 20.5135 12.1747 20.5146C11.3904 20.5167 10.6057 20.5167 9.82142 20.5146C9.46564 20.5135 9.32246 20.3664 9.32029 20.0061C9.31812 19.6101 9.31975 19.2147 9.32029 18.8187C9.32029 18.4141 9.31704 18.0094 9.32138 17.6048C9.32409 17.2954 9.45425 17.1574 9.76285 17.1558C10.5834 17.1504 11.404 17.1509 12.2246 17.1558C12.5402 17.1574 12.6801 17.3035 12.6823 17.627Z" fill="#7D7D7D"/>
<path d="M12.6818 12.966C12.6872 13.7769 12.6872 14.5878 12.6818 15.3987C12.6796 15.707 12.518 15.8634 12.2116 15.8644C11.3986 15.8677 10.5856 15.8682 9.77264 15.8644C9.47326 15.8628 9.32412 15.714 9.32141 15.4187C9.31652 15.0043 9.31978 14.5894 9.32032 14.175C9.32032 13.7699 9.31707 13.3641 9.32141 12.959C9.32412 12.6506 9.45754 12.5143 9.76667 12.5132C10.5889 12.5094 11.4105 12.5094 12.2327 12.5132C12.5327 12.5149 12.6796 12.6604 12.6818 12.966Z" fill="#7D7D7D"/>
<path d="M13.9758 15.4177C13.9699 14.5976 13.9704 13.7781 13.9758 12.958C13.978 12.6448 14.1125 12.5166 14.4244 12.5133C14.8398 12.5085 15.2558 12.5117 15.6712 12.5117C16.0688 12.5117 16.4663 12.5095 16.8633 12.5128C17.1817 12.5155 17.3379 12.6578 17.3395 12.9677C17.3454 13.7781 17.3454 14.589 17.34 15.3999C17.3379 15.7071 17.1746 15.8635 16.8682 15.8645C16.0552 15.8678 15.2422 15.8678 14.4292 15.8645C14.1299 15.8635 13.978 15.7185 13.9758 15.4177Z" fill="#7D7D7D"/>
<path d="M17.3393 22.2478C17.3452 23.0662 17.3458 23.8847 17.3393 24.7032C17.3371 24.9845 17.1652 25.1581 16.8805 25.1608C16.0599 25.1689 15.2393 25.1689 14.4187 25.1608C14.1291 25.1581 13.98 24.9937 13.9751 24.6983C13.9686 24.2845 13.9735 23.8706 13.974 23.4568C13.974 23.0522 13.9691 22.6475 13.9756 22.2429C13.9805 21.9378 14.1177 21.7939 14.4236 21.7912C15.2442 21.7842 16.0648 21.7836 16.8853 21.7918C17.182 21.7945 17.3371 21.954 17.3393 22.2478Z" fill="#7D7D7D"/>
<path d="M13.9757 20.0572C13.9703 19.2377 13.9703 18.4176 13.9763 17.5975C13.9785 17.287 14.114 17.1593 14.4286 17.155C14.8348 17.1496 15.2416 17.1539 15.6478 17.1539C16.0453 17.1539 16.4429 17.1512 16.8404 17.1545C17.194 17.1577 17.3388 17.2962 17.3405 17.6429C17.3443 18.436 17.3448 19.2285 17.3405 20.0215C17.3388 20.3537 17.1723 20.5132 16.8366 20.5143C16.0415 20.5165 15.2465 20.517 14.4514 20.5138C14.1384 20.5127 13.9779 20.3634 13.9757 20.0572Z" fill="#7D7D7D"/>
<path d="M21.9991 18.8282C21.9991 19.215 22.0018 19.6018 21.998 19.9886C21.9947 20.3553 21.8353 20.5138 21.4719 20.5144C20.6964 20.516 19.9203 20.516 19.1447 20.5144C18.7802 20.5138 18.6165 20.3559 18.6143 19.9907C18.6105 19.2172 18.611 18.4442 18.6143 17.6706C18.6159 17.3033 18.7591 17.1561 19.1149 17.1545C19.9083 17.1513 20.7018 17.1518 21.4952 17.1545C21.8564 17.1561 21.9947 17.2984 21.998 17.6679C22.0018 18.0547 21.9991 18.4414 21.9991 18.8282Z" fill="#7D7D7D"/>
<path d="M18.6163 15.3862C18.6087 14.5856 18.6093 13.785 18.6158 12.9844C18.6185 12.6571 18.7741 12.5132 19.1028 12.5127C19.9055 12.51 20.7081 12.51 21.5108 12.5127C21.8422 12.5138 21.9951 12.656 21.9973 12.9849C22.0033 13.7855 22.0038 14.5862 21.9973 15.3868C21.9946 15.7097 21.8319 15.8623 21.5108 15.865C21.1051 15.8682 20.6995 15.8655 20.2938 15.8655C19.9055 15.866 19.5177 15.8671 19.1299 15.8655C18.7877 15.8639 18.619 15.7167 18.6163 15.3862Z" fill="#7D7D7D"/>
<path d="M21.9973 15.3868C21.9946 15.7097 21.8319 15.8623 21.5108 15.865C21.1051 15.8682 20.6995 15.8655 20.2938 15.8655C19.9055 15.866 19.5177 15.8671 19.1299 15.8655C18.7877 15.8639 18.619 15.7167 18.6163 15.3862C18.6087 14.5856 18.6093 13.785 18.6158 12.9844C18.6185 12.6571 18.7741 12.5132 19.1028 12.5127C19.9055 12.51 20.7081 12.51 21.5108 12.5127C21.8422 12.5138 21.9951 12.656 21.9973 12.9849C22.0033 13.7855 22.0038 14.5862 21.9973 15.3868Z" fill="#7D7D7D"/>
<path d="M8.02422 24.6701C8.02259 24.9995 7.85826 25.1607 7.51984 25.1623C6.73506 25.1667 5.95028 25.1667 5.1655 25.1629C4.80809 25.1607 4.6622 25.0076 4.66057 24.6501C4.65895 24.2541 4.66057 23.8587 4.66057 23.4627C4.66057 23.058 4.65786 22.6529 4.66112 22.2482C4.66383 21.9491 4.80213 21.7944 5.10367 21.7911C5.92479 21.7825 6.74536 21.783 7.56648 21.7906C7.88158 21.7938 8.02259 21.9485 8.02368 22.2683C8.02748 23.0689 8.02748 23.8695 8.02422 24.6701Z" fill="#7D7D7D"/>
<path d="M21.9991 18.8282C21.9991 19.215 22.0018 19.6018 21.998 19.9886C21.9947 20.3553 21.8353 20.5138 21.4719 20.5144C20.6964 20.516 19.9203 20.516 19.1447 20.5144C18.7802 20.5138 18.6165 20.3559 18.6143 19.9907C18.6105 19.2172 18.611 18.4442 18.6143 17.6706C18.6159 17.3033 18.7591 17.1561 19.1149 17.1545C19.9083 17.1513 20.7018 17.1518 21.4952 17.1545C21.8564 17.1561 21.9947 17.2984 21.998 17.6679C22.0018 18.0547 21.9991 18.4414 21.9991 18.8282Z" fill="#7D7D7D"/>
<path d="M12.6824 24.6729C12.6807 24.9877 12.5142 25.1597 12.2007 25.1619C11.3981 25.1678 10.5954 25.1684 9.79272 25.1619C9.46839 25.1592 9.32305 25.0018 9.32088 24.6745C9.31762 24.2699 9.31979 23.8647 9.32033 23.4601C9.32033 23.0554 9.31708 22.6508 9.32142 22.2462C9.32467 21.9432 9.45917 21.7939 9.76506 21.7912C10.5856 21.7831 11.4062 21.7831 12.2268 21.7918C12.5397 21.795 12.6807 21.9508 12.6824 22.2716C12.6861 23.0722 12.6861 23.8728 12.6824 24.6729Z" fill="#7D7D7D"/>
<path d="M17.3393 24.7032C17.3371 24.9845 17.1652 25.1581 16.8805 25.1608C16.0599 25.1689 15.2393 25.1689 14.4187 25.1608C14.1291 25.1581 13.98 24.9937 13.9751 24.6983C13.9686 24.2845 13.9735 23.8706 13.974 23.4568C13.974 23.0522 13.9691 22.6475 13.9756 22.2429C13.9805 21.9378 14.1177 21.7939 14.4236 21.7912C15.2442 21.7842 16.0648 21.7836 16.8853 21.7918C17.182 21.7945 17.3371 21.954 17.3393 22.2478C17.3452 23.0662 17.3458 23.8847 17.3393 24.7032Z" fill="#7D7D7D"/>
<path d="M8.02422 20.0287C8.02259 20.3511 7.8626 20.5123 7.54424 20.514C6.74157 20.5172 5.93889 20.5172 5.13621 20.514C4.81569 20.5129 4.66329 20.3549 4.66112 20.032C4.65841 19.6273 4.66057 19.2222 4.66057 18.8175C4.66057 18.4129 4.65786 18.0083 4.66112 17.6036C4.66383 17.3012 4.8005 17.1574 5.10639 17.1557C5.92696 17.1503 6.74808 17.1503 7.56865 17.1557C7.88484 17.1579 8.02259 17.3034 8.02422 17.6274C8.02748 18.428 8.02748 19.2287 8.02422 20.0287Z" fill="#7D7D7D"/>
<path d="M12.6818 15.3987C12.6796 15.707 12.518 15.8634 12.2116 15.8644C11.3986 15.8677 10.5856 15.8682 9.77264 15.8644C9.47326 15.8628 9.32412 15.714 9.32141 15.4187C9.31652 15.0043 9.31978 14.5894 9.32032 14.175C9.32032 13.7699 9.31707 13.3641 9.32141 12.959C9.32412 12.6506 9.45754 12.5143 9.76667 12.5132C10.5889 12.5094 11.4105 12.5094 12.2327 12.5132C12.5327 12.5149 12.6796 12.6604 12.6818 12.966C12.6872 13.7769 12.6872 14.5878 12.6818 15.3987Z" fill="#7D7D7D"/>
<path d="M8.02314 15.4204C8.02097 15.7108 7.85772 15.8634 7.56268 15.8645C6.75133 15.8677 5.93998 15.8677 5.12808 15.865C4.81569 15.8634 4.66383 15.7125 4.66112 15.4063C4.65786 14.9925 4.66057 14.5786 4.66057 14.1648C4.66057 13.7602 4.65786 13.3555 4.66166 12.9509C4.66437 12.6631 4.80375 12.5154 5.08849 12.5138C5.91828 12.5089 6.74807 12.5095 7.57733 12.5133C7.86857 12.5149 8.02042 12.6545 8.02259 12.9379C8.0291 13.7656 8.0291 14.5927 8.02314 15.4204Z" fill="#7D7D7D"/>
<path d="M17.34 15.3999C17.3379 15.7071 17.1746 15.8635 16.8682 15.8645C16.0552 15.8678 15.2422 15.8678 14.4292 15.8645C14.1299 15.8635 13.978 15.7185 13.9758 15.4177C13.9699 14.5976 13.9704 13.7781 13.9758 12.958C13.978 12.6448 14.1125 12.5166 14.4244 12.5133C14.8398 12.5085 15.2558 12.5117 15.6712 12.5117C16.0688 12.5117 16.4663 12.5095 16.8633 12.5128C17.1817 12.5155 17.3379 12.6578 17.3395 12.9677C17.3454 13.7781 17.3454 14.589 17.34 15.3999Z" fill="#7D7D7D"/>
<path d="M12.6823 20.0283C12.6801 20.3582 12.5147 20.5135 12.1747 20.5146C11.3904 20.5167 10.6057 20.5167 9.82142 20.5146C9.46564 20.5135 9.32246 20.3664 9.32029 20.0061C9.31812 19.6101 9.31975 19.2147 9.32029 18.8187C9.32029 18.4141 9.31704 18.0094 9.32138 17.6048C9.32409 17.2954 9.45425 17.1574 9.76285 17.1558C10.5834 17.1504 11.404 17.1509 12.2246 17.1558C12.5402 17.1574 12.6801 17.3035 12.6823 17.627C12.6867 18.4276 12.6867 19.2277 12.6823 20.0283Z" fill="#7D7D7D"/>
<path d="M17.3405 20.0215C17.3388 20.3537 17.1723 20.5132 16.8366 20.5143C16.0415 20.5165 15.2465 20.517 14.4514 20.5138C14.1384 20.5127 13.9779 20.3634 13.9757 20.0572C13.9703 19.2377 13.9703 18.4176 13.9763 17.5975C13.9785 17.287 14.114 17.1593 14.4286 17.155C14.8348 17.1496 15.2416 17.1539 15.6478 17.1539C16.0453 17.1539 16.4429 17.1512 16.8404 17.1545C17.194 17.1577 17.3388 17.2962 17.3405 17.6429C17.3443 18.436 17.3448 19.2285 17.3405 20.0215Z" fill="#7D7D7D"/>
</svg>
