<svg width="26" height="26" viewBox="0 0 26 26" fill="none" xmlns="http://www.w3.org/2000/svg">
<path d="M4.96654 12.8534C4.96729 13.4061 4.60687 13.7683 4.061 13.7638C3.53533 13.7585 3.17939 13.3926 3.18538 12.8631C3.19211 12.3337 3.54206 11.9991 4.08493 12.0036C4.60313 12.0073 4.96579 12.3576 4.96654 12.8534Z" fill="#09B256"/>
<path d="M6.09484 8.23088C6.08362 8.72302 5.60431 9.16064 5.10181 9.13824C4.63447 9.11733 4.26283 8.67672 4.28078 8.16591C4.29573 7.74995 4.75859 7.30859 5.17958 7.30859C5.59907 7.30859 6.10456 7.81791 6.09484 8.23088Z" fill="#09B256"/>
<path d="M9.43574 5.04652C9.43425 5.54986 9.04691 5.94865 8.54591 5.96359C8.05912 5.97703 7.64486 5.57376 7.63514 5.07714C7.62617 4.61338 8.0823 4.12274 8.516 4.12946C8.96615 4.13618 9.43724 4.60666 9.43574 5.04652Z" fill="#09B256"/>
<path d="M9.32524 20.4917C9.32375 20.5783 9.32001 20.6649 9.31702 20.7515C8.95884 21.3661 8.57898 21.4841 7.91646 21.1854C7.61586 20.8882 7.43715 20.5507 7.61063 20.1227C7.78411 19.6948 8.19164 19.485 8.63656 19.5746C9.08297 19.6642 9.33421 19.998 9.32524 20.4917Z" fill="#09B256"/>
<path d="M13.9111 21.8337C13.8991 22.3161 13.4789 22.7037 12.9764 22.6962C12.5098 22.6895 12.0723 22.2414 12.0783 21.7769C12.0835 21.3811 12.6174 20.8897 13.0347 20.8964C13.4893 20.9032 13.9223 21.3662 13.9111 21.8337Z" fill="#09B256"/>
<path d="M13.9321 3.98452C13.9201 4.45276 13.482 4.83811 12.9727 4.82765C12.4986 4.81794 12.0784 4.41169 12.0769 3.96063C12.0747 3.48791 12.5039 3.05701 12.9765 3.05701C13.5111 3.05626 13.9448 3.47745 13.9321 3.98452Z" fill="#09B256"/>
<path d="M15.7378 18.6619C15.7317 18.6557 15.7263 18.6504 15.7201 18.645C15.7178 18.6427 15.7171 18.6404 15.7163 18.6373C15.7224 18.6458 15.7301 18.6534 15.7378 18.6619Z" fill="#09B256"/>
<path d="M18.0911 12.3353C18.0702 12.7692 18.071 13.2061 18.0911 13.6407C18.1016 13.8767 18.0246 13.9334 17.798 13.9297C16.9762 13.917 16.1537 13.9297 15.3319 13.9222C15.0807 13.92 14.9042 13.979 14.7487 14.2112C13.7893 15.6436 11.6365 15.253 11.0861 13.9551C10.7033 13.0515 10.7938 11.9694 11.7718 11.2338C12.0081 11.0561 12.062 10.8582 12.0627 10.6057C12.0679 9.02627 12.0792 7.4468 12.0702 5.86734C12.0687 5.60073 12.1106 5.49543 12.4067 5.5156C12.8277 5.54547 13.2531 5.53427 13.6756 5.51858C13.8887 5.51037 13.9471 5.57833 13.9441 5.78818C13.9329 6.63429 13.9396 7.47966 13.9396 8.32578C13.9396 9.13381 13.9456 9.94258 13.9351 10.7506C13.9321 10.9567 13.9762 11.1001 14.1677 11.2054C14.4339 11.3518 14.6447 11.5684 14.7943 11.8305C14.9079 12.0299 15.0582 12.0866 15.2811 12.0836C16.1283 12.0717 16.9747 12.0844 17.822 12.0747C18.0238 12.0717 18.1016 12.112 18.0911 12.3353Z" fill="#09B256"/>
<path d="M18.2759 5.00921C18.2632 5.50732 17.8504 5.9061 17.3599 5.89415C16.8873 5.88295 16.4746 5.44309 16.4835 4.96066C16.491 4.53424 16.9651 4.04584 17.3629 4.05406C17.8303 4.06451 18.2871 4.54246 18.2759 5.00921Z" fill="#09B256"/>
<path d="M21.6333 8.34284C21.6467 8.82377 21.222 9.25318 20.7382 9.24795C20.2552 9.24197 19.8506 8.8275 19.8491 8.33611C19.8484 7.89177 20.2768 7.42353 20.6971 7.41084C21.1525 7.39665 21.6206 7.86265 21.6333 8.34284Z" fill="#09B256"/>
<path d="M19.7128 17.1848C19.7315 17.1713 19.7487 17.1556 19.7651 17.1377C19.7801 17.122 19.7935 17.1048 19.8062 17.0862C19.9536 16.668 20.3005 16.488 20.6624 16.3252C20.6579 16.3118 20.6557 16.2968 20.6549 16.2796C20.1958 16.3327 19.8982 16.5806 19.7591 17.019M18.123 20.1256C17.9039 19.7881 17.5114 19.6738 17.1442 19.8291C16.9842 19.8964 16.881 20.0621 16.6941 20.0786V20.0793C16.5774 20.3459 16.5333 20.6178 16.6313 20.9008C16.6402 20.9023 16.6492 20.9038 16.6574 20.9053C16.804 20.9366 16.8833 21.0643 16.9924 21.1495C17.299 21.3899 17.705 21.3885 17.9832 21.142C18.2726 20.8851 18.3324 20.4497 18.123 20.1256ZM15.7377 18.6612H15.7369C15.7399 18.6634 15.7422 18.6664 15.7452 18.6694C15.7422 18.6664 15.7399 18.6642 15.7377 18.6612ZM16.4054 19.3325C16.4069 19.334 16.4084 19.3348 16.4099 19.3363V19.3325H16.4054ZM22.1654 10.7482C22.1654 10.7489 22.1654 10.7489 22.1654 10.7496C22.1654 10.7489 22.1669 10.7482 22.1669 10.7482C22.1662 10.7482 22.1662 10.7482 22.1654 10.7482ZM19.7128 17.1848C19.7315 17.1713 19.7487 17.1556 19.7651 17.1377C19.7801 17.122 19.7935 17.1048 19.8062 17.0862C19.9536 16.668 20.3005 16.488 20.6624 16.3252C20.6864 16.314 20.7103 16.3035 20.7342 16.2923C20.7088 16.2871 20.6819 16.2834 20.6549 16.2796C20.1958 16.3327 19.8982 16.5806 19.7591 17.019M18.123 20.1256C17.9039 19.7881 17.5114 19.6738 17.1442 19.8291C16.9842 19.8964 16.881 20.0621 16.6941 20.0786V20.0793C16.5774 20.3459 16.5333 20.6178 16.6313 20.9008C16.6402 20.9023 16.6492 20.9038 16.6574 20.9053C16.804 20.9366 16.8833 21.0643 16.9924 21.1495C17.299 21.3899 17.705 21.3885 17.9832 21.142C18.2726 20.8851 18.3324 20.4497 18.123 20.1256ZM15.7377 18.6612H15.7369C15.7399 18.6634 15.7422 18.6664 15.7452 18.6694C15.7422 18.6664 15.7399 18.6642 15.7377 18.6612ZM16.4054 19.3325C16.4069 19.334 16.4084 19.3348 16.4099 19.3363V19.3325H16.4054ZM18.1051 19.9143C17.6923 19.5035 17.1696 19.564 16.6941 20.0786V20.0793C16.5774 20.3459 16.5333 20.6178 16.6313 20.9008C16.6365 20.9068 16.6417 20.9135 16.6462 20.9195C16.7359 21.027 16.8137 21.1472 16.9199 21.2346C17.2855 21.5378 17.8127 21.4952 18.12 21.1517C18.4491 20.785 18.4423 20.2503 18.1051 19.9143ZM22.1654 10.7482C22.1654 10.7489 22.1654 10.7489 22.1654 10.7496C22.1654 10.7489 22.1669 10.7482 22.1669 10.7482C22.1662 10.7482 22.1662 10.7482 22.1654 10.7482ZM19.7128 17.1848C19.7315 17.1713 19.7487 17.1556 19.7651 17.1377C19.8085 17.7829 20.0807 18.0331 20.7723 18.066C20.7514 18.0854 20.7327 18.107 20.7178 18.1302C20.7746 18.1175 20.8337 18.0973 20.8942 18.0697C21.298 17.9017 21.5052 17.5858 21.5799 17.1683C21.5792 17.1638 21.5784 17.1594 21.5769 17.1549C21.4797 16.6769 21.2083 16.379 20.7342 16.2923C20.7088 16.2871 20.6819 16.2834 20.6549 16.2796C20.1958 16.3327 19.8982 16.5806 19.7591 17.019M16.4144 20.0733C16.4129 20.0748 16.4114 20.0756 16.4099 20.0763C16.4099 20.0771 16.4099 20.0771 16.4099 20.0778V20.0793H16.4122C16.4129 20.0771 16.4137 20.0756 16.4152 20.0733H16.4144ZM15.7377 18.6612H15.7369C15.7399 18.6634 15.7422 18.6664 15.7452 18.6694C15.7422 18.6664 15.7399 18.6642 15.7377 18.6612ZM16.4054 19.3325C16.4069 19.334 16.4084 19.3348 16.4099 19.3363V19.3325H16.4054ZM22.1654 10.7482C22.1654 10.7489 22.1654 10.7489 22.1654 10.7496C22.1654 10.7489 22.1669 10.7482 22.1669 10.7482C22.1662 10.7482 22.1662 10.7482 22.1654 10.7482ZM19.7128 17.1848C19.7315 17.1713 19.7487 17.1556 19.7651 17.1377C19.8085 17.7829 20.0807 18.0331 20.7723 18.066C20.7514 18.0854 20.7327 18.107 20.7178 18.1302C20.7746 18.1175 20.8337 18.0973 20.8942 18.0697C21.298 17.9017 21.5052 17.5858 21.5799 17.1683C21.5792 17.1638 21.5784 17.1594 21.5769 17.1549C21.4797 16.6769 21.2083 16.379 20.7342 16.2923C20.7088 16.2871 20.6819 16.2834 20.6549 16.2796C20.1958 16.3327 19.8982 16.5806 19.7591 17.019M16.4144 20.0733C16.4129 20.0748 16.4114 20.0756 16.4099 20.0763C16.4099 20.0771 16.4099 20.0771 16.4099 20.0778V20.0793H16.4122C16.4129 20.0771 16.4137 20.0756 16.4152 20.0733H16.4144ZM15.7377 18.6612H15.7369C15.7399 18.6634 15.7422 18.6664 15.7452 18.6694C15.7422 18.6664 15.7399 18.6642 15.7377 18.6612ZM16.4054 19.3325C16.4069 19.334 16.4084 19.3348 16.4099 19.3363V19.3325H16.4054ZM18.1051 19.9143C17.6923 19.5035 17.1696 19.564 16.6941 20.0786V20.0793C16.5774 20.3459 16.5333 20.6178 16.6313 20.9008C16.6365 20.9068 16.6417 20.9135 16.6462 20.9195C16.7359 21.027 16.8137 21.1472 16.9199 21.2346C17.2855 21.5378 17.8127 21.4952 18.12 21.1517C18.4491 20.785 18.4423 20.2503 18.1051 19.9143ZM18.1051 19.9143C17.6923 19.5035 17.1696 19.564 16.6941 20.0786V20.0793C16.5774 20.3459 16.5333 20.6178 16.6313 20.9008C16.6365 20.9068 16.6417 20.9135 16.6462 20.9195C16.7359 21.027 16.8137 21.1472 16.9199 21.2346C17.2855 21.5378 17.8127 21.4952 18.12 21.1517C18.4491 20.785 18.4423 20.2503 18.1051 19.9143ZM22.1654 10.7482C22.1654 10.7489 22.1654 10.7489 22.1654 10.7496C22.1654 10.7489 22.1669 10.7482 22.1669 10.7482C22.1662 10.7482 22.1662 10.7482 22.1654 10.7482ZM19.7128 17.1848C19.7315 17.1713 19.7487 17.1556 19.7651 17.1377C19.8085 17.7829 20.0807 18.0331 20.7723 18.066C20.7514 18.0854 20.7327 18.107 20.7178 18.1302C20.7746 18.1175 20.8337 18.0973 20.8942 18.0697C21.298 17.9017 21.5052 17.5858 21.5799 17.1683C21.5792 17.1638 21.5784 17.1594 21.5769 17.1549C21.4797 16.6769 21.2083 16.379 20.7342 16.2923C20.7088 16.2871 20.6819 16.2834 20.6549 16.2796C20.1958 16.3327 19.8982 16.5806 19.7591 17.019M16.4144 20.0733C16.4129 20.0748 16.4114 20.0756 16.4099 20.0763C16.4099 20.0771 16.4099 20.0771 16.4099 20.0778V20.0793H16.4122C16.4129 20.0771 16.4137 20.0756 16.4152 20.0733H16.4144ZM15.7377 18.6612H15.7369C15.7399 18.6634 15.7422 18.6664 15.7452 18.6694C15.7422 18.6664 15.7399 18.6642 15.7377 18.6612ZM16.4054 19.3325C16.4069 19.334 16.4084 19.3348 16.4099 19.3363V19.3325H16.4054ZM22.1654 10.7482C22.1654 10.7489 22.1654 10.7489 22.1654 10.7496C22.1654 10.7489 22.1669 10.7482 22.1669 10.7482C22.1662 10.7482 22.1662 10.7482 22.1654 10.7482ZM19.7128 17.1848C19.7315 17.1713 19.7487 17.1556 19.7651 17.1377C19.8085 17.7829 20.0807 18.0331 20.7723 18.066C20.7514 18.0854 20.7327 18.107 20.7178 18.1302C20.7746 18.1175 20.8337 18.0973 20.8942 18.0697C21.298 17.9017 21.5052 17.5858 21.5799 17.1683C21.5792 17.1638 21.5784 17.1594 21.5769 17.1549C21.4797 16.6769 21.2083 16.379 20.7342 16.2923C20.7088 16.2871 20.6819 16.2834 20.6549 16.2796C20.1958 16.3327 19.8982 16.5806 19.7591 17.019M16.4144 20.0733C16.4129 20.0748 16.4114 20.0756 16.4099 20.0763C16.4099 20.0771 16.4099 20.0771 16.4099 20.0778V20.0793H16.4122C16.4129 20.0771 16.4137 20.0756 16.4152 20.0733H16.4144ZM15.7377 18.6612H15.7369C15.7399 18.6634 15.7422 18.6664 15.7452 18.6694C15.7422 18.6664 15.7399 18.6642 15.7377 18.6612ZM16.4054 19.3325C16.4069 19.334 16.4084 19.3348 16.4099 19.3363V19.3325H16.4054ZM18.1051 19.9143C17.6923 19.5035 17.1696 19.564 16.6941 20.0786V20.0793C16.5774 20.3459 16.5333 20.6178 16.6313 20.9008C16.6365 20.9068 16.6417 20.9135 16.6462 20.9195C16.7359 21.027 16.8137 21.1472 16.9199 21.2346C17.2855 21.5378 17.8127 21.4952 18.12 21.1517C18.4491 20.785 18.4423 20.2503 18.1051 19.9143ZM18.1051 19.9143C17.6923 19.5035 17.1696 19.564 16.6941 20.0786V20.0793C16.5774 20.3459 16.5333 20.6178 16.6313 20.9008C16.6365 20.9068 16.6417 20.9135 16.6462 20.9195C16.7359 21.027 16.8137 21.1472 16.9199 21.2346C17.2855 21.5378 17.8127 21.4952 18.12 21.1517C18.4491 20.785 18.4423 20.2503 18.1051 19.9143ZM22.1654 10.7482C22.1654 10.7489 22.1654 10.7489 22.1654 10.7496C22.1654 10.7489 22.1669 10.7482 22.1669 10.7482C22.1662 10.7482 22.1662 10.7482 22.1654 10.7482ZM19.7128 17.1848C19.7315 17.1713 19.7487 17.1556 19.7651 17.1377C19.8085 17.7829 20.0807 18.0331 20.7723 18.066C20.7514 18.0854 20.7327 18.107 20.7178 18.1302C20.7746 18.1175 20.8337 18.0973 20.8942 18.0697C21.298 17.9017 21.5052 17.5858 21.5799 17.1683C21.5792 17.1638 21.5784 17.1594 21.5769 17.1549C21.4797 16.6769 21.2083 16.379 20.7342 16.2923C20.7088 16.2871 20.6819 16.2834 20.6549 16.2796C20.1958 16.3327 19.8982 16.5806 19.7591 17.019M16.4144 20.0733C16.4129 20.0748 16.4114 20.0756 16.4099 20.0763C16.4099 20.0771 16.4099 20.0771 16.4099 20.0778V20.0793H16.4122C16.4129 20.0771 16.4137 20.0756 16.4152 20.0733H16.4144ZM15.7377 18.6612H15.7369C15.7399 18.6634 15.7422 18.6664 15.7452 18.6694C15.7422 18.6664 15.7399 18.6642 15.7377 18.6612ZM16.4054 19.3325C16.4069 19.334 16.4084 19.3348 16.4099 19.3363V19.3325H16.4054ZM22.1654 10.7482C22.1654 10.7489 22.1654 10.7489 22.1654 10.7496C22.1654 10.7489 22.1669 10.7482 22.1669 10.7482C22.1662 10.7482 22.1662 10.7482 22.1654 10.7482ZM19.7128 17.1848C19.7315 17.1713 19.7487 17.1556 19.7651 17.1377C19.8085 17.7829 20.0807 18.0331 20.7723 18.066C20.7514 18.0854 20.7327 18.107 20.7178 18.1302C20.7746 18.1175 20.8337 18.0973 20.8942 18.0697C21.298 17.9017 21.5052 17.5858 21.5799 17.1683C21.5792 17.1638 21.5784 17.1594 21.5769 17.1549C21.4797 16.6769 21.2083 16.379 20.7342 16.2923C20.7088 16.2871 20.6819 16.2834 20.6549 16.2796C20.1958 16.3327 19.8982 16.5806 19.7591 17.019M16.4144 20.0733C16.4129 20.0748 16.4114 20.0756 16.4099 20.0763C16.4099 20.0771 16.4099 20.0771 16.4099 20.0778V20.0793H16.4122C16.4129 20.0771 16.4137 20.0756 16.4152 20.0733H16.4144ZM15.7377 18.6612H15.7369C15.7399 18.6634 15.7422 18.6664 15.7452 18.6694C15.7422 18.6664 15.7399 18.6642 15.7377 18.6612ZM16.4054 19.3325C16.4069 19.334 16.4084 19.3348 16.4099 19.3363V19.3325H16.4054ZM18.1051 19.9143C17.6923 19.5035 17.1696 19.564 16.6941 20.0786V20.0793C16.5774 20.3459 16.5333 20.6178 16.6313 20.9008C16.6365 20.9068 16.6417 20.9135 16.6462 20.9195C16.7359 21.027 16.8137 21.1472 16.9199 21.2346C17.2855 21.5378 17.8127 21.4952 18.12 21.1517C18.4491 20.785 18.4423 20.2503 18.1051 19.9143ZM18.1051 19.9143C17.6923 19.5035 17.1696 19.564 16.6941 20.0786V20.0793C16.5774 20.3459 16.5333 20.6178 16.6313 20.9008C16.6365 20.9068 16.6417 20.9135 16.6462 20.9195C16.7359 21.027 16.8137 21.1472 16.9199 21.2346C17.2855 21.5378 17.8127 21.4952 18.12 21.1517C18.4491 20.785 18.4423 20.2503 18.1051 19.9143ZM22.1654 10.7482C22.1654 10.7489 22.1654 10.7489 22.1654 10.7496C22.1654 10.7489 22.1669 10.7482 22.1669 10.7482C22.1662 10.7482 22.1662 10.7482 22.1654 10.7482ZM19.7128 17.1848C19.7315 17.1713 19.7487 17.1556 19.7651 17.1377C19.8085 17.7829 20.0807 18.0331 20.7723 18.066C20.7514 18.0854 20.7327 18.107 20.7178 18.1302C20.7746 18.1175 20.8337 18.0973 20.8942 18.0697C21.298 17.9017 21.5052 17.5858 21.5799 17.1683C21.5792 17.1638 21.5784 17.1594 21.5769 17.1549C21.4797 16.6769 21.2083 16.379 20.7342 16.2923C20.7088 16.2871 20.6819 16.2834 20.6549 16.2796C20.1958 16.3327 19.8982 16.5806 19.7591 17.019M16.4144 20.0733C16.4129 20.0748 16.4114 20.0756 16.4099 20.0763C16.4099 20.0771 16.4099 20.0771 16.4099 20.0778V20.0793H16.4122C16.4129 20.0771 16.4137 20.0756 16.4152 20.0733H16.4144ZM15.7377 18.6612H15.7369C15.7399 18.6634 15.7422 18.6664 15.7452 18.6694C15.7422 18.6664 15.7399 18.6642 15.7377 18.6612ZM16.4054 19.3325C16.4069 19.334 16.4084 19.3348 16.4099 19.3363V19.3325H16.4054ZM22.1654 10.7482C22.1654 10.7489 22.1654 10.7489 22.1654 10.7496C22.1654 10.7489 22.1669 10.7482 22.1669 10.7482C22.1662 10.7482 22.1662 10.7482 22.1654 10.7482ZM19.7128 17.1848C19.7315 17.1713 19.7487 17.1556 19.7651 17.1377C19.8085 17.7829 20.0807 18.0331 20.7723 18.066C20.7514 18.0854 20.7327 18.107 20.7178 18.1302C20.7746 18.1175 20.8337 18.0973 20.8942 18.0697C21.298 17.9017 21.5052 17.5858 21.5799 17.1683C21.5792 17.1638 21.5784 17.1594 21.5769 17.1549C21.4797 16.6769 21.2083 16.379 20.7342 16.2923C20.7088 16.2871 20.6819 16.2834 20.6549 16.2796C20.1958 16.3327 19.8982 16.5806 19.7591 17.019M16.4144 20.0733C16.4129 20.0748 16.4114 20.0756 16.4099 20.0763C16.4099 20.0771 16.4099 20.0771 16.4099 20.0778V20.0793H16.4122C16.4129 20.0771 16.4137 20.0756 16.4152 20.0733H16.4144ZM15.7377 18.6612H15.7369C15.7399 18.6634 15.7422 18.6664 15.7452 18.6694C15.7422 18.6664 15.7399 18.6642 15.7377 18.6612ZM16.4054 19.3325C16.4069 19.334 16.4084 19.3348 16.4099 19.3363V19.3325H16.4054ZM18.1051 19.9143C17.6923 19.5035 17.1696 19.564 16.6941 20.0786V20.0793C16.5774 20.3459 16.5333 20.6178 16.6313 20.9008C16.6365 20.9068 16.6417 20.9135 16.6462 20.9195C16.7359 21.027 16.8137 21.1472 16.9199 21.2346C17.2855 21.5378 17.8127 21.4952 18.12 21.1517C18.4491 20.785 18.4423 20.2503 18.1051 19.9143ZM18.1051 19.9143C17.6923 19.5035 17.1696 19.564 16.6941 20.0786V20.0793C16.5774 20.3459 16.5333 20.6178 16.6313 20.9008C16.6365 20.9068 16.6417 20.9135 16.6462 20.9195C16.7359 21.027 16.8137 21.1472 16.9199 21.2346C17.2855 21.5378 17.8127 21.4952 18.12 21.1517C18.4491 20.785 18.4423 20.2503 18.1051 19.9143ZM22.1654 10.7482C22.1654 10.7489 22.1654 10.7489 22.1654 10.7496C22.1654 10.7489 22.1669 10.7482 22.1669 10.7482C22.1662 10.7482 22.1662 10.7482 22.1654 10.7482ZM19.7128 17.1848C19.7315 17.1713 19.7487 17.1556 19.7651 17.1377C19.8085 17.7829 20.0807 18.0331 20.7723 18.066C20.7514 18.0854 20.7327 18.107 20.7178 18.1302C20.7746 18.1175 20.8337 18.0973 20.8942 18.0697C21.298 17.9017 21.5052 17.5858 21.5799 17.1683C21.5792 17.1638 21.5784 17.1594 21.5769 17.1549C21.4797 16.6769 21.2083 16.379 20.7342 16.2923C20.7088 16.2871 20.6819 16.2834 20.6549 16.2796C20.1958 16.3327 19.8982 16.5806 19.7591 17.019M16.4144 20.0733C16.4129 20.0748 16.4114 20.0756 16.4099 20.0763C16.4099 20.0771 16.4099 20.0771 16.4099 20.0778V20.0793H16.4122C16.4129 20.0771 16.4137 20.0756 16.4152 20.0733H16.4144ZM15.7377 18.6612H15.7369C15.7399 18.6634 15.7422 18.6664 15.7452 18.6694C15.7422 18.6664 15.7399 18.6642 15.7377 18.6612ZM16.4054 19.3325C16.4069 19.334 16.4084 19.3348 16.4099 19.3363V19.3325H16.4054ZM22.1654 10.7482C22.1654 10.7489 22.1654 10.7489 22.1654 10.7496C22.1654 10.7489 22.1669 10.7482 22.1669 10.7482C22.1662 10.7482 22.1662 10.7482 22.1654 10.7482ZM19.7128 17.1848C19.7315 17.1713 19.7487 17.1556 19.7651 17.1377C19.8085 17.7829 20.0807 18.0331 20.7723 18.066C20.7514 18.0854 20.7327 18.107 20.7178 18.1302C20.7746 18.1175 20.8337 18.0973 20.8942 18.0697C21.298 17.9017 21.5052 17.5858 21.5799 17.1683C21.5792 17.1638 21.5784 17.1594 21.5769 17.1549C21.4797 16.6769 21.2083 16.379 20.7342 16.2923C20.7088 16.2871 20.6819 16.2834 20.6549 16.2796C20.1958 16.3327 19.8982 16.5806 19.7591 17.019M18.1051 19.9143C17.6923 19.5035 17.1696 19.564 16.6941 20.0786V20.0793C16.5774 20.3459 16.5333 20.6178 16.6313 20.9008C16.6365 20.9068 16.6417 20.9135 16.6462 20.9195C16.7359 21.027 16.8137 21.1472 16.9199 21.2346C17.2855 21.5378 17.8127 21.4952 18.12 21.1517C18.4491 20.785 18.4423 20.2503 18.1051 19.9143ZM16.4144 20.0733C16.4129 20.0748 16.4114 20.0756 16.4099 20.0763C16.4099 20.0771 16.4099 20.0771 16.4099 20.0778V20.0793H16.4122C16.4129 20.0771 16.4137 20.0756 16.4152 20.0733H16.4144ZM15.7377 18.6612H15.7369C15.7399 18.6634 15.7422 18.6664 15.7452 18.6694C15.7422 18.6664 15.7399 18.6642 15.7377 18.6612ZM16.4054 19.3325C16.4069 19.334 16.4084 19.3348 16.4099 19.3363V19.3325H16.4054ZM18.1051 19.9143C17.6923 19.5035 17.1696 19.564 16.6941 20.0786V20.0793C16.5774 20.3459 16.5333 20.6178 16.6313 20.9008C16.6365 20.9068 16.6417 20.9135 16.6462 20.9195C16.7359 21.027 16.8137 21.1472 16.9199 21.2346C17.2855 21.5378 17.8127 21.4952 18.12 21.1517C18.4491 20.785 18.4423 20.2503 18.1051 19.9143ZM15.7377 18.6612H15.7369C15.7399 18.6634 15.7422 18.6664 15.7452 18.6694C15.7422 18.6664 15.7399 18.6642 15.7377 18.6612ZM16.4054 19.3325C16.4069 19.334 16.4084 19.3348 16.4099 19.3363V19.3325H16.4054ZM16.4144 20.0733C16.4129 20.0748 16.4114 20.0756 16.4099 20.0763C16.4099 20.0771 16.4099 20.0771 16.4099 20.0778V20.0793H16.4122C16.4129 20.0771 16.4137 20.0756 16.4152 20.0733H16.4144ZM22.1654 10.7482C22.1654 10.7489 22.1654 10.7489 22.1654 10.7496C22.1654 10.7489 22.1669 10.7482 22.1669 10.7482C22.1662 10.7482 22.1662 10.7482 22.1654 10.7482ZM19.7128 17.1848C19.7315 17.1713 19.7487 17.1556 19.7651 17.1377C19.8085 17.7829 20.0807 18.0331 20.7723 18.066C20.7514 18.0854 20.7327 18.107 20.7178 18.1302C20.7746 18.1175 20.8337 18.0973 20.8942 18.0697C21.298 17.9017 21.5052 17.5858 21.5799 17.1683C21.5792 17.1638 21.5784 17.1594 21.5769 17.1549C21.4797 16.6769 21.2083 16.379 20.7342 16.2923C20.7088 16.2871 20.6819 16.2834 20.6549 16.2796C20.1958 16.3327 19.8982 16.5806 19.7591 17.019M22.1654 10.7482C22.1654 10.7489 22.1654 10.7489 22.1654 10.7496C22.1654 10.7489 22.1669 10.7482 22.1669 10.7482C22.1662 10.7482 22.1662 10.7482 22.1654 10.7482ZM19.7128 17.1848C19.7315 17.1713 19.7487 17.1556 19.7651 17.1377C19.8085 17.7829 20.0807 18.0331 20.7723 18.066C20.7514 18.0854 20.7327 18.107 20.7178 18.1302C20.7746 18.1175 20.8337 18.0973 20.8942 18.0697C21.298 17.9017 21.5052 17.5858 21.5799 17.1683C21.5792 17.1638 21.5784 17.1594 21.5769 17.1549C21.4797 16.6769 21.2083 16.379 20.7342 16.2923C20.7088 16.2871 20.6819 16.2834 20.6549 16.2796C20.1958 16.3327 19.8982 16.5806 19.7591 17.019M18.1051 19.9143C17.6923 19.5035 17.1696 19.564 16.6941 20.0786V20.0793C16.5774 20.3459 16.5333 20.6178 16.6313 20.9008C16.6365 20.9068 16.6417 20.9135 16.6462 20.9195C16.7359 21.027 16.8137 21.1472 16.9199 21.2346C17.2855 21.5378 17.8127 21.4952 18.12 21.1517C18.4491 20.785 18.4423 20.2503 18.1051 19.9143ZM16.4144 20.0733C16.4129 20.0748 16.4114 20.0756 16.4099 20.0763C16.4099 20.0771 16.4099 20.0771 16.4099 20.0778V20.0793H16.4122C16.4129 20.0771 16.4137 20.0756 16.4152 20.0733H16.4144ZM15.7377 18.6612H15.7369C15.7399 18.6634 15.7422 18.6664 15.7452 18.6694C15.7422 18.6664 15.7399 18.6642 15.7377 18.6612ZM16.4054 19.3325C16.4069 19.334 16.4084 19.3348 16.4099 19.3363V19.3325H16.4054ZM18.1051 19.9143C17.6923 19.5035 17.1696 19.564 16.6941 20.0786V20.0793C16.5774 20.3459 16.5333 20.6178 16.6313 20.9008C16.6365 20.9068 16.6417 20.9135 16.6462 20.9195C16.7359 21.027 16.8137 21.1472 16.9199 21.2346C17.2855 21.5378 17.8127 21.4952 18.12 21.1517C18.4491 20.785 18.4423 20.2503 18.1051 19.9143ZM15.7377 18.6612H15.7369C15.7399 18.6634 15.7422 18.6664 15.7452 18.6694C15.7422 18.6664 15.7399 18.6642 15.7377 18.6612ZM16.4054 19.3325C16.4069 19.334 16.4084 19.3348 16.4099 19.3363V19.3325H16.4054ZM16.4144 20.0733C16.4129 20.0748 16.4114 20.0756 16.4099 20.0763C16.4099 20.0771 16.4099 20.0771 16.4099 20.0778V20.0793H16.4122C16.4129 20.0771 16.4137 20.0756 16.4152 20.0733H16.4144ZM22.1654 10.7482C22.1654 10.7489 22.1654 10.7489 22.1654 10.7496C22.1654 10.7489 22.1669 10.7482 22.1669 10.7482C22.1662 10.7482 22.1662 10.7482 22.1654 10.7482ZM19.7128 17.1848C19.7315 17.1713 19.7487 17.1556 19.7651 17.1377C19.8085 17.7829 20.0807 18.0331 20.7723 18.066C20.7514 18.0854 20.7327 18.107 20.7178 18.1302C20.7746 18.1175 20.8337 18.0973 20.8942 18.0697C21.298 17.9017 21.5052 17.5858 21.5799 17.1683C21.5792 17.1638 21.5784 17.1594 21.5769 17.1549C21.4797 16.6769 21.2083 16.379 20.7342 16.2923C20.7088 16.2871 20.6819 16.2834 20.6549 16.2796C20.1958 16.3327 19.8982 16.5806 19.7591 17.019M19.7128 17.1848C19.7315 17.1713 19.7487 17.1556 19.7651 17.1377C19.8085 17.7829 20.0807 18.0331 20.7723 18.066C20.7514 18.0854 20.7327 18.107 20.7178 18.1302C20.7746 18.1175 20.8337 18.0973 20.8942 18.0697C21.298 17.9017 21.5052 17.5858 21.5799 17.1683C21.5792 17.1638 21.5784 17.1594 21.5769 17.1549C21.4797 16.6769 21.2083 16.379 20.7342 16.2923C20.7088 16.2871 20.6819 16.2834 20.6549 16.2796C20.1958 16.3327 19.8982 16.5806 19.7591 17.019M22.1654 10.7482C22.1654 10.7489 22.1654 10.7489 22.1654 10.7496C22.1654 10.7489 22.1669 10.7482 22.1669 10.7482C22.1662 10.7482 22.1662 10.7482 22.1654 10.7482ZM18.1051 19.9143C17.6923 19.5035 17.1696 19.564 16.6941 20.0786V20.0793C16.5774 20.3459 16.5333 20.6178 16.6313 20.9008C16.6365 20.9068 16.6417 20.9135 16.6462 20.9195C16.7359 21.027 16.8137 21.1472 16.9199 21.2346C17.2855 21.5378 17.8127 21.4952 18.12 21.1517C18.4491 20.785 18.4423 20.2503 18.1051 19.9143ZM16.4144 20.0733C16.4129 20.0748 16.4114 20.0756 16.4099 20.0763C16.4099 20.0771 16.4099 20.0771 16.4099 20.0778V20.0793H16.4122C16.4129 20.0771 16.4137 20.0756 16.4152 20.0733H16.4144ZM15.7377 18.6612H15.7369C15.7399 18.6634 15.7422 18.6664 15.7452 18.6694C15.7422 18.6664 15.7399 18.6642 15.7377 18.6612ZM16.4054 19.3325C16.4069 19.334 16.4084 19.3348 16.4099 19.3363V19.3325H16.4054ZM15.7377 18.6612H15.7369C15.7399 18.6634 15.7422 18.6664 15.7452 18.6694C15.7422 18.6664 15.7399 18.6642 15.7377 18.6612ZM16.4054 19.3325C16.4069 19.334 16.4084 19.3348 16.4099 19.3363V19.3325H16.4054ZM16.4144 20.0733C16.4129 20.0748 16.4114 20.0756 16.4099 20.0763C16.4099 20.0771 16.4099 20.0771 16.4099 20.0778V20.0793H16.4122C16.4129 20.0771 16.4137 20.0756 16.4152 20.0733H16.4144ZM18.1051 19.9143C17.6923 19.5035 17.1696 19.564 16.6941 20.0786V20.0793C16.5774 20.3459 16.5333 20.6178 16.6313 20.9008C16.6365 20.9068 16.6417 20.9135 16.6462 20.9195C16.7359 21.027 16.8137 21.1472 16.9199 21.2346C17.2855 21.5378 17.8127 21.4952 18.12 21.1517C18.4491 20.785 18.4423 20.2503 18.1051 19.9143ZM19.7128 17.1848C19.7315 17.1713 19.7487 17.1556 19.7651 17.1377C19.8085 17.7829 20.0807 18.0331 20.7723 18.066C20.7514 18.0854 20.7327 18.107 20.7178 18.1302C20.7746 18.1175 20.8337 18.0973 20.8942 18.0697C21.298 17.9017 21.5052 17.5858 21.5799 17.1683C21.5792 17.1638 21.5784 17.1594 21.5769 17.1549C21.4797 16.6769 21.2083 16.379 20.7342 16.2923C20.7088 16.2871 20.6819 16.2834 20.6549 16.2796C20.1958 16.3327 19.8982 16.5806 19.7591 17.019M22.1654 10.7482C22.1654 10.7489 22.1654 10.7489 22.1654 10.7496C22.1654 10.7489 22.1669 10.7482 22.1669 10.7482C22.1662 10.7482 22.1662 10.7482 22.1654 10.7482ZM22.1654 10.7482C22.1654 10.7489 22.1654 10.7489 22.1654 10.7496C22.1654 10.7489 22.1669 10.7482 22.1669 10.7482C22.1662 10.7482 22.1662 10.7482 22.1654 10.7482ZM19.7128 17.1848C19.7315 17.1713 19.7487 17.1556 19.7651 17.1377C19.8085 17.7829 20.0807 18.0331 20.7723 18.066C20.7514 18.0854 20.7327 18.107 20.7178 18.1302C20.7746 18.1175 20.8337 18.0973 20.8942 18.0697C21.298 17.9017 21.5052 17.5858 21.5799 17.1683C21.5792 17.1638 21.5784 17.1594 21.5769 17.1549C21.4797 16.6769 21.2083 16.379 20.7342 16.2923C20.7088 16.2871 20.6819 16.2834 20.6549 16.2796C20.1958 16.3327 19.8982 16.5806 19.7591 17.019M18.1051 19.9143C17.6923 19.5035 17.1696 19.564 16.6941 20.0786V20.0793C16.5774 20.3459 16.5333 20.6178 16.6313 20.9008C16.6365 20.9068 16.6417 20.9135 16.6462 20.9195C16.7359 21.027 16.8137 21.1472 16.9199 21.2346C17.2855 21.5378 17.8127 21.4952 18.12 21.1517C18.4491 20.785 18.4423 20.2503 18.1051 19.9143ZM16.4144 20.0733C16.4129 20.0748 16.4114 20.0756 16.4099 20.0763C16.4099 20.0771 16.4099 20.0771 16.4099 20.0778V20.0793H16.4122C16.4129 20.0771 16.4137 20.0756 16.4152 20.0733H16.4144ZM16.4054 19.3325C16.4069 19.334 16.4084 19.3348 16.4099 19.3363V19.3325H16.4054ZM15.7377 18.6612H15.7369C15.7399 18.6634 15.7422 18.6664 15.7452 18.6694C15.7422 18.6664 15.7399 18.6642 15.7377 18.6612ZM15.7377 18.6612H15.7369C15.7399 18.6634 15.7422 18.6664 15.7452 18.6694C15.7422 18.6664 15.7399 18.6642 15.7377 18.6612ZM16.4054 19.3325C16.4069 19.334 16.4084 19.3348 16.4099 19.3363V19.3325H16.4054ZM16.4144 20.0733C16.4129 20.0748 16.4114 20.0756 16.4099 20.0763C16.4099 20.0771 16.4099 20.0771 16.4099 20.0778V20.0793H16.4122C16.4129 20.0771 16.4137 20.0756 16.4152 20.0733H16.4144ZM18.1051 19.9143C17.6923 19.5035 17.1696 19.564 16.6941 20.0786V20.0793C16.5774 20.3459 16.5333 20.6178 16.6313 20.9008C16.6365 20.9068 16.6417 20.9135 16.6462 20.9195C16.7359 21.027 16.8137 21.1472 16.9199 21.2346C17.2855 21.5378 17.8127 21.4952 18.12 21.1517C18.4491 20.785 18.4423 20.2503 18.1051 19.9143ZM19.7128 17.1848C19.7315 17.1713 19.7487 17.1556 19.7651 17.1377C19.8085 17.7829 20.0807 18.0331 20.7723 18.066C20.7514 18.0854 20.7327 18.107 20.7178 18.1302C20.7746 18.1175 20.8337 18.0973 20.8942 18.0697C21.298 17.9017 21.5052 17.5858 21.5799 17.1683C21.5792 17.1638 21.5784 17.1594 21.5769 17.1549C21.4797 16.6769 21.2083 16.379 20.7342 16.2923C20.7088 16.2871 20.6819 16.2834 20.6549 16.2796C20.1958 16.3327 19.8982 16.5806 19.7591 17.019M22.1654 10.7482C22.1654 10.7489 22.1654 10.7489 22.1654 10.7496C22.1654 10.7489 22.1669 10.7482 22.1669 10.7482C22.1662 10.7482 22.1662 10.7482 22.1654 10.7482ZM22.1654 10.7482C22.1654 10.7489 22.1654 10.7489 22.1654 10.7496C22.1654 10.7489 22.1669 10.7482 22.1669 10.7482C22.1662 10.7482 22.1662 10.7482 22.1654 10.7482ZM19.7128 17.1848C19.7315 17.1713 19.7487 17.1556 19.7651 17.1377C19.8085 17.7829 20.0807 18.0331 20.7723 18.066C20.7514 18.0854 20.7327 18.107 20.7178 18.1302C20.7746 18.1175 20.8337 18.0973 20.8942 18.0697C21.298 17.9017 21.5052 17.5858 21.5799 17.1683C21.5792 17.1638 21.5784 17.1594 21.5769 17.1549C21.4797 16.6769 21.2083 16.379 20.7342 16.2923C20.7088 16.2871 20.6819 16.2834 20.6549 16.2796C20.1958 16.3327 19.8982 16.5806 19.7591 17.019M18.1051 19.9143C17.6923 19.5035 17.1696 19.564 16.6941 20.0786V20.0793C16.5774 20.3459 16.5333 20.6178 16.6313 20.9008C16.6365 20.9068 16.6417 20.9135 16.6462 20.9195C16.7359 21.027 16.8137 21.1472 16.9199 21.2346C17.2855 21.5378 17.8127 21.4952 18.12 21.1517C18.4491 20.785 18.4423 20.2503 18.1051 19.9143ZM16.4144 20.0733C16.4129 20.0748 16.4114 20.0756 16.4099 20.0763C16.4099 20.0771 16.4099 20.0771 16.4099 20.0778V20.0793H16.4122C16.4129 20.0771 16.4137 20.0756 16.4152 20.0733H16.4144ZM16.4054 19.3325C16.4069 19.334 16.4084 19.3348 16.4099 19.3363V19.3325H16.4054ZM15.7377 18.6612H15.7369C15.7399 18.6634 15.7422 18.6664 15.7452 18.6694C15.7422 18.6664 15.7399 18.6642 15.7377 18.6612ZM15.7377 18.6612H15.7369C15.7399 18.6634 15.7422 18.6664 15.7452 18.6694C15.7422 18.6664 15.7399 18.6642 15.7377 18.6612ZM16.4054 19.3325C16.4069 19.334 16.4084 19.3348 16.4099 19.3363V19.3325H16.4054ZM16.4144 20.0733C16.4129 20.0748 16.4114 20.0756 16.4099 20.0763C16.4099 20.0771 16.4099 20.0771 16.4099 20.0778V20.0793H16.4122C16.4129 20.0771 16.4137 20.0756 16.4152 20.0733H16.4144ZM18.1051 19.9143C17.6923 19.5035 17.1696 19.564 16.6941 20.0786V20.0793C16.5774 20.3459 16.5333 20.6178 16.6313 20.9008C16.6365 20.9068 16.6417 20.9135 16.6462 20.9195C16.7359 21.027 16.8137 21.1472 16.9199 21.2346C17.2855 21.5378 17.8127 21.4952 18.12 21.1517C18.4491 20.785 18.4423 20.2503 18.1051 19.9143ZM19.7128 17.1848C19.7315 17.1713 19.7487 17.1556 19.7651 17.1377C19.8085 17.7829 20.0807 18.0331 20.7723 18.066C20.7514 18.0854 20.7327 18.107 20.7178 18.1302C20.7746 18.1175 20.8337 18.0973 20.8942 18.0697C21.298 17.9017 21.5052 17.5858 21.5799 17.1683C21.5792 17.1638 21.5784 17.1594 21.5769 17.1549C21.4797 16.6769 21.2083 16.379 20.7342 16.2923C20.7088 16.2871 20.6819 16.2834 20.6549 16.2796C20.1958 16.3327 19.8982 16.5806 19.7591 17.019M22.1654 10.7482C22.1654 10.7489 22.1654 10.7489 22.1654 10.7496C22.1654 10.7489 22.1669 10.7482 22.1669 10.7482C22.1662 10.7482 22.1662 10.7482 22.1654 10.7482ZM22.1654 10.7482C22.1654 10.7489 22.1654 10.7489 22.1654 10.7496C22.1654 10.7489 22.1669 10.7482 22.1669 10.7482C22.1662 10.7482 22.1662 10.7482 22.1654 10.7482ZM19.7128 17.1848C19.7315 17.1713 19.7487 17.1556 19.7651 17.1377C19.8085 17.7829 20.0807 18.0331 20.7723 18.066C20.7514 18.0854 20.7327 18.107 20.7178 18.1302C20.7746 18.1175 20.8337 18.0973 20.8942 18.0697C21.298 17.9017 21.5052 17.5858 21.5799 17.1683C21.5792 17.1638 21.5784 17.1594 21.5769 17.1549C21.4797 16.6769 21.2083 16.379 20.7342 16.2923C20.7088 16.2871 20.6819 16.2834 20.6549 16.2796C20.1958 16.3327 19.8982 16.5806 19.7591 17.019M18.1051 19.9143C17.6923 19.5035 17.1696 19.564 16.6941 20.0786V20.0793C16.5774 20.3459 16.5333 20.6178 16.6313 20.9008C16.6365 20.9068 16.6417 20.9135 16.6462 20.9195C16.7359 21.027 16.8137 21.1472 16.9199 21.2346C17.2855 21.5378 17.8127 21.4952 18.12 21.1517C18.4491 20.785 18.4423 20.2503 18.1051 19.9143ZM16.4144 20.0733C16.4129 20.0748 16.4114 20.0756 16.4099 20.0763C16.4099 20.0771 16.4099 20.0771 16.4099 20.0778V20.0793H16.4122C16.4129 20.0771 16.4137 20.0756 16.4152 20.0733H16.4144ZM16.4054 19.3325C16.4069 19.334 16.4084 19.3348 16.4099 19.3363V19.3325H16.4054ZM15.7377 18.6612H15.7369C15.7399 18.6634 15.7422 18.6664 15.7452 18.6694C15.7422 18.6664 15.7399 18.6642 15.7377 18.6612ZM15.7377 18.6612H15.7369C15.7399 18.6634 15.7422 18.6664 15.7452 18.6694C15.7422 18.6664 15.7399 18.6642 15.7377 18.6612ZM16.4054 19.3325C16.4069 19.334 16.4084 19.3348 16.4099 19.3363V19.3325H16.4054ZM16.4144 20.0733C16.4129 20.0748 16.4114 20.0756 16.4099 20.0763C16.4099 20.0771 16.4099 20.0771 16.4099 20.0778V20.0793H16.4122C16.4129 20.0771 16.4137 20.0756 16.4152 20.0733H16.4144ZM18.1051 19.9143C17.6923 19.5035 17.1696 19.564 16.6941 20.0786V20.0793C16.5774 20.3459 16.5333 20.6178 16.6313 20.9008C16.6365 20.9068 16.6417 20.9135 16.6462 20.9195C16.7359 21.027 16.8137 21.1472 16.9199 21.2346C17.2855 21.5378 17.8127 21.4952 18.12 21.1517C18.4491 20.785 18.4423 20.2503 18.1051 19.9143ZM19.7128 17.1848C19.7315 17.1713 19.7487 17.1556 19.7651 17.1377C19.8085 17.7829 20.0807 18.0331 20.7723 18.066C20.7514 18.0854 20.7327 18.107 20.7178 18.1302C20.7746 18.1175 20.8337 18.0973 20.8942 18.0697C21.298 17.9017 21.5052 17.5858 21.5799 17.1683C21.5792 17.1638 21.5784 17.1594 21.5769 17.1549C21.4797 16.6769 21.2083 16.379 20.7342 16.2923C20.7088 16.2871 20.6819 16.2834 20.6549 16.2796C20.1958 16.3327 19.8982 16.5806 19.7591 17.019M22.1654 10.7482C22.1654 10.7489 22.1654 10.7489 22.1654 10.7496C22.1654 10.7489 22.1669 10.7482 22.1669 10.7482C22.1662 10.7482 22.1662 10.7482 22.1654 10.7482ZM22.1654 10.7482C22.1654 10.7489 22.1654 10.7489 22.1654 10.7496C22.1654 10.7489 22.1669 10.7482 22.1669 10.7482C22.1662 10.7482 22.1662 10.7482 22.1654 10.7482ZM19.7128 17.1848C19.7315 17.1713 19.7487 17.1556 19.7651 17.1377C19.8085 17.7829 20.0807 18.0331 20.7723 18.066C20.7514 18.0854 20.7327 18.107 20.7178 18.1302C20.7746 18.1175 20.8337 18.0973 20.8942 18.0697C21.298 17.9017 21.5052 17.5858 21.5799 17.1683C21.5792 17.1638 21.5784 17.1594 21.5769 17.1549C21.4797 16.6769 21.2083 16.379 20.7342 16.2923C20.7088 16.2871 20.6819 16.2834 20.6549 16.2796C20.1958 16.3327 19.8982 16.5806 19.7591 17.019M16.6941 20.0786V20.0793C16.5774 20.3459 16.5333 20.6178 16.6313 20.9008C16.6365 20.9068 16.6417 20.9135 16.6462 20.9195C16.7359 21.027 16.8137 21.1472 16.9199 21.2346C17.2855 21.5378 17.8127 21.4952 18.12 21.1517C18.4491 20.785 18.4423 20.2503 18.1051 19.9143C17.6923 19.5035 17.1696 19.564 16.6941 20.0786ZM16.4099 20.0763C16.4099 20.0771 16.4099 20.0771 16.4099 20.0778V20.0793H16.4122C16.4129 20.0771 16.4137 20.0756 16.4152 20.0733H16.4144C16.4129 20.0748 16.4114 20.0756 16.4099 20.0763ZM16.4099 19.3325H16.4054C16.4069 19.334 16.4084 19.3348 16.4099 19.3363V19.3325ZM15.7377 18.6612H15.7369C15.7399 18.6634 15.7422 18.6664 15.7452 18.6694C15.7422 18.6664 15.7399 18.6642 15.7377 18.6612ZM24.6727 7.23375C22.3868 2.9718 18.8955 0.452869 13.9819 0.0473609C12.0909 -0.108719 10.2618 0.117559 8.4934 0.776977C3.29871 2.7164 -0.715256 8.14633 0.107279 14.5486C0.280011 15.8973 0.572385 17.2131 1.1848 18.4252C3.41611 22.8454 6.94927 25.4592 11.9338 25.9387C13.4323 26.0828 14.9346 25.9797 16.4047 25.557C17.4194 25.2658 18.3743 24.8468 19.3202 24.395C19.3785 24.3995 19.4234 24.3771 19.4511 24.3248C19.5737 24.1747 19.7502 24.1105 19.9192 24.0343C20.477 23.8036 20.9795 23.4974 21.3451 23.0015C24.3444 20.337 25.988 17.0571 25.9999 12.993C26.0059 10.9573 25.6268 9.0141 24.6727 7.23375ZM23.5936 14.4224C23.5974 14.6457 23.5899 14.8667 23.5002 15.0773C23.2527 16.3946 22.7517 17.6082 22.0114 18.7254C21.0543 20.2825 19.7457 21.4706 18.1634 22.3675C17.0896 22.9761 15.9463 23.3913 14.7103 23.5228C13.4623 23.7662 12.2023 23.7476 10.9722 23.4922C7.65142 22.8021 5.14568 20.968 3.53575 17.9689C2.56965 16.1684 2.20998 14.2394 2.33635 12.1977C2.43356 10.6339 2.89567 9.19856 3.63745 7.83715C3.74961 7.59445 3.8715 7.35771 4.05171 7.15608C4.06592 7.02763 4.16537 6.95669 4.24388 6.8708C4.93332 5.8238 5.79847 4.95155 6.84384 4.25852C7.94678 3.42734 9.19031 2.88965 10.5258 2.58197C14.9854 1.55663 19.2708 3.26828 21.9127 7.03585C22.2312 7.48915 22.4982 7.97904 22.6911 8.50329C23.1465 9.42708 23.477 10.3897 23.5787 11.421C23.7372 12.2865 23.6572 13.1588 23.6475 14.0296C23.6632 14.1647 23.6587 14.2977 23.5936 14.4224ZM22.1654 10.7482C22.1654 10.7489 22.1654 10.7489 22.1654 10.7496C22.1654 10.7489 22.1669 10.7482 22.1669 10.7482C22.1662 10.7482 22.1662 10.7482 22.1654 10.7482ZM19.7128 17.1848C19.7315 17.1713 19.7487 17.1556 19.7651 17.1377C19.8085 17.7829 20.0807 18.0331 20.7723 18.066C20.7514 18.0854 20.7327 18.107 20.7178 18.1302C20.7746 18.1175 20.8337 18.0973 20.8942 18.0697C21.298 17.9017 21.5052 17.5858 21.5799 17.1683C21.5792 17.1638 21.5784 17.1594 21.5769 17.1549C21.4797 16.6769 21.2083 16.379 20.7342 16.2923C20.7088 16.2871 20.6819 16.2834 20.6549 16.2796C20.1958 16.3327 19.8982 16.5806 19.7591 17.019M16.6941 20.0786V20.0793C16.5774 20.3459 16.5333 20.6178 16.6313 20.9008C16.6365 20.9068 16.6417 20.9135 16.6462 20.9195C16.7359 21.027 16.8137 21.1472 16.9199 21.2346C17.2855 21.5378 17.8127 21.4952 18.12 21.1517C18.4491 20.785 18.4423 20.2503 18.1051 19.9143C17.6923 19.5035 17.1696 19.564 16.6941 20.0786ZM16.4099 20.0763C16.4099 20.0771 16.4099 20.0771 16.4099 20.0778V20.0793H16.4122C16.4129 20.0771 16.4137 20.0756 16.4152 20.0733H16.4144C16.4129 20.0748 16.4114 20.0756 16.4099 20.0763ZM16.4099 19.3325H16.4054C16.4069 19.334 16.4084 19.3348 16.4099 19.3363V19.3325ZM15.7377 18.6612H15.7369C15.7399 18.6634 15.7422 18.6664 15.7452 18.6694C15.7422 18.6664 15.7399 18.6642 15.7377 18.6612ZM15.7377 18.6612H15.7369C15.7399 18.6634 15.7422 18.6664 15.7452 18.6694C15.7422 18.6664 15.7399 18.6642 15.7377 18.6612ZM16.4054 19.3325C16.4069 19.334 16.4084 19.3348 16.4099 19.3363V19.3325H16.4054ZM16.4144 20.0733C16.4129 20.0748 16.4114 20.0756 16.4099 20.0763C16.4099 20.0771 16.4099 20.0771 16.4099 20.0778V20.0793H16.4122C16.4129 20.0771 16.4137 20.0756 16.4152 20.0733H16.4144ZM18.1051 19.9143C17.6923 19.5035 17.1696 19.564 16.6941 20.0786V20.0793C16.5774 20.3459 16.5333 20.6178 16.6313 20.9008C16.6365 20.9068 16.6417 20.9135 16.6462 20.9195C16.7359 21.027 16.8137 21.1472 16.9199 21.2346C17.2855 21.5378 17.8127 21.4952 18.12 21.1517C18.4491 20.785 18.4423 20.2503 18.1051 19.9143ZM19.7128 17.1848C19.7315 17.1713 19.7487 17.1556 19.7651 17.1377C19.8085 17.7829 20.0807 18.0331 20.7723 18.066C20.7514 18.0854 20.7327 18.107 20.7178 18.1302C20.7746 18.1175 20.8337 18.0973 20.8942 18.0697C21.298 17.9017 21.5052 17.5858 21.5799 17.1683C21.5792 17.1638 21.5784 17.1594 21.5769 17.1549C21.4797 16.6769 21.2083 16.379 20.7342 16.2923C20.7088 16.2871 20.6819 16.2834 20.6549 16.2796C20.1958 16.3327 19.8982 16.5806 19.7591 17.019M22.1654 10.7482C22.1654 10.7489 22.1654 10.7489 22.1654 10.7496C22.1654 10.7489 22.1669 10.7482 22.1669 10.7482C22.1662 10.7482 22.1662 10.7482 22.1654 10.7482ZM22.1654 10.7482C22.1654 10.7489 22.1654 10.7489 22.1654 10.7496C22.1654 10.7489 22.1669 10.7482 22.1669 10.7482C22.1662 10.7482 22.1662 10.7482 22.1654 10.7482ZM19.7128 17.1848C19.7315 17.1713 19.7487 17.1556 19.7651 17.1377C19.8085 17.7829 20.0807 18.0331 20.7723 18.066C20.7514 18.0854 20.7327 18.107 20.7178 18.1302C20.7746 18.1175 20.8337 18.0973 20.8942 18.0697C21.298 17.9017 21.5052 17.5858 21.5799 17.1683C21.5792 17.1638 21.5784 17.1594 21.5769 17.1549C21.4797 16.6769 21.2083 16.379 20.7342 16.2923C20.7088 16.2871 20.6819 16.2834 20.6549 16.2796C20.1958 16.3327 19.8982 16.5806 19.7591 17.019M18.1051 19.9143C17.6923 19.5035 17.1696 19.564 16.6941 20.0786V20.0793C16.5774 20.3459 16.5333 20.6178 16.6313 20.9008C16.6365 20.9068 16.6417 20.9135 16.6462 20.9195C16.7359 21.027 16.8137 21.1472 16.9199 21.2346C17.2855 21.5378 17.8127 21.4952 18.12 21.1517C18.4491 20.785 18.4423 20.2503 18.1051 19.9143ZM16.4144 20.0733C16.4129 20.0748 16.4114 20.0756 16.4099 20.0763C16.4099 20.0771 16.4099 20.0771 16.4099 20.0778V20.0793H16.4122C16.4129 20.0771 16.4137 20.0756 16.4152 20.0733H16.4144ZM16.4054 19.3325C16.4069 19.334 16.4084 19.3348 16.4099 19.3363V19.3325H16.4054ZM15.7377 18.6612H15.7369C15.7399 18.6634 15.7422 18.6664 15.7452 18.6694C15.7422 18.6664 15.7399 18.6642 15.7377 18.6612ZM15.7377 18.6612H15.7369C15.7399 18.6634 15.7422 18.6664 15.7452 18.6694C15.7422 18.6664 15.7399 18.6642 15.7377 18.6612ZM16.4054 19.3325C16.4069 19.334 16.4084 19.3348 16.4099 19.3363V19.3325H16.4054ZM16.4144 20.0733C16.4129 20.0748 16.4114 20.0756 16.4099 20.0763C16.4099 20.0771 16.4099 20.0771 16.4099 20.0778V20.0793H16.4122C16.4129 20.0771 16.4137 20.0756 16.4152 20.0733H16.4144ZM18.1051 19.9143C17.6923 19.5035 17.1696 19.564 16.6941 20.0786V20.0793C16.5774 20.3459 16.5333 20.6178 16.6313 20.9008C16.6365 20.9068 16.6417 20.9135 16.6462 20.9195C16.7359 21.027 16.8137 21.1472 16.9199 21.2346C17.2855 21.5378 17.8127 21.4952 18.12 21.1517C18.4491 20.785 18.4423 20.2503 18.1051 19.9143ZM19.7128 17.1848C19.7315 17.1713 19.7487 17.1556 19.7651 17.1377C19.8085 17.7829 20.0807 18.0331 20.7723 18.066C20.7514 18.0854 20.7327 18.107 20.7178 18.1302C20.7746 18.1175 20.8337 18.0973 20.8942 18.0697C21.298 17.9017 21.5052 17.5858 21.5799 17.1683C21.5792 17.1638 21.5784 17.1594 21.5769 17.1549C21.4797 16.6769 21.2083 16.379 20.7342 16.2923C20.7088 16.2871 20.6819 16.2834 20.6549 16.2796C20.1958 16.3327 19.8982 16.5806 19.7591 17.019M22.1654 10.7482C22.1654 10.7489 22.1654 10.7489 22.1654 10.7496C22.1654 10.7489 22.1669 10.7482 22.1669 10.7482C22.1662 10.7482 22.1662 10.7482 22.1654 10.7482ZM22.1654 10.7482C22.1654 10.7489 22.1654 10.7489 22.1654 10.7496C22.1654 10.7489 22.1669 10.7482 22.1669 10.7482C22.1662 10.7482 22.1662 10.7482 22.1654 10.7482ZM19.7128 17.1848C19.7315 17.1713 19.7487 17.1556 19.7651 17.1377C19.8085 17.7829 20.0807 18.0331 20.7723 18.066C20.7514 18.0854 20.7327 18.107 20.7178 18.1302C20.7746 18.1175 20.8337 18.0973 20.8942 18.0697C21.298 17.9017 21.5052 17.5858 21.5799 17.1683C21.5792 17.1638 21.5784 17.1594 21.5769 17.1549C21.4797 16.6769 21.2083 16.379 20.7342 16.2923C20.7088 16.2871 20.6819 16.2834 20.6549 16.2796C20.1958 16.3327 19.8982 16.5806 19.7591 17.019M18.1051 19.9143C17.6923 19.5035 17.1696 19.564 16.6941 20.0786V20.0793C16.5774 20.3459 16.5333 20.6178 16.6313 20.9008C16.6365 20.9068 16.6417 20.9135 16.6462 20.9195C16.7359 21.027 16.8137 21.1472 16.9199 21.2346C17.2855 21.5378 17.8127 21.4952 18.12 21.1517C18.4491 20.785 18.4423 20.2503 18.1051 19.9143ZM16.4144 20.0733C16.4129 20.0748 16.4114 20.0756 16.4099 20.0763C16.4099 20.0771 16.4099 20.0771 16.4099 20.0778V20.0793H16.4122C16.4129 20.0771 16.4137 20.0756 16.4152 20.0733H16.4144ZM16.4054 19.3325C16.4069 19.334 16.4084 19.3348 16.4099 19.3363V19.3325H16.4054ZM15.7377 18.6612H15.7369C15.7399 18.6634 15.7422 18.6664 15.7452 18.6694C15.7422 18.6664 15.7399 18.6642 15.7377 18.6612ZM15.7377 18.6612H15.7369C15.7399 18.6634 15.7422 18.6664 15.7452 18.6694C15.7422 18.6664 15.7399 18.6642 15.7377 18.6612ZM16.4054 19.3325C16.4069 19.334 16.4084 19.3348 16.4099 19.3363V19.3325H16.4054ZM16.4144 20.0733C16.4129 20.0748 16.4114 20.0756 16.4099 20.0763C16.4099 20.0771 16.4099 20.0771 16.4099 20.0778V20.0793H16.4122C16.4129 20.0771 16.4137 20.0756 16.4152 20.0733H16.4144ZM18.1051 19.9143C17.6923 19.5035 17.1696 19.564 16.6941 20.0786V20.0793C16.5774 20.3459 16.5333 20.6178 16.6313 20.9008C16.6365 20.9068 16.6417 20.9135 16.6462 20.9195C16.7359 21.027 16.8137 21.1472 16.9199 21.2346C17.2855 21.5378 17.8127 21.4952 18.12 21.1517C18.4491 20.785 18.4423 20.2503 18.1051 19.9143ZM19.7128 17.1848C19.7315 17.1713 19.7487 17.1556 19.7651 17.1377C19.8085 17.7829 20.0807 18.0331 20.7723 18.066C20.7514 18.0854 20.7327 18.107 20.7178 18.1302C20.7746 18.1175 20.8337 18.0973 20.8942 18.0697C21.298 17.9017 21.5052 17.5858 21.5799 17.1683C21.5792 17.1638 21.5784 17.1594 21.5769 17.1549C21.4797 16.6769 21.2083 16.379 20.7342 16.2923C20.7088 16.2871 20.6819 16.2834 20.6549 16.2796C20.1958 16.3327 19.8982 16.5806 19.7591 17.019M22.1654 10.7482C22.1654 10.7489 22.1654 10.7489 22.1654 10.7496C22.1654 10.7489 22.1669 10.7482 22.1669 10.7482C22.1662 10.7482 22.1662 10.7482 22.1654 10.7482ZM22.1654 10.7482C22.1654 10.7489 22.1654 10.7489 22.1654 10.7496C22.1654 10.7489 22.1669 10.7482 22.1669 10.7482C22.1662 10.7482 22.1662 10.7482 22.1654 10.7482ZM19.7128 17.1848C19.7315 17.1713 19.7487 17.1556 19.7651 17.1377C19.8085 17.7829 20.0807 18.0331 20.7723 18.066C20.7514 18.0854 20.7327 18.107 20.7178 18.1302C20.7746 18.1175 20.8337 18.0973 20.8942 18.0697C21.298 17.9017 21.5052 17.5858 21.5799 17.1683C21.5792 17.1638 21.5784 17.1594 21.5769 17.1549C21.4797 16.6769 21.2083 16.379 20.7342 16.2923C20.7088 16.2871 20.6819 16.2834 20.6549 16.2796C20.1958 16.3327 19.8982 16.5806 19.7591 17.019M18.1051 19.9143C17.6923 19.5035 17.1696 19.564 16.6941 20.0786V20.0793C16.5774 20.3459 16.5333 20.6178 16.6313 20.9008C16.6365 20.9068 16.6417 20.9135 16.6462 20.9195C16.7359 21.027 16.8137 21.1472 16.9199 21.2346C17.2855 21.5378 17.8127 21.4952 18.12 21.1517C18.4491 20.785 18.4423 20.2503 18.1051 19.9143ZM16.4144 20.0733C16.4129 20.0748 16.4114 20.0756 16.4099 20.0763C16.4099 20.0771 16.4099 20.0771 16.4099 20.0778V20.0793H16.4122C16.4129 20.0771 16.4137 20.0756 16.4152 20.0733H16.4144ZM16.4054 19.3325C16.4069 19.334 16.4084 19.3348 16.4099 19.3363V19.3325H16.4054ZM15.7377 18.6612H15.7369C15.7399 18.6634 15.7422 18.6664 15.7452 18.6694C15.7422 18.6664 15.7399 18.6642 15.7377 18.6612ZM15.7377 18.6612H15.7369C15.7399 18.6634 15.7422 18.6664 15.7452 18.6694C15.7422 18.6664 15.7399 18.6642 15.7377 18.6612ZM16.4054 19.3325C16.4069 19.334 16.4084 19.3348 16.4099 19.3363V19.3325H16.4054ZM16.4144 20.0733C16.4129 20.0748 16.4114 20.0756 16.4099 20.0763C16.4099 20.0771 16.4099 20.0771 16.4099 20.0778V20.0793H16.4122C16.4129 20.0771 16.4137 20.0756 16.4152 20.0733H16.4144ZM18.1051 19.9143C17.6923 19.5035 17.1696 19.564 16.6941 20.0786V20.0793C16.5774 20.3459 16.5333 20.6178 16.6313 20.9008C16.6365 20.9068 16.6417 20.9135 16.6462 20.9195C16.7359 21.027 16.8137 21.1472 16.9199 21.2346C17.2855 21.5378 17.8127 21.4952 18.12 21.1517C18.4491 20.785 18.4423 20.2503 18.1051 19.9143ZM19.7128 17.1848C19.7315 17.1713 19.7487 17.1556 19.7651 17.1377C19.8085 17.7829 20.0807 18.0331 20.7723 18.066C20.7514 18.0854 20.7327 18.107 20.7178 18.1302C20.7746 18.1175 20.8337 18.0973 20.8942 18.0697C21.298 17.9017 21.5052 17.5858 21.5799 17.1683C21.5792 17.1638 21.5784 17.1594 21.5769 17.1549C21.4797 16.6769 21.2083 16.379 20.7342 16.2923C20.7088 16.2871 20.6819 16.2834 20.6549 16.2796C20.1958 16.3327 19.8982 16.5806 19.7591 17.019M22.1654 10.7482C22.1654 10.7489 22.1654 10.7489 22.1654 10.7496C22.1654 10.7489 22.1669 10.7482 22.1669 10.7482C22.1662 10.7482 22.1662 10.7482 22.1654 10.7482ZM19.7128 17.1848C19.7315 17.1713 19.7487 17.1556 19.7651 17.1377C19.8085 17.7829 20.0807 18.0331 20.7723 18.066C20.7514 18.0854 20.7327 18.107 20.7178 18.1302C20.7746 18.1175 20.8337 18.0973 20.8942 18.0697C21.298 17.9017 21.5052 17.5858 21.5799 17.1683C21.5792 17.1638 21.5784 17.1594 21.5769 17.1549C21.4797 16.6769 21.2083 16.379 20.7342 16.2923C20.7088 16.2871 20.6819 16.2834 20.6549 16.2796C20.1958 16.3327 19.8982 16.5806 19.7591 17.019M22.1654 10.7482C22.1654 10.7489 22.1654 10.7489 22.1654 10.7496C22.1654 10.7489 22.1669 10.7482 22.1669 10.7482C22.1662 10.7482 22.1662 10.7482 22.1654 10.7482ZM16.4144 20.0733C16.4129 20.0748 16.4114 20.0756 16.4099 20.0763C16.4099 20.0771 16.4099 20.0771 16.4099 20.0778V20.0793H16.4122C16.4129 20.0771 16.4137 20.0756 16.4152 20.0733H16.4144ZM15.7377 18.6612H15.7369C15.7399 18.6634 15.7422 18.6664 15.7452 18.6694C15.7422 18.6664 15.7399 18.6642 15.7377 18.6612ZM16.4054 19.3325C16.4069 19.334 16.4084 19.3348 16.4099 19.3363V19.3325H16.4054ZM18.1051 19.9143C17.6923 19.5035 17.1696 19.564 16.6941 20.0786V20.0793C16.5774 20.3459 16.5333 20.6178 16.6313 20.9008C16.6365 20.9068 16.6417 20.9135 16.6462 20.9195C16.7359 21.027 16.8137 21.1472 16.9199 21.2346C17.2855 21.5378 17.8127 21.4952 18.12 21.1517C18.4491 20.785 18.4423 20.2503 18.1051 19.9143ZM15.7377 18.6612H15.7369C15.7399 18.6634 15.7422 18.6664 15.7452 18.6694C15.7422 18.6664 15.7399 18.6642 15.7377 18.6612ZM16.4054 19.3325C16.4069 19.334 16.4084 19.3348 16.4099 19.3363V19.3325H16.4054ZM16.4144 20.0733C16.4129 20.0748 16.4114 20.0756 16.4099 20.0763C16.4099 20.0771 16.4099 20.0771 16.4099 20.0778V20.0793H16.4122C16.4129 20.0771 16.4137 20.0756 16.4152 20.0733H16.4144ZM18.1051 19.9143C17.6923 19.5035 17.1696 19.564 16.6941 20.0786V20.0793C16.5774 20.3459 16.5333 20.6178 16.6313 20.9008C16.6365 20.9068 16.6417 20.9135 16.6462 20.9195C16.7359 21.027 16.8137 21.1472 16.9199 21.2346C17.2855 21.5378 17.8127 21.4952 18.12 21.1517C18.4491 20.785 18.4423 20.2503 18.1051 19.9143ZM22.1654 10.7482C22.1654 10.7489 22.1654 10.7489 22.1654 10.7496C22.1654 10.7489 22.1669 10.7482 22.1669 10.7482C22.1662 10.7482 22.1662 10.7482 22.1654 10.7482ZM19.7128 17.1848C19.7315 17.1713 19.7487 17.1556 19.7651 17.1377C19.8085 17.7829 20.0807 18.0331 20.7723 18.066C20.7514 18.0854 20.7327 18.107 20.7178 18.1302C20.7746 18.1175 20.8337 18.0973 20.8942 18.0697C21.298 17.9017 21.5052 17.5858 21.5799 17.1683C21.5792 17.1638 21.5784 17.1594 21.5769 17.1549C21.4797 16.6769 21.2083 16.379 20.7342 16.2923C20.7088 16.2871 20.6819 16.2834 20.6549 16.2796C20.1958 16.3327 19.8982 16.5806 19.7591 17.019M22.1654 10.7482C22.1654 10.7489 22.1654 10.7489 22.1654 10.7496C22.1654 10.7489 22.1669 10.7482 22.1669 10.7482C22.1662 10.7482 22.1662 10.7482 22.1654 10.7482ZM19.7128 17.1848C19.7315 17.1713 19.7487 17.1556 19.7651 17.1377C19.8085 17.7829 20.0807 18.0331 20.7723 18.066C20.7514 18.0854 20.7327 18.107 20.7178 18.1302C20.7746 18.1175 20.8337 18.0973 20.8942 18.0697C21.298 17.9017 21.5052 17.5858 21.5799 17.1683C21.5792 17.1638 21.5784 17.1594 21.5769 17.1549C21.4797 16.6769 21.2083 16.379 20.7342 16.2923C20.7088 16.2871 20.6819 16.2834 20.6549 16.2796C20.1958 16.3327 19.8982 16.5806 19.7591 17.019M16.4144 20.0733C16.4129 20.0748 16.4114 20.0756 16.4099 20.0763C16.4099 20.0771 16.4099 20.0771 16.4099 20.0778V20.0793H16.4122C16.4129 20.0771 16.4137 20.0756 16.4152 20.0733H16.4144ZM15.7377 18.6612H15.7369C15.7399 18.6634 15.7422 18.6664 15.7452 18.6694C15.7422 18.6664 15.7399 18.6642 15.7377 18.6612ZM16.4054 19.3325C16.4069 19.334 16.4084 19.3348 16.4099 19.3363V19.3325H16.4054ZM18.1051 19.9143C17.6923 19.5035 17.1696 19.564 16.6941 20.0786V20.0793C16.5774 20.3459 16.5333 20.6178 16.6313 20.9008C16.6365 20.9068 16.6417 20.9135 16.6462 20.9195C16.7359 21.027 16.8137 21.1472 16.9199 21.2346C17.2855 21.5378 17.8127 21.4952 18.12 21.1517C18.4491 20.785 18.4423 20.2503 18.1051 19.9143ZM15.7377 18.6612H15.7369C15.7399 18.6634 15.7422 18.6664 15.7452 18.6694C15.7422 18.6664 15.7399 18.6642 15.7377 18.6612ZM16.4054 19.3325C16.4069 19.334 16.4084 19.3348 16.4099 19.3363V19.3325H16.4054ZM16.4144 20.0733C16.4129 20.0748 16.4114 20.0756 16.4099 20.0763C16.4099 20.0771 16.4099 20.0771 16.4099 20.0778V20.0793H16.4122C16.4129 20.0771 16.4137 20.0756 16.4152 20.0733H16.4144ZM18.1051 19.9143C17.6923 19.5035 17.1696 19.564 16.6941 20.0786V20.0793C16.5774 20.3459 16.5333 20.6178 16.6313 20.9008C16.6365 20.9068 16.6417 20.9135 16.6462 20.9195C16.7359 21.027 16.8137 21.1472 16.9199 21.2346C17.2855 21.5378 17.8127 21.4952 18.12 21.1517C18.4491 20.785 18.4423 20.2503 18.1051 19.9143ZM22.1654 10.7482C22.1654 10.7489 22.1654 10.7489 22.1654 10.7496C22.1654 10.7489 22.1669 10.7482 22.1669 10.7482C22.1662 10.7482 22.1662 10.7482 22.1654 10.7482ZM19.7128 17.1848C19.7315 17.1713 19.7487 17.1556 19.7651 17.1377C19.8085 17.7829 20.0807 18.0331 20.7723 18.066C20.7514 18.0854 20.7327 18.107 20.7178 18.1302C20.7746 18.1175 20.8337 18.0973 20.8942 18.0697C21.298 17.9017 21.5052 17.5858 21.5799 17.1683C21.5792 17.1638 21.5784 17.1594 21.5769 17.1549C21.4797 16.6769 21.2083 16.379 20.7342 16.2923C20.7088 16.2871 20.6819 16.2834 20.6549 16.2796C20.1958 16.3327 19.8982 16.5806 19.7591 17.019M22.1654 10.7482C22.1654 10.7489 22.1654 10.7489 22.1654 10.7496C22.1654 10.7489 22.1669 10.7482 22.1669 10.7482C22.1662 10.7482 22.1662 10.7482 22.1654 10.7482ZM19.7128 17.1848C19.7315 17.1713 19.7487 17.1556 19.7651 17.1377C19.8085 17.7829 20.0807 18.0331 20.7723 18.066C20.7514 18.0854 20.7327 18.107 20.7178 18.1302C20.7746 18.1175 20.8337 18.0973 20.8942 18.0697C21.298 17.9017 21.5052 17.5858 21.5799 17.1683C21.5792 17.1638 21.5784 17.1594 21.5769 17.1549C21.4797 16.6769 21.2083 16.379 20.7342 16.2923C20.7088 16.2871 20.6819 16.2834 20.6549 16.2796C20.1958 16.3327 19.8982 16.5806 19.7591 17.019M16.4144 20.0733C16.4129 20.0748 16.4114 20.0756 16.4099 20.0763C16.4099 20.0771 16.4099 20.0771 16.4099 20.0778V20.0793H16.4122C16.4129 20.0771 16.4137 20.0756 16.4152 20.0733H16.4144ZM15.7377 18.6612H15.7369C15.7399 18.6634 15.7422 18.6664 15.7452 18.6694C15.7422 18.6664 15.7399 18.6642 15.7377 18.6612ZM16.4054 19.3325C16.4069 19.334 16.4084 19.3348 16.4099 19.3363V19.3325H16.4054ZM18.1051 19.9143C17.6923 19.5035 17.1696 19.564 16.6941 20.0786V20.0793C16.5774 20.3459 16.5333 20.6178 16.6313 20.9008C16.6365 20.9068 16.6417 20.9135 16.6462 20.9195C16.7359 21.027 16.8137 21.1472 16.9199 21.2346C17.2855 21.5378 17.8127 21.4952 18.12 21.1517C18.4491 20.785 18.4423 20.2503 18.1051 19.9143ZM18.1051 19.9143C17.6923 19.5035 17.1696 19.564 16.6941 20.0786V20.0793C16.5774 20.3459 16.5333 20.6178 16.6313 20.9008C16.6365 20.9068 16.6417 20.9135 16.6462 20.9195C16.7359 21.027 16.8137 21.1472 16.9199 21.2346C17.2855 21.5378 17.8127 21.4952 18.12 21.1517C18.4491 20.785 18.4423 20.2503 18.1051 19.9143ZM22.1654 10.7482C22.1654 10.7489 22.1654 10.7489 22.1654 10.7496C22.1654 10.7489 22.1669 10.7482 22.1669 10.7482C22.1662 10.7482 22.1662 10.7482 22.1654 10.7482ZM19.7128 17.1848C19.7315 17.1713 19.7487 17.1556 19.7651 17.1377C19.8085 17.7829 20.0807 18.0331 20.7723 18.066C20.7514 18.0854 20.7327 18.107 20.7178 18.1302C20.7746 18.1175 20.8337 18.0973 20.8942 18.0697C21.298 17.9017 21.5052 17.5858 21.5799 17.1683C21.5792 17.1638 21.5784 17.1594 21.5769 17.1549C21.4797 16.6769 21.2083 16.379 20.7342 16.2923C20.7088 16.2871 20.6819 16.2834 20.6549 16.2796C20.1958 16.3327 19.8982 16.5806 19.7591 17.019M16.4144 20.0733C16.4129 20.0748 16.4114 20.0756 16.4099 20.0763C16.4099 20.0771 16.4099 20.0771 16.4099 20.0778V20.0793H16.4122C16.4129 20.0771 16.4137 20.0756 16.4152 20.0733H16.4144ZM15.7377 18.6612H15.7369C15.7399 18.6634 15.7422 18.6664 15.7452 18.6694C15.7422 18.6664 15.7399 18.6642 15.7377 18.6612ZM16.4054 19.3325C16.4069 19.334 16.4084 19.3348 16.4099 19.3363V19.3325H16.4054ZM22.1654 10.7482C22.1654 10.7489 22.1654 10.7489 22.1654 10.7496C22.1654 10.7489 22.1669 10.7482 22.1669 10.7482C22.1662 10.7482 22.1662 10.7482 22.1654 10.7482ZM19.7128 17.1848C19.7315 17.1713 19.7487 17.1556 19.7651 17.1377C19.8085 17.7829 20.0807 18.0331 20.7723 18.066C20.7514 18.0854 20.7327 18.107 20.7178 18.1302C20.7746 18.1175 20.8337 18.0973 20.8942 18.0697C21.298 17.9017 21.5052 17.5858 21.5799 17.1683C21.5792 17.1638 21.5784 17.1594 21.5769 17.1549C21.4797 16.6769 21.2083 16.379 20.7342 16.2923C20.7088 16.2871 20.6819 16.2834 20.6549 16.2796C20.1958 16.3327 19.8982 16.5806 19.7591 17.019M16.4144 20.0733C16.4129 20.0748 16.4114 20.0756 16.4099 20.0763C16.4099 20.0771 16.4099 20.0771 16.4099 20.0778V20.0793H16.4122C16.4129 20.0771 16.4137 20.0756 16.4152 20.0733H16.4144ZM15.7377 18.6612H15.7369C15.7399 18.6634 15.7422 18.6664 15.7452 18.6694C15.7422 18.6664 15.7399 18.6642 15.7377 18.6612ZM16.4054 19.3325C16.4069 19.334 16.4084 19.3348 16.4099 19.3363V19.3325H16.4054ZM18.1051 19.9143C17.6923 19.5035 17.1696 19.564 16.6941 20.0786V20.0793C16.5774 20.3459 16.5333 20.6178 16.6313 20.9008C16.6365 20.9068 16.6417 20.9135 16.6462 20.9195C16.7359 21.027 16.8137 21.1472 16.9199 21.2346C17.2855 21.5378 17.8127 21.4952 18.12 21.1517C18.4491 20.785 18.4423 20.2503 18.1051 19.9143ZM18.1051 19.9143C17.6923 19.5035 17.1696 19.564 16.6941 20.0786V20.0793C16.5774 20.3459 16.5333 20.6178 16.6313 20.9008C16.6365 20.9068 16.6417 20.9135 16.6462 20.9195C16.7359 21.027 16.8137 21.1472 16.9199 21.2346C17.2855 21.5378 17.8127 21.4952 18.12 21.1517C18.4491 20.785 18.4423 20.2503 18.1051 19.9143ZM22.1654 10.7482C22.1654 10.7489 22.1654 10.7489 22.1654 10.7496C22.1654 10.7489 22.1669 10.7482 22.1669 10.7482C22.1662 10.7482 22.1662 10.7482 22.1654 10.7482ZM19.7128 17.1848C19.7315 17.1713 19.7487 17.1556 19.7651 17.1377C19.8085 17.7829 20.0807 18.0331 20.7723 18.066C20.7514 18.0854 20.7327 18.107 20.7178 18.1302C20.7746 18.1175 20.8337 18.0973 20.8942 18.0697C21.298 17.9017 21.5052 17.5858 21.5799 17.1683C21.5792 17.1638 21.5784 17.1594 21.5769 17.1549C21.4797 16.6769 21.2083 16.379 20.7342 16.2923C20.7088 16.2871 20.6819 16.2834 20.6549 16.2796C20.1958 16.3327 19.8982 16.5806 19.7591 17.019M16.4144 20.0733C16.4129 20.0748 16.4114 20.0756 16.4099 20.0763C16.4099 20.0771 16.4099 20.0771 16.4099 20.0778V20.0793H16.4122C16.4129 20.0771 16.4137 20.0756 16.4152 20.0733H16.4144ZM15.7377 18.6612H15.7369C15.7399 18.6634 15.7422 18.6664 15.7452 18.6694C15.7422 18.6664 15.7399 18.6642 15.7377 18.6612ZM16.4054 19.3325C16.4069 19.334 16.4084 19.3348 16.4099 19.3363V19.3325H16.4054ZM22.1654 10.7482C22.1654 10.7489 22.1654 10.7489 22.1654 10.7496C22.1654 10.7489 22.1669 10.7482 22.1669 10.7482C22.1662 10.7482 22.1662 10.7482 22.1654 10.7482ZM19.7128 17.1848C19.7315 17.1713 19.7487 17.1556 19.7651 17.1377C19.8085 17.7829 20.0807 18.0331 20.7723 18.066C20.7514 18.0854 20.7327 18.107 20.7178 18.1302C20.7746 18.1175 20.8337 18.0973 20.8942 18.0697C21.298 17.9017 21.5052 17.5858 21.5799 17.1683C21.5792 17.1638 21.5784 17.1594 21.5769 17.1549C21.4797 16.6769 21.2083 16.379 20.7342 16.2923C20.7088 16.2871 20.6819 16.2834 20.6549 16.2796C20.1958 16.3327 19.8982 16.5806 19.7591 17.019M16.4144 20.0733C16.4129 20.0748 16.4114 20.0756 16.4099 20.0763C16.4099 20.0771 16.4099 20.0771 16.4099 20.0778V20.0793H16.4122C16.4129 20.0771 16.4137 20.0756 16.4152 20.0733H16.4144ZM15.7377 18.6612H15.7369C15.7399 18.6634 15.7422 18.6664 15.7452 18.6694C15.7422 18.6664 15.7399 18.6642 15.7377 18.6612ZM16.4054 19.3325C16.4069 19.334 16.4084 19.3348 16.4099 19.3363V19.3325H16.4054ZM18.1051 19.9143C17.6923 19.5035 17.1696 19.564 16.6941 20.0786V20.0793C16.5774 20.3459 16.5333 20.6178 16.6313 20.9008C16.6365 20.9068 16.6417 20.9135 16.6462 20.9195C16.7359 21.027 16.8137 21.1472 16.9199 21.2346C17.2855 21.5378 17.8127 21.4952 18.12 21.1517C18.4491 20.785 18.4423 20.2503 18.1051 19.9143ZM18.1051 19.9143C17.6923 19.5035 17.1696 19.564 16.6941 20.0786V20.0793C16.5774 20.3459 16.5333 20.6178 16.6313 20.9008C16.6365 20.9068 16.6417 20.9135 16.6462 20.9195C16.7359 21.027 16.8137 21.1472 16.9199 21.2346C17.2855 21.5378 17.8127 21.4952 18.12 21.1517C18.4491 20.785 18.4423 20.2503 18.1051 19.9143ZM22.1654 10.7482C22.1654 10.7489 22.1654 10.7489 22.1654 10.7496C22.1654 10.7489 22.1669 10.7482 22.1669 10.7482C22.1662 10.7482 22.1662 10.7482 22.1654 10.7482ZM19.7128 17.1848C19.7315 17.1713 19.7487 17.1556 19.7651 17.1377C19.8085 17.7829 20.0807 18.0331 20.7723 18.066C20.7514 18.0854 20.7327 18.107 20.7178 18.1302C20.7746 18.1175 20.8337 18.0973 20.8942 18.0697C21.298 17.9017 21.5052 17.5858 21.5799 17.1683C21.5792 17.1638 21.5784 17.1594 21.5769 17.1549C21.4797 16.6769 21.2083 16.379 20.7342 16.2923C20.7088 16.2871 20.6819 16.2834 20.6549 16.2796C20.1958 16.3327 19.8982 16.5806 19.7591 17.019M16.4144 20.0733C16.4129 20.0748 16.4114 20.0756 16.4099 20.0763C16.4099 20.0771 16.4099 20.0771 16.4099 20.0778V20.0793H16.4122C16.4129 20.0771 16.4137 20.0756 16.4152 20.0733H16.4144ZM15.7377 18.6612H15.7369C15.7399 18.6634 15.7422 18.6664 15.7452 18.6694C15.7422 18.6664 15.7399 18.6642 15.7377 18.6612ZM16.4054 19.3325C16.4069 19.334 16.4084 19.3348 16.4099 19.3363V19.3325H16.4054ZM22.1654 10.7482C22.1654 10.7489 22.1654 10.7489 22.1654 10.7496C22.1654 10.7489 22.1669 10.7482 22.1669 10.7482C22.1662 10.7482 22.1662 10.7482 22.1654 10.7482ZM19.7128 17.1848C19.7315 17.1713 19.7487 17.1556 19.7651 17.1377C19.8085 17.7829 20.0807 18.0331 20.7723 18.066C20.7514 18.0854 20.7327 18.107 20.7178 18.1302C20.7746 18.1175 20.8337 18.0973 20.8942 18.0697C21.298 17.9017 21.5052 17.5858 21.5799 17.1683C21.5792 17.1638 21.5784 17.1594 21.5769 17.1549C21.4797 16.6769 21.2083 16.379 20.7342 16.2923C20.7088 16.2871 20.6819 16.2834 20.6549 16.2796C20.1958 16.3327 19.8982 16.5806 19.7591 17.019M16.4144 20.0733C16.4129 20.0748 16.4114 20.0756 16.4099 20.0763C16.4099 20.0771 16.4099 20.0771 16.4099 20.0778V20.0793H16.4122C16.4129 20.0771 16.4137 20.0756 16.4152 20.0733H16.4144ZM15.7377 18.6612H15.7369C15.7399 18.6634 15.7422 18.6664 15.7452 18.6694C15.7422 18.6664 15.7399 18.6642 15.7377 18.6612ZM16.4054 19.3325C16.4069 19.334 16.4084 19.3348 16.4099 19.3363V19.3325H16.4054ZM18.1051 19.9143C17.6923 19.5035 17.1696 19.564 16.6941 20.0786V20.0793C16.5774 20.3459 16.5333 20.6178 16.6313 20.9008C16.6365 20.9068 16.6417 20.9135 16.6462 20.9195C16.7359 21.027 16.8137 21.1472 16.9199 21.2346C17.2855 21.5378 17.8127 21.4952 18.12 21.1517C18.4491 20.785 18.4423 20.2503 18.1051 19.9143ZM18.1051 19.9143C17.6923 19.5035 17.1696 19.564 16.6941 20.0786V20.0793C16.5774 20.3459 16.5333 20.6178 16.6313 20.9008C16.6365 20.9068 16.6417 20.9135 16.6462 20.9195C16.7359 21.027 16.8137 21.1472 16.9199 21.2346C17.2855 21.5378 17.8127 21.4952 18.12 21.1517C18.4491 20.785 18.4423 20.2503 18.1051 19.9143ZM22.1654 10.7482C22.1654 10.7489 22.1654 10.7489 22.1654 10.7496C22.1654 10.7489 22.1669 10.7482 22.1669 10.7482C22.1662 10.7482 22.1662 10.7482 22.1654 10.7482ZM19.7128 17.1848C19.7315 17.1713 19.7487 17.1556 19.7651 17.1377C19.8085 17.7829 20.0807 18.0331 20.7723 18.066C20.7514 18.0854 20.7327 18.107 20.7178 18.1302C20.7746 18.1175 20.8337 18.0973 20.8942 18.0697C21.298 17.9017 21.5052 17.5858 21.5799 17.1683C21.5792 17.1638 21.5784 17.1594 21.5769 17.1549C21.4797 16.6769 21.2083 16.379 20.7342 16.2923C20.7088 16.2871 20.6819 16.2834 20.6549 16.2796C20.1958 16.3327 19.8982 16.5806 19.7591 17.019M16.4144 20.0733C16.4129 20.0748 16.4114 20.0756 16.4099 20.0763C16.4099 20.0771 16.4099 20.0771 16.4099 20.0778V20.0793H16.4122C16.4129 20.0771 16.4137 20.0756 16.4152 20.0733H16.4144ZM15.7377 18.6612H15.7369C15.7399 18.6634 15.7422 18.6664 15.7452 18.6694C15.7422 18.6664 15.7399 18.6642 15.7377 18.6612ZM16.4054 19.3325C16.4069 19.334 16.4084 19.3348 16.4099 19.3363V19.3325H16.4054ZM22.1654 10.7482C22.1654 10.7489 22.1654 10.7489 22.1654 10.7496C22.1654 10.7489 22.1669 10.7482 22.1669 10.7482C22.1662 10.7482 22.1662 10.7482 22.1654 10.7482ZM19.7128 17.1848C19.7315 17.1713 19.7487 17.1556 19.7651 17.1377C19.8085 17.7829 20.0807 18.0331 20.7723 18.066C20.7514 18.0854 20.7327 18.107 20.7178 18.1302C20.7746 18.1175 20.8337 18.0973 20.8942 18.0697C21.298 17.9017 21.5052 17.5858 21.5799 17.1683C21.5792 17.1638 21.5784 17.1594 21.5769 17.1549C21.4797 16.6769 21.2083 16.379 20.7342 16.2923C20.7088 16.2871 20.6819 16.2834 20.6549 16.2796C20.1958 16.3327 19.8982 16.5806 19.7591 17.019M16.4144 20.0733C16.4129 20.0748 16.4114 20.0756 16.4099 20.0763C16.4099 20.0771 16.4099 20.0771 16.4099 20.0778V20.0793H16.4122C16.4129 20.0771 16.4137 20.0756 16.4152 20.0733H16.4144ZM15.7377 18.6612H15.7369C15.7399 18.6634 15.7422 18.6664 15.7452 18.6694C15.7422 18.6664 15.7399 18.6642 15.7377 18.6612ZM16.4054 19.3325C16.4069 19.334 16.4084 19.3348 16.4099 19.3363V19.3325H16.4054ZM18.1051 19.9143C17.6923 19.5035 17.1696 19.564 16.6941 20.0786V20.0793C16.5774 20.3459 16.5333 20.6178 16.6313 20.9008C16.6365 20.9068 16.6417 20.9135 16.6462 20.9195C16.7359 21.027 16.8137 21.1472 16.9199 21.2346C17.2855 21.5378 17.8127 21.4952 18.12 21.1517C18.4491 20.785 18.4423 20.2503 18.1051 19.9143ZM15.7377 18.6612H15.7369C15.7399 18.6634 15.7422 18.6664 15.7452 18.6694C15.7422 18.6664 15.7399 18.6642 15.7377 18.6612ZM16.4054 19.3325C16.4069 19.334 16.4084 19.3348 16.4099 19.3363V19.3325H16.4054ZM18.123 20.1256C17.9039 19.7881 17.5114 19.6738 17.1442 19.8291C16.9842 19.8964 16.881 20.0621 16.6941 20.0786V20.0793C16.5774 20.3459 16.5333 20.6178 16.6313 20.9008C16.6402 20.9023 16.6492 20.9038 16.6574 20.9053C16.804 20.9366 16.8833 21.0643 16.9924 21.1495C17.299 21.3899 17.705 21.3885 17.9832 21.142C18.2726 20.8851 18.3324 20.4497 18.123 20.1256ZM22.1654 10.7482C22.1654 10.7489 22.1654 10.7489 22.1654 10.7496C22.1654 10.7489 22.1669 10.7482 22.1669 10.7482C22.1662 10.7482 22.1662 10.7482 22.1654 10.7482ZM19.7128 17.1848C19.7315 17.1713 19.7487 17.1556 19.7651 17.1377C19.7801 17.122 19.7935 17.1048 19.8062 17.0862C19.9536 16.668 20.3005 16.488 20.6624 16.3252C20.6864 16.314 20.7103 16.3035 20.7342 16.2923C20.7088 16.2871 20.6819 16.2834 20.6549 16.2796C20.1958 16.3327 19.8982 16.5806 19.7591 17.019M15.7377 18.6612H15.7369C15.7399 18.6634 15.7422 18.6664 15.7452 18.6694C15.7422 18.6664 15.7399 18.6642 15.7377 18.6612ZM16.4054 19.3325C16.4069 19.334 16.4084 19.3348 16.4099 19.3363V19.3325H16.4054ZM18.123 20.1256C17.9039 19.7881 17.5114 19.6738 17.1442 19.8291C16.9842 19.8964 16.881 20.0621 16.6941 20.0786V20.0793C16.5774 20.3459 16.5333 20.6178 16.6313 20.9008C16.6402 20.9023 16.6492 20.9038 16.6574 20.9053C16.804 20.9366 16.8833 21.0643 16.9924 21.1495C17.299 21.3899 17.705 21.3885 17.9832 21.142C18.2726 20.8851 18.3324 20.4497 18.123 20.1256ZM19.7128 17.1848C19.7315 17.1713 19.7487 17.1556 19.7651 17.1377C19.7801 17.122 19.7935 17.1048 19.8062 17.0862C19.9536 16.668 20.3005 16.488 20.6624 16.3252C20.6864 16.314 20.7103 16.3035 20.7342 16.2923C20.7088 16.2871 20.6819 16.2834 20.6549 16.2796C20.1958 16.3327 19.8982 16.5806 19.7591 17.019M15.7377 18.6612H15.7369C15.7399 18.6634 15.7422 18.6664 15.7452 18.6694C15.7422 18.6664 15.7399 18.6642 15.7377 18.6612ZM16.4054 19.3325C16.4069 19.334 16.4084 19.3348 16.4099 19.3363V19.3325H16.4054ZM18.123 20.1256C17.9039 19.7881 17.5114 19.6738 17.1442 19.8291C16.9842 19.8964 16.881 20.0621 16.6941 20.0786V20.0793C16.5774 20.3459 16.5333 20.6178 16.6313 20.9008C16.6402 20.9023 16.6492 20.9038 16.6574 20.9053C16.804 20.9366 16.8833 21.0643 16.9924 21.1495C17.299 21.3899 17.705 21.3885 17.9832 21.142C18.2726 20.8851 18.3324 20.4497 18.123 20.1256ZM19.7128 17.1848C19.7315 17.1713 19.7487 17.1556 19.7651 17.1377C19.7801 17.122 19.7935 17.1048 19.8062 17.0862C19.9536 16.668 20.3005 16.488 20.6624 16.3252C20.6579 16.3118 20.6557 16.2968 20.6549 16.2796C20.1958 16.3327 19.8982 16.5806 19.7591 17.019" fill="#09B256"/>
<path d="M4.96654 12.8534C4.96729 13.4061 4.60687 13.7683 4.061 13.7638C3.53533 13.7585 3.17939 13.3926 3.18538 12.8631C3.19211 12.3337 3.54206 11.9991 4.08493 12.0036C4.60313 12.0073 4.96579 12.3576 4.96654 12.8534Z" fill="#09B256"/>
<path d="M6.09484 8.23088C6.08362 8.72302 5.60431 9.16064 5.10181 9.13824C4.63447 9.11733 4.26283 8.67672 4.28078 8.16591C4.29573 7.74995 4.75859 7.30859 5.17958 7.30859C5.59907 7.30859 6.10456 7.81791 6.09484 8.23088Z" fill="#09B256"/>
<path d="M9.43574 5.04652C9.43425 5.54986 9.04691 5.94865 8.54591 5.96359C8.05912 5.97703 7.64486 5.57376 7.63514 5.07714C7.62617 4.61338 8.0823 4.12274 8.516 4.12946C8.96615 4.13618 9.43724 4.60666 9.43574 5.04652Z" fill="#09B256"/>
<path d="M9.32524 20.4917C9.32375 20.5783 9.32001 20.6649 9.31702 20.7515C8.95884 21.3661 8.57898 21.4841 7.91646 21.1854C7.61586 20.8882 7.43715 20.5507 7.61063 20.1227C7.78411 19.6948 8.19164 19.485 8.63656 19.5746C9.08297 19.6642 9.33421 19.998 9.32524 20.4917Z" fill="#09B256"/>
<path d="M13.9111 21.8337C13.8991 22.3161 13.4789 22.7037 12.9764 22.6962C12.5098 22.6895 12.0723 22.2414 12.0783 21.7769C12.0835 21.3811 12.6174 20.8897 13.0347 20.8964C13.4893 20.9032 13.9223 21.3662 13.9111 21.8337Z" fill="#09B256"/>
<path d="M13.9321 3.98452C13.9201 4.45276 13.482 4.83811 12.9727 4.82765C12.4986 4.81794 12.0784 4.41169 12.0769 3.96063C12.0747 3.48791 12.5039 3.05701 12.9765 3.05701C13.5111 3.05626 13.9448 3.47745 13.9321 3.98452Z" fill="#09B256"/>
<path d="M16.6943 20.0795C16.5776 20.3461 16.5335 20.6179 16.6315 20.9009C16.6367 20.9069 16.6419 20.9136 16.6464 20.9196C16.6501 20.9151 16.6539 20.9099 16.6576 20.9054C16.6621 20.9009 16.6659 20.8957 16.6696 20.8912C16.6688 20.6209 16.7698 20.3513 16.6943 20.0795Z" fill="#09B256"/>
<path d="M18.0911 12.3353C18.0702 12.7692 18.071 13.2061 18.0911 13.6407C18.1016 13.8767 18.0246 13.9334 17.798 13.9297C16.9762 13.917 16.1537 13.9297 15.3319 13.9222C15.0807 13.92 14.9042 13.979 14.7487 14.2112C13.7893 15.6436 11.6365 15.253 11.0861 13.9551C10.7033 13.0515 10.7938 11.9694 11.7718 11.2338C12.0081 11.0561 12.062 10.8582 12.0627 10.6057C12.0679 9.02627 12.0792 7.4468 12.0702 5.86734C12.0687 5.60073 12.1106 5.49543 12.4067 5.5156C12.8277 5.54547 13.2531 5.53427 13.6756 5.51858C13.8887 5.51037 13.9471 5.57833 13.9441 5.78818C13.9329 6.63429 13.9396 7.47966 13.9396 8.32578C13.9396 9.13381 13.9456 9.94258 13.9351 10.7506C13.9321 10.9567 13.9762 11.1001 14.1677 11.2054C14.4339 11.3518 14.6447 11.5684 14.7943 11.8305C14.9079 12.0299 15.0582 12.0866 15.2811 12.0836C16.1283 12.0717 16.9747 12.0844 17.822 12.0747C18.0238 12.0717 18.1016 12.112 18.0911 12.3353Z" fill="#09B256"/>
<path d="M18.2759 5.00921C18.2632 5.50732 17.8504 5.9061 17.3599 5.89415C16.8873 5.88295 16.4746 5.44309 16.4835 4.96066C16.491 4.53424 16.9651 4.04584 17.3629 4.05406C17.8303 4.06451 18.2871 4.54246 18.2759 5.00921Z" fill="#09B256"/>
<path d="M21.6333 8.34284C21.6467 8.82377 21.222 9.25318 20.7382 9.24795C20.2552 9.24197 19.8506 8.8275 19.8491 8.33611C19.8484 7.89177 20.2768 7.42353 20.6971 7.41084C21.1525 7.39665 21.6206 7.86265 21.6333 8.34284Z" fill="#09B256"/>
<path d="M22.1658 10.7483C22.1658 10.749 22.1658 10.749 22.1658 10.7498C22.1658 10.749 22.1672 10.7483 22.1672 10.7483C22.1665 10.7483 22.1665 10.7483 22.1658 10.7483ZM19.7131 17.1849C19.7318 17.1715 19.749 17.1558 19.7654 17.1378C19.7804 17.1222 19.7939 17.105 19.8066 17.0863C19.9539 16.6681 20.3008 16.4881 20.6628 16.3253C20.6867 16.3141 20.7106 16.3037 20.7345 16.2925C20.7091 16.2873 20.6822 16.2835 20.6553 16.2798C20.1962 16.3328 19.8985 16.5807 19.7595 17.0191M16.4147 20.0735C16.4132 20.075 16.4117 20.0757 16.4102 20.0765C16.4102 20.0772 16.4102 20.0772 16.4102 20.078V20.0795H16.4125C16.4132 20.0772 16.414 20.0757 16.4155 20.0735H16.4147ZM16.4058 19.3327C16.4073 19.3342 16.4088 19.3349 16.4102 19.3364V19.3327H16.4058Z" fill="#09B256"/>
<path d="M18.1053 19.9144C17.6926 19.5037 17.1699 19.5642 16.6943 20.0787C16.8812 20.0623 16.9844 19.8965 17.1445 19.8293C17.5116 19.674 17.9042 19.7882 18.1233 20.1258C18.3326 20.4499 18.2728 20.8853 17.9834 21.1422C17.7053 21.3886 17.2992 21.3901 16.9927 21.1496C16.8835 21.0645 16.8042 20.9368 16.6577 20.9054C16.6494 20.9039 16.6405 20.9024 16.6315 20.9009C16.6367 20.9069 16.642 20.9136 16.6464 20.9196C16.7362 21.0271 16.8139 21.1474 16.9201 21.2348C17.2858 21.538 17.813 21.4954 18.1203 21.1519C18.4493 20.7852 18.4426 20.2505 18.1053 19.9144ZM21.5772 17.155C21.5742 17.158 21.5719 17.161 21.5704 17.164C21.3394 17.4732 21.1943 17.8548 20.8115 18.031C20.798 18.0422 20.7845 18.0542 20.7726 18.0661C20.7516 18.0855 20.733 18.1072 20.718 18.1303C20.7748 18.1176 20.8339 18.0975 20.8945 18.0699C21.2983 17.9018 21.5054 17.5859 21.5802 17.1685C21.5794 17.164 21.5787 17.1595 21.5772 17.155ZM16.4146 20.0735C16.4131 20.075 16.4117 20.0757 16.4102 20.0765C16.4102 20.0772 16.4102 20.0772 16.4102 20.078V20.0795H16.4124C16.4131 20.0772 16.4139 20.0757 16.4154 20.0735H16.4146Z" fill="#09B256"/>
<path d="M21.5803 17.1685C21.5773 17.167 21.5735 17.1662 21.5705 17.164C21.4883 17.1289 21.4494 17.055 21.421 16.978C21.317 16.6943 21.1361 16.5001 20.8295 16.4351C20.7607 16.4209 20.6867 16.3993 20.6628 16.3253C20.6583 16.3119 20.656 16.297 20.6553 16.2798C20.6822 16.2835 20.7091 16.2873 20.7345 16.2925C21.2086 16.3791 21.4801 16.6771 21.5773 17.155C21.5788 17.1595 21.5795 17.164 21.5803 17.1685Z" fill="#09B256"/>
<path d="M18.0911 12.3353C18.0702 12.7692 18.071 13.2061 18.0911 13.6407C18.1016 13.8767 18.0246 13.9334 17.798 13.9297C16.9762 13.917 16.1537 13.9297 15.3319 13.9222C15.0807 13.92 14.9042 13.979 14.7487 14.2112C13.7893 15.6436 11.6365 15.253 11.0861 13.9551C10.7033 13.0515 10.7938 11.9694 11.7718 11.2338C12.0081 11.0561 12.062 10.8582 12.0627 10.6057C12.0679 9.02627 12.0792 7.4468 12.0702 5.86734C12.0687 5.60073 12.1106 5.49543 12.4067 5.5156C12.8277 5.54547 13.2531 5.53427 13.6756 5.51858C13.8887 5.51037 13.9471 5.57833 13.9441 5.78818C13.9329 6.63429 13.9396 7.47966 13.9396 8.32578C13.9396 9.13381 13.9456 9.94258 13.9351 10.7506C13.9321 10.9567 13.9762 11.1001 14.1677 11.2054C14.4339 11.3518 14.6447 11.5684 14.7943 11.8305C14.9079 12.0299 15.0582 12.0866 15.2811 12.0836C16.1283 12.0717 16.9747 12.0844 17.822 12.0747C18.0238 12.0717 18.1016 12.112 18.0911 12.3353Z" fill="#09B256"/>
<path d="M9.32524 20.4917C9.32375 20.5783 9.32001 20.6649 9.31702 20.7515C9.18018 20.641 9.21831 20.4812 9.2071 20.3378C9.18092 19.9928 8.97006 19.8024 8.66721 19.7023C8.37409 19.6052 8.1034 19.6567 7.8873 19.895C7.6697 20.1339 7.59343 20.4013 7.71232 20.7157C7.77364 20.8763 7.9217 20.998 7.91646 21.1854C7.61586 20.8882 7.43715 20.5507 7.61063 20.1227C7.78411 19.6948 8.19164 19.485 8.63656 19.5746C9.08297 19.6642 9.33421 19.998 9.32524 20.4917Z" fill="#09B256"/>
<path d="M13.9321 3.98452C13.9201 4.45276 13.482 4.83811 12.9727 4.82765C12.4986 4.81794 12.0784 4.41169 12.0769 3.96063C12.0747 3.48791 12.5039 3.05701 12.9765 3.05701C13.5111 3.05626 13.9448 3.47745 13.9321 3.98452Z" fill="#09B256"/>
<path d="M9.43574 5.04652C9.43425 5.54986 9.04691 5.94865 8.54591 5.96359C8.05912 5.97703 7.64486 5.57376 7.63514 5.07714C7.62617 4.61338 8.0823 4.12274 8.516 4.12946C8.96615 4.13618 9.43724 4.60666 9.43574 5.04652Z" fill="#09B256"/>
<path d="M9.32524 20.4917C9.32375 20.5783 9.32001 20.6649 9.31702 20.7515C8.95884 21.3661 8.57898 21.4841 7.91646 21.1854C7.61586 20.8882 7.43715 20.5507 7.61063 20.1227C7.78411 19.6948 8.19164 19.485 8.63656 19.5746C9.08297 19.6642 9.33421 19.998 9.32524 20.4917Z" fill="#09B256"/>
<path d="M21.6333 8.34284C21.6467 8.82377 21.222 9.25318 20.7382 9.24795C20.2552 9.24197 19.8506 8.8275 19.8491 8.33611C19.8484 7.89177 20.2768 7.42353 20.6971 7.41084C21.1525 7.39665 21.6206 7.86265 21.6333 8.34284Z" fill="#09B256"/>
<path d="M4.96654 12.8534C4.96729 13.4061 4.60687 13.7683 4.061 13.7638C3.53533 13.7585 3.17939 13.3926 3.18538 12.8631C3.19211 12.3337 3.54206 11.9991 4.08493 12.0036C4.60313 12.0073 4.96579 12.3576 4.96654 12.8534Z" fill="#09B256"/>
<path d="M6.15758 17.232C6.15833 17.7846 5.79791 18.1468 5.25204 18.1423C4.72637 18.1371 4.37043 17.7712 4.37642 17.2417C4.38315 16.7122 4.7331 16.3776 5.27597 16.3821C5.79417 16.3859 6.15683 16.7361 6.15758 17.232Z" fill="#09B256"/>
<path d="M22.7638 12.8184C22.7645 13.371 22.4041 13.7332 21.8582 13.7287C21.3326 13.7235 20.9766 13.3576 20.9826 12.8281C20.9893 12.2986 21.3393 11.9641 21.8822 11.9686C22.4004 11.9723 22.763 12.3225 22.7638 12.8184Z" fill="#09B256"/>
<path d="M13.9111 21.8337C13.8991 22.3161 13.4789 22.7037 12.9764 22.6962C12.5098 22.6895 12.0723 22.2414 12.0783 21.7769C12.0835 21.3811 12.6174 20.8897 13.0347 20.8964C13.4893 20.9032 13.9223 21.3662 13.9111 21.8337Z" fill="#09B256"/>
<path d="M6.09484 8.23088C6.08362 8.72302 5.60431 9.16064 5.10181 9.13824C4.63447 9.11733 4.26283 8.67672 4.28078 8.16591C4.29573 7.74995 4.75859 7.30859 5.17958 7.30859C5.59907 7.30859 6.10456 7.81791 6.09484 8.23088Z" fill="#09B256"/>
<path d="M18.2759 5.00921C18.2632 5.50732 17.8504 5.9061 17.3599 5.89415C16.8873 5.88295 16.4746 5.44309 16.4835 4.96066C16.491 4.53424 16.9651 4.04584 17.3629 4.05406C17.8303 4.06451 18.2871 4.54246 18.2759 5.00921Z" fill="#09B256"/>
<path d="M18.1202 21.1519C17.8129 21.4954 17.2857 21.538 16.9201 21.2348C16.8139 21.1474 16.7361 21.0272 16.6464 20.9197C16.6419 20.9137 16.6367 20.907 16.6315 20.901C16.5335 20.618 16.5776 20.3461 16.6943 20.0795V20.0788C17.1698 19.5642 17.6925 19.5037 18.1053 19.9145C18.4425 20.2505 18.4493 20.7852 18.1202 21.1519Z" fill="#09B256"/>
<path d="M21.5802 17.1685C21.5054 17.5859 21.2983 17.9018 20.8945 18.0698C20.8339 18.0975 20.7748 18.1176 20.718 18.1303C20.733 18.1072 20.7517 18.0855 20.7726 18.0661C20.0809 18.0333 19.8087 17.7831 19.7654 17.1378C19.7489 17.1558 19.7317 17.1715 19.713 17.1849C19.722 17.1311 19.7377 17.0759 19.7594 17.0191C19.8985 16.5807 20.1961 16.3328 20.6552 16.2798C20.6821 16.2835 20.709 16.2873 20.7345 16.2925C21.2085 16.3791 21.48 16.6771 21.5772 17.155C21.5787 17.1595 21.5794 17.164 21.5802 17.1685Z" fill="#09B256"/>
<path d="M16.4147 20.0734C16.4134 20.0753 16.4128 20.0766 16.4121 20.0786H16.4102V20.0773C16.4102 20.0766 16.4102 20.0766 16.4102 20.076C16.4115 20.0753 16.4128 20.0747 16.4141 20.0734H16.4147Z" fill="#09B256"/>
<path d="M15.7464 18.6706C15.743 18.6672 15.7405 18.6639 15.7372 18.6614H15.738C15.7405 18.6647 15.743 18.6672 15.7464 18.6706Z" fill="#09B256"/>
</svg>
