<svg width="36" height="34" viewBox="0 0 36 34" fill="none" xmlns="http://www.w3.org/2000/svg">
<path d="M35.5352 16.5057C35.3233 15.0541 34.6208 13.8225 33.8067 12.6239C31.5317 9.30299 29.2344 6.00405 28.0189 2.01233C27.6509 3.13397 27.3275 4.16764 26.8145 5.12433C26.6138 5.50921 26.6361 5.81711 26.8591 6.19099C27.952 8.06039 28.0301 9.96277 26.8034 11.7882C25.6101 13.5476 23.8704 14.3174 21.7293 14.0974C21.4059 14.0645 21.2609 14.1524 21.1383 14.4273C20.5138 15.7799 20.2238 17.1655 20.5026 18.65C20.4803 18.9689 20.5695 19.2768 20.7033 19.5627C20.7256 19.6507 20.7256 19.7496 20.7591 19.8266C22.1531 24.3462 27.6509 26.4685 31.7994 24.0822C34.5427 22.4987 35.9924 19.5627 35.5352 16.5057ZM31.0299 22.8836C28.4204 24.3681 25.1306 23.7413 23.2125 21.3991C23.1233 21.2891 23.0229 21.1792 22.9337 21.0692C22.8668 20.9592 22.7999 20.8493 22.7218 20.7393C22.6549 20.6184 22.5768 20.4974 22.5099 20.3874C22.3984 20.1015 22.2757 19.8156 22.1531 19.5297C22.0862 19.3098 22.0973 19.0679 21.9523 18.8699C21.9189 18.573 21.8743 18.2761 21.8408 17.9792C21.8408 17.0555 21.9635 16.1648 22.4096 15.3181C22.4765 16.8796 22.7107 18.3861 23.7032 19.6617C23.915 20.0025 24.1381 20.3324 24.4838 20.5634C24.5842 20.7613 24.7514 20.8713 24.9187 20.9812C25.0637 21.1792 25.2644 21.3221 25.4874 21.4211C27.294 22.7517 29.3125 22.9606 31.5206 22.4438C31.4202 22.7077 31.2083 22.7847 31.0299 22.8836Z" fill="#00741E"/>
<path d="M26.4243 25.6988C26.112 25.6438 25.8109 25.5559 25.5098 25.4679C24.64 25.237 24.6623 25.259 24.1493 25.9847C21.406 29.8995 17.5809 31.6699 12.8414 31.1201C6.88636 30.4273 2.59292 25.3579 2.67098 19.4088C2.7602 12.8 8.71525 7.54364 15.384 8.15945C15.9416 8.21443 16.633 8.64329 17.0456 8.24742C17.4248 7.88453 17.4583 7.16976 17.6701 6.63094C17.804 6.30104 17.7036 6.18008 17.3802 6.10311C16.3988 5.87218 15.4063 5.76222 14.6815 5.76222C11.8266 5.75122 9.45127 6.433 7.23206 7.6756C0.329106 11.5574 -1.87895 20.8274 2.57062 27.3043C7.16515 34.0121 16.0531 35.5846 22.733 30.8672C24.417 29.6795 25.7329 28.162 26.7142 26.3476C26.9373 25.9407 26.8592 25.7758 26.4243 25.6988Z" fill="#00741E"/>
<path d="M23.3687 13.2287C25.1529 12.8439 26.2793 11.7002 26.7477 9.9518C27.1491 8.44529 26.5692 7.1587 25.7328 5.93809C24.4504 4.06869 23.1679 2.1883 22.4654 0C22.2535 0.0989682 22.2646 0.285908 22.1977 0.428862C21.6624 1.75943 20.9933 3.01303 20.2239 4.22264C19.6217 5.16834 18.8633 6.01507 18.3838 7.02674C17.6032 8.64322 17.7705 10.2157 18.8745 11.6233C20.0008 13.0748 21.5621 13.6026 23.3687 13.2287Z" fill="#00741E"/>
<path d="M13.9343 25.2038C14.7037 26.1495 15.7408 26.4684 16.9118 26.2815C18.1719 26.0726 19.0641 25.3578 19.3429 24.1042C19.6105 22.9056 19.5548 21.729 18.4842 20.8492C18.473 20.8382 18.4619 20.8162 18.4396 20.8162C18.2054 20.5963 17.9377 20.4534 17.6032 20.4094C17.4359 20.2994 17.2463 20.2664 17.0456 20.2994C16.6999 20.1565 16.3542 20.1675 16.0085 20.2884C15.9527 20.2994 15.8858 20.2994 15.8301 20.3104C15.4955 20.3214 15.1944 20.4314 14.9268 20.6403C13.3098 21.454 12.7968 23.7963 13.9343 25.2038ZM16.5103 22.0149C16.9787 22.0588 17.1683 22.3667 17.2463 22.7736C17.3133 23.1145 17.3133 23.4554 17.224 23.7963C17.1125 24.2032 16.9006 24.4891 16.4323 24.4891C15.9304 24.4891 15.7074 24.1812 15.607 23.7523C15.5736 23.5874 15.5624 23.4224 15.5401 23.2575C15.5736 23.0595 15.5847 22.8616 15.6405 22.6746C15.7743 22.2898 16.0196 21.9709 16.5103 22.0149Z" fill="#00741E"/>
<path d="M15.4954 14.4493C15.2613 14.4493 15.1274 14.6033 15.0159 14.7792C14.3134 15.8679 13.6108 16.9675 12.9082 18.0672C12.3952 18.8479 11.8823 19.6397 11.3693 20.4204C11.1462 20.6843 10.9344 20.9702 10.8117 21.2891C9.76342 22.8726 8.71515 24.4561 7.59998 26.1386C8.45866 26.1386 9.17238 26.1386 9.88609 26.1386C10.1314 26.1386 10.3099 25.9956 10.4325 25.8087C11.3804 24.3462 12.3172 22.8726 13.2651 21.4101C13.4101 21.1902 13.555 20.9702 13.7112 20.7503C13.7558 20.6843 13.7892 20.6074 13.8338 20.5414C13.9676 20.4094 14.0903 20.2665 14.1461 20.0795C14.6479 19.3208 15.1943 18.584 15.6293 17.7813C16.343 16.7036 17.0567 15.637 17.8485 14.4603C16.9563 14.4493 16.2203 14.4493 15.4954 14.4493Z" fill="#00741E"/>
<path d="M7.80075 20.1675C7.8119 20.2005 7.8342 20.2115 7.86766 20.2005C8.00148 20.3325 8.16876 20.3105 8.33604 20.3215C8.7152 20.4425 9.09436 20.4645 9.47352 20.3215C10.3322 20.2115 11.0348 19.8596 11.492 19.0899C11.8712 18.694 11.9269 18.1772 11.9938 17.6713C12.1723 16.3518 11.6704 15.1971 10.7225 14.6803C9.42891 13.9655 7.75614 14.1635 6.76363 15.1532C5.83804 16.0659 5.65961 17.8363 6.35102 19.0789C6.37332 19.2658 6.50714 19.3648 6.65212 19.4528C6.69672 19.5078 6.74133 19.5737 6.79709 19.6287C6.87515 19.7497 6.98667 19.8157 7.13164 19.8486C7.24316 19.9806 7.38813 20.0466 7.55541 20.0796C7.60002 20.1895 7.70038 20.1785 7.80075 20.1675ZM8.12415 17.3525C8.12415 17.0226 8.19106 16.7366 8.33604 16.4727C8.48101 16.1978 8.7152 16.0879 9.02745 16.0879C9.3397 16.0879 9.56273 16.2308 9.6854 16.5057C9.94189 17.0775 9.91959 17.6384 9.65195 18.1992C9.51812 18.4851 9.26163 18.5731 8.96054 18.5621C8.65944 18.5621 8.4141 18.4411 8.29143 18.1662C8.15761 17.9023 8.113 17.6164 8.12415 17.3525Z" fill="#00741E"/>
</svg>
