<svg width="31" height="32" viewBox="0 0 31 32" fill="none" xmlns="http://www.w3.org/2000/svg">
<path d="M7.67535 9.74597C6.13693 9.74597 4.91345 10.9513 4.91345 12.4594C4.91345 13.9615 6.13087 15.191 7.6269 15.191C9.13504 15.191 10.3585 13.9736 10.3585 12.4776C10.3646 10.9937 9.1411 9.75203 7.67535 9.74597ZM7.63296 13.3801C7.15447 13.3801 6.73049 12.9621 6.73049 12.4776C6.73049 11.993 7.1363 11.5751 7.6269 11.5691C8.10539 11.557 8.53542 11.9749 8.54753 12.4594C8.55359 12.95 8.13567 13.3801 7.63296 13.3801Z" fill="#00741E"/>
<path d="M13.0538 13.9858C12.5693 13.9736 12.1695 13.5557 12.1756 13.0651C12.1817 12.5685 12.6117 12.1566 13.1144 12.1687C13.599 12.1808 13.9987 12.5988 13.9926 13.0894C13.9866 13.5921 13.5626 13.9979 13.0538 13.9858Z" fill="#00741E"/>
<path d="M10.8066 17.0141C8.51111 17.002 6.74252 18.71 6.73041 20.951C6.71829 23.0648 8.48688 24.8758 10.5704 24.8819C12.8175 24.894 14.5921 23.1678 14.6043 20.9571C14.6103 18.8554 12.8538 17.0262 10.8066 17.0141ZM10.637 23.0709C9.50442 23.0648 8.53534 22.0958 8.54139 20.9631C8.54745 19.776 9.48625 18.8311 10.6673 18.8311C11.806 18.8311 12.7751 19.7881 12.7812 20.9147C12.7812 22.12 11.8302 23.0709 10.637 23.0709Z" fill="#00741E"/>
<path d="M15.5129 3.69519C13.6958 3.69519 12.1816 5.18516 12.1756 6.97192C12.1695 8.84953 13.6474 10.3516 15.5007 10.3516C17.3541 10.3516 18.838 8.85559 18.838 6.98403C18.838 5.19122 17.3238 3.69519 15.5129 3.69519ZM15.4886 8.53457C14.6528 8.52852 13.9865 7.8441 13.9926 6.99615C13.9987 6.17242 14.7012 5.49406 15.5371 5.50617C16.3487 5.51829 17.0271 6.21482 17.021 7.02643C17.0089 7.86833 16.3245 8.54063 15.4886 8.53457Z" fill="#00741E"/>
<path d="M17.3056 17.6197C16.815 17.6137 16.4092 17.2018 16.4152 16.7112C16.4152 16.2085 16.8331 15.7966 17.3419 15.8027C17.8325 15.8087 18.2383 16.2206 18.2323 16.7112C18.2262 17.22 17.8143 17.6258 17.3056 17.6197Z" fill="#00741E"/>
<path d="M19.807 20.6482C18.2565 20.636 17.027 21.8414 17.0209 23.3677C17.0148 24.8395 18.2323 26.0872 19.6798 26.0932C21.2364 26.0993 22.4599 24.9 22.466 23.3737C22.472 21.908 21.2546 20.6542 19.807 20.6482ZM19.7222 24.2762C19.2437 24.2701 18.8258 23.8401 18.8379 23.3556C18.8501 22.865 19.2619 22.4591 19.7525 22.4591C20.2371 22.4591 20.655 22.8831 20.655 23.3677C20.6489 23.8704 20.2249 24.2883 19.7222 24.2762Z" fill="#00741E"/>
<path d="M21.2607 8.21964C21.2667 7.7351 21.6847 7.32323 22.1692 7.32929C22.6719 7.33535 23.0838 7.74721 23.0777 8.25598C23.0717 8.74658 22.6598 9.15239 22.1692 9.14633C21.6604 9.14027 21.2546 8.72235 21.2607 8.21964Z" fill="#00741E"/>
<path d="M25.4943 19.7458C25.4943 20.2364 25.0824 20.6422 24.5918 20.6422C24.0891 20.6422 23.6772 20.2303 23.6772 19.7276C23.6772 19.237 24.0891 18.8312 24.5797 18.8312C25.0885 18.8312 25.5003 19.243 25.4943 19.7458Z" fill="#00741E"/>
<path d="M23.9741 10.9573C22.478 10.9633 21.2606 12.1868 21.2606 13.6889C21.2606 15.1849 22.4902 16.4084 23.9922 16.4084C25.4883 16.4084 26.7117 15.1789 26.7117 13.6768C26.7057 12.1807 25.4762 10.9573 23.9741 10.9573ZM23.9801 14.5914C23.4895 14.5853 23.0777 14.1734 23.0777 13.6889C23.0777 13.1862 23.5077 12.7683 24.0044 12.7804C24.4889 12.7925 24.9008 13.2104 24.8886 13.701C24.8826 14.1856 24.4647 14.5974 23.9801 14.5914Z" fill="#00741E"/>
<path d="M15.5188 0.000524125C6.9908 -0.0176463 0.110277 6.87499 0.00125408 15.2818C-0.107768 23.9794 6.90601 30.9447 15.3855 31.0053C24.0104 31.0659 30.9879 24.0824 31 15.5786C31.0181 6.94162 24.1073 0.000524125 15.5188 0.000524125ZM15.4946 29.1822C7.95384 29.1761 1.81224 23.0164 1.82435 15.4696C1.83647 7.93493 7.99018 1.80545 15.5491 1.81756C23.0534 1.82968 29.195 7.98339 29.189 15.4999C29.1829 23.0467 23.0353 29.1882 15.4946 29.1822Z" fill="#00741E"/>
<path d="M7.67535 9.74597C6.13693 9.74597 4.91345 10.9513 4.91345 12.4594C4.91345 13.9615 6.13087 15.191 7.6269 15.191C9.13504 15.191 10.3585 13.9736 10.3585 12.4776C10.3646 10.9937 9.1411 9.75203 7.67535 9.74597ZM7.63296 13.3801C7.15447 13.3801 6.73049 12.9621 6.73049 12.4776C6.73049 11.993 7.1363 11.5751 7.6269 11.5691C8.10539 11.557 8.53542 11.9749 8.54753 12.4594C8.55359 12.95 8.13567 13.3801 7.63296 13.3801Z" fill="#00741E"/>
<path d="M13.0538 13.9858C12.5693 13.9736 12.1695 13.5557 12.1756 13.0651C12.1817 12.5685 12.6117 12.1566 13.1144 12.1687C13.599 12.1808 13.9987 12.5988 13.9926 13.0894C13.9866 13.5921 13.5626 13.9979 13.0538 13.9858Z" fill="#00741E"/>
<path d="M10.8066 17.0141C8.51111 17.002 6.74252 18.71 6.73041 20.951C6.71829 23.0648 8.48688 24.8758 10.5704 24.8819C12.8175 24.894 14.5921 23.1678 14.6043 20.9571C14.6103 18.8554 12.8538 17.0262 10.8066 17.0141ZM10.637 23.0709C9.50442 23.0648 8.53534 22.0958 8.54139 20.9631C8.54745 19.776 9.48625 18.8311 10.6673 18.8311C11.806 18.8311 12.7751 19.7881 12.7812 20.9147C12.7812 22.12 11.8302 23.0709 10.637 23.0709Z" fill="#00741E"/>
<path d="M15.5129 3.69519C13.6958 3.69519 12.1816 5.18516 12.1756 6.97192C12.1695 8.84953 13.6474 10.3516 15.5007 10.3516C17.3541 10.3516 18.838 8.85559 18.838 6.98403C18.838 5.19122 17.3238 3.69519 15.5129 3.69519ZM15.4886 8.53457C14.6528 8.52852 13.9865 7.8441 13.9926 6.99615C13.9987 6.17242 14.7012 5.49406 15.5371 5.50617C16.3487 5.51829 17.0271 6.21482 17.021 7.02643C17.0089 7.86833 16.3245 8.54063 15.4886 8.53457Z" fill="#00741E"/>
<path d="M17.3056 17.6197C16.815 17.6137 16.4092 17.2018 16.4152 16.7112C16.4152 16.2085 16.8331 15.7966 17.3419 15.8027C17.8325 15.8087 18.2383 16.2206 18.2323 16.7112C18.2262 17.22 17.8143 17.6258 17.3056 17.6197Z" fill="#00741E"/>
<path d="M19.807 20.6482C18.2565 20.636 17.027 21.8414 17.0209 23.3677C17.0148 24.8395 18.2323 26.0872 19.6798 26.0932C21.2364 26.0993 22.4599 24.9 22.466 23.3737C22.472 21.908 21.2546 20.6542 19.807 20.6482ZM19.7222 24.2762C19.2437 24.2701 18.8258 23.8401 18.8379 23.3556C18.8501 22.865 19.2619 22.4591 19.7525 22.4591C20.2371 22.4591 20.655 22.8831 20.655 23.3677C20.6489 23.8704 20.2249 24.2883 19.7222 24.2762Z" fill="#00741E"/>
<path d="M21.2607 8.21964C21.2667 7.7351 21.6847 7.32323 22.1692 7.32929C22.6719 7.33535 23.0838 7.74721 23.0777 8.25598C23.0717 8.74658 22.6598 9.15239 22.1692 9.14633C21.6604 9.14027 21.2546 8.72235 21.2607 8.21964Z" fill="#00741E"/>
<path d="M25.4943 19.7458C25.4943 20.2364 25.0824 20.6422 24.5918 20.6422C24.0891 20.6422 23.6772 20.2303 23.6772 19.7276C23.6772 19.237 24.0891 18.8312 24.5797 18.8312C25.0885 18.8312 25.5003 19.243 25.4943 19.7458Z" fill="#00741E"/>
<path d="M23.9741 10.9573C22.478 10.9633 21.2606 12.1868 21.2606 13.6889C21.2606 15.1849 22.4902 16.4084 23.9922 16.4084C25.4883 16.4084 26.7117 15.1789 26.7117 13.6768C26.7057 12.1807 25.4762 10.9573 23.9741 10.9573ZM23.9801 14.5914C23.4895 14.5853 23.0777 14.1734 23.0777 13.6889C23.0777 13.1862 23.5077 12.7683 24.0044 12.7804C24.4889 12.7925 24.9008 13.2104 24.8886 13.701C24.8826 14.1856 24.4647 14.5974 23.9801 14.5914Z" fill="#00741E"/>
<path d="M10.8066 17.0141C8.51111 17.002 6.74252 18.71 6.73041 20.951C6.71829 23.0648 8.48688 24.8758 10.5704 24.8819C12.8175 24.894 14.5921 23.1678 14.6043 20.9571C14.6103 18.8554 12.8538 17.0262 10.8066 17.0141ZM10.637 23.0709C9.50442 23.0648 8.53534 22.0958 8.54139 20.9631C8.54745 19.776 9.48625 18.8311 10.6673 18.8311C11.806 18.8311 12.7751 19.7881 12.7812 20.9147C12.7812 22.12 11.8302 23.0709 10.637 23.0709Z" fill="#00741E"/>
<path d="M15.5129 3.69519C13.6958 3.69519 12.1816 5.18516 12.1756 6.97192C12.1695 8.84953 13.6474 10.3516 15.5007 10.3516C17.3541 10.3516 18.838 8.85559 18.838 6.98403C18.838 5.19122 17.3238 3.69519 15.5129 3.69519ZM15.4886 8.53457C14.6528 8.52852 13.9865 7.8441 13.9926 6.99615C13.9987 6.17242 14.7012 5.49406 15.5371 5.50617C16.3487 5.51829 17.0271 6.21482 17.021 7.02643C17.0089 7.86833 16.3245 8.54063 15.4886 8.53457Z" fill="#00741E"/>
<path d="M23.9741 10.9573C22.478 10.9633 21.2606 12.1868 21.2606 13.6889C21.2606 15.1849 22.4902 16.4084 23.9922 16.4084C25.4883 16.4084 26.7117 15.1789 26.7117 13.6768C26.7057 12.1807 25.4762 10.9573 23.9741 10.9573ZM23.9801 14.5914C23.4895 14.5853 23.0777 14.1734 23.0777 13.6889C23.0777 13.1862 23.5077 12.7683 24.0044 12.7804C24.4889 12.7925 24.9008 13.2104 24.8886 13.701C24.8826 14.1856 24.4647 14.5974 23.9801 14.5914Z" fill="#00741E"/>
<path d="M19.807 20.6482C18.2565 20.636 17.027 21.8414 17.0209 23.3677C17.0148 24.8395 18.2323 26.0872 19.6798 26.0932C21.2364 26.0993 22.4599 24.9 22.466 23.3737C22.472 21.908 21.2546 20.6542 19.807 20.6482ZM19.7222 24.2762C19.2437 24.2701 18.8258 23.8401 18.8379 23.3556C18.8501 22.865 19.2619 22.4591 19.7525 22.4591C20.2371 22.4591 20.655 22.8831 20.655 23.3677C20.6489 23.8704 20.2249 24.2883 19.7222 24.2762Z" fill="#00741E"/>
<path d="M7.67535 9.74597C6.13693 9.74597 4.91345 10.9513 4.91345 12.4594C4.91345 13.9615 6.13087 15.191 7.6269 15.191C9.13504 15.191 10.3585 13.9736 10.3585 12.4776C10.3646 10.9937 9.1411 9.75203 7.67535 9.74597ZM7.63296 13.3801C7.15447 13.3801 6.73049 12.9621 6.73049 12.4776C6.73049 11.993 7.1363 11.5751 7.6269 11.5691C8.10539 11.557 8.53542 11.9749 8.54753 12.4594C8.55359 12.95 8.13567 13.3801 7.63296 13.3801Z" fill="#00741E"/>
<path d="M18.2323 16.7112C18.2323 17.22 17.8144 17.6258 17.3056 17.6197C16.815 17.6137 16.4092 17.2018 16.4152 16.7112C16.4152 16.2085 16.8331 15.7966 17.3419 15.8027C17.8325 15.8087 18.2323 16.2206 18.2323 16.7112Z" fill="#00741E"/>
<path d="M25.4943 19.7458C25.4943 20.2364 25.0824 20.6422 24.5918 20.6422C24.0891 20.6422 23.6772 20.2303 23.6772 19.7276C23.6772 19.237 24.0891 18.8312 24.5797 18.8312C25.0885 18.8312 25.5003 19.243 25.4943 19.7458Z" fill="#00741E"/>
<path d="M23.0717 8.25C23.0657 8.7406 22.6538 9.1464 22.1632 9.14035C21.6605 9.13429 21.2486 8.72243 21.2547 8.21366C21.2608 7.72911 21.6787 7.31725 22.1632 7.32331C22.672 7.32936 23.0778 7.74728 23.0717 8.25Z" fill="#00741E"/>
<path d="M13.9924 13.0894C13.9864 13.5921 13.5624 13.9979 13.0597 13.9858C12.5752 13.9736 12.1754 13.5557 12.1815 13.0651C12.1875 12.5685 12.6176 12.1566 13.1203 12.1687C13.5988 12.1808 13.9985 12.6048 13.9924 13.0894Z" fill="#00741E"/>
</svg>
