<svg width="18" height="33" viewBox="0 0 18 33" fill="none" xmlns="http://www.w3.org/2000/svg">
<path d="M10.4284 25.8785C10.4084 27.2465 9.49527 28.4563 8.18779 28.8471C6.61397 29.3169 4.9461 28.3333 4.485 26.6632C4.02329 24.9874 4.9461 23.2032 6.53752 22.7277C6.74502 22.6658 6.79538 22.583 6.79538 22.3669C6.78931 16.5917 6.79052 10.8159 6.79052 5.04067C6.79052 4.89151 6.78446 4.74235 6.79356 4.59447C6.8154 4.24005 7.08357 3.98061 7.40998 3.98826C7.72426 3.99527 7.98212 4.24897 8.00032 4.59C8.01306 4.83351 8.00456 5.07828 8.00456 5.32242V13.5396C8.00456 16.4808 8.00699 19.4213 7.9991 22.3624C7.9985 22.5804 8.05432 22.662 8.25453 22.7264C9.60144 23.1592 10.4496 24.4009 10.4284 25.8785Z" fill="#00741E"/>
<path d="M11.7996 20.517C11.6832 20.4042 11.6395 20.3009 11.6395 20.139C11.6443 17.5166 11.6431 14.8942 11.6431 12.2717C11.6425 12.2717 11.6419 12.2717 11.6419 12.2717C11.6419 9.70223 11.6401 7.13271 11.6443 4.5632C11.6443 4.29548 11.6158 4.03158 11.5691 3.77278C11.2172 1.83561 9.65187 0.36185 7.75649 0.17253C5.9424 -0.00913931 4.14349 1.1561 3.45607 2.96323C3.25646 3.48848 3.15211 4.03413 3.15211 4.60272C3.15332 9.76342 3.15211 14.9235 3.15332 20.0835C3.15393 20.2576 3.1333 20.3882 2.99133 20.5253C1.16511 22.284 0.421883 24.4583 0.844765 27.0271C1.48242 30.9015 5.14275 33.508 8.76606 32.6353C11.4192 31.9966 13.1854 30.2532 13.8528 27.4816C14.5038 24.7751 13.7618 22.421 11.7996 20.517ZM8.54158 31.3828C5.45703 32.024 2.56845 30.0072 2.02786 26.7531C1.67718 24.6438 2.31909 22.8354 3.86622 21.4279C4.21993 21.106 4.37889 20.7911 4.37525 20.2958C4.35402 17.7053 4.36494 15.1147 4.36494 12.5248C4.36554 9.89155 4.3613 7.25893 4.36676 4.62567C4.3704 2.84977 5.74947 1.42637 7.43796 1.43912C9.08277 1.45187 10.4273 2.88865 10.4285 4.64926C10.4321 8.2699 10.4297 11.8899 10.4297 15.5099C10.4297 17.166 10.4364 18.8227 10.4242 20.4788C10.4218 20.8281 10.5274 21.0754 10.787 21.2959C12.1782 22.4758 12.8565 24.0197 12.8529 25.8925C12.8481 28.4805 10.9593 30.8805 8.54158 31.3828Z" fill="#00741E"/>
<path d="M15.2507 3.98694C14.6859 3.98694 14.1216 3.98821 13.5568 3.98694C13.123 3.98566 12.8506 3.73451 12.8554 3.34313C12.8603 2.9664 13.1321 2.71461 13.5404 2.71397C14.6998 2.71206 15.8599 2.71142 17.0193 2.7127C17.4301 2.71334 17.7037 2.96704 17.7067 3.34058C17.7098 3.7275 17.4313 3.9863 17.0047 3.98757C16.4199 3.98949 15.835 3.98821 15.2501 3.98821C15.2507 3.98758 15.2507 3.98758 15.2507 3.98694Z" fill="#00741E"/>
<path d="M15.2489 11.633C14.6743 11.633 14.0992 11.6349 13.5246 11.6324C13.123 11.6305 12.8511 11.3653 12.8554 10.986C12.859 10.6195 13.1248 10.3613 13.5119 10.3601C14.6816 10.3569 15.8514 10.3569 17.0211 10.3588C17.4288 10.3594 17.7018 10.6144 17.7073 10.9899C17.7128 11.3647 17.4385 11.6305 17.0345 11.633C16.4393 11.6362 15.8447 11.6337 15.2495 11.6337C15.2489 11.6337 15.2489 11.6337 15.2489 11.633Z" fill="#00741E"/>
<path d="M15.2769 19.2804C14.7023 19.2804 14.1278 19.2824 13.5526 19.2798C13.1248 19.2779 12.8488 19.0178 12.8555 18.629C12.8621 18.2542 13.1327 18.0062 13.5465 18.0056C14.706 18.0037 15.8654 18.0043 17.0248 18.0068C17.4344 18.0075 17.7043 18.2618 17.7056 18.6398C17.7074 19.0197 17.4386 19.2773 17.0309 19.2785C16.446 19.2811 15.8611 19.2792 15.2763 19.2792C15.2769 19.2792 15.2769 19.2798 15.2769 19.2804Z" fill="#00741E"/>
<path d="M14.6434 7.80966C14.2703 7.80966 13.8978 7.81157 13.5246 7.80902C13.1205 7.80647 12.8506 7.54385 12.8554 7.16457C12.8597 6.79677 13.1236 6.53861 13.5101 6.53733C14.2757 6.53415 15.042 6.53351 15.8077 6.53606C16.216 6.53733 16.4903 6.79231 16.4945 7.16521C16.4987 7.55086 16.2209 7.80838 15.7925 7.81093C15.4097 7.81285 15.0269 7.81157 14.644 7.81157C14.6434 7.81093 14.6434 7.8103 14.6434 7.80966Z" fill="#00741E"/>
<path d="M14.6749 15.4564C14.2921 15.4564 13.9092 15.4589 13.5264 15.4557C13.1254 15.4526 12.8529 15.1874 12.8554 14.8107C12.8578 14.4448 13.1229 14.1847 13.51 14.1828C14.286 14.179 15.062 14.1802 15.8374 14.1834C16.2196 14.1853 16.4866 14.446 16.4932 14.8113C16.4999 15.1893 16.2293 15.4519 15.824 15.4557C15.4412 15.4589 15.0577 15.4564 14.6749 15.4564Z" fill="#00741E"/>
<path d="M10.4284 25.8785C10.4084 27.2465 9.49527 28.4563 8.18779 28.8471C6.61397 29.3169 4.9461 28.3333 4.485 26.6632C4.02329 24.9874 4.9461 23.2032 6.53752 22.7277C6.74502 22.6658 6.79538 22.583 6.79538 22.3669C6.78931 16.5917 6.79052 10.8159 6.79052 5.04067C6.79052 4.89151 6.78446 4.74235 6.79356 4.59447C6.8154 4.24005 7.08357 3.98061 7.40998 3.98826C7.72426 3.99527 7.98212 4.24897 8.00032 4.59C8.01306 4.83351 8.00456 5.07828 8.00456 5.32242V13.5396C8.00456 16.4808 8.00699 19.4213 7.9991 22.3624C7.9985 22.5804 8.05432 22.662 8.25453 22.7264C9.60144 23.1592 10.4496 24.4009 10.4284 25.8785Z" fill="#00741E"/>
<path d="M10.4284 25.8785C10.4084 27.2465 9.49527 28.4563 8.18779 28.8471C6.61397 29.3169 4.9461 28.3333 4.485 26.6632C4.02329 24.9874 4.9461 23.2032 6.53752 22.7277C6.74502 22.6658 6.79538 22.583 6.79538 22.3669C6.78931 16.5917 6.79052 10.8159 6.79052 5.04067C6.79052 4.89151 6.78446 4.74235 6.79356 4.59447C6.8154 4.24005 7.08357 3.98061 7.40998 3.98826C7.72426 3.99527 7.98212 4.24897 8.00032 4.59C8.01306 4.83351 8.00456 5.07828 8.00456 5.32242V13.5396C8.00456 16.4808 8.00699 19.4213 7.9991 22.3624C7.9985 22.5804 8.05432 22.662 8.25453 22.7264C9.60144 23.1592 10.4496 24.4009 10.4284 25.8785Z" fill="#00741E"/>
</svg>
